<?xml version="1.0" encoding="utf-8"?>
<!-- Generator: Adobe Illustrator 16.0.0, SVG Export Plug-In . SVG Version: 6.00 Build 0)  -->
<!DOCTYPE svg PUBLIC "-//W3C//DTD SVG 1.0//EN" "http://www.w3.org/TR/2001/REC-SVG-20010904/DTD/svg10.dtd">
<svg version="1.0" id="Layer_1" xmlns="http://www.w3.org/2000/svg" xmlns:xlink="http://www.w3.org/1999/xlink" x="0px" y="0px"
	 width="100px" height="100px" viewBox="0 0 100 100" enable-background="new 0 0 100 100" xml:space="preserve">
<path d="M90,66.666c0-1.843-1.491-3.334-3.333-3.334H13.333c-1.843,0-3.333,1.491-3.333,3.334c0,7.363,5.97,13.333,13.333,13.333
	h53.333C84.03,79.999,90,74.029,90,66.666z"/>
<rect x="16.667" y="49.999" width="66.667" height="6.667"/>
<path d="M73.333,23.146v6.849h-6.666v-8.467c-2.129-0.407-4.355-0.736-6.667-0.983v9.45h-6.667V20.07
	c-1.1-0.039-2.207-0.071-3.333-0.071s-2.233,0.032-3.333,0.071v9.925H40v-9.45c-2.31,0.247-4.538,0.576-6.667,0.983v8.467h-6.667
	v-6.849C16.587,26.174,10,31.093,10,36.666c0,3.682,2.985,6.667,6.667,6.667h66.667c3.682,0,6.667-2.985,6.667-6.667
	C90,31.093,83.411,26.174,73.333,23.146z"/>
</svg>
