<svg xmlns="http://www.w3.org/2000/svg" xmlns:xlink="http://www.w3.org/1999/xlink" viewBox="0 0 170.51 149.98"><defs><style>.cls-1{isolation:isolate;}.cls-2{fill:url(#linear-gradient);}.cls-12,.cls-18,.cls-29,.cls-3,.cls-7,.cls-8{fill:#55693c;}.cls-3{opacity:0.2;}.cls-12,.cls-18,.cls-21,.cls-28,.cls-3,.cls-7,.cls-8{mix-blend-mode:multiply;}.cls-11,.cls-13,.cls-20,.cls-4,.cls-6{fill:#d0e4a8;}.cls-10,.cls-12,.cls-23,.cls-28,.cls-4{opacity:0.3;}.cls-5{fill:url(#linear-gradient-2);}.cls-29,.cls-6{opacity:0.7;}.cls-7{opacity:0.1;}.cls-20,.cls-21,.cls-8{opacity:0.4;}.cls-9{fill:url(#linear-gradient-3);}.cls-13,.cls-18,.cls-26{opacity:0.5;}.cls-14{fill:#97c054;}.cls-15{fill:#6f9749;}.cls-16{fill:url(#linear-gradient-4);}.cls-17{fill:url(#linear-gradient-5);}.cls-19{fill:url(#linear-gradient-6);}.cls-21{fill:#556a3c;}.cls-22{fill:#a6c157;}.cls-23,.cls-26{fill:#dfe4be;}.cls-24{fill:url(#linear-gradient-7);}.cls-25{fill:url(#linear-gradient-8);}.cls-27{fill:url(#linear-gradient-9);}</style><linearGradient id="linear-gradient" x1="49.2" y1="26.58" x2="104.47" y2="26.58" gradientUnits="userSpaceOnUse"><stop offset="0.12" stop-color="#9bcb59"/><stop offset="0.79" stop-color="#c7d372"/></linearGradient><linearGradient id="linear-gradient-2" x1="97.01" y1="-2.81" x2="128.63" y2="56.54" gradientUnits="userSpaceOnUse"><stop offset="0" stop-color="#9ec251"/><stop offset="0.26" stop-color="#9bc050"/><stop offset="0.46" stop-color="#91b84e"/><stop offset="0.63" stop-color="#81aa4a"/><stop offset="0.8" stop-color="#6a9844"/><stop offset="0.94" stop-color="#4f823d"/></linearGradient><linearGradient id="linear-gradient-3" x1="138.92" y1="-6.5" x2="234.92" y2="22.36" gradientTransform="translate(-102.9 54.49) rotate(-1.5)" gradientUnits="userSpaceOnUse"><stop offset="0" stop-color="#9bcb59"/><stop offset="1" stop-color="#4f823d"/></linearGradient><linearGradient id="linear-gradient-4" x1="1.61" y1="67.64" x2="71.03" y2="67.64" xlink:href="#linear-gradient"/><linearGradient id="linear-gradient-5" x1="45.14" y1="27.39" x2="74.52" y2="95.15" xlink:href="#linear-gradient-2"/><linearGradient id="linear-gradient-6" x1="0" y1="94.22" x2="85.9" y2="94.22" gradientTransform="matrix(1, 0, 0, 1, 0, 0)" xlink:href="#linear-gradient-3"/><linearGradient id="linear-gradient-7" x1="117.98" y1="112.55" x2="146.41" y2="30.76" xlink:href="#linear-gradient-2"/><linearGradient id="linear-gradient-8" x1="82.01" y1="132.83" x2="109.31" y2="71.18" xlink:href="#linear-gradient"/><linearGradient id="linear-gradient-9" x1="91.21" y1="50.91" x2="157.7" y2="141.17" gradientTransform="matrix(1, 0, 0, 1, 0, 0)" xlink:href="#linear-gradient-3"/></defs><title>Asset 22</title><g class="cls-1"><g id="Layer_2" data-name="Layer 2"><g id="Layer_1-2" data-name="Layer 1"><path class="cls-2" d="M103.07,9.11C99.74.42,89.76.74,82.18,2.57,71.85,5.05,62.74,10,56.25,18.55c-5,6.55-8.94,16.21-6.1,24.39,3.05,8.79,12.71,9.41,20.66,8.26a41.46,41.46,0,0,0,25.3-13.6C102.69,30.16,106.78,18.83,103.07,9.11Z"/><path class="cls-3" d="M97.61,31.39A26.46,26.46,0,0,1,95.31,19c.21-4.32,1.21-8.59,1.29-12.92,0-1.14,0-2.35-.09-3.56a17.51,17.51,0,0,0-5.56-1,52.8,52.8,0,0,1-.84,6c-.69,4.34-1.7,8.6-1.88,13A30.91,30.91,0,0,0,90.5,32.81a19.89,19.89,0,0,0,3.85,6.65c.6-.6,1.19-1.22,1.76-1.86A34.74,34.74,0,0,0,98.9,34C98.36,32.83,97.83,31.86,97.61,31.39Z"/><path class="cls-4" d="M97.9,31.25c-.57-5.36-4-10-7.65-13.85a29.74,29.74,0,0,0-6.63-5.29,12.68,12.68,0,0,0-5.94-2,16.06,16.06,0,0,0,1.11-2.46,15.33,15.33,0,0,0,.74-4.33c-.91.26-1.8.54-2.68.84a11.31,11.31,0,0,1-1.09,4.53c-1.88,3.8-5.67,6.38-8.85,9-3,2.47-6.07,5.46-6.91,9.4a9,9,0,0,0,.47,4.62c.54,1.66,1.25,3.89,2.52,5.1a.32.32,0,0,0,.53-.14c.28-1.68-.59-3.28-1.11-4.85a8,8,0,0,1,.38-6.56C64.73,21.46,68.84,19,72,16.43c3.84-3.08,5.4-5.41,10.62-2.68A27.73,27.73,0,0,1,89,18.63a32.81,32.81,0,0,1,8.21,12.71C97.35,31.68,97.94,31.64,97.9,31.25Z"/><path class="cls-5" d="M139,39a42.31,42.31,0,0,0-7.45-21.51C122.87,5.29,108,.16,93.53,0a.8.8,0,0,0-.8.79c.75,7.33-1.76,14.48-1.4,21.81C91.8,31.76,96.47,40,102,47.05c4.56,5.77,11.86,10.62,12.63,18.5.48,4.88-3.4,11.08,2.73,9.25C137.45,68.82,139.78,50.62,139,39Z"/><path class="cls-6" d="M92.73.79c.75,7.33-1.76,14.48-1.4,21.81a38.61,38.61,0,0,0,5.4,16.82,8.51,8.51,0,0,0-1.08-4.66A30.69,30.69,0,0,1,93.41,29c-1-3.65-.72-7.56-.22-11.27.75-5.59,2.26-12.24.37-17.76h0A.8.8,0,0,0,92.73.79Z"/><path class="cls-4" d="M136.14,37.34a31.15,31.15,0,0,0-5.5-16.07A39.44,39.44,0,0,0,118.38,9.82a38.71,38.71,0,0,0-7.32-3.42,40.55,40.55,0,0,0-8.21-1.47c-.38,0-.46.58-.09.66a38.61,38.61,0,0,1,6.83,2.65,47.57,47.57,0,0,1,6.81,3.68,43.34,43.34,0,0,1,6.32,5c-.51.09-1,.21-1.53.3a29.92,29.92,0,0,1-5.75.35c-3.82-.12-7.1-1.65-10.44-3.33a.34.34,0,0,0-.41.52,16.56,16.56,0,0,0,9.91,4.89,26.61,26.61,0,0,0,5.64.19,13.88,13.88,0,0,0,4.66-.76,37.31,37.31,0,0,1,3,3.84,28.3,28.3,0,0,1,4.72,12.81,15.55,15.55,0,0,0-8.26-4.2,34.92,34.92,0,0,0-5.5-.6c-.3-1.45-1.81-2.77-2.78-3.75a10.26,10.26,0,0,0-4.27-2.62c-.4-.14-.57.5-.17.63a7,7,0,0,1,1.9,1.5c.62.56,1.19,1.19,1.75,1.8s1.15,1.6,1.77,2.35a34.56,34.56,0,0,1-5.83-.64c-4.53-1-7.72-4-10.57-7.48-.17-.21-.53.07-.37.29,1.89,2.71,3.35,5.26,6.22,7.05,3.38,2.11,7.32,2.57,11.19,2.94s7.53.78,10.89,2.8A10.5,10.5,0,0,1,131.81,39a9.58,9.58,0,0,1,1,2,45.49,45.49,0,0,1-.74,6.69c-.55,3-1.58,5.85-1.91,8.86-.16,1.37,1.9,1.79,2.51.68C135.79,51.55,136.46,43.73,136.14,37.34Z"/><path class="cls-7" d="M130.61,67c4.7-8.89,9.08-17.64,8.34-28a42.31,42.31,0,0,0-7.45-21.51,38.8,38.8,0,0,0-16.22-13,56.47,56.47,0,0,1,3.88,6,24.65,24.65,0,0,1,3,16.26c-1.07,5.81-5.41,8.75-11.21,7.83-8-1.25-15.47-7.27-19.59-14.08a.24.24,0,0,0-.1-.1c0,.71,0,1.43,0,2.15.53,10.48,7,21,14.15,28.43,6.66,6.91,16.42,9.42,23.35,16.17A1.14,1.14,0,0,0,130.61,67Z"/><path class="cls-8" d="M132.54,55.11a20.48,20.48,0,0,0-6.72-10.84c-4.42-3.46-9.41-3.9-14.72-5-5.5-1.16-9.46-4-13.55-7.74s-8.63-7.4-14.08-9a22.23,22.23,0,0,0-13.16.59c-7.39,2.51-17.46,9.84-15.06,18.76a1,1,0,0,0,1.75.23c1-1.49,2.07-2.83,3-4.41a20.79,20.79,0,0,1,3.67-4.47,18.78,18.78,0,0,1,9.8-4.65c8.81-1.44,14.77,5.81,20.73,11,.57-.56,1.12-1.14,1.66-1.73a56.4,56.4,0,0,0,3.29,5.43,31.22,31.22,0,0,0,9.07,3.82c4.14,1,8.48,1,12.13,3.43,2.28,1.54,3.47,4.47,4.23,7.3.5,1.86.56,4.33,1,6.6a32.81,32.81,0,0,1,3.26,2.76,1.14,1.14,0,0,0,1.78-.23c1.06-2,2.1-4,3.07-6A44.77,44.77,0,0,0,132.54,55.11Z"/><path class="cls-9" d="M127.34,49.72c-6.5-8.51-16.15-6.85-25.19-9.4-8.73-2.46-13.37-8.27-20.75-13.11a20.58,20.58,0,0,0-16.85-3C39.65,31.12,44.91,61,59.43,75.37c11.18,11.06,27.63,15.38,43.14,13.47C132.5,85.15,133,57.15,127.34,49.72Z"/><g class="cls-10"><path class="cls-11" d="M112.78,48.77c4.44,3.74,8.72,8.24,8.46,14.43a13.24,13.24,0,0,1-1.87,6.25c-1.65,2.73-4.53,3.49-6.71,5.54-.56.53-.17,1.72.67,1.62,3-.36,5.61-3,7.24-5.36a14.06,14.06,0,0,0,2.12-7.2c.42-7.14-3.92-11.81-9.21-16-.49-.39-1.2.29-.7.7Z"/></g><path class="cls-4" d="M100.48,58.93a29.88,29.88,0,0,0-7.15-7.64l-.63-.46a19.62,19.62,0,0,0-1.64-6.74,15.53,15.53,0,0,0-4.58-6.63c-.35-.29-.82.17-.5.5a18.53,18.53,0,0,1,3.83,7.14,31.5,31.5,0,0,1,.91,4.42c-2.55-1.56-5.23-2.81-7.9-4.23A19.31,19.31,0,0,1,74.18,36c-.16-.34-.68-.09-.59.26A16.85,16.85,0,0,0,79,45.11c3,2.66,6.87,4.24,10.2,6.5a31.93,31.93,0,0,1,5,4.18c-1.4.38-2.78.86-4.2,1.19a30.55,30.55,0,0,1-6.19.42c-.32,0-.5.49-.17.64,3.57,1.61,8.35.67,11.79-.89a26.48,26.48,0,0,1,1.84,2.38,35,35,0,0,1,2.78,5c.9,1.89,1.44,3.94,2.67,5.67a1.05,1.05,0,0,0,2-.53C104.7,65.91,102.45,62,100.48,58.93Z"/><path class="cls-3" d="M102.57,88.84C132.5,85.15,133,57.15,127.34,49.72c-6.5-8.51-16.15-6.85-25.19-9.4a28.7,28.7,0,0,1-7.29-3.22c.66,4.79-2.6,9.91-6.49,12.81C81,55.38,72.57,58.51,69.86,69.3c-1.15,4.61-.36,9.64,1.53,14.54A55.63,55.63,0,0,0,102.57,88.84Z"/><path class="cls-12" d="M131.5,17.49A38.6,38.6,0,0,0,116,4.8h0l-.31-.14c2.67,4.47,4.82,9.24,5.2,14.48C121.36,26.29,119.21,33,114,38c-8.31,7.8-21.91,10.72-32.6,6.57-11.05-4.3-22-14.8-33-5l-.29.26c-3.18,11.68,2.27,26.64,11.31,35.59,11.18,11.06,27.63,15.38,43.14,13.47,16.19-2,23.77-11.1,26.43-20.22,9.39-8.18,10.58-20.8,9.95-29.62A42.31,42.31,0,0,0,131.5,17.49Z"/><path class="cls-6" d="M52.17,32.81c4.09-3.16,8.47-5.86,13.61-7,7.44-1.7,13.22,2.43,18.91,6.59,6,4.41,13.87,9.91,21.44,11,5.14.71,10.15.33,15,1.25-5.88-3.79-13.2-3.19-20.16-5.15-8.45-2.38-13-8-20.12-12.71a20,20,0,0,0-16.33-2.87A23.88,23.88,0,0,0,52.17,32.81Z"/><path class="cls-13" d="M88,12.06c-.18-2.91-1.39-5.73-7.68-5.73-8.11,0-23.32,9.9-16.91,14.74,2.65,2,14.2-1.58,17.3-2.55C85.56,17,88.15,15.11,88,12.06Z"/><path class="cls-4" d="M81.64,83.26A31.31,31.31,0,0,1,66,76.53,39.57,39.57,0,0,1,55.58,63.41a38.34,38.34,0,0,1-2.84-7.57,39.34,39.34,0,0,1-.82-8.3c0-.37.61-.41.66,0a37.56,37.56,0,0,0,2.11,7,47.53,47.53,0,0,0,3.14,7.08,43.29,43.29,0,0,0,4.48,6.68c.13-.49.29-1,.41-1.49a29.75,29.75,0,0,0,.8-5.71c.18-3.81-1.08-7.21-2.51-10.67a.34.34,0,0,1,.56-.36,16.55,16.55,0,0,1,4.1,10.25,26,26,0,0,1-.25,5.64,13.56,13.56,0,0,1-1.12,4.59,36.49,36.49,0,0,0,3.6,3.32,28.37,28.37,0,0,0,12.39,5.7A15.63,15.63,0,0,1,76.75,71a35.18,35.18,0,0,1-.17-5.53c-1.42-.41-2.62-2-3.52-3.06a10.41,10.41,0,0,1-2.28-4.47c-.11-.41.54-.53.64-.12a6.9,6.9,0,0,0,1.35,2,24.93,24.93,0,0,0,1.66,1.89c.65.69,1.5,1.27,2.2,1.95a36,36,0,0,0-.18-5.87c-.62-4.58-3.43-8-6.63-11.11-.2-.19.1-.53.31-.35,2.55,2.1,5,3.74,6.55,6.75,1.84,3.53,2,7.49,2,11.39s.2,7.56,2,11.07a10.47,10.47,0,0,0,2.95,3.53,9.6,9.6,0,0,0,1.94,1.12A45.89,45.89,0,0,0,92.3,80c3-.31,6-1.11,9-1.21,1.38,0,1.64,2,.48,2.56C95.83,84,88,84.07,81.64,83.26Z"/><path class="cls-14" d="M72.29,105a.81.81,0,0,0-.79.48,6.41,6.41,0,0,0-1.92,1.36c-1.37,1.16-2.68,2.4-4,3.58-2.31,2-6,5.64-9.38,5a.78.78,0,0,0-.64.16c-.34-.1-.76.18-.56.59a76.93,76.93,0,0,1,3.6,9.06c.14.44.61.51,1,.44,5.8-1,14.77-6,19.66-11a1,1,0,0,0,.21-1.35c-1.18-1.79-2.37-3.56-3.67-5.26C75,107,73.73,105,72.29,105Z"/><path class="cls-15" d="M75.77,108c-.78-1-2-3-3.48-3.06a.81.81,0,0,0-.79.48,6.41,6.41,0,0,0-1.92,1.36c-1.37,1.16-2.68,2.4-4,3.58-2.31,2-6,5.64-9.38,5a.78.78,0,0,0-.64.16.44.44,0,0,0-.16,0l-.27.16a2.93,2.93,0,0,1-.08.57c.64,1.35,1.23,2.72,1.79,4.1,3-.69,6.88-2,8.84-2.21a4.56,4.56,0,0,1,2.25.31,8.16,8.16,0,0,1,3,2.49,41,41,0,0,0,8.29-6.36,1,1,0,0,0,.21-1.35C78.26,111.48,77.07,109.71,75.77,108Z"/><path class="cls-16" d="M62.32,46.41a23.35,23.35,0,0,0-14.56-9.74c-6.67-1.3-14,.12-20.36,2.41s-11.31,6.6-15.33,12C8.4,56,2.92,63.55,3.76,70.28a3.58,3.58,0,0,0-2.14,3.31C1.3,84.87,14.07,90.46,22.81,94.11c11.27,4.71,24.59,7.41,36.1,2C77.24,87.43,71.73,59.59,62.32,46.41Z"/><path class="cls-13" d="M45.35,75.71c-2.06-3.12-4.67-5.82-6.7-8.95-2.56-3.94-3-9.07-4-13.56a53,53,0,0,0-4.37-12.56c-.29-.57-.64-1.34-1.05-2.18-.61.2-1.22.4-1.81.62s-1,.38-1.48.59a10.86,10.86,0,0,1,.29,5.6c-.74,3.52-2.73,6.7-4.56,9.74-3.45,5.76-7.18,11.63-5.54,18.63.12.48.94.39.88-.12-.84-7.32,4.9-13.92,8.36-19.84A29.17,29.17,0,0,0,28.83,45a73.68,73.68,0,0,1,3.71,12.11c1,3.9,1.82,7.82,4.33,11.07,2.31,3,5.33,5.26,7.75,8.14C45,76.67,45.63,76.14,45.35,75.71Z"/><path class="cls-3" d="M50.11,37.27a21.83,21.83,0,0,0-2.35-.6c-.75-.15-1.52-.25-2.29-.33a34.71,34.71,0,0,0-4.95,8.33A51.46,51.46,0,0,0,36.74,63.5,67.21,67.21,0,0,0,39,83.06,41.29,41.29,0,0,0,43.6,93.22a44.69,44.69,0,0,0,4,5.78A33.9,33.9,0,0,0,54,97.92c-1.22-2.58-3.18-4.82-4.69-7.2a38.94,38.94,0,0,1-4.12-8.61c-1.81-5.48-2.38-11.61-2.57-17.36a51.67,51.67,0,0,1,2.12-17A37.49,37.49,0,0,1,50.11,37.27Z"/><path class="cls-17" d="M50.33,35.34a1.87,1.87,0,0,0-1.62.92c-12.25,17.21-11,41.81.13,59.13a2.92,2.92,0,0,0,1.6,3.16c7,3.84,27.18,8.71,33.3,1.53s5.75-17.74,5.65-25.56C89.12,54.07,69,37.34,50.33,35.34Z"/><path class="cls-18" d="M84.91,98.54a26.29,26.29,0,0,0,4.14-12,11,11,0,0,0-4.41-4.33C74.72,77.13,65,85.58,55.31,86.17c-6.94.42-12.87-2.66-18.41-6.48-6-4.1-11.2-9.24-17.94-12.08A26.49,26.49,0,0,0,8.65,65.45,18.56,18.56,0,0,0,4,66s0,.06,0,.1A15.75,15.75,0,0,0,3.71,68c0,.29,0,.58,0,.86h0v.3c0,.11,0,.22,0,.34a1.77,1.77,0,0,1,0,.23l.06.55.49-.12a16.82,16.82,0,0,1,5.92-.21,26.76,26.76,0,0,1,10.66,4.45C27,78.33,32,83.8,38.32,87.56c7.19,4.28,13.27,3.69,21.15,4.14,7.23.42,12.94,9.41,19.42,12.18a13,13,0,0,0,2.47.79A20.63,20.63,0,0,0,84.91,98.54Z"/><path class="cls-4" d="M49.91,35.37a31.8,31.8,0,0,1,5,5c4.68,6.06-.94,7-4.32,11.6C48,55.44,47,59.5,46.27,63.71a.45.45,0,0,0,.87.24A43.42,43.42,0,0,1,51.92,54c1-1.44,4.23-5.57,6.12-5.61,3.22-.07,2.66,7,3,9.34s1.1,5.52.23,7.68-3.21,3-4.47,4.84A14.74,14.74,0,0,0,54.19,77c-.12.69.26,1.18.53.54.82-1.89,3.29-6,5.08-7.47,3.2-2.54,1.54,1.57,1.22,6A50.14,50.14,0,0,0,61.9,87c.52,2.82,1.51,3.83,2.37,6.52a.51.51,0,0,0,1-.27,62.09,62.09,0,0,1-2-8.59c-.7-7,1.16-14.07.82-21.11-.12-2.57-.15-5.07-.38-7.63-.1-1.13-.4-4,1.59-2.6,3.08,2.09,6.27,5.61,7.81,16.07a.45.45,0,0,0,.89,0c.55-2.65.11-8.15-3.14-12.9-2.27-3.33-5.78-6.26-7.58-8.71-7.83-10.64-10-12-12.63-12.35l-.33,0a.81.81,0,0,0-.22,0A.69.69,0,0,0,49.91,35.37Z"/><path class="cls-19" d="M85.89,93.23c.07-3.81-2.1-7-8.16-8-4.26-.68-8.31.24-12.34,1.62-5.29,1.81-10,3.65-15.74,3.23-9.88-.75-15.51-8.5-22.57-14.31A35.17,35.17,0,0,0,15,68.93,23.85,23.85,0,0,0,8.16,68a11.66,11.66,0,0,0-5.88,1.46c-.44.17-.74.25-.86.61C-2.84,82.26,3,100.39,12.51,108.67c11.15,9.69,21.28,12,34.34,11.74S85.62,109.86,85.89,93.23Z"/><path class="cls-4" d="M76.62,98.15c-3.48,2-3.94,4.26-7.24,6.52a84.33,84.33,0,0,1-8,5.06,18.56,18.56,0,0,0-4.24-5.18c-2.81-2-6.08-3.66-7.37-7.09a.39.39,0,0,0-.75.21,12.51,12.51,0,0,0,4.64,7.15c2,1.67,5.63,5.25,4.09,6.35-7.76,5.54-26.23-1.25-27.3-1.65a45.58,45.58,0,0,0,.53-7.44,20.2,20.2,0,0,0-1.39-7.46c-2.28-5-6.59-8.39-10-12.57-.34-.41-1,.12-.73.56,2.61,3.79,5.86,7.17,8.11,11.2a17.85,17.85,0,0,1,1.86,7.54c.23,3.18.1,7-4.1,5.52a16.74,16.74,0,0,1-6-4.18c-2.65-2.61-5-6.54-7.08-9.64A41,41,0,0,1,5.89,80.3c-.12-.46-.77-.26-.69.19a42.54,42.54,0,0,0,1.63,6.68,44.53,44.53,0,0,0,2.34,5.61c2,3.2-2.82,1.08-4.59.31a23.58,23.58,0,0,1-2.47-1.22c.29.88.6,1.75.94,2.61C5.44,96,9,97.71,11.71,97.71a1.3,1.3,0,0,0,.4-.09,37.9,37.9,0,0,0,19.51,14.87c1.6.56,7.67,1.54,7.33,3.72-.2,1.26-3.22,2.71-4.46,3.41,1.1.19,2.22.34,3.36.47,2.06-1.23,4.11-2.84,4.81-4.77a48.57,48.57,0,0,0,13.08-.6c8.6-1.55,17.11-7.77,22.54-14.43A1.37,1.37,0,0,0,76.62,98.15Z"/><path class="cls-7" d="M85.89,93.23c.07-3.81-2.1-7-8.16-8-4.26-.68-8.31.24-12.34,1.62-5.29,1.81-10,3.65-15.74,3.23C43,89.56,38.3,85.9,33.78,81.79c.73,1,1.49,2.09,2.27,3.11,4.39,5.69,13.44,13.69,11.07,21.8-3.06,10.45-17.79,8.93-26.2,8,8.11,4.64,16.21,5.88,25.93,5.68C60.05,120.14,85.62,109.86,85.89,93.23Z"/><path class="cls-3" d="M46.85,120.41c11.73-.24,33.23-8.38,38.06-21.87,5-7.15,4.57-16.73,4.48-24C89.12,54.07,69,37.34,50.33,35.34a1.87,1.87,0,0,0-1.62.92l-.37.54-.58-.13a27.83,27.83,0,0,0-4.2-.47,21.18,21.18,0,0,1,3.36,2.87A51,51,0,0,1,55.17,50.8c4.4,8.76,5.35,18.61,1.5,27.78C49.15,96.46,27.88,105,8.92,104.88q.84,1.07,1.74,2h0c.28.3.56.58.84.86l.08.07c.31.3.61.58.93.85,9.37,8.15,19,9.94,30,11.73C43.91,120.44,45.36,120.44,46.85,120.41Z"/><path class="cls-18" d="M89.39,74.52a33.47,33.47,0,0,0-3.37-14C65.89,59.62,55.18,85,57.81,106.35a56.29,56.29,0,0,0,2.56,11.44h0c10.35-3.43,21.27-10.12,24.54-19.25C89.87,91.39,89.48,81.81,89.39,74.52Z"/><path class="cls-20" d="M33.72,59c2.22-5.3,2.4-11.63-1.45-13.62S24.44,44.25,21.08,47c-8.75,7.06-7.9,17.44,3,20C28,67.83,31.71,63.85,33.72,59Z"/><path class="cls-13" d="M25,84.1a12.5,12.5,0,0,0-3.08-5.24,16.16,16.16,0,0,0-2.63-2,11.59,11.59,0,0,0-4.56-2.43,12.21,12.21,0,0,0-4.27-.16l-.15,0-.39,0-.41.06a7.8,7.8,0,0,0-3.49,2,11.17,11.17,0,0,0-2.51,4.37A13.22,13.22,0,0,0,3.65,87c1.53,4.13,4.15,8.68,9,9.47,3.66.59,7.05.16,9.79-2.59A10,10,0,0,0,25,84.1Z"/><path class="cls-6" d="M48.39,36.74C39,50.29,37.84,68.26,43.18,83.67a1.39,1.39,0,0,0,1.6-1.34c-.06-4.17-2-8.18-2.45-12.33a52.73,52.73,0,0,1,.22-13.4,34.26,34.26,0,0,1,3.74-10.7c1.18-2.36,3.65-6.11,2.62-8.83A.47.47,0,0,0,48.39,36.74Z"/><path class="cls-13" d="M55.62,89.72a24,24,0,0,1-6,.34c-9.88-.75-15.51-8.5-22.57-14.31A35.17,35.17,0,0,0,15,68.93,23.85,23.85,0,0,0,8.16,68a11.66,11.66,0,0,0-5.88,1.46c-.44.17-.74.25-.86.61A21.85,21.85,0,0,0,.64,72.9c1.27-.44,2.52-1,3.68-1.43a23.25,23.25,0,0,1,9.36-1.19c5.92.47,10.69,4.14,14.82,8.1,3.93,3.76,7.19,8.32,11.93,11.08C46.7,93.11,55.93,90.38,55.62,89.72Z"/><path class="cls-14" d="M111,138.53a.82.82,0,0,0-.87-.32,6.11,6.11,0,0,0-2.26-.67c-1.76-.36-3.54-.63-5.31-1-3-.58-8.14-1.23-9.77-4.25a.75.75,0,0,0-.51-.41.45.45,0,0,0-.82-.08,76,76,0,0,1-4.89,8.43.82.82,0,0,0,.28,1.07c4.36,3.95,13.82,7.91,20.83,8.63a1,1,0,0,0,1.19-.68c.68-2,1.34-4.06,1.87-6.13C111,141.92,111.81,139.69,111,138.53Z"/><path class="cls-21" d="M111.35,140c-1.06-2.27-4-1.65-5.13.11a19,19,0,0,0-1.57-1.08,47.1,47.1,0,0,0-7.82-3.55c-1.21-.48-2.38-1.07-3.54-1.65a22.41,22.41,0,0,1-2.2-1.36q-1.2,2.37-2.57,4.62c2.66,2.61,6.74,4.2,9.84,5.58,1.85.83,4.12,1.78,5.34,3.49a6.17,6.17,0,0,1,1,3.31c1,.21,2,.37,3,.47a1,1,0,0,0,1.19-.68c.68-2,1.34-4.06,1.87-6.13A14.17,14.17,0,0,0,111.35,140Z"/><path class="cls-22" d="M167.79,88.27C159,44.38,101,37.64,77.6,74,71.25,83.89,69,97.58,72.43,108.9A44.49,44.49,0,0,0,86.06,130c12,10,27.91,15.57,43.6,14.05C161,141,173.52,116.89,167.79,88.27Z"/><path class="cls-3" d="M135.05,52.5a52.11,52.11,0,0,0-8.86-1.7c-1.07.53-2.12,1.11-3.14,1.73a42.51,42.51,0,0,0-10.69,9.68c-1.49,1.84-2.85,3.79-4.18,5.75-.67,1-1.18,2.17-1.76,3.23s-.71,2.5-1.32,3.61c-.49.92.79,2,1.5,1.16A20.12,20.12,0,0,1,108.87,74a22.62,22.62,0,0,0,2.31-2.83c1.37-1.69,2.54-3.53,3.89-5.24a40,40,0,0,1,10.34-9.38A37,37,0,0,1,135.05,52.5Z"/><path class="cls-23" d="M130.07,58.78c-1-2.21-3.71-3.41-5.82-4.24a20,20,0,0,0-7.85-1.14c-5.44.14-10.33,2.08-14.92,4.87-.23.13-.08.54.18.44a43.24,43.24,0,0,1,14.14-3,21.3,21.3,0,0,1,7.26,1c2.28.73,3.9,2.45,6.05,3.34C129.89,60.34,130.32,59.36,130.07,58.78Z"/><path class="cls-24" d="M134.92,50.84c-7.67-.55-13.24,6.29-18.21,11.45-5.34,5.57-13.81,15.14-15,22.31-1,5.93,2.8,11.92,6.27,17.59,2.12,3.45,6.73,4,10.4,4.07,8.84.16,18.17-1.38,25.38-6.82S156.25,81.11,156.64,72C157,62.61,145.42,51.6,134.92,50.84Z"/><path class="cls-6" d="M129.37,53.37c.56-.49,0-1.59-.75-1.29l-.37.16c-4.45,2.19-8.13,6.51-11.54,10-4.1,4.28-10.06,10.93-13.12,17a1.89,1.89,0,0,0,3.08.44,68.42,68.42,0,0,0,4.87-7.4,86.33,86.33,0,0,1,5.12-7.17C120.38,60.57,125,57.29,129.37,53.37Z"/><path class="cls-18" d="M94.79,64.61a28.61,28.61,0,0,1,9.7,8.84,38.63,38.63,0,0,1,5.31,13.17c1.27,5.7-.12,11.38.09,17.11a3.17,3.17,0,0,0,6.22.86c3.79-12.42.45-27-7.27-37.12a32.4,32.4,0,0,0-13.12-9.91l-.59-.24a50.15,50.15,0,0,0-6.57,4.48A30.07,30.07,0,0,1,94.79,64.61Z"/><path class="cls-25" d="M115.06,92.79c1.67-13.32-7.15-24.33-18.38-32-4.62-3.17-7.38-1-11.81,2.57C76.65,70,69.4,82,68.31,92.15c-.82,7.64.71,15.5,3.43,22.63a39.87,39.87,0,0,0,12.37,16.61,60.8,60.8,0,0,0,9.1,6.07,38.17,38.17,0,0,0,8.27,3.66,1.65,1.65,0,0,0,1.82.75c21.86-4.89,11.3-29.57,11.41-44.56A38.54,38.54,0,0,1,115.06,92.79Z"/><path class="cls-26" d="M107.32,129c-4.71.07-8.06-5.25-10.33-8.73a67.71,67.71,0,0,1-7.06-13.59,45.26,45.26,0,0,1-2.12-16.88c.1-3,.11-6.13,1-9,1.94-6.17,5.56.58,7.36,3.85a30.47,30.47,0,0,1,3.49,16.06.31.31,0,0,0,.6.08,24.93,24.93,0,0,0-1.67-16,33.13,33.13,0,0,0-4.51-7.63C91,73.25,89.42,71.84,89,66.67A23.86,23.86,0,0,0,87.83,61h0c-.92.64-1.88,1.42-3,2.28a2.72,2.72,0,0,1,.13.37,24.26,24.26,0,0,1,.77,6.57c.08,7.75-1.57,10.93-7.56,15.3a35.43,35.43,0,0,0-7.33,7.19A35.88,35.88,0,0,0,68.1,97c0,1.52.13,3,.31,4.55h0a37.31,37.31,0,0,1,4.67-7.17c1.83-2.19,5.76-6.75,8.73-7,4.45-.4,3.31,13.28,4.2,16.66-.48,1.46-.58,3-1,4.47a19.9,19.9,0,0,1-2.26,4.4c-1.82,3-3.69,5.78-4.5,9.21a12.77,12.77,0,0,0-.37,3h0c.39.47.8.94,1.21,1.41l0,0c.42.47.85.93,1.29,1.37a14.25,14.25,0,0,1,1-8.13c1-2.19,3.46-8.23,6.37-8,3.13.22,7.23,9.8,9.19,12.19s6.93,8.16,10.46,5.33A.2.2,0,0,0,107.32,129Z"/><path class="cls-18" d="M150,58.32c0,.49,0,1,0,1.49q-.14,4.66-.64,9.32a45.47,45.47,0,0,1-3.9,15.17,14.77,14.77,0,0,1-7.63,7.4c-4.65,1.86-9.88,1.8-14.76,2.63a31,31,0,0,0-14.39,6.16c-4.43,3.47-7.32,8.5-9.4,13.62A44.28,44.28,0,0,0,96,130.54a45.84,45.84,0,0,0,1.41,9,.36.36,0,0,1,0,.1,26.17,26.17,0,0,0,4,1.49,1.65,1.65,0,0,0,1.82.75l.28-.07c.1-3.71-1.08-7.66-1.12-11.26a38.36,38.36,0,0,1,3.6-15.79,23.82,23.82,0,0,1,10.53-11.53c4.43-2.32,9.71-2.54,14.6-2.92s9.44-1.32,13.51-4A23.36,23.36,0,0,0,153,86.12a51.18,51.18,0,0,0,3.62-13c0-.37.05-.74.07-1.1C156.83,67.35,154.1,62.32,150,58.32Z"/><path class="cls-3" d="M114.71,97.31a38.54,38.54,0,0,1,.35-4.52c1.67-13.32-7.15-24.33-18.38-32-3.24-2.23-5.56-1.83-8.19-.16a42.47,42.47,0,0,1,3.37,4.68A45.65,45.65,0,0,1,97.75,78.1c1.47,5.73.12,11.38-1.83,16.81-2.22,6.2-5.42,11.93-7.35,18.25A60.34,60.34,0,0,0,86,132.82a64.22,64.22,0,0,0,7.26,4.64,38.17,38.17,0,0,0,8.27,3.66,1.65,1.65,0,0,0,1.82.75C125.16,137,114.6,112.3,114.71,97.31Z"/><path class="cls-27" d="M170.4,98.31C169.86,88,167.13,77.48,161.07,69a34.39,34.39,0,0,0-7.34-7.46c-.94-.72-1.95.46-1.78,1.37,2.67,14.6-2.42,36.47-20.52,34.73-8.44-.81-15.13-1-21.33,5.58-9.85,10.41-12.37,23.82-9.22,37.37.24,1,1.41,1.4,2.19,1.62a125,125,0,0,0,19.55,3.87,43.41,43.41,0,0,0,16.49-.93,44,44,0,0,0,24.47-17.54C169.62,118.94,170.94,108.62,170.4,98.31Z"/><path class="cls-4" d="M166.3,94.8a56.64,56.64,0,0,0-1.68-12.33,4.58,4.58,0,0,0-.39-1.46,43.89,43.89,0,0,0-7-14.69,26,26,0,0,0-4.69-4.8,1.48,1.48,0,0,0-.58,1.39,39.9,39.9,0,0,1,.55,4.52,24,24,0,0,1,3.41,4.45c3.67,6.18,6.77,13.83.64,19.18-3.32,2.89-7.46,4.82-11.3,6.87s-7.53,4.14-10.41,7.28-3.67,7-3.18,11.24c.06.59,1,.61.94,0-.87-9.58,9.62-13.87,16.67-17.38,2.67-1.33,8.14-6.52,11.22-5.11,5,2.27.95,13.26-.58,16.54-3,6.56-8.47,6.29-14.88,5.44a.53.53,0,0,0-.4,1A15.83,15.83,0,0,0,154.72,119c.36,0,.73-.09,1.11-.16-6.33,9.8-21.16,17.91-32,11a19.31,19.31,0,0,1-7.8-9.27,11.37,11.37,0,0,1-.59-5.42c.28-2.09,1.49-3.65,2.07-5.6a.43.43,0,0,0-.62-.48c-3.61,2.07-4,7.77-3.12,11.33,1.08,4.58,4.41,8.38,8.05,11.18a23.44,23.44,0,0,0,8.5,4.13c-1.08.19-2.17.35-3.26.47a44.6,44.6,0,0,1-7,.16,39.87,39.87,0,0,1-8.53-.92.45.45,0,0,0-.24.86c2.47.67,4.73,1.66,7.27,2.1A44.6,44.6,0,0,0,126,139a39.31,39.31,0,0,0,13.37-2.32C157.6,130.2,166.74,113.5,166.3,94.8Z"/><path class="cls-4" d="M143.7,63.27a13,13,0,0,0-1.6-3.75,11.59,11.59,0,0,0,.37-6.53,22.65,22.65,0,0,0-4.35-1.61c.53,2,1.15,3.78.84,5.95a16.33,16.33,0,0,1-2.12,5.5c-1.81,3.23-4.34,5.93-6.65,8.79-1.73-.65-4.23.06-5.84.54a11.45,11.45,0,0,0-5.43,4.13c-.3.37.2.89.53.53a10,10,0,0,1,6.4-3,19.66,19.66,0,0,1,2.66,0,22.24,22.24,0,0,0-3.64,8.37c-.76,3.76-.05,7.17.27,10.89,0,.58.94.6.94,0a43,43,0,0,1,1.55-11.39c1.21-4.18,4.16-7.29,7-10.47a41.42,41.42,0,0,0,6.31-8.9,10.94,10.94,0,0,1,.76,1.48A20.4,20.4,0,0,1,143,70a28.39,28.39,0,0,1-2.29,12.7c-.21.47.47.9.7.41A29.7,29.7,0,0,0,144.7,70,22.84,22.84,0,0,0,143.7,63.27Z"/><path class="cls-3" d="M161.07,69a34.39,34.39,0,0,0-7.34-7.46c-.94-.72-1.95.46-1.78,1.37a40.41,40.41,0,0,1,.54,4.25c2.83,6.34,4.86,13,5,19.83a43.58,43.58,0,0,1-9.23,27.23,40,40,0,0,1-11,9.74,39.29,39.29,0,0,1-9.53,4.14c-1.81.56-3.65,1-5.51,1.4a45.83,45.83,0,0,1-5.58.79,28.49,28.49,0,0,1-10.65-.84,11,11,0,0,1-6.1-4.4,45.66,45.66,0,0,0,1,15.54c.24,1,1.41,1.4,2.19,1.62a125,125,0,0,0,19.55,3.87,43.41,43.41,0,0,0,16.49-.93,44,44,0,0,0,24.47-17.54c6-8.67,7.36-19,6.82-29.3S167.13,77.48,161.07,69Z"/><path class="cls-6" d="M147.57,92.29c4.8-5.73,7.58-14.6,5-21.85,0,13.53-6,28.66-21.18,27.2-8.44-.81-15.13-1-21.33,5.58C101.35,112.46,98.39,124.06,100,136c1.39-3.48,1.23-7.8,1.8-11.46a43.1,43.1,0,0,1,3.21-12,23,23,0,0,1,8.27-9.72c3.49-2.16,7.71-2.42,11.69-2.44C133.48,100.35,141.82,99.16,147.57,92.29Z"/><g class="cls-28"><path class="cls-29" d="M163.58,127.61c6-8.67,7.36-19,6.82-29.3S167.13,77.48,161.07,69a34.39,34.39,0,0,0-7.34-7.46.94.94,0,0,0-1-.14c-4.22-5.59-11.24-10.08-17.81-10.56a12,12,0,0,0-4.35.49,66.07,66.07,0,0,1,3.63,6.8,73.24,73.24,0,0,1,4,14.92,96.34,96.34,0,0,1-.11,20.86,63.43,63.43,0,0,1-3.25,12.42c-.7,1.48-1.46,2.93-2.31,4.35-.3.5-.61,1-.94,1.47s-1.28,1.66-1.7,2.11c-.68.74-1.41,1.44-2.16,2.13l-.76.67a35.85,35.85,0,0,1-5.76,3.24,67.44,67.44,0,0,1-14,3.72,67.34,67.34,0,0,1-14,.17,67.61,67.61,0,0,1-9.41-2.3c-1-.31-1.9-.64-2.84-1l-.8-.31c-.82-.37-1.63-.76-2.43-1.16-.36-.18-.71-.37-1.07-.57l-2.5-1-1.45-.7a40.66,40.66,0,0,0,11.39,14.28,60.8,60.8,0,0,0,9.1,6.07,39.45,39.45,0,0,0,7.84,3.53,3.27,3.27,0,0,0,2,1.22,125,125,0,0,0,19.55,3.87,43.41,43.41,0,0,0,16.49-.93A44,44,0,0,0,163.58,127.61Z"/></g><path class="cls-13" d="M105.74,85.67c.71-6.32-.66-12.16-6-15.3C96.74,68.62,92.3,67.69,89,69a23,23,0,0,0-8.62,5,23.84,23.84,0,0,0-5.21,6.66c-1.11,2.24-2.94,5.5-3.36,7.68a47,47,0,0,0-.85,6.35c-.24,4,1,6.89,2.66,10.36,4.66,9.88,16.87,11,23,3C100.32,103.05,104.81,94,105.74,85.67Z"/></g></g></g></svg>