<svg xmlns="http://www.w3.org/2000/svg" xmlns:xlink="http://www.w3.org/1999/xlink" viewBox="0 0 146.49 229.3"><defs><style>.cls-1{isolation:isolate;}.cls-2{fill:#72a247;}.cls-3{fill:url(#linear-gradient);}.cls-4{fill:#486c33;}.cls-4,.cls-7{opacity:0.3;}.cls-4,.cls-6,.cls-7{mix-blend-mode:multiply;}.cls-5{fill:url(#linear-gradient-2);}.cls-11,.cls-6,.cls-7{fill:#77954f;}.cls-6{opacity:0.1;}.cls-8{fill:url(#linear-gradient-3);}.cls-9{fill:#cadf8e;}.cls-10,.cls-12{fill:#dce19b;}.cls-12{opacity:0.5;}.cls-12,.cls-13{mix-blend-mode:overlay;}.cls-13{opacity:0.7;}</style><linearGradient id="linear-gradient" x1="-41.34" y1="230.62" x2="-41.94" y2="357.5" gradientTransform="translate(130.09 -97.33) rotate(2.1)" gradientUnits="userSpaceOnUse"><stop offset="0.01" stop-color="#bed387"/><stop offset="0.51" stop-color="#dce19b"/></linearGradient><linearGradient id="linear-gradient-2" x1="-5.33" y1="257.4" x2="-42.04" y2="105.64" gradientTransform="translate(130.09 -97.33) rotate(2.1)" gradientUnits="userSpaceOnUse"><stop offset="0.01" stop-color="#bed387"/><stop offset="0.55" stop-color="#9dc14f"/><stop offset="0.95" stop-color="#9dc14f"/><stop offset="1" stop-color="#9dc14f"/></linearGradient><linearGradient id="linear-gradient-3" x1="-115.69" y1="284.08" x2="-40.68" y2="135.88" xlink:href="#linear-gradient-2"/></defs><title>Asset 9</title><g class="cls-1"><g id="Layer_2" data-name="Layer 2"><g id="Layer_1-2" data-name="Layer 1"><path class="cls-2" d="M85.85,67.88c-1.87,1-56,10.84-59.24,39.91S31.11,219.93,55,223.27s43,0,51-8.82,21.24-70.85,21.24-70.85Z"/><path class="cls-3" d="M107.71,135.62c-2.42,5.43-16.53,29.73-17.45,15.51-.37-5.79.4-12.49.16-18.37-.45-10.93-.11-31.91-1-42.82-.21-2.61-4.81-21.28-8.18-6.15-1.58,7.11-4.44,39-15,25-5.11-6.74-6.68-15.4-7-23.66A1.16,1.16,0,0,0,57,85.1a39,39,0,0,0,6.36,25.83c6.1,8.87,9.79,12.78,7.53,24.09-.81,4-3.32,20.14-10.68,16.18-4.81-2.59-7.68-14.5-8.58-19.54a1.45,1.45,0,0,0-2.85.29,41.93,41.93,0,0,0,6.45,21.45c3.22,5,9.38,9.2,9.51,15.54.15,7.07-1.57,17.81-2.83,24.89-1.68,9.41-9.63,26.57-6.9,29.44,7,7.34,29.21,8.29,32.76,1.11,3.44-7,1.86-19.48,2.12-27,.22-6.44-1-20.2.75-26.29,1.64-5.88,3.22-7.68,7.54-11.59,7-6.36,10.1-16.77,13.47-26.35C112.51,130.77,108.7,133.39,107.71,135.62Z"/><path class="cls-4" d="M85.85,67.88c-1.87,1-56,10.84-59.24,39.91S31.11,219.93,55,223.27A11.94,11.94,0,0,0,57.17,225c1.63-6.3,3.45-12.57,5-18.9,1.92-7.93,9.47-49.35,15.68-51.38s6.67,13.09,7,16.8c.67,7.47,1.07,44.19.91,55.06a6,6,0,0,0,2-2.24c.2-.41.39-.85.56-1.29,7.88-1.62,14-4.53,17.71-8.64,8-8.84,21.24-70.85,21.24-70.85Z"/><path class="cls-4" d="M45.07,210.57s23.41-18,21.77-25.51S50.78,182,52,178.75s12.91-15.7,10.89-20.43-7.05-1.9-7.05-1.9S70,136.92,66.6,131.59,56.39,126,56.39,126,76,111.52,70.84,103.1s-14.42-2.27,3.65-14.53c0,0,10.26,4.22,9.58,7.76s-14,23.88-9.29,29a12.5,12.5,0,0,0,10.82,4s-9.81,13.34,4.9,16.07,11.43,9.47,5,19.1-3.57,15.43,6,16.67c6.07.79-3.37,17.15-3.37,17.15s19.95,1.55,25.38-12-4.13-81.56-5.48-82.16S84,59.87,81.3,59.77,20.8,94.83,20.8,94.83,38.32,207.58,45.07,210.57Z"/><path class="cls-5" d="M85.91,225.41s9.24-9.59,9.85-15.17-8-11.88,1.29-13.53,12-11.55,10.54-14.8-7.31-7.86-9.29-8.33c0,0,11-15.18,7.71-24.89s-14.83-9.74-16.71-13,2.37-9.9,2.37-9.9-10.73-1.6-11-4.4S92.9,103.06,90.47,93,77,85.81,76.18,78.13L66.12,48.93,94.61,12.82s32,.37,44.74,54.78C139.35,67.6,156.17,216.4,85.91,225.41Z"/><path class="cls-6" d="M133.06,158.4c-4.17-.75-8,.3-11.22-3.14-3.48-3.68-4-9.43-4.11-14.2a1,1,0,0,0-1.84-.32c-4.73,10.37,5.58,25.86,17.47,20.85C134.67,161,134.52,158.66,133.06,158.4Z"/><path class="cls-6" d="M138.13,125.88c2.77-2.62,5.13-6.75,4.68-10a1.39,1.39,0,0,0-2-.91c-3.46,2.22-4.3,8.95-8.86,9.26-3.48.25-6.9-4-8.43-6.65-3-5.31-3.5-11.94-3.89-17.9-.1-1.68-2.93-1.79-2.63-.09.94,5.33,1.52,14.49,2.43,18.94-6.31-6.27-10.26-14.28-14.13-22.22-.69-1.41-2.55-.45-2.39.91,1.34,11.26,9.61,22.69,18.84,29a14.13,14.13,0,0,0,11.16,2.57,9.18,9.18,0,0,0,5.08-.94A1.17,1.17,0,0,0,138.13,125.88Z"/><path class="cls-6" d="M135.59,73.77a33.52,33.52,0,0,0-10.2-5.88c-7.52-3-14.86-5.14-20.41-11.44a.89.89,0,0,0-1.51.8c2.42,7.44,9.89,10.33,16.61,12.89A48.65,48.65,0,0,1,131,75.38a23,23,0,0,1,4.87,4.87c1.27,1.64,2.07,3.53,3.85,4.7a1.41,1.41,0,0,0,2.14-1.12C142,80,138.26,76.17,135.59,73.77Z"/><path class="cls-6" d="M121.83,73.24a1.35,1.35,0,0,0-1.59-1c-1.85.43-3.13,2.48-4.7,3.49a8.48,8.48,0,0,1-6.65,1.45.7.7,0,0,0-.71,1.13c2.1,2.32,5.39,2.09,8.09,1.09C118.51,78.6,122.71,76.2,121.83,73.24Z"/><path class="cls-6" d="M126.45,38.13c-1.53-.63-3.33-.2-5-.75a13.15,13.15,0,0,1-5.13-3.32,1.1,1.1,0,0,0-1.77,1.26,10.17,10.17,0,0,0,5.22,5.4c2.31,1,5.62,1.91,7.45-.34A1.52,1.52,0,0,0,126.45,38.13Z"/><path class="cls-7" d="M112.45,20c-9.7-7.08-17.84-7.18-17.84-7.18L66.12,48.93l10.06,29.2C77,85.81,88.05,82.9,90.47,93s-10.13,25.6-9.83,28.41,11,4.4,11,4.4-4.24,6.64-2.37,9.9,13.47,3.29,16.71,13-7.71,24.89-7.71,24.89c2,.47,7.81,5.08,9.29,8.33.63,1.4.48,4-.64,6.72a7.93,7.93,0,0,0,1.76-1.76c7.5-10.14-2.73-15.18-2.73-15.18s6-8,6.36-16.49c.71-19.48-16.21-21.42-16.21-21.42s3.25-6.47,2.85-10.59-11.34-4.53-11.34-4.53,8.81-16.12,8.29-24.37S82.21,79.81,82.21,79.81s10.64-6.19,11.07-10.28-9-7.74-7.65-8.23,20.67-10.48,21.43-16.21-10.87-10-10.87-10,12.19,4,10.69-7.55C106,20.46,109.54,19.61,112.45,20Z"/><path class="cls-8" d="M46,163.18s9.5-4.86,8.45,1.41-11.36,18.22-7.3,19.47,16.23-1.33,10.1,8.87-16.32,18.86-7.56,19.18,7.75,10.34,6.31,12.2-29.07,2.86-40.71-45.81-3.86-66.75-3.86-66.75S-1.37,64.13,4.47,47.08,27,16.11,42.58,9.55,86.06-2.83,91.92,9.44,82.5,34.59,83,37.08s9.41,5,9.31,7.46S70.37,58.82,71.06,62.41s12.38,6.21,12,8.39S44.58,94.74,48.64,105.72c1.75,4.72,12.56,1.28,12.72,4.57S43.84,124.45,48,130.64s8.13,2.49,8.86,5S56.38,148.76,46,163.18Z"/><path class="cls-7" d="M56.32,6.13s32.27-1.42,32.23,8.34-17,19.22-11.33,25,6.29,6.09-1,9.4-20.22,19.1-3.12,23c0,0-37.93,23-32.19,34.93s20.44,3.55,20.44,3.55S47,109.9,47.5,104.71s21-22.33,21-22.33,16.64-9,14.6-11.58-13-4.63-10.9-9.43S94.35,48.53,92.27,44.54,82.45,39,83.89,35.12s13.57-16.26,10.72-22.3S75.79-1.29,56.32,6.13Z"/><path class="cls-6" d="M28.81,71.08c1.32-.59,2.6-1.19,3.81-1.86,17.77-9.86,30-23.53,34.28-48.69a.54.54,0,0,0-1-.31c-2,3.83-3.3,8-4.86,12A89.25,89.25,0,0,1,54.47,46C48.91,55.29,40.61,61,30.84,65.18c-7.79,3.35-15.85,6-19.4,14.4a21.58,21.58,0,0,0-1.3,11.76c.52,3.22,2.59,7.42,5.86,8.63a4.36,4.36,0,0,0,.4,1.7,2.26,2.26,0,0,0,1.79,1.2,34.34,34.34,0,0,0-4,17.28c.19,7.32,2.9,14.82,11.5,14.21a1.92,1.92,0,0,0,.55-.12,3.81,3.81,0,0,0,.33.36,2.31,2.31,0,0,0,.39.31,40.16,40.16,0,0,0-6.32,8.65,32,32,0,0,0-3.55,17.56c.42,4.69,2.68,11.26,7.38,13.34a.91.91,0,0,0,.45.82l.24.14-.12-.11a1,1,0,0,0,.29.2,76.57,76.57,0,0,0-1.75,11.72,83.28,83.28,0,0,0,.29,11.5,28.27,28.27,0,0,0,2.55,10.72,1.4,1.4,0,0,0,2.63-.53,20.68,20.68,0,0,0,3.75,7.31c.72.84,2.31.06,1.94-1-1.73-5.21-3.45-10.1-4.22-15.58a64.81,64.81,0,0,1-.07-16.05c.16-1.43.36-2.85.61-4.26,4.48-.26,8-3.3,9.61-7.45.56-1.42-1.44-2.09-2.26-1A10,10,0,0,1,32,174.7a57.2,57.2,0,0,1,9.32-20.15c1.36-1.84-1.58-3.6-3-1.88a51,51,0,0,0-7.9,14.18c0-.95-1.47-1.45-1.93-.53a41.16,41.16,0,0,0-2.43,6.15c-1.34-2.38-3.23-4.26-4.16-7a22.31,22.31,0,0,1-.77-8.53,31.48,31.48,0,0,1,6.16-16.19c2.94-4.15,7.09-7.28,10.45-11.07,2.51-2.82,6-7,4.7-11.08a1.16,1.16,0,0,0-2.22-.08,22.6,22.6,0,0,1-5.42,8.63c.7-3.53-1.78-8.6-2.64-11.44A15.78,15.78,0,0,1,32,107c.85-3.25,2.41-6.29,3.35-9.52a.36.36,0,0,0-.58-.37,17.23,17.23,0,0,0-7.1,15.68A48,48,0,0,0,30,121.22a28.47,28.47,0,0,1,1,3.82c.26,1.46,0,2.79.79,4.09a1.52,1.52,0,0,0,.63.55l-1,1c-.43.39-.85.78-1.26,1.18a1.79,1.79,0,0,0-.2-.28l-.2-.22a2.25,2.25,0,0,0-1-.62,2.38,2.38,0,0,0-1-.08,1.77,1.77,0,0,0-.46.08,3.43,3.43,0,0,0-.44.19,1.87,1.87,0,0,0-1-.27c-7.69-.19-7.34-9.05-6.8-14.78.56-6,3.36-11.31,7-15.94s8.67-8.59,13.57-12c5.08-3.56,10.8-6.58,15.11-11.07.55-.57.09-1.73-.78-1.45a48.32,48.32,0,0,0-9,4,2.53,2.53,0,0,0-.61-.65A1.31,1.31,0,0,0,44,77c-.85-.78-1.71-.49-2.72-.41.56-3.1,3.07-6.9,5.35-9,1.21-1.12-.29-3.4-1.73-2.41a20.33,20.33,0,0,0-6.43,8.26c-1.23,2.63-1.35,6.49,2,6.91a2.3,2.3,0,0,0-.14.79c0,.26,0,.53,0,.8a3,3,0,0,0,0,.31c-1.73,1.12-3.43,2.28-5.08,3.42A60.72,60.72,0,0,0,20.57,99.16a2.31,2.31,0,0,0-2.2-2.26h-.11a36.75,36.75,0,0,1-2.51-3.27,11.3,11.3,0,0,1-1.19-5.57,16.4,16.4,0,0,1,4.06-10.93C21.31,74.3,25.15,72.72,28.81,71.08Z"/><path class="cls-6" d="M31.22,28.51a.87.87,0,0,0-1.74-.06c-1,7.75-7.82,14.06-12.44,19.9A34.55,34.55,0,0,0,11.39,58c-1.53,4.21-3,10.87-1.13,15.1.61,1.4,2.45.87,2.94-.28,1-2.31.6-5.12.84-7.61A26.19,26.19,0,0,1,15.9,58c1.46-3.58,4.13-6.73,6.51-9.73C27.08,42.36,31.87,36.46,31.22,28.51Z"/><path class="cls-6" d="M47.38,47.65c-4.47-1.34-3.2-7-2.55-10.52.72-3.88,2.4-8,2-12a.75.75,0,0,0-1.36-.22C42.41,31,34.88,49.55,46.8,51,48.75,51.22,49.19,48.19,47.38,47.65Z"/><path class="cls-9" d="M76.18,78.13c-.5,5,2.9,7.61,6.81,10,2,1.19,3.82,2.26,5,4.34,1.68,3.05.54,7-.71,10-2.48,5.87-7,10.68-8.18,17.11-1,5.31,3.77,6.24,7.9,6.88,1,.15,2,.25,2.9.49.59.15-.27-.17-.3-.78a2.59,2.59,0,0,1-.18.86c-.64,2.39-1.79,4.58-2.58,6.92-1.64,4.83,5.45,6.45,8.58,7.68a13.1,13.1,0,0,1,7,5.46,12.11,12.11,0,0,1,2.16,8.65c-.54,3.11-2.25,5.95-3.94,8.56-1.42,2.2-3.66,4.35-4.26,7-.93,4.1,2.79,6,6.06,7.06a6.89,6.89,0,0,1,3.58,2.34c1,1.65.11,4.87-.3,6.47a1.34,1.34,0,0,0,2.18,1.37c2.67-1.95,3-7.17,1-10-1.63-2.31-4.5-3.26-6.7-4.92a6.74,6.74,0,0,1-1.08-.87c-.16-.17-.14-.15-.14-.33a4.6,4.6,0,0,1,.72-1.44c1.26-1.91,2.53-3.79,3.72-5.75,3-5,4.87-10.58,2.82-16.29-2.18-6.07-6.32-9.45-12.15-11.7-1.42-.55-2.85-1.12-4.25-1.73a3.94,3.94,0,0,1-1-.52c-.12-.1.12.46.15.31.62-2.35,1.86-4.57,2.55-6.93,1.32-4.53-2-5.49-5.71-6-1.12-.15-4.69-.26-4.65-1.51.08-3.08,2.29-6.46,3.79-9,3.73-6.38,8.47-14.33,4.25-21.67C88,84.58,79.84,84.67,78.65,77.89c-.26-1.46-2.34-1.11-2.47.24Z"/><path class="cls-9" d="M34.13,14.68c6.41-1.78,12.32-5,18.69-7a62.32,62.32,0,0,1,21-3.18c5.62.24,13.14,2,16.35,7.08,2.74,4.38.21,9.75-2.46,13.47-2.8,3.92-9.42,9.15-6.76,14.63,1.2,2.45,4.15,2.67,6.27,3.81,4.16,2.24-1.49,4.79-3.57,6.06-4.66,2.85-11.92,5.93-14,11.4s4.51,8.43,8.46,9.61a12.73,12.73,0,0,1,3.15,1.23c.65.4,0-.32,0-.81s0-.3.2-.69c-.33.64.12,0-.35.45a12.41,12.41,0,0,1-1.31,1.09c-2.28,1.75-5.13,3.52-7.67,5.2-7,4.63-14.09,9.23-20.34,14.85-4.11,3.69-10.1,9.91-6.85,15.9,2.2,4.07,6.55,3.83,10.53,3.22,1-.14,3.59-.9,3.23.58-.52,2.09-3.48,4-5,5.31-4,3.37-7.93,6.53-8.83,12-.69,4.22,3.78,5.39,6.82,6.31,4.89,1.48,2.48,7.5.89,10.9-2.64,5.66-7.08,10.76-8.7,16.81-.32,1.18,1.27,2.5,2.2,1.39a81.38,81.38,0,0,0,9-14c2.32-4.31,5.12-9.38,4-14.44-.81-3.71-4.28-5.13-7.55-6-.42-.12-1.32-.4-1.46-.47-.4-.21-.13-.31-.12.05,0-1.83,1.67-4,2.92-5.17,3.42-3.31,8.84-6.07,10.58-10.75,1.83-4.91-2.34-8.34-6.9-8.11-1.84.09-4,.76-5.8.29-.13,0-.77-.87-.51-.47-.36-.56-.37-.88-.35-.61a3.63,3.63,0,0,1,.55-2.24,16.81,16.81,0,0,1,2.57-3.49C58.37,93,65.43,88.5,72,83.93c3-2.11,6.19-4.14,9.07-6.48,1.56-1.27,3.63-2.8,4.55-4.66,2-4-3.09-6-6.13-6.82-1.64-.46-5.47-1.09-5.57-3.35s4.76-4.53,6.29-5.44c4.46-2.65,15.74-6,14.07-13.16a9.3,9.3,0,0,0-4.58-5.72c-1.12-.68-2.43-1-3.55-1.63.16.09.15.72.21.45a6.73,6.73,0,0,1,1-1.92c2.18-3.45,5.17-6.28,7.13-9.89a18.69,18.69,0,0,0,2.42-9.6c-.3-8-7-12.42-14-14.47C74.46-1.22,65.21.36,57,2.7A92,92,0,0,0,44.54,7.37C40.62,9.13,36.86,11,33.75,14a.42.42,0,0,0,.38.72Z"/><path class="cls-10" d="M44.65,64.79c-7,2.94-10.93,11.72-9.85,19.1.2,1.41,2.48,1.16,2.48-.25,0-6.74,2-13.86,7.9-17.86a.56.56,0,0,0-.53-1Z"/><path class="cls-10" d="M14.5,76.72a11.11,11.11,0,0,1,2.42-2.37c5.35-3.82,12.4-5.81,18.09-9.21,18.2-10.86,26.51-30,32.43-49.49A1.29,1.29,0,0,0,65,14.88c-3.32,9-6.72,18-11.82,26.14C50.68,45,41.34,54.62,41.55,43c.11-6.19,2.18-12.92,4.32-18.71.33-.89-1.08-1.56-1.53-.7-3.39,6.57-6.45,13-6.83,20.52-.16,3.14,1.41,7.53.31,11C36.53,59,31.5,61.66,28,63.8c-4.65,2.86-14.64,6.41-16.23,5-2-1.74-.36-7.29.36-9.37,1.66-4.75,4.5-8.83,7.49-12.82s6.73-7.82,8.88-12.93c5-11.88.26-6.89-3.27-.39C21.17,40.82,10.52,46.06,5.78,53,.76,60.41-.58,72.8.21,81.55,1.64,97.39,6,112.74,7.07,128.63c1.35,19.11-.91,37.92,2.63,56.92,4,21.28,21.73,41.26,45.15,39.82,2.65-.17,2.86-.87.11-.9-24.23-.31-32.94-29-26.84-48.92a10.89,10.89,0,0,0,6,.56c3.57-.72,6.49-4.09,7.64-7.41a.7.7,0,0,0-1.25-.58c-1.23,2.18-6.27,5.21-8.27,2.34-1.18-1.7.61-4.36,1.34-5.92,1.93-4.11,5.6-7.75,7.07-12A1.49,1.49,0,0,0,38.25,151c-5.32,4.58-9.13,9.83-13,15.62-2.92,4.39-4.78,3.65-5.92-1.84-.91-4.41-.38-10.12.43-14.51,1.27-6.86,5.94-10.84,10.64-15.52a56.55,56.55,0,0,0,12.23-17.35c.5-1.15-1.24-1.82-1.9-.88a79.6,79.6,0,0,1-8.33,10c.22-4.41-2.64-9.48-3.39-13.45-1.38-7.21,5-16.08,10.74-19.85a.52.52,0,0,0-.5-.91,22.9,22.9,0,0,0-12.66,15.47,16.73,16.73,0,0,0,.73,9.84c.61,1.77,1.31,3.51,1.8,5.32,1.57,5.87-7.08,13.78-10.88,6.63-2.85-5.37-2.19-16.24-.57-22,2.57-9.14,10.69-15.55,17.93-21,6-4.53,12.89-7.47,19-11.72.62-.43.6-1.75-.39-1.66-7.14.64-14.15,4.73-20,8.64-5.45,3.65-10.38,10.73-16,13.51-5.83,2.88-7.23-3.84-6.95-8.59A18.38,18.38,0,0,1,14.5,76.72Z"/><path class="cls-10" d="M144.15,74.44A102.6,102.6,0,0,0,134.87,46c-4.35-8.6-11-17.7-19.24-22.88-.48-.3-.93.32-.61.74C116.63,25.93,128.56,40,122.55,41c-2.88.47-7.2-6.15-8.54-8.13a.85.85,0,0,0-1.57.6c1.76,11.83,17.38,13.6,20.42,25.65a176.25,176.25,0,0,1,3.56,18.4,47.23,47.23,0,0,0-4-2.79c-5.28-3.31-11.15-5.32-16.81-7.84a31.36,31.36,0,0,1-14-12c-.47-.74-1.76-.36-1.5.57a23.15,23.15,0,0,0,9.24,13.16c2.77,2,12.58,4.61,7.94,9.13-2,1.91-8.36.94-10.15-.89a1,1,0,0,0-1.5,1.39A10.78,10.78,0,0,0,117.57,82c9.3-2.67,11.88-4.9,19.78,3.47a205.94,205.94,0,0,1,.88,22.49c-.06,4.79,1.14,14.38-1.82,18.54-4.69,6.59-13.61-3.65-15.28-7.64-2.59-6.18-1.41-13.38-3.24-19.78a1.12,1.12,0,0,0-2.18.52c.67,3.6,4.23,17.5-2.44,15.08-4.87-1.76-8.07-14.2-9.67-18.57a1.09,1.09,0,0,0-2.13.5c1.42,10.27,6.71,19.93,13.93,27.29A42.79,42.79,0,0,0,128.26,133a37.23,37.23,0,0,0,7.72,2.66c-1.34-.27-1.1,23-10.3,22.75-7.5-.19-10-12.73-9-18.5.2-1.09-1.36-2.08-1.94-.89a18.68,18.68,0,0,0-1.28,12.86c2,7.77,8.34,13.71,10,21.53,3.46,16.49-10.59,35.32-27.43,45.08-10.09,5.85-12.68,6.85-11.79,8.73.8,1.69,15.51-.55,28.64-7.64,8.68-4.68,14.33-13.38,18.7-22.14,9.3-18.68,11.79-39.86,13.34-60.41C146.49,116.27,147.77,95.05,144.15,74.44Z"/><path class="cls-11" d="M25.16,175.42c.06.06.07,0,0,0Z"/><path class="cls-12" d="M75.05,27.6c2.59-3.2,4.43-6.49,3.72-10.1-2.14-10.85-24.42-5.65-31.25-3.37C35.72,18.07,24,28.12,17,38.33,8.2,51.31,6.92,68.94,6.79,84.18c-.07,8.13-.62,31.94,13.4,29C34,110.34,36,90.46,47.2,83.42,51,81,62.69,78.56,60.52,71.7c-1.45-4.62-11.23-3.51-7.09-10.06,3.92-6.2,19.49-6.82,19.08-16.19-.17-3.86-5-1.73-8.37-2.18C64.68,37.71,70.86,32.78,75.05,27.6Z"/><path class="cls-4" d="M95.76,210.24c-.42,3.86-5,9.65-7.75,12.84-3.44,2-4.34,2.9-3.76,4.12.8,1.69,15.51-.55,28.64-7.64,8.68-4.68,14.33-13.38,18.7-22.14,9.3-18.68,11.79-39.86,13.34-60.41,1.56-20.74,2.84-42-.78-62.57A102.6,102.6,0,0,0,134.87,46a75.67,75.67,0,0,0-4.56-7.81c10.38,23.1,17.6,59.13,10.13,105.53-8,49.83-36.37,61.72-44.89,64.2A6.86,6.86,0,0,1,95.76,210.24Z"/><g class="cls-13"><path class="cls-10" d="M11.89,125.11c1.13,13-1.2,26.13-1.1,39.16a100.09,100.09,0,0,0,1.85,19.46c1.21,5.86,3.27,13,7.57,17.31,1,1,3.06.14,2.55-1.36-1-3-2.61-5.73-3.72-8.7a61.56,61.56,0,0,1-2.57-9,96.68,96.68,0,0,1-1.64-19.29c-.07-12.61.08-25.17-2-37.64-.08-.52-1-.45-.94.09Z"/></g></g></g></g></svg>