<svg xmlns="http://www.w3.org/2000/svg" xmlns:xlink="http://www.w3.org/1999/xlink" viewBox="0 0 210.61 151.98"><defs><style>.cls-1{isolation:isolate;}.cls-2{fill:url(#radial-gradient);}.cls-3{fill:#ba9560;}.cls-11,.cls-3,.cls-4{opacity:0.7;}.cls-3,.cls-4,.cls-5,.cls-8,.cls-9{mix-blend-mode:multiply;}.cls-4,.cls-5,.cls-7,.cls-9{fill:#b99560;}.cls-10,.cls-5,.cls-8{opacity:0.5;}.cls-6{fill:#f0dc78;opacity:0.6;}.cls-12,.cls-7{opacity:0.3;}.cls-8{fill:#f0678f;}.cls-9{opacity:0.2;}.cls-10,.cls-11,.cls-12,.cls-13{fill:#f0dabd;}</style><radialGradient id="radial-gradient" cx="148.57" cy="3729.01" r="127.47" gradientTransform="matrix(0.98, -0.22, 0.16, 0.7, -661.2, -2520.05)" gradientUnits="userSpaceOnUse"><stop offset="0.36" stop-color="#e4cba6"/><stop offset="1" stop-color="#ba9560"/></radialGradient></defs><title>Asset 16</title><g class="cls-1"><g id="Layer_2" data-name="Layer 2"><g id="Layer_1-2" data-name="Layer 1"><path class="cls-2" d="M204,99.86c-3.63-2.51-8.41-3.2-12.86-3.24C190,91,188.5,85.38,183.68,82c-2.67-1.9-6.52-.75-9.26.28-5,1.86-9,5.37-13.26,8.49C156.74,94,152,97,146.31,96.7c-3.62-.17-2.66-3.44-1.41-5.79,1.86-3.51,5.23-6,7.81-8.94a19.77,19.77,0,0,0,4-6.37c3.76-8.13-6-16.72-14.5-17.37-1.28-.1-2.29.79-3.19,1.67-5.92,5.8-13.85,19-23.75,15.38C106.72,72.19,102,63.94,98.67,56,95.06,47.2,93,37.86,89.5,29.05A47.1,47.1,0,0,0,70.31,6.25,42.72,42.72,0,0,0,30.06,4a41,41,0,0,0-4.71,2.63c-1.27.8-1.81,2.56-2.27,3.92-1.08,3.13-.92,6.46-.55,9.68A27.81,27.81,0,0,0,30,36.29c4.44,4.43,10.5,3.94,15.82,7.41a13.56,13.56,0,0,1,5.94,9.36,9.56,9.56,0,0,1-1.68,6.32,24.74,24.74,0,0,1-6.23,6.08c-5.57,4.11-12.39,7.15-18.62,10.43-5.62,3-11.63,6.12-15.61,11.22-4.26,5.46-6.52,12.83-7.91,19.51A101.66,101.66,0,0,0,.13,117.47C-1.14,130.28,6.92,141,20.39,141.05a26.26,26.26,0,0,0,13.5-4c9-5.39,9.49-13.09,10.08-22.93a32.83,32.83,0,0,1,5.58-15.65,28.78,28.78,0,0,1,5.31-5.87c-1.08,4.69-2.14,9.64-1.61,14.46.94,8.64,9.54,14,16.94,16.85A34.2,34.2,0,0,0,82,126.19a21.24,21.24,0,0,0,5.38-.65c2.64-.68,3.91-3.89,5.23-6.05,2.68-4.35,5.13-8.82,7.69-13.23,1.33.78,2.62,1.61,3.86,2.46a58.84,58.84,0,0,1,12,10.55c6.61,7.84,5.61,19.37,12.34,26.75,9.14,10,35.56,7.67,34.1-9.14a54.69,54.69,0,0,0-2.21-10.82,51.08,51.08,0,0,0,9.71,1.39c5.82.4,10.75,1.17,16.56,1.75,5.16.52,11.45.27,16.17-2.53s7.48-8.89,7.75-14.18A14.55,14.55,0,0,0,204,99.86Z"/><path class="cls-3" d="M184.27,82.41c3.1,4.43,2.06,8.25-3.13,10.49-6.84,2.95-14,7-14,7,9.34-2.55,24-3.27,24-3.27C190.08,91.27,188.62,85.87,184.27,82.41Z"/><path class="cls-4" d="M144.69,96.27c-1.61-1-.8-3.47.21-5.36,1.86-3.51,5.23-6,7.81-8.94a19.77,19.77,0,0,0,4-6.37c3.38-7.31-4.2-15-11.92-16.94A14.63,14.63,0,0,1,151,64.21c2.66,4.68-.24,9.71-3,13.55s-6.4,7.24-8,11.71A5.18,5.18,0,0,0,144.69,96.27Z"/><path class="cls-5" d="M121.75,131a51.23,51.23,0,0,0-.57-12.61c-3.79-21.55-21.6-24.13-37.86-32.29C101.9,101.65,84.49,120.18,67.6,117a38.29,38.29,0,0,1-9.21-3.1,22.67,22.67,0,0,1-3.77-2.17c2.89,6,9.61,9.87,15.57,12.16A34.2,34.2,0,0,0,82,126.19a21.24,21.24,0,0,0,5.38-.65c2.64-.68,3.91-3.89,5.23-6.05,2.68-4.35,5.13-8.82,7.69-13.23,1.33.78,2.62,1.61,3.86,2.46a58.84,58.84,0,0,1,12,10.55C119.06,122.7,120.49,126.83,121.75,131Z"/><path class="cls-5" d="M115.28,75.28C106.72,72.19,102,63.94,98.67,56,95.06,47.2,93,37.86,89.5,29.05A47.1,47.1,0,0,0,70.31,6.25,42.52,42.52,0,0,0,56.68.89c7.53,2.78,14.24,7.88,19.64,13.67a37.8,37.8,0,0,1,8.33,13.7c1.88,5.55,2.73,11.41,3.76,17.16,1.67,9.29,4.35,17.86,11.42,24.51,5.13,4.83,12.22,7.6,19,6A9.94,9.94,0,0,1,115.28,75.28Z"/><path class="cls-6" d="M35.75,123.12a8.21,8.21,0,0,0-1-1.82c-4.38-6.18-13.17-6.89-19.83-4.56-3,1.06-6.1,2.77-7.62,5.71-1.8,3.48-.78,7,1.54,9.92,5,6.3,13.79,5.89,20.36,2.64a12.57,12.57,0,0,0,1.14-.62,13.57,13.57,0,0,0,3-1.76,8,8,0,0,0,3-6.19A6.51,6.51,0,0,0,35.75,123.12Z"/><path class="cls-7" d="M58,84.53c-5.45,2.29-9.57,8.61-14.81,11.65a34.76,34.76,0,0,1-15,4.11C18.43,101,7.67,109.17,8.42,116c1.33-1.38,5.6-2.5,9.62-3.27,12.56-2.41,23.3,3.71,23.29,16.42,2-4.25,2.29-9.27,2.64-15a32.83,32.83,0,0,1,5.58-15.65,28.65,28.65,0,0,1,5-5.6C55,91.49,55.48,90,56,88.66,56.72,86.51,57.47,84.76,58,84.53Z"/><path class="cls-6" d="M152.54,132.09c-2.79-3.36-8.23-3.87-12.44-3.16a14.09,14.09,0,0,0-4.09,1.43,11.11,11.11,0,0,0-3.15,2,8.44,8.44,0,0,0-2,10.07c1.94,3.95,7.53,5.52,11.84,5.4s8.65-1.86,10.82-5.49A8.61,8.61,0,0,0,152.54,132.09Z"/><path class="cls-8" d="M127,125.76c-.56.22-1,.41,0,0Z"/><path class="cls-5" d="M160.4,126.06a51.08,51.08,0,0,0,9.71,1.39c5.82.4,10.75,1.17,16.56,1.75,5.16.52,11.45.27,16.17-2.53s7.48-8.89,7.75-14.18A14.55,14.55,0,0,0,204,99.86c-3.63-2.51-8.41-3.2-12.86-3.24C190,91,188.5,85.38,183.68,82c-2.67-1.9-6.52-.75-9.26.28-5,1.86-9,5.37-13.26,8.49C156.74,94,152,97,146.31,96.7c-3.62-.17-2.66-3.44-1.41-5.79,1.86-3.51,5.23-6,7.81-8.94a19.77,19.77,0,0,0,4-6.37c3.76-8.13-6-16.72-14.5-17.37-1.28-.1-2.29.79-3.19,1.67-5.92,5.8-13.85,19-23.75,15.38C106.72,72.19,102,63.94,98.67,56,95.06,47.2,93,37.86,89.5,29.05A47.1,47.1,0,0,0,70.31,6.25,42.87,42.87,0,0,0,54.8.54,19.44,19.44,0,0,0,56.18,2.7C60,7.89,66.87,10,71,14.76,86,31.76,81.17,69.69,105.34,79c7.92,3,20.88-1.72,27.12-6.8,2.65-2.15,12.69-13,14.47-3.68,1.63,8.59-15.7,14.58-11.93,24.91,4.59,12.55,20.65,4.61,28.67-.51,13.35-8.51-6.55,7.88,6.07,8.94,7.7.65,41.36-3.27,25.52,14.28-4.47,4.94-14.31,6.24-20.48,4.33-6.6-2.05-7.67-6.59-12.06-11-2.47-2.49-5.87-7.28-9.66-5.5-3.57,1.68-4,5.48-3.71,8.92.77,8.28-19.41,13.19-23.06,9.94-2.75-2.46-2.12-9.93-3.15-13.3-5-16.12-25.6-30.86-42.63-27.9,1.27,8.51,8.28,15.51,3,24.47-4.14,7-12.18,7.32-19.44,5.47-11.75-3-5.2-24.81-3.87-32.56a262.49,262.49,0,0,1,8.31-35.13c-7,4.07-9.78,4.37-17.94,4.52.25,1.37,1,3.13,1.23,4.7a9.56,9.56,0,0,1-1.68,6.32c-.12.19-.26.38-.39.57a10.85,10.85,0,0,1,3.35,3.17c3,6.09-4.2,13.56-7.59,18.09-10.79,14.38-23,32.25-43.1,24.55C.77,109.36.52,113.52.13,117.47a25.33,25.33,0,0,0,.12,6.11c6.59-9.12,16.08-15.71,27.81-13.14A23.16,23.16,0,0,1,43.39,121.3c.28-2.25.42-4.65.58-7.18a32.83,32.83,0,0,1,5.58-15.65,28.78,28.78,0,0,1,5.31-5.87c-1.08,4.69-2.14,9.64-1.61,14.46.94,8.64,9.54,14,16.94,16.85A34.2,34.2,0,0,0,82,126.19a21.24,21.24,0,0,0,5.38-.65c2.64-.68,3.91-3.89,5.23-6.05,2.68-4.35,5.13-8.82,7.69-13.23,1.33.78,2.62,1.61,3.86,2.46a58.84,58.84,0,0,1,12,10.55c5.44,6.46,5.73,15.4,9.41,22.49.12-6.52,2-10.42,9-14.64,8.92-5.46,21.82-8.74,28.08,9.76A54.69,54.69,0,0,0,160.4,126.06Z"/><path class="cls-9" d="M107.83,70.61c-.13-.13-.27-.26-.4-.4-5.27,4.78-9.05,11.52-8.7,18.16a27.62,27.62,0,0,0-6-10.14c-4.67-4.89-12-7.48-18.6-5.89-5.3,1.28-10.09,4.74-13.83,8.93.73-8.42-6.45-17-14.64-17.2-.28.23-.58.47-.87.69a13.53,13.53,0,0,1,10,4.18A16.27,16.27,0,0,1,59.3,82.42a39.82,39.82,0,0,0-3.09,4.35.13.13,0,0,0,.22.14,41.51,41.51,0,0,1,2.78-3.66c0,.1,0,.21-.05.32-.06.4.59.5.7.12a14.17,14.17,0,0,0,.34-1.57c4-4.35,9-7.92,14.65-9.22C81.71,71.32,89,75.06,93.3,80.28c5.43,6.6,6.65,15.49,7,24.17A21.26,21.26,0,0,0,97,96.22a27.09,27.09,0,0,0-14.9-10.35c-9.91-2.89-20.82-.16-27.4,7.37v0c-.07.32-.15.64-.22,1h0c6.48-7.63,17.42-9.93,27.22-7A25.81,25.81,0,0,1,95.84,97.39,21,21,0,0,1,99,108.5c.42-.75.85-1.5,1.28-2.24l0,0h0c.35.2.68.42,1,.63a62.46,62.46,0,0,0-2.22-17.18C98.55,82.43,102.31,75.52,107.83,70.61Z"/><path class="cls-9" d="M78.68,98.44c-7.69-2.17-16.31-.2-22.7,4.43-.09.06,0,.22.12.16a28.72,28.72,0,0,1,21.38-3.78,19.11,19.11,0,0,1,9.3,5.12c2.84,2.85,4.1,6.58,5,10.43.12.51,1,.46,1-.09C92.12,106.68,86.23,100.56,78.68,98.44Z"/><path class="cls-9" d="M132.26,67.46a16.4,16.4,0,0,1,17.16,7.66c1.39,2.31,1.48,4.69,2,7.25a.42.42,0,0,0,.81,0c1.32-5.12-2.86-10.49-6.75-13.26a15.8,15.8,0,0,0-12.24-2.73C132.9,66.76,132.58,67.11,132.26,67.46Z"/><path class="cls-9" d="M41.36.53C36.24,4.48,33.11,11.38,32,18a33,33,0,0,0,4.19,21.89l1.88.61a33.19,33.19,0,0,1-5.32-20c.5-7.45,4.06-16,10.26-20.19C42.42.37,41.89.44,41.36.53Z"/><path class="cls-9" d="M72.63,7.78c-.52-.36-1-.71-1.57-1a34.28,34.28,0,0,0-18.19,5.92C47.79,16.22,43.14,21.74,42.08,28c-.86,5.1.23,9.93,1.92,14.64l.57.29A31.71,31.71,0,0,1,42.9,28.63c1-6.82,6.42-12.57,12-16.16A32,32,0,0,1,72.63,7.78Z"/><path class="cls-9" d="M87.73,26l.52.2c-.23-.49-.47-1-.72-1.45a31.69,31.69,0,0,0-16.36-1.13,28.31,28.31,0,0,0-15.71,9.58c-3.14,3.81-5,8.36-6.9,12.86.18.2.35.41.51.62,1.79-3.72,3.31-7.58,5.66-11A27.75,27.75,0,0,1,70.85,24.79,29.23,29.23,0,0,1,87.73,26Z"/><path class="cls-9" d="M28.28,103.81a33.21,33.21,0,0,0-19.54,1.55,26.79,26.79,0,0,0-7.61,4.48c-.08.44-.15.87-.21,1.32A29.73,29.73,0,0,1,9.63,106a31.88,31.88,0,0,1,19.25-1c6.24,1.73,11,5.78,15,10.7,0-.54.06-1.09.1-1.64,0,0,0,0,0,0C39.7,109.22,34.53,105.38,28.28,103.81Z"/><path class="cls-9" d="M27.88,93.9c-5.71-.9-11.33.16-16.71,2a28.15,28.15,0,0,0-7.71,3.86c-.12.36-.22.73-.33,1.1a30.94,30.94,0,0,1,8.76-4.31A34.44,34.44,0,0,1,27.36,94.8a28.88,28.88,0,0,1,13.7,5.86A30.33,30.33,0,0,1,46,105.44q.22-.6.48-1.2A32.33,32.33,0,0,0,27.88,93.9Z"/><path class="cls-9" d="M31.2,80.8c9.05,1.8,15.75,7.73,20,15.52.22-.28.46-.54.69-.81A29.48,29.48,0,0,0,16.73,80.76c-.72.48-1.42,1-2.11,1.51A30.06,30.06,0,0,1,31.2,80.8Z"/><path class="cls-9" d="M54.52,82.07C50.9,75.34,43.68,70.46,36.17,70.25l-.91.49c7.51.1,14.46,5.57,18.53,11.73A.42.42,0,0,0,54.52,82.07Z"/><path class="cls-9" d="M201.64,98.54c-.66.68-1.26,1.37-1.77,2A25.92,25.92,0,0,0,194.61,112a26.51,26.51,0,0,0,2.3,16.82c.41-.08.82-.18,1.23-.29a25.64,25.64,0,0,1-2.65-15.35A25,25,0,0,1,202.59,99C202.28,98.84,202,98.69,201.64,98.54Z"/><path class="cls-9" d="M192.54,96.66a27.94,27.94,0,0,0-9.6,14.36,26.34,26.34,0,0,0,1.24,17.92l1.11.12a26.25,26.25,0,0,1-1.67-17.2,26.54,26.54,0,0,1,10.09-15.14Q193.13,96.68,192.54,96.66Z"/><path class="cls-9" d="M183.5,97.75c.21-.11,0-.43-.18-.33-11,5-13.7,19-10.37,30.26l.72.07C170.27,116.77,173,103.47,183.5,97.75Z"/><path class="cls-9" d="M170,101.39c.22-.11,0-.43-.18-.33-9.22,4.27-10.81,15.4-8.61,25.2l.73.17C159.68,116.85,161,106.18,170,101.39Z"/><path class="cls-9" d="M144.5,96.14a1.71,1.71,0,0,1-.56-.75c-7.81.82-15.27,5.48-20.77,10.74-3.16,3-6.23,6.67-7.26,11a11.76,11.76,0,0,0-.25,1.54c.17.2.35.39.51.59,0,0,.09.11.14.17a13.79,13.79,0,0,1,.24-2.1c.88-4.42,4.42-8.12,7.57-11.11A36.62,36.62,0,0,1,144.5,96.14Z"/><path class="cls-9" d="M144.58,91.55c.1-.22.21-.44.32-.64s.19-.34.29-.51c.21-.36.44-.71.68-1.06l-.25-.16A25.66,25.66,0,0,0,144,84.54a22.17,22.17,0,0,0-5.17-7.14,13.56,13.56,0,0,0-15.21-2.67c-.19.08-.07.4.13.34a14.29,14.29,0,0,1,14.52,3.51,21.1,21.1,0,0,1,4.31,6.17A17.88,17.88,0,0,1,143.68,88c-7.61-3.92-16.32-2.57-23.18,3a31.78,31.78,0,0,0-11.19,21.48l.42.35a32.76,32.76,0,0,1,10.52-20.63,22.56,22.56,0,0,1,12-5.71A19.33,19.33,0,0,1,143.92,89C144.13,89.87,144.33,90.71,144.58,91.55Z"/><path class="cls-9" d="M105.08,93.76a31.83,31.83,0,0,1,5.57-13.41,33.82,33.82,0,0,1,4.28-5.2l-.72-.29a31.89,31.89,0,0,0-2.28,2.5,36.2,36.2,0,0,0-7.21,14.07c-1.54,6.2-.56,12.62,1.43,18.69q.7.5,1.38,1C105.63,105.53,104.24,99.85,105.08,93.76Z"/><path class="cls-9" d="M79.05,39.59C85.4,40,90.84,42.93,95.45,47c-.15-.45-.29-.91-.44-1.37a29.09,29.09,0,0,0-15.93-6.69c-5.8-.47-11.51,1.29-16.63,3.87C58,45,53.94,48.07,51.66,52.43c0,.21.08.42.11.63a.11.11,0,0,1,0,0c2.38-4.62,6.86-7.73,11.5-10A31.12,31.12,0,0,1,79.05,39.59Z"/><path class="cls-9" d="M103.08,64.72c-.36-.56-.7-1.13-1-1.7a69.35,69.35,0,0,0-24-7.36A51.8,51.8,0,0,0,62,55.77c-4.89,1-9.11,3.84-13.63,5.85l-.82.83c4.53-1.63,8.63-4.28,13.28-5.62,5.18-1.51,11.28-1,16.58-.43C86.62,57.39,95,60.51,103.08,64.72Z"/><path class="cls-10" d="M63.29,12.38c-13.24-14.09-32.42-9.14-35.88-1-2.07,4.86,0,16.48,6.34,19.55,15.31,7.41,28.07-15.12,39.77,15.61,3.89,10.19,7.94,14.83,6.8.16C79.37,34.36,71.61,21.24,63.29,12.38Z"/><path class="cls-11" d="M35,75.93H35C26.58,77.29,16,82.79,11.73,90c-2.88,4.83-5.11,15.51,4.4,13.24,4.16-1,21-27.36,21.72-26.94A3.91,3.91,0,0,0,35,75.93Z"/><path class="cls-11" d="M73.32,67.07c-3.21-7.18-6.38,1.13-7.67,5-2.22,6.68-4.77,22.34-2.35,29,1.13,3.09,3.66,6.6,7.35,6.45,14-.58,5.91-29.21,4.2-36.13A31.06,31.06,0,0,0,73.32,67.07Z"/><path class="cls-11" d="M136.54,104.7a63.65,63.65,0,0,0-6.13-10.13,29.42,29.42,0,0,0-7.52-7.2,13.07,13.07,0,0,0-4.52-2c-1.05-.23-3.2,0-3.32,1.4-.33,4,5.1,7.79,7.14,11.31,2.88,5,4.08,10.09,6.25,15.15,1.41,3.29,5.9,5.65,9,3.3C141.48,113.43,138.13,108.12,136.54,104.7Z"/><path class="cls-12" d="M170.69,113.62c3.2,5.83,17.4,4.51,21.59.38,7.5-7.41-14-8.5-18.29-6.18C170.46,109.72,169.42,111.31,170.69,113.62Z"/><path class="cls-13" d="M55.52,12.38c0-1.45-1.47-2.93-5-4.07A27.49,27.49,0,0,0,41.08,7c-4.71.16-12.79,2.8-7.76,8.18,2.72,2.9,9.87,2.91,13.5,2.53C51.46,17.23,55.56,14.85,55.52,12.38Z"/><path class="cls-5" d="M203.2,126.44c.23-.15.46-.32.68-.48a17.74,17.74,0,0,0,2.48-2.39,19.61,19.61,0,0,0,4.23-11.08,14.34,14.34,0,0,0-5.6-11.88l-.06,0c-2.17,2.08-2.85,7.58-3.06,10.84-1,15.44-25.25,14.67-36.4,10.86-4.26-1.46-9.91-4.65-9.33-14-8.31,9.41,1.31,16.47,2,26.49.75,10.33-6.84,15.49-16.34,17,10.4,1,21.75-3.8,20.78-15a54.69,54.69,0,0,0-2.21-10.82,51.08,51.08,0,0,0,9.71,1.39c5.82.4,10.75,1.17,16.56,1.75,5.16.52,11.45.27,16.17-2.53l.37-.23Z"/></g></g></g></svg>