<svg xmlns="http://www.w3.org/2000/svg" xmlns:xlink="http://www.w3.org/1999/xlink" viewBox="0 0 140.3 186.67"><defs><style>.cls-1{isolation:isolate;}.cls-2,.cls-20{fill:#39482b;}.cls-3{fill:#506b31;}.cls-15,.cls-20,.cls-23,.cls-25,.cls-30,.cls-4{opacity:0.3;}.cls-11,.cls-15,.cls-16,.cls-20,.cls-23,.cls-26,.cls-28,.cls-4,.cls-8,.cls-9{mix-blend-mode:multiply;}.cls-15,.cls-16,.cls-28,.cls-5{fill:#806742;}.cls-6{fill:#6d9141;}.cls-7{fill:url(#linear-gradient);}.cls-23,.cls-26,.cls-8{fill:#607844;}.cls-33,.cls-8{opacity:0.5;}.cls-16,.cls-31,.cls-9{opacity:0.7;}.cls-10{fill:url(#linear-gradient-2);}.cls-11,.cls-14,.cls-26,.cls-28{opacity:0.2;}.cls-12{fill:url(#linear-gradient-3);}.cls-13{fill:url(#linear-gradient-4);}.cls-14,.cls-30,.cls-31,.cls-32,.cls-33{fill:#9ec251;}.cls-17{fill:url(#linear-gradient-5);}.cls-18{fill:#f0678f;}.cls-19{fill:url(#linear-gradient-6);}.cls-21{fill:url(#linear-gradient-7);}.cls-22{fill:url(#linear-gradient-8);}.cls-24{fill:url(#linear-gradient-9);}.cls-25{fill:#b7d561;}.cls-27{fill:url(#linear-gradient-10);}.cls-29{fill:url(#linear-gradient-11);}.cls-32{opacity:0.6;}.cls-34{fill:#add15a;}</style><linearGradient id="linear-gradient" x1="27.37" y1="136.93" x2="111.15" y2="136.93" gradientUnits="userSpaceOnUse"><stop offset="0" stop-color="#6c8e3e"/><stop offset="1" stop-color="#4f6e33"/></linearGradient><linearGradient id="linear-gradient-2" x1="99.14" y1="30.88" x2="126.18" y2="30.88" xlink:href="#linear-gradient"/><linearGradient id="linear-gradient-3" x1="143.91" y1="57.54" x2="127.18" y2="98.57" xlink:href="#linear-gradient"/><linearGradient id="linear-gradient-4" x1="184.66" y1="70.3" x2="138.47" y2="95.56" xlink:href="#linear-gradient"/><linearGradient id="linear-gradient-5" x1="75.76" y1="29.67" x2="91.83" y2="86.51" xlink:href="#linear-gradient"/><linearGradient id="linear-gradient-6" x1="93.79" y1="80.55" x2="137.56" y2="80.55" xlink:href="#linear-gradient"/><linearGradient id="linear-gradient-7" x1="106.86" y1="160.78" x2="127.48" y2="160.78" gradientUnits="userSpaceOnUse"><stop offset="0.18" stop-color="#dbd0bb"/><stop offset="1" stop-color="#ad9f84"/></linearGradient><linearGradient id="linear-gradient-8" x1="27.22" y1="72.76" x2="79.97" y2="141.77" gradientUnits="userSpaceOnUse"><stop offset="0" stop-color="#7aa043"/><stop offset="1" stop-color="#6c8e3e"/></linearGradient><linearGradient id="linear-gradient-9" x1="118.4" y1="156.56" x2="103.31" y2="115.79" gradientUnits="userSpaceOnUse"><stop offset="0" stop-color="#6c933e"/><stop offset="1" stop-color="#80aa48"/></linearGradient><linearGradient id="linear-gradient-10" x1="104.28" y1="156.07" x2="125.81" y2="156.07" xlink:href="#linear-gradient-7"/><linearGradient id="linear-gradient-11" x1="106.55" y1="158.06" x2="126.28" y2="158.06" xlink:href="#linear-gradient-7"/></defs><title>Asset 15</title><g class="cls-1"><g id="Layer_2" data-name="Layer 2"><g id="Layer_1-2" data-name="Layer 1"><path class="cls-2" d="M125.82,168.28a40.22,40.22,0,0,0-2.59-5.37,19.58,19.58,0,0,0-1.79-3.72c-2.13-4.25-1.94-9.86-2.75-14.52a41.34,41.34,0,0,0-7.2-17.43c-3.59-4.73-11.12-8.94-15.41-2.66-3.58,5.23-2.79,12,.28,17.2,4.06,6.87,8.5,13.58,13.14,20.07,2.09,2.91,4.27,5.82,6.1,8.91,1.38,2.31,2.46,4.71,4.76,6.27a2,2,0,0,0,3-1.71,13,13,0,0,0-.08-1.66,1.66,1.66,0,0,0,1.53-1.35,7.91,7.91,0,0,0,.07-1.87A1.58,1.58,0,0,0,125.82,168.28Z"/><path class="cls-3" d="M132.88,176H133a2.18,2.18,0,0,0,1.7-.67,6,6,0,0,0,.94-1.28c-1.43-3.24-3.11-6.38-4.73-9.51q-1.53-2.93-3-5.87a24.05,24.05,0,0,0-3-5.11c-.82-.95-2,.11-1.87,1.09.53,3.73,3,7.56,4.57,10.94S130.94,172.68,132.88,176Z"/><path class="cls-3" d="M125.07,179.34q-2.32-4.71-5-9.25c-1.7-2.93-3.28-6-5-9a3.73,3.73,0,0,1-.73.49l-.07,0a4.84,4.84,0,0,1-1.63.49c1.41,3,2.93,6,4.42,8.93s2.88,5.81,4.32,8.72c1,2,2.32,4.2,3.54,6.89a3.28,3.28,0,0,0,3.22-2.17A34.27,34.27,0,0,1,125.07,179.34Z"/><path class="cls-2" d="M130,180.88a4.57,4.57,0,0,0,1.63-.79l.13-.12a4.45,4.45,0,0,0,.33-.51s0-.14.11-.31a89.87,89.87,0,0,1-10.41-22.9c-.1-.33-3.37,3.66-3.33,4,.34,2.74,7.75,16.13,10.51,20.87C129.28,181,129.62,181,130,180.88Z"/><g class="cls-4"><path class="cls-5" d="M122.55,160.73a.41.41,0,0,0-.6.46,25.83,25.83,0,0,0,2.08,5.37c.85,2,1.65,3.94,2.58,5.86,1.09,2.25,2.16,4.5,3.31,6.71.24.46.49,1,.75,1.5a3.47,3.47,0,0,0,.92-.54l.13-.12a4.45,4.45,0,0,0,.33-.51s0-.14.11-.31a85.57,85.57,0,0,1-8.74-17.88A6.6,6.6,0,0,0,122.55,160.73Z"/></g><path class="cls-6" d="M135.83,179.05a90.42,90.42,0,0,0-5.78-10.64c-1-1.68-2-3.34-3-5s-1.71-3.38-3.34-4.26a.58.58,0,0,0-.85.34c-.4,1.59-.77.26-.16,1.72.8,1.93,7.65,15.76,9.94,19.17C133.7,181.91,136.61,181,135.83,179.05Z"/><path class="cls-6" d="M125.82,181.4a11.89,11.89,0,0,1,1.15-.63s.56-.71.54-.63a5.73,5.73,0,0,0,.55-1.57c-.2-.45-.41-.89-.61-1.31-.88-1.91-6.18-11.16-7.14-13-.85-1.68-.48-2.23-1.85-3.51a.71.71,0,0,0-1.11.15,4.61,4.61,0,0,0,0,4.27c1.44,2.75,6.27,13.2,8.27,16.37A1.73,1.73,0,0,0,125.82,181.4Z"/><path class="cls-7" d="M110.71,160.36q-2.11-2-4.35-3.88c-3.82-4-6.86-8.77-10-13.28-12.93-18.77-33.43-39.73-58.68-30-3.54,1.37-9.88,3.84-10.31,8.16-1.19,12,33.35,14.56,40.48,17.65,10.75,4.65,21.93,9.22,31.55,16,1.76,1.23,3.44,2.56,5.07,3.95a36.45,36.45,0,0,0,4,3.58l0,0,.31.24C110.25,163.92,112,161.57,110.71,160.36Z"/><path class="cls-8" d="M97.49,141.18c-3.36-2-6.95-3.75-10.24-5.68-5.1-3-9.94-6.39-15-9.38a42.74,42.74,0,0,0-15.58-5.91,37.37,37.37,0,0,0-8.39.09c-3.05.27-6.24,1.28-9.29,1.22-.57,0-.54.82,0,.88,1.44.17,2.81.53,4.25.64a41.3,41.3,0,0,0,4.31,0,54.94,54.94,0,0,1,9.07.13A30.78,30.78,0,0,1,65,125.69,22.43,22.43,0,0,0,62.56,127a12.86,12.86,0,0,1-5.4,1.9c-1.67.18-3.31.42-5,.67-.43.06-.33.81.1.75,3-.39,6.1.69,9-.33,1.17-.42,2.29-1,3.41-1.54a24,24,0,0,1,3.6-1.1c1.23.66,2.42,1.35,3.6,2,3.06,1.83,6,3.79,9,5.71-2,.11-4.12,1.2-6,1.18-.58,0-.56.82,0,.87a18.44,18.44,0,0,0,4.2,0,17.42,17.42,0,0,0,3.69-.47.64.64,0,0,0,.25-.18c1.08.68,2.17,1.34,3.27,2a127.63,127.63,0,0,0,11.67,6.64A14.44,14.44,0,0,1,97.49,141.18Z"/><g class="cls-9"><path class="cls-5" d="M106.36,156.48c-3.82-4-6.86-8.77-10-13.28-12.63-18.32-32.46-38.73-56.89-30.6,5.59,2.25,13.63,5.44,18.41,9.36,5.26,4.33,10.06,9.36,9,16.72a9.09,9.09,0,0,1,1,.37c10.75,4.65,21.93,9.22,31.55,16,1.76,1.23,3.44,2.56,5.07,3.95a36.45,36.45,0,0,0,4,3.58l0,0,.31.24c1.45,1.09,3.18-1.26,1.91-2.47S107.85,157.73,106.36,156.48Z"/></g><path class="cls-10" d="M125.46,27.59c2.48-15.91-2.09-28-3.89-27.58C99.66,5.65,95.26,40.2,102.12,57.4c5.37,13.47,18-8.2,19.41-12A129.77,129.77,0,0,0,125.46,27.59Z"/><g class="cls-11"><path class="cls-5" d="M125.46,27.55C127,17.41,125.75,8.81,124.14,4c-.06-.16-.11-.33-.17-.49a0,0,0,0,1,0,0c-.17-.46-.36-.91-.56-1.36l0-.1a7.85,7.85,0,0,0-4.06,3.18c-4.06,5.29-2.3,12-3.64,18.08a7.65,7.65,0,0,1-2.36-2.1c-1.6-2.15-2.12-4.41-2.82-6.8-1.33-4.53-3.13,2.28-2.94,4.22.41,4.24,3,7.7,5.5,10.91,1.92,2.5,3.26,8.59-1.85,8-2.58-.29-5.57-7.27-7.21-6.51-2.41,1.13.59,6,1.33,7.42,1.62,3.07,2.87,6.28,1.69,9.8-.74,2.2-3,3.1-4.3,4.88-1.49,2.07-.49,6.48,1.53,7.81a4.89,4.89,0,0,0,5,.15c4.27-2.09,7.11-6.74,9.54-10.6a27.77,27.77,0,0,0,2.74-5.13c.17-.45.48-1.49.87-3,.86-3.26,2.1-8.67,3.06-14.8Z"/></g><path class="cls-8" d="M121.33,5.22a53.41,53.41,0,0,0-3.8,16.18c-.17,2-.25,4.08-.32,6.11a19.09,19.09,0,0,0-2.69-2.81c-2.87-2.55-5.78-4.86-5.38-9.09,0-.25-.36-.29-.42-.06-.88,3.33.43,6.07,2.71,8.47,1.13,1.18,2.36,2.26,3.43,3.5,2.74,3.18,2.14,7.46,1.6,11.26-.2,1.42-.45,2.83-.74,4.24A11.46,11.46,0,0,0,113,40.69c-3.34-2-7.27-3.43-8.06-7.76,0-.17-.3-.13-.3,0,.12,3.25,2.34,5.37,4.81,7.21,5.6,4.17,5.24,7.89,3.15,14.14-.7,2.1-1.51,4.16-2.35,6.2a19.56,19.56,0,0,0,3.65-3.29c.13-.35.25-.7.37-1a83.2,83.2,0,0,0,2.6-9.26,2.86,2.86,0,0,0,.13-.62c.45-2.11.82-4.24,1.11-6.37.74-5.46.58-10.89.73-16.38a64.58,64.58,0,0,1,2.89-18.22C121.81,5.07,121.43,5,121.33,5.22Z"/><g class="cls-9"><path class="cls-5" d="M121.57,0l-.27.08a24.31,24.31,0,0,1,3,11.51,41.42,41.42,0,0,1-.72,8.47c-.75,3.23-3,5.44-5.25,7.74a78,78,0,0,0-6.08,6.65c-1.37,1.8-2.48,3.77-3.93,5.5-1.73,2-3.34,2.9-5.77,1.46a15.53,15.53,0,0,1-3.42-3A51.59,51.59,0,0,0,101.61,56a1.47,1.47,0,0,0,.45.23c0,.21-.1.42-.14.62s.13.37.2.54a8.76,8.76,0,0,0,2,3.27,2,2,0,0,0,.93-.68,12.27,12.27,0,0,0,1.49-2.7A33.85,33.85,0,0,0,110.13,51c1.28-2.61,3.07-4.93,4.5-7.45l.08-.11c1.45-2,3-3.93,4.5-5.87a2.2,2.2,0,0,0,4.09.93l.09-.16c.69-3,1.44-6.71,2.07-10.73C127.94,11.68,123.37-.45,121.57,0Z"/></g><path class="cls-2" d="M102.21,98.76A94,94,0,0,0,80.6,75a68.75,68.75,0,0,0-13.87-8.73c-5.07-2.33-10.39-4-15.33-6.64a1.19,1.19,0,0,0-1.79,1c1.38,21.23,17.63,44.23,31.06,60A78.66,78.66,0,0,0,105,139.33c4.49,2.32,9.18,3.88,13.41,6.71-1.28-.86-.83-10-1.24-11.86-.82-3.64-2.41-7.58-3.59-11.16A109.27,109.27,0,0,0,102.21,98.76Z"/><path class="cls-8" d="M70.54,80.51c-2.74-2.42-5.83-4.45-8.47-7S57.42,67.65,55,64.76c-.32-.37-.78.11-.62.48a37.75,37.75,0,0,0,5,8.36A66.56,66.56,0,0,0,66.79,81a47.19,47.19,0,0,1,6.52,7.25,36.17,36.17,0,0,1,4.16,9c.47,1.37,2.7,1.23,2.63-.35C79.82,90.23,75.37,84.76,70.54,80.51Z"/><g class="cls-9"><path class="cls-5" d="M53.42,77.42c3.25,1.58,6.66,2.88,10,4.26a1.81,1.81,0,0,0,0,1.43A16.59,16.59,0,0,0,65,86.21a2.11,2.11,0,0,0,1.78,1,2,2,0,0,0,1.86-.26c.25.75.51,1.49.79,2.22s.46,1.22.73,1.8c1,2.19,4.86.6,3.93-1.65a48.76,48.76,0,0,1-1.77-5c-.17-.58-.33-1.16-.49-1.74A94,94,0,0,1,69.31,67.5c-.84-.44-1.7-.88-2.58-1.28-1.11-.51-2.23-1-3.35-1.45-.18,4.08-.16,8.17-.13,12.26A92.28,92.28,0,0,0,52,73.23C52.43,74.63,52.91,76,53.42,77.42Z"/></g><path class="cls-12" d="M139.78,58.92a20.9,20.9,0,0,0-4.07-9.1c-11-13.94-15.12,16.48-16.17,22.5-2.28,13-2.38,26-3.32,39.07a161.91,161.91,0,0,0,1.35,34c.58,4.33,1.58,12,7.31,11.94,1.08-5.3-1.87-13-2-18.69a90.06,90.06,0,0,1,1.59-19.8C127.34,103.62,143.36,77.31,139.78,58.92Z"/><path class="cls-13" d="M139.78,58.92a20.9,20.9,0,0,0-4.07-9.1c-11-13.94-15.12,16.48-16.17,22.5-2.28,13-2.38,26-3.32,39.07a161.91,161.91,0,0,0,1.35,34c.58,4.33,1.58,12,7.31,11.94,1.08-5.3-1.87-13-2-18.69a90.06,90.06,0,0,1,1.59-19.8C127.34,103.62,143.36,77.31,139.78,58.92Z"/><path class="cls-14" d="M137.65,62.88A18.94,18.94,0,0,0,135,54.62a1.25,1.25,0,0,0-2.14,0,22.81,22.81,0,0,0-2.63,13.11C131.41,75,138.23,68,137.65,62.88Z"/><path class="cls-14" d="M135.17,75.73c.44-1.73-2.85-2.55-5.17-1.84-4,1.23-2,10.57,1,9.64C133,82.92,134.34,79.07,135.17,75.73Z"/><path class="cls-15" d="M139.78,58.92a20.9,20.9,0,0,0-4.07-9.1c-11-13.94-15.12,16.48-16.17,22.5-2.28,13-2.38,26-3.32,39.07a161.91,161.91,0,0,0,1.35,34c.58,4.33,1.58,12,7.31,11.94,1.08-5.3-1.87-13-2-18.69a90.06,90.06,0,0,1,1.59-19.8C127.34,103.62,143.36,77.31,139.78,58.92Z"/><path class="cls-16" d="M140.25,67.42c-1.22,3-3.47,12.78-5.83,17.32-1.24,2.39-2.54,6-5.29,6.89-4.33,1.47-3.18-16.15-3-18.13.74-7.4,2.92-14.57,3.74-22a.4.4,0,0,0-.74-.2,87.34,87.34,0,0,0-6.26,24.21c-.16,1.35-.27,2.69-.33,4a2.11,2.11,0,0,0-2.84,1.22c-.67,1.64-1.27,3.31-1.83,5-.71,8.34-1,16.7-1.58,25.11a161.91,161.91,0,0,0,1.36,33.95c.58,4.33,1.58,12,7.3,11.94,1.09-5.3-2-12.17-2.11-18.83a93.88,93.88,0,0,1,1.66-19.66C127,105.46,138.83,84.66,140.25,67.42Z"/><path class="cls-17" d="M105.49,68.56c-.68-17.45-7.85-36.14-21.8-47.26a33.33,33.33,0,0,0-5.37-3.52C76.9,17,74.9,16,73.27,16a1.3,1.3,0,0,0-1.19.91c-2.6,6.38-3.92,13.42-5.07,20.19a107.17,107.17,0,0,0-1.46,21.54,75.14,75.14,0,0,0,3.17,19.81c7.13,22.47,20,37.72,34.52,55.83,2.73,3.38,4.45,8,7.43,10.93.23-3-1.3-6.17-2-9.19C103.41,113.41,106.38,91.33,105.49,68.56Z"/><path class="cls-8" d="M92.93,98.9c0-1.64-.13-3.28-.23-4.92-.2-3.12-.54-6.24-1-9.34-1-7.19-2.52-15.13-5.75-21.7-2.89-5.89-2.32-8.58,3-13.08,2.66-2.23,4.07-4.94,3.17-8.43-.12-.45-.74-.25-.68.19,1,6.8-6.78,6.5-9.33,12.77-.87-2.94-1.7-4.8-2.55-7.75A39.67,39.67,0,0,1,78,36.22c0-3.64.37-7.28-.09-10.9a.44.44,0,0,0-.87,0C76.61,32,75.66,38.5,77,45.08c1.81,9.25,7.48,21.55,7.56,21.79-1.63-.78-4.7-1.11-7.64-1.11-2.77,0-5.75-.26-7.3-2.67a.25.25,0,0,0-.46.12c0,1.7,2.6,3.92,5.86,4.32s7.4-.3,10,2.61c2.44,2.73,5.13,13.93,2.36,16.8-3.26-1.51-6.62-3.6-10.8-4.52-.36-.08-.44.52-.09.66a36.54,36.54,0,0,1,8.6,4.81A10.73,10.73,0,0,1,88,91a20,20,0,0,1,1.36,3.2c.08,1.34.13,2.68.17,4,.06,1.74-.21,3.73.47,5.36a1.36,1.36,0,0,0,2.59,0C93.2,102.11,93,100.44,92.93,98.9Z"/><path class="cls-18" d="M130.12,35.76c.14-.41-.38-.76-.53-.34-7.16,18.84-12.31,38.23-14.4,58.68a221.23,221.23,0,0,0-.89,30.68,149.8,149.8,0,0,0,1.47,15.42c.73,5.14,1.35,11.05,3.49,15.71a.82.82,0,0,0,1.53-.51,64.55,64.55,0,0,0-1.31-6.62c-.56-2.59-1-5.21-1.42-7.84a141.72,141.72,0,0,1-1.61-16.2,233.13,233.13,0,0,1,.82-30.37A247.92,247.92,0,0,1,130.12,35.76Z"/><g class="cls-4"><path class="cls-5" d="M104,77.34c.52-.85,1.08-1.67,1.65-2.47,0-2.1-.08-4.2-.16-6.31C104.92,54,99.82,38.52,90,27.34a46.82,46.82,0,0,1,3.12,5.77c4.34,9.69,5,21.55.23,31.19C89.52,72.12,82.4,77.86,82.89,87.23c-4.52-1.56-8.81-3.92-13.18-5.84h0q1.17,3.35,2.51,6.49a16.1,16.1,0,0,1,3,5.35q1.09,2.72,2.24,5.4h0a157.09,157.09,0,0,0,11.19,17.11l0,0c.66.89,1.33,1.77,2,2.65l.16.22,2,2.64a4.66,4.66,0,0,0,5.4-2.87c1.44-3.23,1-7,.94-10.47a111.67,111.67,0,0,1,1.28-17.33C101.14,86.13,101.58,81.25,104,77.34Z"/></g><path class="cls-19" d="M117.44,140.83s-27.18-29-23.26-57.23,36.85-67.42,41.29-63S137,35,128.94,58,118,118.88,117.44,140.83Z"/><g class="cls-11"><path class="cls-5" d="M128.94,58c1.89-5.37,3.49-10,4.78-14.06a39.2,39.2,0,0,0,1.09-9.73,16.74,16.74,0,0,0-.83-4.26c-.3-1-1.91-1.42-2.38-.31-2.75,6.5-3,14.33-7.69,19.93-.29.36-1.2,1.51-1.75,1a5.17,5.17,0,0,1-1.24-2.4,45.19,45.19,0,0,1-1.47-6.89c-.2-1.18-1.78-1.12-2.33-.31a14.48,14.48,0,0,0-2.68,6.36,17.67,17.67,0,0,0,1.21,7.46c1.57,4.81,4.79,10.25.72,14.75-1.84,2-3.27-2-3.86-3.37-1.1-2.48-1.73-5.48-3.39-7.67a1.52,1.52,0,0,0-2.34-.3c-2.32,2.41-1.9,5.91-1.22,8.92.86,3.83,2.71,7.25,4.51,10.71,2.09,4,3.36,7.85,3,12.43A107.92,107.92,0,0,1,111.29,101a1.68,1.68,0,0,0-1.33,1.41,47.57,47.57,0,0,0-.1,13.74c.61,4.4,1.84,9.42,4.87,12.84a5.49,5.49,0,0,0,3.07,1.86C118.86,108.68,122,77.8,128.94,58Z"/></g><path class="cls-8" d="M132.59,34a.26.26,0,0,0-.51,0c-.27,6.45-4.2,12.16-6.65,18-1.08,2.58-2,5.25-2.86,8-.57-1.3-1.27-2.55-1.86-3.73-2-4-3.67-7.56-2.49-12.09a.41.41,0,0,0-.74-.31c-1.72,3.31-.93,6.73.47,10,.82,1.93,1.88,3.74,2.56,5.74a21,21,0,0,1,.89,4.36c-.81,2.86-1.56,5.73-2.33,8.55-.83,3-1.63,6.12-2.36,9.2a28.63,28.63,0,0,0-2.91-5.25,22.28,22.28,0,0,1-3.71-7c-.63-2.35-.86-4.84-1.31-7.24a.37.37,0,0,0-.73.1c.42,4.52.61,8.76,2.92,12.8a46.2,46.2,0,0,1,3.57,7.14,22.73,22.73,0,0,1,1,4.76c-.47,2.35-.88,4.71-1.19,7.07-1,7.55-2,15.53-1.09,23.11.1.86,1.41,1.21,1.62.22,1.51-7.14,1.32-14.6,2.2-21.85.19-1.61.43-3.22.7-4.82a.89.89,0,0,0,.16-.34,11,11,0,0,0,.21-1.81c1-5.41,2.28-10.77,3.64-16.08.5-1.94,1-3.9,1.49-5.87a.87.87,0,0,0,.07-.17,6.24,6.24,0,0,0,.23-1A116.94,116.94,0,0,1,127.73,52C130,46.2,133.28,40.4,132.59,34Z"/><g class="cls-4"><path class="cls-5" d="M123.82,77.42c-1.57,3.13-4,7.17-6.91,8.24-2.47.9-21-9.79-21.09-9.61-.28,1-.53,1.94-.76,2.9v0c-.11.47-.22.94-.31,1.41v0q-.15.69-.27,1.38h0c.08.1.17.19.26.29,1.79,1.93,3.5,3.87,5.12,6,5.71,7.41,10.63,16.37,11.18,25.81.42,7.18.25,18.16,6.52,23.12C118.1,120.56,119.87,97.24,123.82,77.42Z"/></g><path class="cls-3" d="M123.19,181.66c-3.79-9.53-12.68-23.32-19.47-31.42-3.38-4-3.29-3.91-6.77-7.86-7.07-8-14.46-15.73-22.27-23a203.39,203.39,0,0,0-24.94-20c-8.57-5.78-18-11.37-27.95-14.49-2.64-.83-5.33-1.44-8-2.19-.53-.15-.74.66-.22.83a138,138,0,0,1,15,6.54,137.35,137.35,0,0,1,14,7.71,187.05,187.05,0,0,1,25.76,19.79,303,303,0,0,1,22.59,22.89c3.49,3.88,6.95,7.8,10.28,11.82s14.59,20.21,19.95,31.58A1.82,1.82,0,0,0,123.19,181.66Z"/><g class="cls-4"><path class="cls-5" d="M114.14,164.71l-.09,0a.53.53,0,0,0-.67.52c-.12,1.72,1.28,3.44,2,4.92,1,1.92,2,3.84,3,5.74s2.09,3.74,3.08,5.65c.34.65.64,1.34,1,2a1.83,1.83,0,0,0,.76-1.88A111,111,0,0,0,114.14,164.71Z"/></g><path class="cls-20" d="M127.87,158.71c-.44-.88-.86-1.78-1.32-2.64a21.75,21.75,0,0,1-1.48,1.87c-.26.29-.54.57-.82.85.16.37.32.74.49,1.1a4.52,4.52,0,0,0-.92-.69,29.07,29.07,0,0,1-4.91,3.62c-.66.4-1.33.77-2,1.11a3.85,3.85,0,0,0,.29.91l-.46-.82a22.48,22.48,0,0,1-5,1.81,7.07,7.07,0,0,1-.92.08c.64,1,1.29,2,1.93,3a23.81,23.81,0,0,0,7.94-3.14,30.47,30.47,0,0,0,6.42-4.93c.4-.4.82-.83,1.24-1.29C128.17,159.29,128,159,127.87,158.71Z"/><path class="cls-21" d="M126.3,154.59h0c-1.78,1-3,2.56-4.53,3.85a22.46,22.46,0,0,1-6.8,3.88,28.22,28.22,0,0,1-6.24,1.48,20.6,20.6,0,0,1,2.37,3.15,22.07,22.07,0,0,0,6.9-1.77c3.18-1.28,7.9-3.8,9.5-7.2C127.06,156.85,126.67,155.72,126.3,154.59Z"/><path class="cls-15" d="M112.22,164a32.65,32.65,0,0,0,6.06-2.24,26.26,26.26,0,0,0,5.32-3.3,40.69,40.69,0,0,0,3-3.07c-.08-.25-.16-.5-.25-.75h0c-1.78,1-3,2.56-4.53,3.85a22.46,22.46,0,0,1-6.8,3.88,28.22,28.22,0,0,1-6.24,1.48l.45.52A24.59,24.59,0,0,0,112.22,164Z"/><path class="cls-22" d="M100.19,151.54s1.57-52-43.38-74.48-64,2.1-54.36,9.94S75.1,120.18,100.19,151.54Z"/><path class="cls-23" d="M100.19,151.54s.07-2.27-.23-6.07c-7.76-8.27-16.09-14.95-21.82-25a21.87,21.87,0,0,1-2.51-7.82c-.44-2.82-.4-5.74-1.3-8.47a.8.8,0,0,0-1.56.21c.12,5.31.08,10.81,2.18,15.78a49.12,49.12,0,0,0,3.51,6.29c-5.31-4.18-11.46-6.92-16.77-10.58-5.11-3.53-5.09-10.88-7-16.21A30.21,30.21,0,0,0,44.42,85.34c-.48-.35-1,.39-.61.79,4,4.25,6.39,9.4,8.21,14.88a62.64,62.64,0,0,1,2,7.88c.15.82.24,1.75.35,2.68-5.8-2.78-12.72-4.81-18-8.39C31.77,100.12,29.7,94.92,26.12,91c-2.05-2.27-3.85-4.4-4.73-7.39-.82-2.79-.76-5.89-.85-8.77a.68.68,0,0,0-1.35,0c-.55,5.58-.51,10.66,2.88,15.4,1.69,2.36,3.73,4.43,5.3,6.89A19.69,19.69,0,0,1,28.89,100c-2.61-1.22-5.21-2.49-7.77-3.8C16.06,93.58,3.84,87.58,4,88.08,17.36,97,76.16,121.5,100.19,151.54Z"/><g class="cls-11"><path class="cls-5" d="M84.21,124.35c-3.46-4.23-4.21-9.47-5.44-14.64-.91-3.77-2-10.25-6-12.12a1.9,1.9,0,0,0-2.58.68c-1.63,3.29-1,6.38-.19,9.8.39,1.68.74,5.55-1.54,6.07-1.27.28-3.29-1.69-4.18-2.49a33,33,0,0,1-4.83-5.71c-2.76-4-4.11-8.76-6.12-13.15-2.25-4.9-5.46-10.34-11-11.81A1.9,1.9,0,0,0,40,82.79c-.23,4.44,2.92,7.44,5.25,10.84,10,14.72-7.15,8.1-12.11.82a116.19,116.19,0,0,1-7.42-12.36c-1.4-2.74-6.75-17.64-8.34-6-.45,3.26,3.41,11-.38,13-2.8,1.51-8.09-1.8-11-2.19A24.93,24.93,0,0,0,2,86.62l.14.12a3.45,3.45,0,0,0,.28.26c9.67,7.84,72.65,33.18,97.74,64.54a79.18,79.18,0,0,0-1.1-13.31h0C94.14,133.59,88.52,129.64,84.21,124.35Z"/></g><g class="cls-4"><path class="cls-5" d="M97.4,129.84a29.31,29.31,0,0,1-4.33-9.16,35.88,35.88,0,0,1-1.23-7,84.1,84.1,0,0,0-5.19-9.64c-.3,1.33-.54,2.67-.73,4a42.77,42.77,0,0,0,.35,14.45,35.45,35.45,0,0,0,5.43,12.88,33.34,33.34,0,0,0,5,5.87,41.36,41.36,0,0,0,3.14,2.76A98,98,0,0,0,97.4,129.84Z"/></g><path class="cls-24" d="M118.48,159.48a7.91,7.91,0,0,1,1-.87l1.09-.82h0a3.8,3.8,0,0,1,1-.69l.06,0c.25-.21.5-.4.77-.59a30.68,30.68,0,0,0-.13-4.42c-.66-7.84-2.62-15.54-3.59-23.35-2.31-18.51-5.88-41.07-25.28-49.64A1.62,1.62,0,0,0,91,80.39C88.69,92.48,87,109,91.18,123c3.8,12.89,15.66,26.23,25.47,35.07A13.39,13.39,0,0,0,118.48,159.48Z"/><path class="cls-25" d="M110.35,143.69c-1.6-3.86-2.66-7.17-6.29-9.48-1.06-.68-3.72-2.72-4.74-1.17-1.49,2.27,4.24,7.68,5.41,9.27s4,7.52,6.62,6.73C112.54,148.38,111.75,147.1,110.35,143.69Z"/><path class="cls-25" d="M117.54,138.77A91.75,91.75,0,0,1,116,127.16c-.19-2,.06-12-3.61-8.62-5.63,5.17-1.31,16.66,3.23,21.2C116.59,140.74,117.85,140.32,117.54,138.77Z"/><path class="cls-26" d="M120.71,155c-1.71-3.74-3.82-7.35-5.62-11a114.12,114.12,0,0,1-7.33-17.64c.12-3.37,2-6.34,3.32-9.32,1.08-2.36,1.87-5.08.68-7.53-.19-.39-.87-.11-.7.29,1.16,2.93-1.43,6-2.74,8.5a20.75,20.75,0,0,0-1.7,3.8c-1.1-4.71-1.78-9.49-2.58-14.26-1-6.05-2.24-12.43-5.71-17.61-.16-.24-.6-.09-.49.2a75.29,75.29,0,0,1,4.55,18.32c.17,1.44.34,2.86.51,4.29A21.66,21.66,0,0,0,100,110.5c-3.15-2.43-6.26-4.66-7.39-8.69-.11-.38-.64-.21-.58.16.58,3.66,2.71,6,5.4,8.33a36.71,36.71,0,0,1,3.71,3.56c1.2,1.4,1.65,3,2.47,4.59a70.4,70.4,0,0,0,1.78,8.39c.41,1.49.88,3,1.39,4.41a16.63,16.63,0,0,0-1.81-.72c-3.35-1.21-5.57-3.32-7.92-5.93-.35-.39-.91.18-.57.58,1.79,2.15,3.32,4.57,5.69,6.16,2.14,1.43,4.57,1.62,6.13,3.9,1.19,2.95,2.52,5.85,3.89,8.74,2,4.18,3.9,8.52,6.09,12.67A4.9,4.9,0,0,1,120.71,155Z"/><g class="cls-4"><path class="cls-5" d="M118.62,128.69c-1.6-12.84-3.81-27.64-11.5-38.36a73,73,0,0,1,2.82,9.57c1.55,7.09,1.63,14.55,2.15,21.76.24,3.18.53,6.36,1,9.52s1.25,6,1.45,9.1-.67,5.67-3.26,7.29a6.56,6.56,0,0,1-3.28,1,1.92,1.92,0,0,0-1.21-.41,132.39,132.39,0,0,0,9.9,9.92,12.65,12.65,0,0,0,1.65,1.28l.45-.15c.22-.21.44-.41.68-.6l1.09-.82h0a3.8,3.8,0,0,1,1-.69l.06,0c.25-.21.5-.4.77-.59a30.68,30.68,0,0,0-.13-4.42C121.55,144.2,119.59,136.5,118.62,128.69Z"/></g><path class="cls-20" d="M116.5,153.29a34.91,34.91,0,0,1-7.88,3.68c-1.36.45-2.76.79-4.15,1.12l-.81.18.84.71c.64.66,1.29,1.29,2,1.91,1.1-.23,2.16-.53,3-.77a34.13,34.13,0,0,0,8.71-3.92,38.78,38.78,0,0,0,6.73-5.18c-.19-1.35-.47-2.74-.77-4.16l-.15.19A32.63,32.63,0,0,1,116.5,153.29Z"/><path class="cls-27" d="M125.57,152.36c-.28-.86-.64-1.94-1-3.11a1.82,1.82,0,0,0-.76.48,39.28,39.28,0,0,1-10.51,7.64,18.77,18.77,0,0,1-6.71,2.26c-.44,0-1.2,0-2-.06l.12.11c.84.82,1.66,1.68,2.45,2.56.21.22.41.44.62.65a23.54,23.54,0,0,0,8.43-2.87,33.57,33.57,0,0,0,9.52-6.93Z"/><path class="cls-28" d="M125.57,152.36l-.29-.9,0-.09c-.73.81-1.58,1.6-2.23,2.2a37.31,37.31,0,0,1-6.61,4.6,24,24,0,0,1-7.79,2.9c-.5.1-1.41.22-2.13.36l.75.81c.21.22.41.44.62.65a23.54,23.54,0,0,0,8.43-2.87,33.57,33.57,0,0,0,9.52-6.93Z"/><path class="cls-29" d="M125.57,152.36c0-.1-.06-.21-.1-.31-1.2.82-2.31,1.9-3.47,2.74a59.44,59.44,0,0,1-5.94,3.89,19.27,19.27,0,0,1-9.51,2.81l.69.75c.58.6,1.15,1.21,1.7,1.83a24.2,24.2,0,0,0,7.26-2,26.92,26.92,0,0,0,6.92-4.38,31.41,31.41,0,0,0,3.16-3.16C126,153.79,125.8,153.07,125.57,152.36Z"/><path class="cls-30" d="M80.12,60.59c-1.42-2.87-3.14-5.56-4-8.77A70.42,70.42,0,0,1,74,38.13c-.42-5.36,1.49-11.09.21-16.28a.79.79,0,0,0-1.51,0C71,31.39,68.08,41.41,68.08,51.14c0,6.13.8,12.57,8.39,12.72,1.91,0,3.48-.06,5.28.77A26,26,0,0,0,80.12,60.59Z"/><path class="cls-14" d="M87,81.8c-.4-4-1.08-7.16-2.88-9.31-2.9-3.46-8.38-2.41-12.28-3.92a1.4,1.4,0,0,0-1.83.92c-.39,3.13.21,7.94,3.53,10,2.25,1.4,3.72,1.37,6.66,2.5,2.18.84,4.34,1.14,6.37,2.36A6.13,6.13,0,0,0,87,81.8Z"/><path class="cls-30" d="M90.28,35.46A16.48,16.48,0,0,0,82,24.56c-1.54-.88-2,7.44-1.94,8.56a47.85,47.85,0,0,0,.52,8.27A26.9,26.9,0,0,0,83,49.06C86.36,44.59,91.49,41.9,90.28,35.46Z"/><path class="cls-30" d="M96.43,43.77c-.38-.83-1.6-.37-1.61.43A10.62,10.62,0,0,1,91,51.61c-7.44,6.64-1.39,11.89.54,19.78-1-4.3,4.13-8.35,5.91-11.69C100.22,54.58,98.77,48.89,96.43,43.77Z"/><path class="cls-31" d="M77,60.74c-1.21-1.44-2.76-2.25-3.73-4a16.42,16.42,0,0,1-1.75-6.49A52,52,0,0,1,72.12,37a.16.16,0,0,0-.31-.08,38.71,38.71,0,0,0-2.39,14.76c.21,3.67,2,11,6.86,10.78A1,1,0,0,0,77,60.74Z"/><path class="cls-31" d="M80.07,78.31c-1.58-1-3.44-1-4.89-2.42a9.67,9.67,0,0,1-2.63-5.41c-.06-.33-.59-.25-.59.08,0,2.22.27,4.73,1.59,6.59s4,3.61,6.3,2.81A.92.92,0,0,0,80.07,78.31Z"/><path class="cls-32" d="M13.85,75.6a5.51,5.51,0,0,0-.83-1c-3.41-3-10.06,2-10.41,5.64S8,86.33,11,86.89c2.34.43,4.64.77,5.36-1.82C17,82.84,15.53,78,13.85,75.6Z"/><path class="cls-32" d="M43.75,95.4c-.89-1.67-2.68-3.31-3.54-4.51-1.88-2.61-4.81-7.37-3.6-10.78.74-2.09,5.81-1.48,7.62-1.71,5.49-.68-2.48-5-5.58-6.37C35.84,70.8,29,69,26.1,70.76c-4.65,2.8.68,10.23,2.65,13.4,2.85,4.58,6.34,10.81,10.76,14,1.78,1.27,4.63,2.23,4.78-.77A3.78,3.78,0,0,0,43.75,95.4Z"/><path class="cls-33" d="M67.18,104c0-1.09,0-2.12,0-2.75-.2-3.84,4.2-7.89,2-11.42-2.44-4-11.43-8.32-15.8-9.54-3.09-.86-4.69-.42-2.77,2.58,1.75,2.73,3,4.61,3.88,7.76a36.35,36.35,0,0,0,3.62,8.8,49.27,49.27,0,0,0,5.1,7.47C66.28,110.38,67,107,67.18,104Z"/><path class="cls-34" d="M10.81,75.43C7.61,75.17,4.49,78.05,4,81a.41.41,0,0,0,.75.31,9.81,9.81,0,0,1,2.86-2.77A32.51,32.51,0,0,1,11.23,77C12,76.55,11.56,75.49,10.81,75.43Z"/><path class="cls-34" d="M38.23,75c-1.13-1.78-3.91-2.13-5.83-2.37a7.6,7.6,0,0,0-6.13,1.65c-.34.28.1.74.45.58,1.66-.78,4.22-.38,5.93,0s3.2,1.35,4.86,1.43A.85.85,0,0,0,38.23,75Z"/><path class="cls-34" d="M67.76,91.7c-1.41-2.43-3.87-4.11-6.15-5.67s-5.1-3.26-8-3.62c-.45-.06-.52.58-.21.79,2.19,1.46,4.57,2.61,6.75,4.09,2.37,1.62,4.32,3.73,6.66,5.37C67.4,93.08,68.1,92.28,67.76,91.7Z"/><path class="cls-32" d="M56,125.35c-4.11-1.49-9.2,0-13.52-.55-2.24-.29-6.53-1.2-5.37-4s8.21-2,10.45-3.32c-4.36-2.68-7.37-2.68-9.72-2.16a15.43,15.43,0,0,0-6.4,3.79c-2.14,2.13-.92,5.11,1.1,7,3.82,3.59,9.28,4.16,14.27,3.66C48,129.68,59.86,126.74,56,125.35Z"/><path class="cls-25" d="M100.56,104.37c-.47-2.61-2.32-5.8-2.94-7.5a55.73,55.73,0,0,1-3.2-12.09c-.12-.92-1.14-1-1.72-.48s-.36,3.16-.46,3.89c-.39,3.08-1,6.25-.16,9.32.75,2.8,2.89,4.55,4.88,6.5a17.59,17.59,0,0,0,3.33,3.12A4.06,4.06,0,0,0,100.56,104.37Z"/><path class="cls-25" d="M109.68,100.71a19.22,19.22,0,0,0-4-9.19c-.61-.72-6.51-5.41-5.45-3,.55,1.24,2,4,2.51,5.55a61.83,61.83,0,0,1,2.25,8.23c.23,1.38,1.18,7.16,2.26,12.55.2,1,2-1.76,2.35-3.53a25.31,25.31,0,0,0,.36-8.5C109.89,102.13,109.8,101.42,109.68,100.71Z"/><path class="cls-25" d="M103.62,125.77c.18-1.83-1.22-5.23-1.51-6.12a18.19,18.19,0,0,0-4-6.42c-.87-.94-3.38-4.15-4.81-4.07-1.87.12-1.6,4.15-1.34,5.29.71,3.12,2.78,5.27,4.94,7.49,1.32,1.36,3.31,4.7,5.39,5C103.17,127.05,103.55,126.55,103.62,125.77Z"/><path class="cls-30" d="M125.61,30c-2.21.67-4,3.33-5,5.28-1.68,3.37,0,6.8,1.39,9.94a1.26,1.26,0,0,0,2.17,0,22.63,22.63,0,0,0,1.84-4.16,19.94,19.94,0,0,0,2.18-7.13C128.39,32.13,128.2,29.21,125.61,30Z"/><path class="cls-30" d="M115.86,59.14c-.35-1.46-.82-2.89-1.27-4.32a15.11,15.11,0,0,0-1.68-4.35,1.58,1.58,0,0,0-2.86.37c-.72,2.65.82,5.66,1.79,8.07s1.81,5.1,2.88,7.58a.66.66,0,0,0,1.13,0C116.93,64.16,116.45,61.54,115.86,59.14Z"/><path class="cls-15" d="M126.3,154.59h0l-.16.1.16-.18c-.16-.48-.32-1-.47-1.43l-.24-.73c0-.1-.06-.21-.1-.31-.26-.81-.58-1.77-.86-2.8a1.82,1.82,0,0,0-.76.48,28.78,28.78,0,0,1-3.28,3l.15.1h-.27a47.25,47.25,0,0,1-7.11,4.53,26.23,26.23,0,0,1-2.9,1.32c2.56-.25,5.31-2.06,7.55-2.7,3.94-1.14,6,1.56,7.54,4.6a9,9,0,0,0,2-2.6C127.06,156.85,126.67,155.72,126.3,154.59Z"/><path class="cls-25" d="M127.5,180.14c-1.79-3.28-5.48-10.31-7.35-12.5-.18-.21-.47.06-.37.29,1.48,3.12,2.77,6.32,4.48,9.33.72,1.26,1.43,2.53,2.15,3.8.33-.19.65-.38.56-.29S127.47,180.12,127.5,180.14Z"/><path class="cls-25" d="M135.7,180.43c-.9-1.62-1.8-3.25-2.81-4.8-2.11-3.23-3.89-6.85-6.28-9.87-.16-.21-.47.05-.35.27,1.91,3.39,3.33,7,5.07,10.51.76,1.53,1.55,3,2.35,4.53A2,2,0,0,0,135.7,180.43Z"/></g></g></g></svg>