<svg xmlns="http://www.w3.org/2000/svg" xmlns:xlink="http://www.w3.org/1999/xlink" viewBox="0 0 254.42 162.66"><defs><style>.cls-1{isolation:isolate;}.cls-2{fill:#7b8852;}.cls-3,.cls-4,.cls-5{fill:#5d3047;}.cls-11,.cls-14,.cls-24,.cls-4{opacity:0.3;}.cls-11,.cls-14,.cls-15,.cls-24,.cls-4,.cls-5,.cls-8{mix-blend-mode:multiply;}.cls-21,.cls-22,.cls-5{opacity:0.5;}.cls-6{fill:#10000a;}.cls-7{fill:url(#linear-gradient);}.cls-11,.cls-8{fill:#99a579;}.cls-8{opacity:0.7;}.cls-9{fill:url(#linear-gradient-2);}.cls-10{fill:url(#linear-gradient-3);}.cls-12{fill:#66933f;}.cls-13{fill:#6a4260;}.cls-14{fill:#472143;}.cls-15{fill:#351434;opacity:0.4;}.cls-16{fill:url(#linear-gradient-4);}.cls-17{fill:url(#linear-gradient-5);}.cls-18{fill:url(#linear-gradient-6);}.cls-19{fill:url(#linear-gradient-7);}.cls-20{fill:url(#linear-gradient-8);}.cls-21,.cls-22{fill:#fff;}.cls-21,.cls-23{mix-blend-mode:overlay;}.cls-23{fill:#c9ceaf;}.cls-24{fill:#4c5b2f;}.cls-25{fill:#b1bd3f;}</style><linearGradient id="linear-gradient" x1="18.34" y1="72.4" x2="48.51" y2="72.4" gradientUnits="userSpaceOnUse"><stop offset="0" stop-color="#acb939"/><stop offset="1" stop-color="#dce19b"/></linearGradient><linearGradient id="linear-gradient-2" x1="21.45" y1="102.14" x2="55.9" y2="102.14" xlink:href="#linear-gradient"/><linearGradient id="linear-gradient-3" x1="21.77" y1="90.92" x2="70.7" y2="90.92" xlink:href="#linear-gradient"/><linearGradient id="linear-gradient-4" x1="136.56" y1="131.02" x2="142.1" y2="116.08" xlink:href="#linear-gradient"/><linearGradient id="linear-gradient-5" x1="163.97" y1="141.2" x2="169.52" y2="126.26" xlink:href="#linear-gradient"/><linearGradient id="linear-gradient-6" x1="158.5" y1="145.62" x2="145.33" y2="106.54" xlink:href="#linear-gradient"/><linearGradient id="linear-gradient-7" x1="-1683.69" y1="-2202.03" x2="-1683.37" y2="-2202.03" gradientTransform="matrix(1.68, 156.54, 156.54, -1.68, 347676.6, 259878.74)" gradientUnits="userSpaceOnUse"><stop offset="0" stop-color="#834462"/><stop offset="1" stop-color="#5d3047"/></linearGradient><linearGradient id="linear-gradient-8" x1="-1685.02" y1="-2200.23" x2="-1684.7" y2="-2200.23" gradientTransform="matrix(29.23, 80.39, 80.39, -29.23, 226337.55, 71206.2)" gradientUnits="userSpaceOnUse"><stop offset="0" stop-color="#956a8b"/><stop offset="1" stop-color="#6a4260"/></linearGradient></defs><title>Asset 17</title><g class="cls-1"><g id="Layer_2" data-name="Layer 2"><g id="Layer_1-2" data-name="Layer 1"><path class="cls-2" d="M19.28,80.49S6.53,94.8,23.64,103.75,19.28,80.49,19.28,80.49Z"/><path class="cls-3" d="M19,83.25S20.79,64,52.3,57.88s61.25-25.38,80.5-43.76,55.13-21,71.75,5.25.89,61.26-56.87,84c-41,16.14-103.26,22.75-120.76-1.75Z"/><path class="cls-4" d="M192.38,6.87c6.19,13.83-5.48,30.8-5.48,30.8C160.91,77.45,86,92.4,55.74,90.89,33.49,89.77,19,83.25,19,83.25l7.88,18.38c17.5,24.5,79.78,17.89,120.76,1.75,57.76-22.75,73.5-57.75,56.87-84A41.11,41.11,0,0,0,192.38,6.87Z"/><path class="cls-5" d="M206.71,36.38a4,4,0,0,1,.67.83c1.34,2.38.48,8.36-.65,11.78-3.54,10.66-10.1,18.92-18.43,26.36-7.56,6.76-17,11.45-25.8,16.42-22.88,12.9-45.75,19.18-73.09,21.11-8.65.6-8.74-4.71,0-6.2s19-3.67,26.13-5.53c12.2-3.18,41.18-11,64-34.31a111.66,111.66,0,0,0,18.34-25.52C199.6,38,203.29,32.75,206.71,36.38Z"/><path class="cls-5" d="M128,109.93a202.36,202.36,0,0,0,19.67-6.55c39.89-15.71,59.74-37.27,62.72-57.75C196.18,48.08,143.28,60.41,128,109.93Z"/><path class="cls-6" d="M193,50a99.34,99.34,0,0,1-13.48,16.87c-13.35,13.65-30.32,21.86-44.55,27a81.83,81.83,0,0,0-5.41,11.68,287.1,287.1,0,0,0,33-13.71c32.92-16,42.49-34.21,45.05-45.61A135.38,135.38,0,0,0,193,50Z"/><path class="cls-5" d="M44.63,113.63c7.94,2.71,17.5,4,27.84,4.15-3.75-5.16-11.53-12.67-11.53-12.67C82.62,96.77,73.73,74,73.73,74A68.12,68.12,0,0,1,44,75.92c-2.22-5.56,3.65-14.41,7.26-17.83h0l-1.37.3h0l-1.33.32h0l-1.31.33h0l-1.27.35h0l-1.24.37h0l-1.2.38h0C20.85,67.67,19.1,82.72,19,83.24h0l7.88,18.38C30,105.91,36.7,110.15,44.63,113.63Z"/><path class="cls-7" d="M20,87.81s-5.58-9.69,3.6-19.92C33.73,56.61,48.51,57,48.51,57s-7.78,1.95-14.39,12.45c-5.3,8.43,2,12.84-5.54,15.07A81,81,0,0,0,20,87.81Z"/><path class="cls-8" d="M22,81.29c-2-.07-3.11.66-3.55,1.28a15.89,15.89,0,0,0,1.46,5.06l.2.14a78.56,78.56,0,0,1,8.46-3.26c5-1.5,3.41-4,3.41-8C24.2,75.12,22,81.29,22,81.29Z"/><path class="cls-9" d="M31.79,97.83s19.83,10.89,24.11,20.62c0,0-37.73,0-34.23-23.34C25,72.75,31.79,97.83,31.79,97.83Z"/><path class="cls-8" d="M44.72,106.33a116,116,0,0,0-12.93-8.5s-.2-.74-.55-1.85c-5-.1-9,.36-9.61,1.62C21.63,97.6,24.21,110.12,44.72,106.33Z"/><path class="cls-8" d="M28.71,99.58c1-5.76-3.46-8.35-6.57-7.17-.16.81-.32,1.7-.47,2.7A16.23,16.23,0,0,0,23,104.92C24.86,106,27.54,106.19,28.71,99.58Z"/><path class="cls-10" d="M22,93.84s-.47,11.36,20.13,10.5c24.64-1,28.6-20.83,28.6-20.83s-11,9.36-13.92,8c0,0,12.31-6.09,13.34-13,0,0-14.35,4.66-27.44,1C32.12,76.62,23,75.3,21.77,85.67Z"/><path class="cls-11" d="M70.7,83.51s-11,9.36-13.92,8c0,0,12.31-6.09,13.34-13l-.25.07C57.22,101.18,24.33,90.83,24.33,90.83a11.18,11.18,0,0,0-2.48-1.75L22,93.84s-.47,11.36,20.13,10.5C66.74,103.32,70.7,83.51,70.7,83.51Z"/><path class="cls-8" d="M26.53,101.3a11.31,11.31,0,0,0,1.38-4c1.85-9.79-3.08-14.49-4.91-15.86a11.85,11.85,0,0,0-1.23,4.2l.2,8.17S21.79,98.19,26.53,101.3Z"/><path class="cls-12" d="M1.43,92.74S6.16,94,18.76,98.26c8.76,3,7.69-16.2.67-14.59C16.5,84.35,13.13,86,1.66,86Z"/><path class="cls-13" d="M141.47,134s-12.08-3.79-9.36-17.4,15.17-25.67,32.28-40.45S203.44,48.06,229,52.42c29.56,5.06,37.34,50.17,1.94,59.12-30.56,7.73-47.84,15.95-59.12,27.22Z"/><path class="cls-14" d="M229.81,52.59c17.8,5.51,20.85,32.27-8.43,37.06a127.51,127.51,0,0,0-50.06,19.28c-2.55-6.06-5.8-8.7-5.8-8.7-10.36,1.17-20.93,10.36-20.93,10.36-1.13-2.13-4.55-6.22-6-8.09a21,21,0,0,0-5,9,80.85,80.85,0,0,0-1.61,12c1.61,8.1,9.47,10.57,9.47,10.57l30.31,4.76.75-.72a67.44,67.44,0,0,1,11.91-9l-.08,0c10.82-6.61,25.54-12.15,46.54-17.46C266,102.68,258.66,58.36,229.81,52.59Z"/><path class="cls-15" d="M169.38,130.54a28.15,28.15,0,0,0-10.08-23.75l-14,13.12c-2.76-6.49-9.94-10.64-9.94-10.64l5.32,24.45a6.67,6.67,0,0,0,.74.28l29.95,4.71.62-.19.49-.48a68.47,68.47,0,0,1,8.62-6.93C176.9,128.89,169.38,130.54,169.38,130.54Z"/><path class="cls-16" d="M145.54,143.53s-32.69,2.12-12.38-39.35C133.16,104.18,152.31,134.23,145.54,143.53Z"/><path class="cls-8" d="M139.55,138.56a16.77,16.77,0,0,1-.55,4.3,24.4,24.4,0,0,0,6.54.67c3.84-5.29-.68-17.27-5.3-26.63C138.24,119.51,132.31,129.28,139.55,138.56Z"/><path class="cls-17" d="M150,141.78s17.7-10.89,30.92-9.33C180.94,132.45,157.8,160.45,150,141.78Z"/><path class="cls-8" d="M167.32,134.1a81.9,81.9,0,0,0-16.8,7.39l-.38.55c1.75,4,4.23,5.79,7.05,6.1a18.67,18.67,0,0,1,.36-4.67A22.07,22.07,0,0,0,167.32,134.1Z"/><path class="cls-18" d="M141,137.41s-12.25-19,18-31.41c0,0,15.55,23.34-2.33,35.39C156.64,141.39,146,150.24,141,137.41Z"/><path class="cls-11" d="M158.92,106c-.71,5.18-4.4,28.7-13.13,28.7-4.29,0,.53,4.91,7.69,8.6a15.43,15.43,0,0,0,3.16-1.93C174.52,129.34,159,106,159,106Z"/><path class="cls-19" d="M167.89,2.83c-8.28,0-22.29,2.72-36.37,17.78-13.13,14-37.42,26.15-37.42,26.15S63.34,56.24,69,68.8C70.85,73,78.34,75,88.61,75,111.42,75,150.3,65,170.19,45.26c26.6-26.33,13.95-40,5.24-41.56A28.3,28.3,0,0,0,167.89,2.83Z"/><path class="cls-20" d="M212.42,56.23c-11,0-23.47,6-32.4,11.82-6.23,4.06-19.85,16.54-18.39,22.47,2.51,10.22,20.12,4.1,26.33,2.34,36-10.26,42.49-14.62,44.62-17s5.83-19.37-19.89-19.63Z"/><path class="cls-15" d="M183.68,125.78s18.12-10.76,45.87-17,22.09-31.14,22.09-31.14-1.7-4.82-4.53,3.68-2,16.42-21.8,22.36S172.64,123.23,183.68,125.78Z"/><path class="cls-21" d="M174,78.14s18.89-19.83,43.75-19c5.8.19,11.88,3,10.5,6.08-.72,1.59-6.08.82-15.74,2.21-10.67,1.52-23.21,6.07-34,12.7C178.5,80.13,170.3,83.28,174,78.14Z"/><path class="cls-22" d="M109.26,41.35S124,33.12,135.61,20.59C145.69,9.72,161.4,2.53,177.74,8.06c2.46.91,5.13,3,3.5,4.82S175.11,14.82,165.9,16c-8.69,1.06-14.84,3.53-27.47,12.6C125.48,37.85,106.24,47.4,109.26,41.35Z"/><path class="cls-23" d="M19.3,79.16s.53-15.38,22.27-20.68c0,0-17.63,4.91-19.76,20.42A3.53,3.53,0,0,0,19.3,79.16Z"/><path class="cls-23" d="M25.39,80.62s.94-4.64,16.18-.26c12.46,3.58,24.26.13,24.66.26s-5,5.71-21.21,2.92c-12.62-2.17-14.05-.05-16.44,1A4.89,4.89,0,0,0,25.39,80.62Z"/><path class="cls-24" d="M19.65,83.63c2.42,2,3.76,10-1.38,10.83-5.71,1-14-2.19-16.79-3.14l-.05,1.42S6.16,94,18.76,98.26C27.43,101.2,26.47,82.48,19.65,83.63Z"/><path class="cls-25" d="M3,89.34c0,1.88-.67,3.4-1.5,3.4S0,91.22,0,89.34s.67-3.4,1.49-3.4S3,87.46,3,89.34Z"/><path class="cls-23" d="M141.25,132.9s-7.39-15.24,15.41-24.43c0,0-14.92,8.77-11.56,22.73A9.86,9.86,0,0,0,141.25,132.9Z"/><path class="cls-23" d="M136.44,137.59c-4.57-6.34-7.87-13.78-3.82-29.26,0,0-11.78,23.91,2.57,31.42A18.4,18.4,0,0,1,136.44,137.59Z"/><path class="cls-12" d="M158.77,158.12a18.25,18.25,0,0,1-3.89-9.75,21.59,21.59,0,0,1,0-6.42,5.61,5.61,0,0,0-1-4.7c-2.72-3.85-10.25-4.73-12.74-.06a1.71,1.71,0,0,0-.11.22c0,.16,0,.32,0,.48a5.81,5.81,0,0,0,0,1c.82,10.92,10.44,21.89,10.44,21.89Z"/><path class="cls-24" d="M158.77,158.12a18.25,18.25,0,0,1-3.89-9.75,21.59,21.59,0,0,1,0-6.42,5.61,5.61,0,0,0-1-4.7c-2.72-3.85-10.25-4.73-12.74-.06a1.71,1.71,0,0,0-.11.22c0,.16,0,.32,0,.48a5.81,5.81,0,0,0,0,1c0,.46.09.91.16,1.37,1.15-1.31,3.23-3.23,5.67-3.34,4.95-.2,1,8.08,9.65,22Z"/><path class="cls-25" d="M158.84,158c.63,1.53-.51,3.45-2.54,4.28s-4.19.25-4.81-1.29.51-3.45,2.54-4.28S158.21,156.45,158.84,158Z"/></g></g></g></svg>