<svg xmlns="http://www.w3.org/2000/svg" xmlns:xlink="http://www.w3.org/1999/xlink" viewBox="0 0 168.54 192.61"><defs><style>.cls-1{isolation:isolate;}.cls-2{fill:#f4b11b;}.cls-11,.cls-3{fill:#de8031;}.cls-17,.cls-18,.cls-3,.cls-5{opacity:0.4;}.cls-11,.cls-12,.cls-15,.cls-18,.cls-3,.cls-5,.cls-7{mix-blend-mode:multiply;}.cls-4{fill:#df7826;}.cls-5{fill:#cd562f;}.cls-6{fill:#a56f29;}.cls-7{fill:#613d16;}.cls-12,.cls-15,.cls-21,.cls-7{opacity:0.3;}.cls-8{fill:#ce8931;}.cls-9{fill:#e58024;}.cls-10{fill:#ea9123;}.cls-11{opacity:0.5;}.cls-12{fill:#c05b28;}.cls-13{fill:#f1a51e;}.cls-14{fill:#f0a01f;}.cls-15{fill:#3d4827;}.cls-16{fill:#f0c333;opacity:0.7;}.cls-17{fill:#fff;}.cls-18{fill:#d75f27;}.cls-19{fill:url(#linear-gradient);}.cls-20{fill:url(#linear-gradient-2);}.cls-21{fill:#fbf17e;}</style><linearGradient id="linear-gradient" x1="55.69" y1="224.89" x2="129.85" y2="224.89" gradientTransform="translate(22.13 -55.95) rotate(-4.11)" gradientUnits="userSpaceOnUse"><stop offset="0" stop-color="#a6b942"/><stop offset="0.28" stop-color="#a3b641"/><stop offset="0.49" stop-color="#9aad40"/><stop offset="0.67" stop-color="#8b9d3d"/><stop offset="0.84" stop-color="#768639"/><stop offset="1" stop-color="#5b6a34"/></linearGradient><linearGradient id="linear-gradient-2" x1="7.2" y1="151.32" x2="155.14" y2="151.32" gradientTransform="matrix(1, 0, 0, 1, 0, 0)" xlink:href="#linear-gradient"/></defs><title>Asset 23</title><g class="cls-1"><g id="Layer_2" data-name="Layer 2"><g id="Layer_1-2" data-name="Layer 1"><path class="cls-2" d="M86,38.23c-19.32-20.45-54.27-9.4-71.46,8.15C4.83,56.32.53,69,0,82.73a59,59,0,0,0,3.15,21.55,29.3,29.3,0,0,0,5.77,10c.36.4.74.77,1.13,1.13a18.79,18.79,0,0,0,6.41,8.35c4.26,3,9.32.35,12-3.15,4.74-6.13,2-14.91.84-21.86a63.08,63.08,0,0,1-.63-16.5c0,.38.38-2.13.39-2.2.29-1.5.69-3,1.09-4.47.31-1.11.69-2.21,1.07-3.3.2-.55.41-1.09.62-1.64a9.2,9.2,0,0,0,.5-1.07,55.21,55.21,0,0,1,4-7c.23-.36.39-.6.49-.77s.31-.36.55-.66a39.46,39.46,0,0,1,3.09-3.25,33.24,33.24,0,0,1,7.48-5c.74-.38,1.48-.73,2.23-1.08.29-.14.59-.26.88-.39l.82-.32c2-.8,4.14-1.4,6.22-2.09a48.61,48.61,0,0,1,5.79-1.47c-.38.1,1.59-.2,1.69-.2.89-.08,1.79-.08,2.69-.08a22.27,22.27,0,0,1,4.82,3.87C81.22,59.68,94.08,46.77,86,38.23Z"/><path class="cls-3" d="M69.84,42.57c3.93-.76,13.38.63,10.64-5.41-1-2.18-8.1-4-10.42-4.2-4.77-.37-10,.9-14.61,2A59.82,59.82,0,0,0,23.52,54.82a90.28,90.28,0,0,0-19,36.39,70.25,70.25,0,0,0-1.8,11.59c.16.5.31,1,.48,1.48a29.3,29.3,0,0,0,5.77,10c.36.4.74.77,1.13,1.13a18.79,18.79,0,0,0,6.41,8.35,6.78,6.78,0,0,0,3.55,1.3c-.21-2.38-.49-4.76-.68-7.15a89.52,89.52,0,0,1,.25-19.5,75,75,0,0,1,13.15-32c5.85-8.33,13.88-14.57,22.9-19.1A54.48,54.48,0,0,1,69.84,42.57Z"/><path class="cls-4" d="M164,69.1C159.1,52.67,148.52,38.79,130.28,32c-7.16-2.69-16.31-2.94-23.22.64a19.69,19.69,0,0,0-8.4,7.79c-2.33,4.17-1.16,7.3.57,11.24,1,2.39,4.49,2.38,6.15.8-.82.78,1.59-.8,1.87-1a23.33,23.33,0,0,0,2.8-2.29,14,14,0,0,1,6-2.82c4.65-1.1,10.1,1.71,14.17,4.59,9.5,6.73,13.8,19.25,15.08,29.78,1.49,12.17,1.21,26.31-2.82,37.58-2.72,7.63-15.4,16.35-10.15,25.55,9.91,17.34,28.38-11.57,31.33-19C170.78,106.87,169.41,87.22,164,69.1Z"/><path class="cls-5" d="M155.1,64.09c-4.69-12.79-12.91-23.62-26.44-27.92-9.15-2.91-28.67-.59-29.31,8-.12,1.64.86,2.73,2.49,2.49,8.76-1.28,19.23-3.57,27.4,1.42,4.73,2.89,7.78,7.74,9.89,13a53.28,53.28,0,0,1,6.18,19.65c1.49,12.17,1.21,26.31-2.82,37.58a23.1,23.1,0,0,1-1.06,2.46q-.84,2.39-1.73,4.71c-1.38,3.61-13,26.32-1.48,21.83,21.5-8.41,23.4-39,22-58.5A92,92,0,0,0,155.1,64.09Z"/><path class="cls-6" d="M110.63,0S80,10.64,74.08,41.47s31.61,8.05,31.61,8.05-6.75-23.08,11.15-37.26Z"/><path class="cls-7" d="M116.84,12.26l-.68-1.36a37.28,37.28,0,0,0-6.14,6c-3.25,4.06-5.33,8.92-8.33,13.15-3.62,5.1-8,4.81-13.67,5.31-4.48.4-8.92,1.8-10.78,6-2.5,1.86-.9,6.66,2.6,6.94,1.91.15,3.89,1.51,5.52,2.41,2.66,1.46,5.24,3,8,4.3l.5.22a79.19,79.19,0,0,0,11.84-5.69S98.94,26.44,116.84,12.26Z"/><path class="cls-8" d="M110.63,0S80,10.64,74.08,41.47c-1.19,6.2-.61,10.23,1,12.71,1.36-3.14,2.18-6.69,3.14-9.63a81.63,81.63,0,0,1,8.26-18,59.44,59.44,0,0,1,14.21-15.21c3.71-2.93,7.71-5.45,11.41-8.33Z"/><path class="cls-9" d="M148.7,73.7a85.13,85.13,0,0,0-9-20.57c-3.52-5.7-10.31-11.82-17.28-13-9.85-1.71-19.68,4.52-20.82,13.74-.28,2.3,3.82,6.67,5.71,6.85,5.17,9.58,10.13,19,12.22,29.78,2.24,11.59-.2,23.8-2,35.27-1.68,10.68-5.67,25.59,7,30.86,5.92,2.46,11.88-2.94,15.2-7.06a53.86,53.86,0,0,0,8.88-16.75C154.62,115,154.42,92.9,148.7,73.7Z"/><path class="cls-5" d="M127.34,52.59c-4-5.19-10.81-12.53-16.11-11.09a17.34,17.34,0,0,0-7,5.64c4.54,4.75,9.11,9.16,12.22,15.21,3.75,7.32,5.41,15.83,6.75,23.87,1.66,10,2.83,20.11,2.38,30.33a155.11,155.11,0,0,1-2.23,19.11c-.42,2.45-2.8,10.17-3.92,17.52a14.4,14.4,0,0,0,5.07,3.42,8.21,8.21,0,0,0,4.94.42C142.44,131.65,145.79,76.54,127.34,52.59Z"/><path class="cls-10" d="M129,101.49a86.8,86.8,0,0,0-2.1-20.3c-2.74-11.28-7.63-31.81-19.44-36.59C99.59,41.43,89,47.55,89.15,56.17a9,9,0,0,0-3.9,5.61C82.31,74,78.78,85.94,75,97.85c-3,9.4-7.16,18.63-8.58,28.45-1.67,11.61.78,22.79,10.12,30.57,9.09,7.58,21.34,11.18,32.3,5.41C128.08,152.12,129,120.13,129,101.49Z"/><path class="cls-11" d="M118.92,142.67c-12.66-9.21-3.77-27.37-3.22-39.85.76-17.08-1.56-35.1-8.87-50.7-2.07-4.43-4.7-8.2-9-7.38h0a14.38,14.38,0,0,0-2.06,1l0,0a16.39,16.39,0,0,0-1.42.92l0,0c-.15.11-.3.22-.44.34l0,0a14.49,14.49,0,0,0-1.23,1.11l0,.05a12.68,12.68,0,0,0-1.4,1.72l0,0c-.1.14-.2.29-.29.44l.55,1a41.26,41.26,0,0,1,3.08,7.13,82.49,82.49,0,0,1,3.68,15.33A114.24,114.24,0,0,1,97,107,118,118,0,0,1,85.8,140.29c-2.66,5.21-6.92,10.52-9.83,16.13l.52.45c9.09,7.58,21.34,11.18,32.3,5.41,6.9-3.63,11.44-10.06,14.43-17.66A11.24,11.24,0,0,1,118.92,142.67Z"/><path class="cls-12" d="M98.39,46.41l-.24-.11a3.65,3.65,0,0,0-2.7-.35c-.34.11-3.08,2-2.92,2.22,5.85,9.58,6.79,21.77,6.19,33.41A120.7,120.7,0,0,1,97,107,118,118,0,0,1,85.8,140.29c-.58,1.14-1.19,2.26-1.8,3.38-1.75,3.89-3.63,7.71-5.61,11.49-.39.75-.8,1.51-1.22,2.26A44.34,44.34,0,0,0,86,163c.79-1.63,1.57-3.24,2.34-4.76a188,188,0,0,0,9.24-20.85,172.79,172.79,0,0,0,9.9-45.75c.89-11.08.85-22.38-2-33.19C104.22,54,103,48.54,98.39,46.41Z"/><path class="cls-13" d="M72,38c-7.61-1.67-15.68.81-22.45,4.22C31.58,51.29,17.56,69.9,12,88.79,6.85,106.52,9.87,131,25.71,143.19c7.89,6.07,17.32,1.73,21.45-6.36,3.67-7.21,5.08-15.74,7.41-23.45,2.49-8.2,4.49-17,9.53-24.1,4-5.59,8.25-11,12-16.71,2.93-4.51,7-11,5.86-16.75A3.61,3.61,0,0,0,83.08,54C85.43,45.88,79.63,39.73,72,38Z"/><path class="cls-3" d="M82.19,45a11.38,11.38,0,0,0-.7-1.1h0c-.26-.35-.53-.69-.83-1h0c-.29-.32-.61-.64-.94-.94h0a12.28,12.28,0,0,0-1-.87h0c-.37-.27-.75-.54-1.14-.78h0c-.39-.24-.8-.47-1.22-.69h0a17.22,17.22,0,0,0-2.66-1.08c-7.73,2.6-15.17,9.09-20.26,13.75C40.63,63.92,33.54,83.79,27.59,99.7c-1.59,4.25-3.54,18-9,19.21-3.49.77-5.78-3.24-8.4-5.77,1.44,11.68,6.31,23,15.54,30.05a13.81,13.81,0,0,0,4.12,2.21c2.55-.07,7,1,10.05-.13,10.28-3.89,4.18-10.37,3.75-21.16-.46-11.45,2-22.84,5.47-34A93,93,0,0,1,63,62.26,52.52,52.52,0,0,1,73.29,52c2.87-2.21,6.19-4.35,8.9-7Z"/><path class="cls-14" d="M95,128.36c6.26-20.69,16.78-66.81-2.13-83.53-13.56-12-33,10.09-40,20.39-9,13.21-16.25,28-19.78,43.62C28,131,35.2,179.1,74.86,164.57,88,159.75,91.09,141.16,95,128.36Z"/><path class="cls-3" d="M92.83,44.83a13.1,13.1,0,0,0-10.68-3.35c4.88,2.15,6.41,4.47,8,8,3.45,7.64,4.59,16.52,4.71,26.31.17,13.46-2.83,27.46-7,40.28C84.09,127.84,75.65,141,62.69,146.9c-6.11,2.78-13.19,1.6-19.24-1.18-3.26-1.49-6.68-4.31-11.24-13.53,2.59,21.24,14.35,42.75,42.65,32.38C88,159.75,91.09,141.16,95,128.36,101.22,107.67,111.74,61.55,92.83,44.83Z"/><path class="cls-15" d="M160.41,131a20.24,20.24,0,0,0-9.3-5.93l-.21-.07c-5.38-1.7-11.36-.67-16.45,1.48-.92.39-12,8.29-11,8.82q-2.09-1.14-4.16-2.06c-9.76-4.32-21.37-7-32.63-4.93-12.6,2.35-30.3,10.88-38.29,21.57a47,47,0,0,0-5.51,9.24c6.81,7.52,17.12,10.89,32,5.43a18.3,18.3,0,0,0,6.56-4.19c8.32,5,18.29,6.68,27.37,1.9A28,28,0,0,0,119,152.77a14.24,14.24,0,0,0,5.44,3.83c5.92,2.46,11.88-2.94,15.2-7.06l.19-.25C147.22,149.44,155.69,138.78,160.41,131Z"/><path class="cls-16" d="M52.82,65.22c-9,13.21-16.25,28-19.78,43.62a69.42,69.42,0,0,0-1.25,18.88c.59-.29,1.37-.52,1.55-1.13,4.22-14.24,13.59-36.34,17.22-43.32,7.13-13.73,16.87-26,25.9-38.48A1.94,1.94,0,0,0,76.69,43C66.85,47.26,57.3,58.64,52.82,65.22Z"/><path class="cls-16" d="M27.22,69.81c6.85-12,13.48-22.91,31.58-31.17a48.77,48.77,0,0,0-9.3,3.62C31.58,51.29,17.56,69.9,12,88.79a61,61,0,0,0-2.21,20.46,5.29,5.29,0,0,0,6.48-.88c2.41-2.7,3.58-14.62,4.24-18C22.24,81.59,23.77,75.87,27.22,69.81Z"/><path class="cls-17" d="M81.91,54c-3.43.05-5.91,3-7.18,5.91-1.62,3.73-3.85,7.68-2.6,11.83,1.41,4.71,6.57,5.42,10.07,2.66C86,71.37,90.43,53.86,81.91,54Z"/><path class="cls-17" d="M53.36,29.68c-2.93-1-9.55,1.28-11.19,3.55-2.73,3.79,5.56,2,6.75,1.66,1.85-.47,9.22-2.94,4.77-5.07Z"/><path class="cls-17" d="M58.39,41.51C52.09,41.79,45,47,43.14,53a2.4,2.4,0,0,0,3.5,2.69C49.13,54,51,51.87,53.1,49.81s4.43-3.79,6.22-6C60,42.94,59.65,41.45,58.39,41.51Z"/><path class="cls-18" d="M71.31,96.37c-6.84-2.55-12.78,14.37-.48,13,8.93-1,7.84-12.78-1-13Z"/><path class="cls-18" d="M86,89c-2.47-2.58-6.39,2.72-2.2,4.76,3.92,1.91,5.38-2.9,2.36-5.2Z"/><path class="cls-18" d="M78.79,111.54c-3.52-.26-4.66,5-1,5.69,4.43.83,4.38-5.58-.32-6.17Z"/><path class="cls-19" d="M163.16,145.85c-3.38-1.74-8-2.45-10.84-4.29,1-1.35,2.42-1,3.6-2.26,2.33-2.51-2.77-6.61-4.36-7.83a18.09,18.09,0,0,0-14.21-3.34,12.2,12.2,0,0,0-7,3.62c-5.84,5.95-2.29,11.84-11.72,13.32-7,1.1-14.88,1.26-20.06,6.87-6,6.54-6.65,21.11.87,27.2,2.58,2.09,5.87,1.23,8.12-.9,2-1.85,2.94-4.07,4.43-6.26.46-.69,2.53-2.83,3.45-1a11.3,11.3,0,0,1,.52,1.48,6.78,6.78,0,0,0,2,2.94c3.67,3.38,7.37-2.45,10.87-2.77,3.23-.29,5.24,4.87,6.19,7.14s1.86,5,3.63,6.89c2.5,2.7,5.7,3.42,9.25,3.57,5,.22,9.71-.46,14.21,2.27a.91.91,0,0,0,1.26-1.12c-1.37-3.23.77-6.79,1.82-9.82a17.7,17.7,0,0,0,.16-9.55,96.39,96.39,0,0,0-3.61-11.5c-2.9-8.14,8.88-6.57,4.37-12.37A8.73,8.73,0,0,0,163.16,145.85Z"/><path class="cls-20" d="M155,173.73c-5.27-6.9-10.47-13.86-16.32-20,3.37-1.16,7-1.74,10.39-2.65a.62.62,0,0,0-.17-1.22,26.81,26.81,0,0,0-12.35,1.67c-6.91-6.89-14.76-12.62-24.64-15.92-19.48-6.51-39.6-.76-55.34,11.48-7.67,6-15,12.74-24.37,16-5,1.74-13.08,3.2-17.06-1.44-2.79-3.26-1.74-9.27-1-13a67.37,67.37,0,0,1,4.24-13,42.08,42.08,0,0,1-4.23-7.46l-.22.51c-4,9.49-9.52,23-5.2,33.3,5.66,13.47,24.42,7.8,33.77,2.33,8.18-4.78,14.88-11.69,22.63-17.09a53.07,53.07,0,0,1,30.15-9.51c11.54-.12,22.35,4,31.51,10.76-2.11,3.79-3.68,8.73-2.72,12.87a.5.5,0,0,0,1,0c.61-2.14,1-4.34,1.62-6.49a45,45,0,0,1,2-5,1.24,1.24,0,0,1,.18.14,151.57,151.57,0,0,1,12.57,11.63c-1.26,2.79-1.08,6.66-.91,9.5a.58.58,0,0,0,1.16,0,45.54,45.54,0,0,1,.85-5.58c.15-.76.37-1.5.55-2.24,3.67,3.74,7.31,7.52,11.11,11.08C154.62,174.77,155.42,174.23,155,173.73Z"/><path class="cls-21" d="M113.87,165.81c.76.29,1.15,1.69,2.93,2.1,10,2.32,4.6-13.58-.87-16-5.92-2.64-14.58.38-17.31,6.34-2.13,4.67-1.1,15.66,5.63,15.92,2.85.1,4.82-4.31,6.53-6.22S113.3,165.6,113.87,165.81Z"/></g></g></g></svg>