<svg xmlns="http://www.w3.org/2000/svg" xmlns:xlink="http://www.w3.org/1999/xlink" viewBox="0 0 268 141.85"><defs><style>.cls-1{isolation:isolate;}.cls-2{fill:#77954f;}.cls-3{fill:#486c33;}.cls-4{fill:url(#linear-gradient);}.cls-5,.cls-9{fill:#969e38;mix-blend-mode:multiply;}.cls-5{opacity:0.3;}.cls-6{fill:#b0a778;}.cls-7{fill:#e7e5ba;opacity:0.5;mix-blend-mode:overlay;}.cls-8{fill:url(#linear-gradient-2);}.cls-9{opacity:0.2;}</style><linearGradient id="linear-gradient" x1="-195.73" y1="197.29" x2="-71.33" y2="263.32" gradientTransform="translate(326.81 -160.73) rotate(1.08)" gradientUnits="userSpaceOnUse"><stop offset="0.21" stop-color="#486c33"/><stop offset="0.58" stop-color="#99ad69"/><stop offset="1" stop-color="#e7e5ba"/></linearGradient><linearGradient id="linear-gradient-2" x1="-284.69" y1="228.98" x2="-109.82" y2="277.21" gradientTransform="translate(326.81 -160.73) rotate(1.08)" gradientUnits="userSpaceOnUse"><stop offset="0.31" stop-color="#486c33"/><stop offset="0.65" stop-color="#99ad69"/><stop offset="1" stop-color="#e7e5ba"/></linearGradient></defs><title>Asset 11</title><g class="cls-1"><g id="Layer_2" data-name="Layer 2"><g id="Layer_1-2" data-name="Layer 1"><path class="cls-2" d="M165.28,66.14S103.79,35.3,101.45,30c-4.27-9.73,64.33,29.26,64.33,29.26Z"/><path class="cls-3" d="M206.43,89.82S90.81,37.26,87.72,33.85C78.56,23.74,206,76.57,206,76.57Z"/><path class="cls-4" d="M264.53,107.81c3.72-9,5.89-19.34-1.11-29.21-8.63-12.15-30.93-13.17-53.62-7.13-18.24,4.86-90.38-44.88-115.66-63s-14-4.44,8.76,13.8c32.41,26,93.58,57.09,96.31,64.52,4.45,12.11,16.61,32.69,36.29,35.64C251.3,124.84,260.67,117.15,264.53,107.81Z"/><path class="cls-5" d="M264.53,107.81a54.63,54.63,0,0,0,2.39-7c-5.38,16.95-23.6,27.57-32,1.11-8.19-25.78-42-22-42.35-21.18,3.77,2.7,6.16,4.8,6.65,6.14,4.45,12.11,16.61,32.69,36.29,35.64C251.3,124.84,260.67,117.15,264.53,107.81Z"/><path class="cls-6" d="M260.45,98c-4.89-2.74-10.54,9.36-6,12C259.6,113.09,265.05,100.59,260.45,98Z"/><path class="cls-7" d="M258.9,79.07c-2.07-7.09-30-12.52-37.69-4.27C217.31,79,235.41,88.2,248,88,256.22,87.87,260.14,83.31,258.9,79.07Z"/><path class="cls-2" d="M95.37,73.61s-76.7-25.2-78.28-30.12S90.66,61.92,97.2,66.68,100.75,74.86,95.37,73.61Z"/><path class="cls-2" d="M100.4,74.51S8.19,27.94,8.42,24,96.7,62.08,96.7,62.08,137,86.84,100.4,74.51Z"/><path class="cls-3" d="M120.84,80.43S26.19,31.89,22.1,18.25c-1.47-4.9,93.16,57.46,142.26,70.46C164.36,88.71,153.6,93.6,120.84,80.43Z"/><path class="cls-8" d="M227.54,119.75C223.7,130.31,216.8,139.64,203,141.5c-17,2.29-31.48-6.46-43.62-30.59S54.15,63.9,19.09,56.84,2,47.42,34.94,53.38c46.83,8.47,120.56,36.06,129,32.52,13.67-5.77,38.6-13.52,56.55.68C232.11,95.8,230.81,110.77,227.54,119.75Z"/><path class="cls-6" d="M219.33,110.83c-7-3.12-13.58,12.17-7.11,15.19C219.72,129.53,225.94,113.76,219.33,110.83Z"/><path class="cls-7" d="M214.06,89.8c-4.83-11.11-35.82-7.32-45.23,1.46s11.93,17.81,26.4,17.12C210.79,107.64,217.34,97.34,214.06,89.8Z"/><path class="cls-9" d="M224.05,90.09c8.46,27.91-5.22,45.58-23.07,47.34s-33.86-13.72-33.86-13.72a.22.22,0,0,1,0,.08c10.43,14.35,22.37,19.54,35.89,17.71,13.8-1.86,20.7-11.19,24.54-21.75,2.88-7.93,4.23-20.51-3.51-29.7C224,90.07,224.05,90.08,224.05,90.09Z"/></g></g></g></svg>