<svg xmlns="http://www.w3.org/2000/svg" xmlns:xlink="http://www.w3.org/1999/xlink" viewBox="0 0 185.44 167.96"><defs><style>.cls-1{isolation:isolate;}.cls-2{fill:#94b35b;}.cls-3{opacity:0.7;}.cls-10,.cls-11,.cls-12,.cls-16,.cls-3,.cls-6{mix-blend-mode:multiply;}.cls-10,.cls-4,.cls-6{fill:#806742;}.cls-5{fill:url(#linear-gradient);}.cls-13,.cls-6{opacity:0.5;}.cls-7{fill:url(#linear-gradient-2);}.cls-8{fill:url(#linear-gradient-3);}.cls-9{fill:url(#radial-gradient);}.cls-10,.cls-11,.cls-12{opacity:0.1;}.cls-11{fill:#806842;}.cls-12{fill:#39482b;}.cls-13,.cls-14{fill:#fff;}.cls-14{opacity:0.3;}.cls-15{fill:url(#linear-gradient-4);}.cls-16,.cls-20{opacity:0.2;}.cls-17{fill:url(#linear-gradient-5);}.cls-18{fill:url(#linear-gradient-6);}.cls-19{fill:url(#linear-gradient-7);}.cls-20{fill:#c7d372;}</style><linearGradient id="linear-gradient" x1="41.51" y1="8.07" x2="51.08" y2="34.03" gradientUnits="userSpaceOnUse"><stop offset="0" stop-color="#6c8e3e"/><stop offset="1" stop-color="#4f6e33"/></linearGradient><linearGradient id="linear-gradient-2" x1="131.36" y1="-5.98" x2="118.68" y2="44.73" xlink:href="#linear-gradient"/><linearGradient id="linear-gradient-3" x1="143.57" y1="-15.92" x2="129.99" y2="126" xlink:href="#linear-gradient"/><radialGradient id="radial-gradient" cx="97.26" cy="1502.39" r="80.14" gradientTransform="translate(0 -1198.57) scale(1 0.84)" gradientUnits="userSpaceOnUse"><stop offset="0.51" stop-color="#dbd7bd"/><stop offset="1" stop-color="#b0a878"/></radialGradient><linearGradient id="linear-gradient-4" x1="77.85" y1="174.25" x2="-7.16" y2="33.76" gradientUnits="userSpaceOnUse"><stop offset="0" stop-color="#6c933e"/><stop offset="0.85" stop-color="#a6c157"/></linearGradient><linearGradient id="linear-gradient-5" y1="68.05" x2="58.59" y2="150.77" gradientUnits="userSpaceOnUse"><stop offset="0.32" stop-color="#c7d372"/><stop offset="0.85" stop-color="#a6c157"/></linearGradient><linearGradient id="linear-gradient-6" x1="129.86" y1="64.15" x2="117.8" y2="144.86" gradientUnits="userSpaceOnUse"><stop offset="0" stop-color="#7aa043"/><stop offset="1" stop-color="#6c8e3e"/></linearGradient><linearGradient id="linear-gradient-7" x1="117.64" y1="162.55" x2="137.17" y2="63.46" xlink:href="#linear-gradient-4"/></defs><title>Asset 2</title><g class="cls-1"><g id="Layer_2" data-name="Layer 2"><g id="Layer_1-2" data-name="Layer 1"><path class="cls-2" d="M110.9,162.5c-1.64-8.82-2.41-17.83-5.36-26.35a2.09,2.09,0,0,0-3-1.24c-5.13,3.26-11.54,2.22-16.85,5.1a2.17,2.17,0,0,0-.43,3.38c.13.13.27.24.41.37-3,12.38-5.78,18.86-3,21,3.63,2.83,11.26,3.33,15.09,3.16,4.28-.2,7.88-.63,12-2.9A2.29,2.29,0,0,0,110.9,162.5Z"/><g class="cls-3"><path class="cls-4" d="M107.78,144.37a5.18,5.18,0,0,0-4.3,4.11,11.25,11.25,0,0,0-.14,1.4,26.79,26.79,0,0,0-5.18-1.65,37.08,37.08,0,0,0-13.57-.36c-1.52,5.76-2.78,10-3.06,12.82.75,0,1.23,0,.51.06.9-.12,1.81-.19,2.72-.25,1.63-.1,3.26-.2,4.89-.22.89,0,1.78,0,2.67.09l1,.09h0l.32.06a24.87,24.87,0,0,1,4.38,1.18c.39.18.78.38,1.16.59a16,16,0,0,1,1.72,1.08c-.65-.45.69.61.92.83s1.29,1.51,1.25,1.4c.35.51.66,1,1,1.58a21.58,21.58,0,0,0,5.64-2.15,2.29,2.29,0,0,0,1.16-2.53C109.78,156.47,109.06,150.36,107.78,144.37Z"/></g><path class="cls-5" d="M65.35,24.48a35.92,35.92,0,0,0-7-8.53c-3-2.77-6.9-6-10.78-7.41-1-.39-1.72-.43-1.28.64,4.25,10.33-5.76,24.4-7.45,34.42-2.16,12.79,10,26.83,24.3,20.67,6.29-2.71,7.82-11,8-17A43.82,43.82,0,0,0,65.35,24.48Z"/><path class="cls-6" d="M65.35,24.48a33.78,33.78,0,0,0-5.3-6.84h0C59,18.91,58,20.22,57,21.51a36.23,36.23,0,0,0-7.17,16.8,30.73,30.73,0,0,0-10.23,1.84,28.65,28.65,0,0,0-.83,3.45c-2.16,12.79,10,26.83,24.3,20.67,6.29-2.71,7.82-11,8-17A43.82,43.82,0,0,0,65.35,24.48Z"/><path class="cls-7" d="M139.44,15.22A48.14,48.14,0,0,0,134.49.71a1.41,1.41,0,0,0-2.22-.29c-4.23,5.3-9.59,9.44-14.64,13.91-6.34,5.59-15.66,14.92-9.28,24,7.21,10.29,24.78-1.84,29.62-9.22C140.59,25.16,140.16,19.69,139.44,15.22Z"/><path class="cls-6" d="M122.68,21c-3.74.22-6.45-1.58-9-3-5.45,5.55-10.44,13-5.32,20.32,7.21,10.29,24.78-1.84,29.62-9.22,2.41-3.68,2.24-8.6,1.64-12.84h0C133.38,16.46,128.45,20.67,122.68,21Z"/><path class="cls-8" d="M185.12,80C183.58,63.1,179.38,44,170.75,29.71c-.86-1.43-1.34.38-1.15,2,2.5,20.82-1.3,28.67-5.37,39.79a118,118,0,0,1-14.56,27.12c-11.37,16.09-28.32,31.85-48.88,33.51-3.05.25-25.17-4.91-23.62,3,1.91,9.64,9.29,12.31,17,15.64,11.62,5,26.55,7.16,39.22,4.68A63.84,63.84,0,0,0,178.12,121C184.1,108.87,186.33,93.37,185.12,80Z"/><path class="cls-6" d="M179.88,67.17A28.3,28.3,0,0,0,170,51.65c-1,7.75-3.29,13.22-5.72,19.86a118,118,0,0,1-14.56,27.12c-11.37,16.09-28.32,31.85-48.88,33.51-1.44.12-7.16-1-12.61-1.32,5.61,11.54,24.1,19.66,34.84,19.51a73.77,73.77,0,0,0,14.8-1.81A54.83,54.83,0,0,0,162.94,135c7.5-7.06,12.71-17.3,13.16-27.66a33.34,33.34,0,0,0-2.66-14.16,31,31,0,0,0,3.62-5.09C180.88,81.68,181.47,74.39,179.88,67.17Z"/><path class="cls-9" d="M171.23,63.79c-4-7.27-11.09-13-18.86-14.16a21.14,21.14,0,0,0-2.11-13.81c-2.76-5.52-9.36-9.63-15.12-11.25a25.31,25.31,0,0,0-18.09,2.09c-6.39-7.48-16.15-13.83-26.14-13-10.65.85-22.31,2.59-30.45,13.78-2.3,3.16-4,9.19-4.49,15.28a51.52,51.52,0,0,0-10.86.82,30.92,30.92,0,0,0-16.64,8.6C20,60.64,15.93,75.23,17.65,86.93c1.36,9.24,5.32,18.49,13.4,20.8a23.75,23.75,0,0,0,1.62,19.41c3.41,6.14,14.1,11.55,24.69,7,1.19,6,8.56,13.53,14.13,15.9,6.11,2.61,14,2.77,20.57,2.68,9.75-.14,19.94-3.45,24.94-12.41-1.12,2,18.18,2.84,19.52,2.63a41.87,41.87,0,0,0,20.67-9.68c5.48-5,10.44-12.88,11.84-20.22,1.72-9.05-1.29-17.24-4.77-19.25,2.23-1.75,5.05-3.1,6.7-5.45C176.26,80.76,175.44,71.42,171.23,63.79Z"/><path class="cls-10" d="M171.23,63.79C167.29,56.66,160.41,51,152.81,49.7v0c-1.44,12-9.6,17.74-20,15.6,5,15.5,4.88,29.51,3.26,36.31-2.81,11.8-9,21.68-18.23,31.21-4.56,4.69-9,10.25-10.49,16.46a22.13,22.13,0,0,0,9.67-9c-1.12,2,18.18,2.84,19.52,2.63a41.87,41.87,0,0,0,20.67-9.68c5.48-5,10.44-12.88,11.84-20.22,1.72-9.05-1.29-17.24-4.77-19.25,2.23-1.75,5.05-3.1,6.7-5.45C176.26,80.76,175.44,71.42,171.23,63.79Z"/><path class="cls-11" d="M164.26,93.76c-10.29,2.68-15.08-1.83-19.83-8.31-3.18-4.33-5.77-5.3-8.59-5.77.61,6.77-1.45,14.25-3,20.68-2.8,11.8-7.41,23-15,32.49-3.82,4.79-8.38,9.6-10.16,15.28l1.36.25a21.63,21.63,0,0,0,8-8.1c-1.12,2,18.18,2.84,19.52,2.63a41.87,41.87,0,0,0,20.67-9.68c5.48-5,10.44-12.88,11.84-20.22C170.75,104,167.74,95.77,164.26,93.76Z"/><path class="cls-11" d="M109.52,133.46c-.7,1.84,15.12,3.82,16.34,3.84a38,38,0,0,0,17.81-3.66c11.8-6,21.78-20.72,18.69-34-2.19-9.37-7.53-16.08-15-22.26-8.16-6.72-20.34-8-28.15-13.4-9-6.28-13.38-19.29-26.4-17.73C85,47.16,79.67,53.66,77.69,57c-6.2,10.46-7.61,21.76-18.08,29.12-9.72,6.82-27.28,11-35.32-.23.54,8.07,2.6,17.68,13,17a23.43,23.43,0,0,0-.23,21.49c3.65,6.84,16.4,7.85,21.95,3.46-3.15,2.49,7.76,14,9.5,15.23a27.58,27.58,0,0,0,14.51,5C93.36,148.59,105.56,143.81,109.52,133.46Z"/><path class="cls-11" d="M166.7,96.32c-6.54,4.65-13.15,3.61-19.67-1.91-3.75-3.18-8.11-10-11-12.43-3.47-2.89-9.22,8.18-11.25,11.21a29.54,29.54,0,0,1-4.73,5.42c-13.69,12.31-34.36,9-44.19-.82-2.54-2.54-5.08-1.62-4.78,1.89.72,8.53.58,14.2-8.27,15.91-12.48,2.43-24.35-12.71-33.06-1.53a22.74,22.74,0,0,0,2.9,13.08c3.41,6.14,14.1,11.55,24.69,7,1.19,6,8.56,13.53,14.13,15.9,6.11,2.61,14,2.77,20.57,2.68,9.75-.14,19.94-3.45,24.94-12.41-1.12,2,18.18,2.84,19.52,2.63a41.87,41.87,0,0,0,20.67-9.68c5.48-5,10.44-12.88,11.84-20.22C170.32,106.21,168.94,99.9,166.7,96.32Z"/><path class="cls-4" d="M134.06,65.58h0C134,65.47,134,65.35,134.06,65.58Z"/><path class="cls-12" d="M171,88.31c4.63-6.59,4.59-14.54,1.7-21.53h0a15.25,15.25,0,0,1-.65,2.88c-7.26,21.73-24.5-8.38-32-13.55a57,57,0,0,0-24.9-9.75c12.46,7.36,18.07,22.78,17.8,38.87-.24,14.61-9.38,30.58-24.11,33.89-16.62,3.74-33.89-1-47-11.38-11-8.72-20.41-17-27.95-28.9-3.92-6.17-8.31-16.15-9.52-21.57a44.85,44.85,0,0,0-6.65,29.66c1.36,9.24,5.32,18.49,13.4,20.8a23.75,23.75,0,0,0,1.62,19.41c3.41,6.14,14.1,11.55,24.69,7,1.19,6,8.56,13.53,14.13,15.9,6.11,2.61,14,2.77,20.57,2.68,9.75-.14,19.94-3.45,24.94-12.41-1.12,2,18.18,2.84,19.52,2.63a41.87,41.87,0,0,0,20.67-9.68c5.48-5,10.44-12.88,11.84-20.22,1.72-9.05-1.29-17.24-4.77-19.25C166.49,92,169.31,90.66,171,88.31Z"/><path class="cls-6" d="M157.92,132.55l.4-.39.17-.18.39-.4.16-.17.43-.46.1-.11a43.38,43.38,0,0,0,6.05-8.58q-2,1.74-4.09,3.41a63.14,63.14,0,0,1-6.94,4.92c-1.31.78-3.39,2.12-5,1.81-2.34-.47,4.61-20.05,1.15-20-3.94-.26-5.1,5.52-12.37,9.69A78.34,78.34,0,0,1,106,132c-.5,0-1,.08-1.49.1-15,.89-28.32-3-40.34-12.49a99.81,99.81,0,0,1-25-30.48c-.61-1.19-1,.5-1.56,1.67-.85,1.62-1.57,3.3-2.33,5-5.84-4.66-8.23-11.54-10-18.57-1.49-5.79-1.87-12.09-2-18.28a44.92,44.92,0,0,0-5.62,28c1.36,9.24,5.32,18.49,13.4,20.8a23.75,23.75,0,0,0,1.62,19.41c3.41,6.14,14.1,11.55,24.69,7,1.19,6,8.56,13.53,14.13,15.9,6.11,2.61,14,2.77,20.57,2.68,9.75-.14,19.94-3.45,24.94-12.41-.84,1.5,9.77,2.35,15.72,2.59h0c2,.08,3.46.09,3.8,0a41.87,41.87,0,0,0,20.67-9.68l.56-.52Z"/><path class="cls-13" d="M101.82,21c-6.8-2.88-13.67-2.95-21.53,0-6.57,2.45-15.08,9.27-10.45,17.17,3.39,5.79,12.32,4.28,17.69,2.61,13-4,29.37-3.37,41.65,2.66,4.25,2.08,15,8.62,14.25,1.66C141.89,31.15,123.36,28.35,116,33.73,114.81,34.63,108.77,24,101.82,21Z"/><path class="cls-14" d="M52.7,48.41c-5.08.27-12.69.83-17,3.86-6,4.26-1.95,12.25,2.46,16.4C43.27,73.47,46.37,71.26,51,67,57.27,61.19,69,47.53,52.7,48.41Z"/><path class="cls-14" d="M94.29,54.05C82,54.13,69.36,81.7,83.81,86.39c6,2,19.37.18,23.6-4.93C113.3,74.34,103.51,54,94.29,54.05Z"/><path class="cls-15" d="M87.06,157.55c4.22-.35,17.39-.59,16.7-7-1.05-9.73-18.89-8.28-36.66-22.26-11.7-9.2-19.9-19.88-26.6-33a1.23,1.23,0,0,0-2.1,0c-1.41,2.14-2,2.57-3.36,4.74-4.59-6-8.61-15.8-11.2-27-2.28-9.87-2.87-17.52-1.4-30.94.09-.83-.62-.38-1.54.11C3.65,53.05-.06,76.39,0,96.07.15,143.94,45.71,161,87.06,157.55Z"/><g class="cls-16"><path class="cls-4" d="M103.76,150.58c-1.05-9.73-18.89-8.28-36.66-22.26-11.7-9.2-19.9-19.88-26.6-33a1.23,1.23,0,0,0-2.1,0c-1.41,2.14-2,2.57-3.36,4.74-4.59-6-8.61-15.8-11.2-27a75.65,75.65,0,0,1-2.2-18.43A63.7,63.7,0,0,0,19,68.3c-.8,8.9-.18,18.17,2.94,26.59,2.13,5.77,5.28,12.24,10.68,15.62,1.52.95,3.49,1.61,5.22.9a3.56,3.56,0,0,0,1.79-1.6c.7,4.48,1.42,9,2.08,13.44.57,3.91,1.16,7.94.51,11.87-.73,4.39-3.59,7.26-7.79,8.53-3.58,1.08-7.29.52-10.88-.55,17,12.09,40.92,16.35,63.55,14.45C91.28,157.2,104.45,157,103.76,150.58Z"/></g><path class="cls-17" d="M76.13,157.33a93.85,93.85,0,0,1-29.42-11.47,34.36,34.36,0,0,0-.05-5q-.12-4.56-.28-9.14c-.21-6.15-.85-12.32-1.44-18.45,0-.34-.55-.36-.55,0,0,5.88-.15,11.75-.39,17.62-.12,3-.1,6.1-.17,9.15,0,1.19-.17,2.56-.18,3.92l-.14-.09a84.81,84.81,0,0,1-22.25-20.46c.1-2,0-4,.16-6,.21-3.19.63-6.36.84-9.56.44-6.71-.54-13.4-.65-20.1a.21.21,0,0,0-.42,0c-.6,6.69-.47,13.43-1.22,20.1-.36,3.2-.89,6.35-1.16,9.56-.07.75-.13,1.51-.17,2.28A65.66,65.66,0,0,1,9.58,98.74c-3.41-14.54-1-30,4.7-43.68.35-.85-1.07-1.43-1.47-.62A75.16,75.16,0,0,0,4.42,84a63.26,63.26,0,0,0,4.76,27.58c5.11,12.51,13.94,23.25,24.44,31.65,6.54,5.23,13.41,10.41,21.19,13.66,9,3.75,16.57,5.81,24.67,1.07C78.36,157.76,77.24,157.56,76.13,157.33Z"/><path class="cls-18" d="M111.5,44c-1-.31-2.13,1-1.45,1.89,12.61,17.18,22.56,45,8.52,64-.49-2.07-1.21-4-3.19-5.19a1,1,0,0,0-1.33.35c-2.74,6.15-8,10.93-12.53,15.74-4.42,4.65-8.82,9.51-11.38,15.48C84.73,148.89,92,157.64,105,156.33c14.25-1.45,27.54-13.34,35.89-24.17,7.23-9.37,15.47-26.57,12.66-38.81-.66-1.68-3.86,7.42-3.82,4.94.76-14.58-4.44-29.54-14.84-39.72C128.77,52.59,119.74,46.51,111.5,44Z"/><path class="cls-6" d="M140.87,132.16c7.23-9.37,15.47-26.57,12.66-38.81-.66-1.68-3.86,7.42-3.82,4.94.72-13.77-3.89-27.89-13.17-38,5.41,7.89,8.83,17.24,10.84,26.48,4.62,21.18-3.69,36.81-17.87,51.77-2.09,2.19-14.06,11-17.56,16.25C123.49,151,133.9,141.2,140.87,132.16Z"/><path class="cls-19" d="M143.58,87.83a54.51,54.51,0,0,0-4.34-13.3,52.6,52.6,0,0,0-3.68-6.48,55.66,55.66,0,0,0-5.2-6c-.11-.13-.33,0-.24.17a72.32,72.32,0,0,1,6.5,12.65A59.21,59.21,0,0,1,140.41,88a56.78,56.78,0,0,1-1.36,23.2c-.63-1.78-1.81-3.44-2.48-5.19a33.75,33.75,0,0,1-1.81-8.65c-.07-.63-1.06-.86-1.23-.16a18.09,18.09,0,0,0,.32,8.8c.67,2.53,1.74,6,4.09,7.5a.81.81,0,0,0,.45.13l-.36,1.24c-2.65,8.63-7.05,17.42-13.27,24.2a43.85,43.85,0,0,1-3.61,3.48,19.16,19.16,0,0,1-1.28-2.76,22.81,22.81,0,0,1-.94-6.08,120.35,120.35,0,0,1,.31-12.74c.05-.77-1.2-.76-1.24,0-.26,4.72-1.63,9.29-1.64,14,0,2.88.48,6.86,2.23,9.63-4.92,3.82-10.32,7-15.1,11.07-1.76,1.48.47,3.67,2.31,2.88A68,68,0,0,0,129,142.22c6.72-7.38,11.05-16.72,13.62-26.14A63,63,0,0,0,143.58,87.83Z"/><path class="cls-20" d="M127,62.17c-3-5.39-8.42-12.24-12.49-14.65-.47-.28,0,.33.28.77C121.21,57,123.12,61,125.13,68s3.92,15,3.77,22.19c0,1.45,1.68,1.3,2.22,0C136.07,78.11,134.8,76.06,127,62.17Z"/><path class="cls-20" d="M111,115.68c-5.32,5.58-11.08,10.83-15.18,17.43-2.52,4.08-6.64,17.07,1,19,3.65.92,3.35-7.92,3.49-9.86.41-5.73,1.3-9.89,4.54-14.86,1-1.54,8.71-10.32,7.48-11.59A1,1,0,0,0,111,115.68Z"/></g></g></g></svg>