<svg xmlns="http://www.w3.org/2000/svg" xmlns:xlink="http://www.w3.org/1999/xlink" viewBox="0 0 111.86 122.22"><defs><style>.cls-1{isolation:isolate;}.cls-2{fill:url(#linear-gradient);}.cls-3{fill:#9d0b0f;opacity:0.4;mix-blend-mode:multiply;}.cls-4{fill:url(#linear-gradient-2);}.cls-5{fill:#f00b0f;}.cls-6{fill:#f27153;}.cls-7{fill:#68984a;}</style><linearGradient id="linear-gradient" x1="833.98" y1="1648.74" x2="904.15" y2="1648.74" gradientTransform="translate(896.21 -1586.04) rotate(54.2)" gradientUnits="userSpaceOnUse"><stop offset="0" stop-color="#ea4030"/><stop offset="0.31" stop-color="#d82e28"/><stop offset="0.71" stop-color="#c61c20"/><stop offset="1" stop-color="#c0161d"/></linearGradient><linearGradient id="linear-gradient-2" x1="803.55" y1="1597.97" x2="847.52" y2="1597.97" gradientTransform="translate(896.21 -1586.04) rotate(54.2)" gradientUnits="userSpaceOnUse"><stop offset="0" stop-color="#66964a"/><stop offset="0.2" stop-color="#55813d"/><stop offset="0.51" stop-color="#3e662d"/><stop offset="0.79" stop-color="#315523"/><stop offset="1" stop-color="#2c4f1f"/></linearGradient></defs><title>Asset 7</title><g class="cls-1"><g id="Layer_2" data-name="Layer 2"><g id="Layer_1-2" data-name="Layer 1"><path class="cls-2" d="M107.08,37c-2.71-6.59-6.79-7.65-23.78-6.1-3,.28-9,2.37-6.86,9.89,5.47,19.33,6.33,37.11-9,51.1C51.85,106.1,30,99.16,13.31,91.05c-2.65-1.29-5.3-2.62-7.9-4-4.06-2.18-7.3,3.62-4.14,6.8,23.52,23.71,48.62,32.41,68.47,26.69C105.86,110.12,120.19,68.88,107.08,37Z"/><path class="cls-3" d="M107.08,37c-2.71-6.59-6.79-7.65-23.78-6.1A9.58,9.58,0,0,0,78.13,33c3.15,5.26,17.66,4,22.63,6.52,6.66,3.34,16.74,41.38-14.92,66.69S11.45,100.71,6.41,93.72c-2.62-3.64-.88-5,1.56-5.34L5.41,87c-4.06-2.18-7.3,3.62-4.14,6.8,23.52,23.71,48.62,32.41,68.47,26.69C105.86,110.12,120.19,68.88,107.08,37Z"/><path class="cls-4" d="M87.08,28.27s-6.4,2.23-5,3.84,19.43,1.91,19.72-.62-3.61-3.4-6.15-3.69c0,0-2-23-25-27.8L71,2.77S93.82,11.25,87.08,28.27Z"/><path class="cls-5" d="M27.82,101.1c1.42-3.78,19.32,8,33.32-1s23.64-21.36,22.32-38c-.77-9.69,8.17-5.39,7.85,11.9-.25,13.35-11.36,29.4-26.41,34.4C46.91,114.36,27.07,103.1,27.82,101.1Z"/><path class="cls-6" d="M77.55,91.3a.82.82,0,0,0-1.38-.84c-2.8,3.39-4.82,6-9.16,8.94a33.7,33.7,0,0,1-12.72,5.72c-1.71.37-1.68,1.9,1.33,1.66A23.42,23.42,0,0,0,68,102.28C71.83,99.71,75.78,95.61,77.55,91.3Z"/><path class="cls-7" d="M85.9,10.93c-3.83-4.5-12.09-8-15-8.94l.09.78s22.86,8.48,16.12,25.5C92.46,26.53,92.2,18.32,85.9,10.93Z"/></g></g></g></svg>