<svg xmlns="http://www.w3.org/2000/svg" xmlns:xlink="http://www.w3.org/1999/xlink" viewBox="0 0 141.23 162.89"><defs><style>.cls-1{isolation:isolate;}.cls-2{fill:url(#linear-gradient);}.cls-11,.cls-13,.cls-15,.cls-3{fill:#54693b;}.cls-3,.cls-36{opacity:0.7;}.cls-4{fill:url(#linear-gradient-2);}.cls-19,.cls-5,.cls-8{fill:#676143;}.cls-11,.cls-31,.cls-38,.cls-5{opacity:0.3;}.cls-11,.cls-13,.cls-17,.cls-19,.cls-26,.cls-31,.cls-5,.cls-7,.cls-8{mix-blend-mode:multiply;}.cls-6{fill:#a3ba53;}.cls-17,.cls-7{fill:#55693c;}.cls-19,.cls-26,.cls-34,.cls-39,.cls-7{opacity:0.2;}.cls-13,.cls-15,.cls-35,.cls-8{opacity:0.5;}.cls-9{fill:url(#linear-gradient-3);}.cls-10{fill:url(#linear-gradient-4);}.cls-12{fill:url(#linear-gradient-5);}.cls-14{fill:url(#linear-gradient-6);}.cls-16{fill:url(#linear-gradient-7);}.cls-17{opacity:0.1;}.cls-18{fill:url(#linear-gradient-8);}.cls-20{fill:url(#linear-gradient-9);}.cls-21{fill:url(#linear-gradient-10);}.cls-22{fill:url(#linear-gradient-11);}.cls-23{fill:url(#linear-gradient-12);}.cls-24{fill:url(#linear-gradient-13);}.cls-25{fill:url(#linear-gradient-14);}.cls-26{fill:#556a3c;}.cls-27{fill:url(#linear-gradient-15);}.cls-28{fill:url(#linear-gradient-16);}.cls-29{fill:url(#linear-gradient-17);}.cls-30{fill:url(#linear-gradient-18);}.cls-31{fill:#686243;}.cls-32{fill:url(#linear-gradient-19);}.cls-33{fill:url(#linear-gradient-20);}.cls-34,.cls-35,.cls-36,.cls-37,.cls-38{fill:#fff1a5;}.cls-37{opacity:0.4;}.cls-39{fill:#9e1c43;}</style><linearGradient id="linear-gradient" x1="40.34" y1="60.69" x2="6.15" y2="82.88" gradientTransform="matrix(0.99, 0.14, -0.14, 0.99, 98.19, 50.88)" gradientUnits="userSpaceOnUse"><stop offset="0" stop-color="#8ca64f"/><stop offset="1" stop-color="#607844"/></linearGradient><linearGradient id="linear-gradient-2" x1="-96.81" y1="15.82" x2="-78.62" y2="53.29" gradientTransform="matrix(0.99, 0.14, -0.14, 0.99, 98.19, 50.88)" gradientUnits="userSpaceOnUse"><stop offset="0.27" stop-color="#a3ba53"/><stop offset="1" stop-color="#5b7b37"/></linearGradient><linearGradient id="linear-gradient-3" x1="14.1" y1="-53.02" x2="5.74" y2="-23.92" xlink:href="#linear-gradient-2"/><linearGradient id="linear-gradient-4" x1="23.26" y1="-41.86" x2="28.3" y2="-1.51" xlink:href="#linear-gradient-2"/><linearGradient id="linear-gradient-5" x1="45.87" y1="-3.26" x2="24.41" y2="55.67" xlink:href="#linear-gradient"/><linearGradient id="linear-gradient-6" x1="-64.35" y1="-26.21" x2="-75.63" y2="34.17" xlink:href="#linear-gradient-2"/><linearGradient id="linear-gradient-7" x1="-26.46" y1="-50.65" x2="-19.55" y2="-23.19" xlink:href="#linear-gradient-2"/><linearGradient id="linear-gradient-8" x1="-54.76" y1="-53.02" x2="-56.03" y2="-9.92" gradientTransform="matrix(0.99, 0.14, -0.14, 0.99, 98.19, 50.88)" gradientUnits="userSpaceOnUse"><stop offset="0.09" stop-color="#c7d372"/><stop offset="1" stop-color="#a3ba53"/></linearGradient><linearGradient id="linear-gradient-9" x1="3.79" y1="-37.53" x2="-1.66" y2="-8.79" xlink:href="#linear-gradient-2"/><linearGradient id="linear-gradient-10" x1="13.11" y1="-9.48" x2="16.93" y2="20.71" xlink:href="#linear-gradient"/><linearGradient id="linear-gradient-11" x1="15.06" y1="17.45" x2="16.16" y2="66.37" xlink:href="#linear-gradient"/><linearGradient id="linear-gradient-12" x1="-33.32" y1="-22.13" x2="-24.59" y2="27.82" xlink:href="#linear-gradient-2"/><linearGradient id="linear-gradient-13" x1="-4.11" y1="-8.57" x2="-18.15" y2="54.14" xlink:href="#linear-gradient-2"/><linearGradient id="linear-gradient-14" x1="-66.4" y1="-9.78" x2="-55.31" y2="20.59" xlink:href="#linear-gradient-8"/><linearGradient id="linear-gradient-15" x1="-2.89" y1="29.39" x2="-10.16" y2="73.03" xlink:href="#linear-gradient-2"/><linearGradient id="linear-gradient-16" x1="-2.22" y1="25.37" x2="-8.7" y2="64.25" gradientTransform="matrix(0.99, 0.14, -0.14, 0.99, 98.19, 50.88)" gradientUnits="userSpaceOnUse"><stop offset="0" stop-color="#a3ba53"/><stop offset="1" stop-color="#738e4c"/></linearGradient><linearGradient id="linear-gradient-17" x1="-48.68" y1="17.34" x2="-39.76" y2="59.01" xlink:href="#linear-gradient-2"/><linearGradient id="linear-gradient-18" x1="-85.49" y1="21.06" x2="-60.58" y2="68.53" xlink:href="#linear-gradient-8"/><linearGradient id="linear-gradient-19" x1="-3.15" y1="64.62" x2="-7.15" y2="94.45" xlink:href="#linear-gradient"/><linearGradient id="linear-gradient-20" x1="-45.33" y1="57.66" x2="-30.42" y2="90.03" xlink:href="#linear-gradient-2"/></defs><title>Asset 13</title><g class="cls-1"><g id="Layer_2" data-name="Layer 2"><g id="Layer_1-2" data-name="Layer 1"><path class="cls-2" d="M121.08,120.73a90.64,90.64,0,0,1-8.63,3c-1.78.53-3.62,1.07-5.46,1.52a1.58,1.58,0,0,0-1-.27c-6.65.41-13.21,2.88-19.67,4.33-6.15,1.38-12.51,2-18.38,4.4a1.84,1.84,0,0,0-.78,2.8c7.76,8.35,20.71,8.7,30.93,5.5,9.83-3.07,20-10.22,24.41-19.79A1.11,1.11,0,0,0,121.08,120.73Z"/><path class="cls-3" d="M110.41,129.29a21.63,21.63,0,0,0,2.46-5.71l-.42.13c-1.67.5-3.39,1-5.12,1.43-.13.2-.26.41-.4.61a42.84,42.84,0,0,1-7.39,8.12,45.46,45.46,0,0,1-9.74,6.7,26.29,26.29,0,0,1-5.12,2c-1.45.36-3,.47-4.4.8A38.12,38.12,0,0,0,97.93,142c1.55-1.07,3-2.23,4.47-3.43A35.64,35.64,0,0,0,110.41,129.29Z"/><path class="cls-4" d="M19.48,82.67c-3.8-8.75-11.07-6.28-13.65-25-.16-1.19-1.95-.94-2.39,0C-1,66.88-.62,78.51,1.58,88.23c1.95,8.63,6.41,19.54,15,23.6a1.72,1.72,0,0,0,3.2.26C24.3,102.76,23.54,92,19.48,82.67Z"/><path class="cls-5" d="M12.05,108.77c-.38-1.45-.71-2.92-1-4.39a44.37,44.37,0,0,1-.94-10.65l0-.57a9.83,9.83,0,0,0,3.92,4.27,1.77,1.77,0,0,0,2.46-1.83,12.62,12.62,0,0,0-1.89-4.34,35.86,35.86,0,0,1-2.24-5c-.37-1-.68-2-1-3.07,0-.14.05-.27.07-.4.44-2.33,2.43-5.45,1.62-7.9-.29-.29-.58-.58-.87-.89a.51.51,0,0,0-.32.19,19,19,0,0,0-1.67,2.23c0-.41-.09-.83-.13-1.25C10,73.79,10,72.42,10,71a26.32,26.32,0,0,1-3.14-7.92A41.51,41.51,0,0,0,5.48,75.19a39.55,39.55,0,0,0,1.35,9,48.66,48.66,0,0,0-1.61,9.5,36.58,36.58,0,0,0,0,5.44A30.38,30.38,0,0,0,12.05,108.77Z"/><path class="cls-6" d="M55.48,131c-.59.09-1,.41-1.57.46a8.59,8.59,0,0,1-2.76-.32,42.62,42.62,0,0,1-6.39-2.28c-2.16-.91-4.33-1.59-6.54-2.36-3.17-1.09-6-2.8-9.15-4a1.17,1.17,0,0,0-.82,0l-.16-.36c-.23-.46-.87-.09-.69.36.07.17.13.34.19.52a1.35,1.35,0,0,0,.07,1.71c.17.18.35.35.52.52a29.3,29.3,0,0,1-.11,9.49,43.76,43.76,0,0,1-4.14,12.71,30.85,30.85,0,0,1-3.09,5c-.79,1.05-2.69,2.22-1.55,3.69,2.81,3.6,6.53,5.41,10.85,6.66a2.07,2.07,0,0,0,2.37-1.22A63.13,63.13,0,0,1,42.82,147a59.82,59.82,0,0,1,8.07-7.35c2.29-1.7,5-3.13,6.81-5.35a.77.77,0,0,0,.16-.73A2,2,0,0,0,55.48,131Z"/><path class="cls-7" d="M50.89,139.62c.67-.5,1.37-1,2.08-1.45a17.14,17.14,0,0,0-2-7,43.1,43.1,0,0,1-6.25-2.25c-2.16-.91-4.33-1.59-6.54-2.36-3.17-1.09-6-2.8-9.15-4a1.17,1.17,0,0,0-.82,0l-.16-.36c-.23-.46-.87-.09-.69.36.07.17.13.34.19.52a1.35,1.35,0,0,0,.07,1.71c.17.18.35.35.52.52a29.3,29.3,0,0,1-.11,9.49c-.05.32-.11.64-.17,1a25.74,25.74,0,0,1,1.69,2.92A19.59,19.59,0,0,1,31,150.09c-.6,3.69-2.55,7-4.34,10.27-.19.34-.38.68-.56,1a29.09,29.09,0,0,0,4,1.44,2.07,2.07,0,0,0,2.37-1.22A63.13,63.13,0,0,1,42.82,147,59.82,59.82,0,0,1,50.89,139.62Z"/><path class="cls-8" d="M50.89,139.62l.18-.13c-7.53-4.79-15.94-8.73-22.51-14.74l-1.18-1.3a1.26,1.26,0,0,0,.28,1.27c.17.18.35.35.52.52a26.37,26.37,0,0,1,.13,7.63c3.95,5.52,10.37,9.57,17,11.54A56.46,56.46,0,0,1,50.89,139.62Z"/><path class="cls-9" d="M121.28,20A40.23,40.23,0,0,0,119.2,6a1.86,1.86,0,0,0-1.93-1.14c-2.41,0-5.15,2.15-7.22,3.23a40.44,40.44,0,0,0-6.58,4.14,1.51,1.51,0,0,0-1.5,1.25c-1.11,4.84-2.86,9.52-3.88,14.38a2.09,2.09,0,0,0,2.83,2.22,20.26,20.26,0,0,1,6.62-1.41c1.86-.15,4.06.21,5.86-.25a1.92,1.92,0,0,0,.49-.19,10.08,10.08,0,0,0-.69,1.63c-.41,1.28.7,3,2.18,2.25C119.63,30.06,121.06,24.3,121.28,20Z"/><path class="cls-3" d="M117.43,10.31a2.06,2.06,0,0,0-2.71-1.59,32.11,32.11,0,0,0-6.52,3c-2,1.14-4.25,2.64-5.41,4.66a.7.7,0,0,0,.25.93l-.63.47c-2.22,1.66-.2,5,2.31,4.11.46-.16.91-.34,1.36-.53a2.54,2.54,0,0,0,.9,1.09,9,9,0,0,0,0,1.28,2,2,0,0,0,1.46,1.93,9.1,9.1,0,0,0,.29,3.6A1.71,1.71,0,0,0,110,30.39c-.18.58-.36,1.16-.53,1.75a2.64,2.64,0,0,0,1.32,3.39c1.23.54,4,.19,4.53-1.11C119.27,24.71,119.19,19,117.43,10.31Z"/><path class="cls-10" d="M137.63,50.5c1-11.1-1.43-24.63-9.6-32.8-.77-.77-1.91-.33-2.45.65a61.87,61.87,0,0,1-5.3,7.8c-5.06,6.74-5.56,11.53-4.15,19.62,1,5.83,1.91,11.7,2.35,17.6.48,6.41.56,13.29-1.64,19.41-.73,2,2.06,3.33,3.46,2a62,62,0,0,0,13-17.37A49.05,49.05,0,0,0,137.63,50.5Z"/><path class="cls-11" d="M126.79,23.92a1.11,1.11,0,0,0-1.74,0,99.8,99.8,0,0,0-8.93,12.61c-.28.47.42.81.76.49a1.79,1.79,0,0,0,0,.24A2,2,0,0,0,117.6,39a1.91,1.91,0,0,0,1.75,1.66A2.13,2.13,0,0,0,120.8,42a29.5,29.5,0,0,0-.09,4.4,1.83,1.83,0,0,0,2.51,1.65c-.54,4.54-1.06,9.1-1.16,13.68a1.83,1.83,0,0,0,3.47,1C131.23,51.05,134.23,35.63,126.79,23.92Z"/><path class="cls-12" d="M141.22,59.93c0-1.37-1.87-1.54-2.47-.5-4.44,7.79-13.61,11.09-18.38,18.48-5.11,7.92-7.56,17.14-10.39,26-2.65,8.29-7,15-10.45,23-.69,1.57.77,3.75,2.59,2.95,6.65-2.93,11.95-7.7,16.72-13.1a93.63,93.63,0,0,0,11.88-17.12C137.31,87.5,141.38,73.79,141.22,59.93Z"/><path class="cls-11" d="M141.22,59.93c0-1.37-1.87-1.54-2.47-.5-4.44,7.79-13.61,11.09-18.38,18.48-5.11,7.92-7.56,17.14-10.39,26-2.65,8.29-7,15-10.45,23-.69,1.57.77,3.75,2.59,2.95,6.65-2.93,11.95-7.7,16.72-13.1a93.63,93.63,0,0,0,11.88-17.12C137.31,87.5,141.38,73.79,141.22,59.93Z"/><path class="cls-13" d="M135.44,67.76c0-.17,0-.33-.05-.5a25.4,25.4,0,0,1-5.15,4.23A51.16,51.16,0,0,1,128.58,79c-2.83,9.11-7.71,17.21-12.07,25.63-.8,1.55-7.76,13.88-4.09,14.64,3.52.72,11.5-12.22,13.26-14.48,6.19-8,9.24-18.46,9.94-28.41A52.55,52.55,0,0,0,135.44,67.76Z"/><path class="cls-14" d="M36.57,18.22A1.69,1.69,0,0,0,35,16.91c-1.64-.08-3,1.8-4.1,2.82-1.6,1.49-3.14,3.06-4.66,4.62A57.81,57.81,0,0,0,18.1,34.86c-4.8,8-7.72,17.32-9.38,26.42A71.89,71.89,0,0,0,9.27,89.8a73.43,73.43,0,0,0,3.81,12.09c1.54,3.76,3.43,8.28,6.68,10.86.23.18.56-.08.5-.35a20.6,20.6,0,0,0-.72-2.27,2.79,2.79,0,0,0,.63-.4,1.86,1.86,0,0,0,.58-1.8,23.2,23.2,0,0,0-1-4.06,46.82,46.82,0,0,1-2.32-8.94c-.78-5.82.48-11.84,2.25-17.35A108.17,108.17,0,0,1,27.1,60.8c1.41-2.68,2.82-5.34,4.19-8A14.06,14.06,0,0,0,32.86,49a1.5,1.5,0,0,0,.84-.9A72.11,72.11,0,0,0,37,33.25,43.36,43.36,0,0,0,36.57,18.22Z"/><path class="cls-15" d="M36.3,20A1.51,1.51,0,0,0,34,19.66,84.08,84.08,0,0,0,19.05,43C16,50.32,11.72,66.89,13.32,75.41c.25,1.33,1.79-.33,2.38-1.8a24.26,24.26,0,0,0,.9-4.39A23.37,23.37,0,0,1,18,64.85a37.73,37.73,0,0,1,5-8.26c3.45-4.52,7.92-8.72,10.78-13.6a.75.75,0,0,0,.32-.23c2.42-3,3.17-7.25,3.71-10.89A22.41,22.41,0,0,0,36.3,20Z"/><path class="cls-16" d="M105.77,1.21a1.22,1.22,0,0,0-1-1.07A51.52,51.52,0,0,0,82.25,3.6c-6.94,2.68-14.13,6.91-18.61,13-.16.21.12.53.33.34l.19-.18A39.59,39.59,0,0,0,63,21.06c-.6,2-1.37,4-2.09,6a62.85,62.85,0,0,0-3.26,11.32A1.58,1.58,0,0,0,59.74,40c5.31-1.76,9.51,1.6,15,1.09,2.6-.25,6.67-4,9.25-4.37a53.84,53.84,0,0,1,5.5-.44,1.37,1.37,0,0,0,2.09,1.34C103.34,30.13,105.88,14.09,105.77,1.21Z"/><path class="cls-17" d="M98.09,29.89c1.51-2.81.75-2.79,1.79-5.81,1.89-5.45,4.39-13.69,4-21.07-.07-1.08-.84-.43-1.14.53-1.77,5.78-4.28,12.44-9.65,15.7-1.62-2.24-.62-7.09-4.63-6a88,88,0,0,0-17.17,7A81.63,81.63,0,0,0,70.52,10,21.51,21.51,0,0,0,67,12.77c-.46,2.81-1,5.61-1.52,8.41-.61,3-1.36,6.05-2.17,9-2.33,8.54-.77,12.43,8.59,13C81.9,43.89,93.35,38.7,98.09,29.89Z"/><path class="cls-5" d="M100.81,18.18A61.13,61.13,0,0,0,92.13,24a31.89,31.89,0,0,0-2.21-6,1.92,1.92,0,0,0-2-1.17,46,46,0,0,0-13.56,4.4A44.77,44.77,0,0,0,67,25.49c.33-1.39.61-2.77.87-4.09a37.42,37.42,0,0,0,.79-10.11,32.17,32.17,0,0,0-3.51,3.39c-.31,2.07-.7,4.13-1.17,6.15-1.79,7.63-7.51,17.68,1.53,22.67a19.23,19.23,0,0,0,19.57-.56,25,25,0,0,0,6.58-6.46c.58-1,1.26-9.1,1.1-9,3.11-1.46,6-3.77,8.85-5.5.52-.31,1-.6,1.59-.88a49.26,49.26,0,0,0,1.22-4.82C103.13,16.87,101.88,17.56,100.81,18.18Z"/><path class="cls-6" d="M66.67,4.34c-9.41,4-15.2,8.13-21.39,12.92-5.5,4.26-11.09,11.1-14.27,15.8-7.24,10.68-12.47,23-11.94,35.11C18,76.26,20.7,85.1,27,90.43c2,1.73,4.91,2.62,7.38,1.25s3.65-4,4.61-6.35A55.93,55.93,0,0,0,41.36,77a61,61,0,0,1,4.37-12.82C50.35,54.47,57,45.86,61.38,36A63.87,63.87,0,0,0,66,21.48c1-5.25,1.15-10.58,2.73-15.72C69.09,4.49,67.85,3.84,66.67,4.34Z"/><path class="cls-18" d="M66.67,4.34c-9.41,4-15.2,8.13-21.39,12.92-5.5,4.26-11.09,11.1-14.27,15.8-7.24,10.68-12.47,23-11.94,35.11C18,76.26,20.7,85.1,27,90.43c2,1.73,4.91,2.62,7.38,1.25s3.65-4,4.61-6.35A55.93,55.93,0,0,0,41.36,77a61,61,0,0,1,4.37-12.82C50.35,54.47,57,45.86,61.38,36A63.87,63.87,0,0,0,66,21.48c1-5.25,2.13-10.5,2.73-15.72C68.85,4.44,67.85,3.84,66.67,4.34Z"/><path class="cls-17" d="M64.08,10.42c-.66,1.28-1.26,2.58-1.82,3.9a33.47,33.47,0,0,1-7.37,9.27c-4.38,3.9-9.21,7.25-13.7,11S33.26,42.78,29.35,47a11.8,11.8,0,0,1-4.24,3,2.53,2.53,0,0,1-2.83-.25A49.37,49.37,0,0,0,19,65.57a4.3,4.3,0,0,0,.9.35c.17,2,2.7,3.47,4.34,2,2.79-2.51,4.7-5.63,6.85-8.66,2.64-3.74,5.61-7.26,8.41-10.87,2.13-2.75,4.27-5.7,6.57-8.5a2.4,2.4,0,0,0,3.67.12A17.29,17.29,0,0,0,51,38.64,21.55,21.55,0,0,0,49.3,45a2.29,2.29,0,0,0,4.35,1.25c1.38-2.71,2.86-5.35,4-8.18s1.68-.89,2.7-3.77A137.38,137.38,0,0,0,66,10.49C67.07,5.87,64.82,9,64.08,10.42Z"/><path class="cls-19" d="M62.29,33.87c.72-1.75,1.37-3.54,1.93-5.35-1.14.52-2.14,1.1-2.77,1.45-2,1.11-4.4,2.81-5.63,5-.51-1.08-1-2.16-1.62-3.19a1.84,1.84,0,0,0-1.9-1.12c-3.69.73-6.66,2.58-9.77,4.62a48.71,48.71,0,0,0-8.59,7.37A47.32,47.32,0,0,0,27.09,52a34.32,34.32,0,0,0-2.73,5.85c-.29-.74-.59-1.47-.94-2.18a1.54,1.54,0,0,0-2.58-.38l-.46.5a48.26,48.26,0,0,0-1.08,6c.56-.82,1.13-1.63,1.76-2.39.15.49.32,1,.49,1.46a31,31,0,0,0,1.9,5c.67,1.2,3,1.41,3-.36a9.59,9.59,0,0,0-.61-3.63c.51-1.13.86-2.38,1.3-3.53a36.26,36.26,0,0,1,2.28-4.69A44.69,44.69,0,0,1,36,45a47.46,47.46,0,0,1,7.61-6.46c2.14-1.49,4.83-3.51,7.54-4.15a43.52,43.52,0,0,0,1.63,4.18,18.34,18.34,0,0,0,3.37,5.87,1.44,1.44,0,0,0,.6.38c.64-1.1,1.26-2.2,1.86-3.32a15.5,15.5,0,0,0-1.33-3.44A18.78,18.78,0,0,1,62.29,33.87Z"/><path class="cls-20" d="M117,27.14a24,24,0,0,0-5.6-10.33c-3.11-3.28-16.74,7.47-19.09,9.13C83.7,32,76.54,39,75.58,50.4A20.77,20.77,0,0,0,79,62.76c4.48,7.3,13.44,10.49,21,6.08,6.43-3.73,11.06-10.78,14.4-17.27A34.81,34.81,0,0,0,117,27.14Z"/><path class="cls-17" d="M116.22,38.81c.41-7.32-2.17-14.86-4.56-18.46-.81-1.22-1.34-1.54-1.12,0,.59,3.94-.56,8.38-1.33,12.29A45.25,45.25,0,0,1,105,42.11c-.26-.66-.52-1.31-.8-1.94a1.8,1.8,0,0,0-2.31-1c-2.78.86-5.53,1.81-8.23,2.89-.69.27-1.36.56-2,.89.14-.95.26-1.91.35-2.87a57.93,57.93,0,0,0-.25-13.8c-1,.7-1.93,1.41-2.86,2.14a95.33,95.33,0,0,1-.75,10.4c-.29,2.13-.65,4.25-1.1,6.36h-.15c-.58,0-.55.82-.07,1-.06.27-.12.54-.19.81-.66,2.77-2,5.65-1.79,8.53a1.47,1.47,0,0,0,2.57.73,9.51,9.51,0,0,0,2-3.6,2.31,2.31,0,0,0,2.94,1c.5-.18,1-.4,1.53-.61l-.1.17c-.81,1.66.76,4,2.68,3.6A25.18,25.18,0,0,0,101,55.27l0,0A19.06,19.06,0,0,0,102.35,61a2.12,2.12,0,0,0,1.53,1.27c0,.51,0,1-.08,1.52a2,2,0,0,0,.76,1.61,37.71,37.71,0,0,0,4.08-4.55c.21-.7.41-1.39.62-2.08a2.33,2.33,0,0,0,1.11-1.55c.11-.49.23-1,.35-1.47,2.15-2,3.27-5.2,4.12-7.91A37.18,37.18,0,0,0,116.22,38.81Z"/><path class="cls-5" d="M115,38.57c1-1.44,2-2.84,3.11-4.21a32.14,32.14,0,0,0-.61-5.1c-.11.14-.23.28-.35.41-1.79,2.11-7.27,11.8-10.87,17.92l-.45-.88c-.68-1.32-1.5-3.44-3-4.08-1.14-.5-3.09.08-4.27.31a29.82,29.82,0,0,0-5,1.5,34.49,34.49,0,0,0-4.92,2.33,46.25,46.25,0,0,0,1.45-7.63,68.69,68.69,0,0,0,.25-8.49A14.49,14.49,0,0,0,90,27.59c-1,.76-2,1.54-2.93,2.34l-.15,1.2c-.37,2.69-.65,5.39-1.19,8.06-.6,2.93-1.37,5.79-2.24,8.65s-2.5,5.77-1.69,8.68a1.52,1.52,0,0,0,2.3.64c2.06-1.43,2.83-4.32,3.52-6.79,2-.76,4-1.67,6.07-2.42a23.13,23.13,0,0,1,6.76-1.75c.53,2,1.59,4.07,2.29,6,1,2.73,1.13,5.53,1.66,8.36a2.32,2.32,0,0,0,3,1.87c.58-.69,1.14-1.41,1.69-2.14.57-3.07-.23-6.21-1.27-9.12,1.18-1.86,2-3.92,3.06-5.86A72,72,0,0,1,115,38.57Z"/><path class="cls-21" d="M119.74,32.63a1.26,1.26,0,0,0-1.77.19c-5.83,8.41-10.29,17.67-16.18,26a.77.77,0,0,0-.26.07c-.24.1-.47.22-.53.48-.15.64.3,1.09.41,1.78a8.22,8.22,0,0,1,0,2.71,32.49,32.49,0,0,1-2.67,7.87c-2,4.58-4.34,9.53-7.56,13.42a1.91,1.91,0,0,0,0,2.31C96,93.84,101.26,100.31,103,108.25a1.68,1.68,0,0,0,0,1.06c0,.1.06.19.1.29a30.14,30.14,0,0,0-2.7,2.6,1.59,1.59,0,0,0,1.83,2.45c3.93-1.8,7.28-5.08,10.41-8a84.07,84.07,0,0,0,9.26-10.07A51.64,51.64,0,0,0,132.3,74C134.9,59.73,131.26,42.29,119.74,32.63Z"/><path class="cls-17" d="M131.41,70.7a56.76,56.76,0,0,0-.1-11.51c-.9-7.24-4.25-13.85-8.09-19.94-.78-1.25-1.39-.58-.86.8,3.7,9.61,3.38,19-4.67,26-1,.89-6.18,3.69-6.28,5.07.48-7.23-1.44-13.56-4.58-19.9-.36.48-2.12,2.47-2,3.11a52.46,52.46,0,0,1,.55,6,55.77,55.77,0,0,1-1.16,11.38,91.94,91.94,0,0,1-2.85,10.56c-1.09,3.4-3,7.14-2.83,10.77.06,1.51,2,1.76,2.88.81a13.42,13.42,0,0,0,2.41-4.11c2.93-2.94,5.78-6,8.71-8.9,2.43-2.44,4.68-5.1,7.28-7.38a12,12,0,0,1,3.63-2.34,4.45,4.45,0,0,1,.55-.08l.17.1a1.83,1.83,0,0,1,.79,1,12.33,12.33,0,0,1,.76,2.28,29.83,29.83,0,0,1,.54,3.62,26.51,26.51,0,0,0-.77,4.16,1.72,1.72,0,0,0,.85,1.58c-.1,2.4-.34,4.8-.53,7.21a50.8,50.8,0,0,0,5.73-13.4C131.4,76.56,131.31,71.91,131.41,70.7Z"/><path class="cls-5" d="M124.9,92.42a52.93,52.93,0,0,0,4.26-8c.06-.38.11-.75.13-1.09a44.13,44.13,0,0,0-.15-7.88A22.79,22.79,0,0,0,127.3,68a13.72,13.72,0,0,1-.85-2,2.66,2.66,0,0,0-2.5.27,84.39,84.39,0,0,0-13.31,10.45c-1.57,1.47-3.09,3-4.6,4.5a61.07,61.07,0,0,0,1.7-9.6,59.74,59.74,0,0,0,.18-11.58,23.94,23.94,0,0,0-1.79-7.86c-1,1.6-2,3.2-3,4.76.11,1,.22,2.07.27,3.09a69.7,69.7,0,0,1-.4,10.32,56.12,56.12,0,0,1-1.77,10.05,52.68,52.68,0,0,1-2,5.6c-.84,2-2,3.94-2.14,6.19-.08,1.52,1.62,3,3,1.79a13.94,13.94,0,0,0,3.65-5.53c1.16-.79,2.24-1.79,3.13-2.52,2.23-1.82,4.33-3.78,6.47-5.7a85.08,85.08,0,0,1,11.43-8.76c2.18,3.76,2.45,8.34,2,12.64A39,39,0,0,1,125,92C125,92.14,124.94,92.28,124.9,92.42Z"/><path class="cls-22" d="M125.79,69.67a1.17,1.17,0,0,0-1.76-.49c-11.74,7.39-20,17.95-27.65,29.28a1.7,1.7,0,0,0-2,.83,91.64,91.64,0,0,0-6.47,16.38c-1.1,3.67-2.39,7.37-3.17,11.12-.64,3.06-1,7.16,1.75,9.33,3.07,2.43,7.24-.28,9.8-2.17,7.22-5.32,14.85-10.68,19.72-18.37a83.8,83.8,0,0,0,11.33-27.65C128.51,81.85,128.33,75.39,125.79,69.67Z"/><path class="cls-7" d="M123.47,76.42c-3,17.21-8.43,25.5-19,34.64a41,41,0,0,0-.06-23.67c-.59.74-1.16,1.48-1.73,2.23a40.82,40.82,0,0,1,.31,8,2.36,2.36,0,0,0-4,1.23c-1.32,7.11-2.47,14.28-4.68,21.19a2.54,2.54,0,0,0,3.81,3,10.3,10.3,0,0,0,1.07-.76c-.1,1.91,2.42,3,4.16,2,10.25-5.47,14.78-14.69,18.37-24.14,3.17-8.32,6.34-18.19,3.08-27.73C124.39,71.29,123.93,73.8,123.47,76.42Z"/><path class="cls-5" d="M105.82,126.26c-.18.29-.36.55-.53.81a55.63,55.63,0,0,0,8.28-8.17,15.27,15.27,0,0,0-.95-6.42,2.26,2.26,0,0,0-3.42-1,20.05,20.05,0,0,1-7,3l-1.07.25a57.48,57.48,0,0,0,2.55-8.25,49.94,49.94,0,0,0,1.08-10.63,31.31,31.31,0,0,0-.39-4.93,20.74,20.74,0,0,0-.49-2.24,3.79,3.79,0,0,0-.17-.48q-1.78,2.28-3.48,4.64c0,1,0,2,0,3a60.27,60.27,0,0,1-1.3,9.35A50.52,50.52,0,0,1,96.1,114c-.68,1.63-1.43,3.24-2.22,4.81s-1.81,2.94-1.86,4.65c0,1.32,1.19,2.83,2.65,2.09,2.26-1.15,3.6-3.78,4.66-6.29a22.63,22.63,0,0,0,4.54-.71,26.1,26.1,0,0,0,5-1.71,16.87,16.87,0,0,1-1.07,5.36A21.11,21.11,0,0,1,105.82,126.26Z"/><path class="cls-23" d="M89.21,35.88c.56-4.5.87-12.62-.61-16.09a1.12,1.12,0,0,0-1.43-.61c-1.17.37-2.29.73-3.37,1.11C82,27.1,77.92,33.58,75.17,39.74c-.16.38-.49.36-.37,0C76.14,35.59,80.54,23,81,21.32a49.5,49.5,0,0,0-6.77,3,39.06,39.06,0,0,1-3.28,8c-.15.3-.22.22-.2-.11a41.58,41.58,0,0,1,1.2-6.73c-1.93,1-3.07,1.73-5.16,3C63.33,30.55,56,37.19,54.18,40.8,45.89,57.24,50,60.38,48.63,72.34a1.66,1.66,0,0,0,1.84,1.88c4.55-.7,9.07-1.68,13.54-2.76,6.3-1.52,13.34-2.72,16.61-8.66A75.39,75.39,0,0,0,89.21,35.88Z"/><path class="cls-17" d="M76.86,67a46.78,46.78,0,0,0,4.93-9.68,119.44,119.44,0,0,0,4.94-17,50.68,50.68,0,0,0,1-18.36c-.1-.7-.93,3.91-4,11.9a58.49,58.49,0,0,1-4.38,9.47c-2.73,4.49-5.84,10-10.68,12.48A7.12,7.12,0,0,0,66.48,52a.92.92,0,0,0-1.11,0,17.52,17.52,0,0,1-3.88,2.14A105,105,0,0,0,59.86,43a33,33,0,0,0-2.17-6.74,22.37,22.37,0,0,0-3.51,4.56c0,.09-.08.17-.13.26.22,3.46.25,6.93.18,10.41-.09,4.42-.54,8.88-.06,13.29.31,2.87,1.08,6,3,8.24,2.28-.47,4.56-1,6.82-1.54C68.45,70.39,73.26,69.48,76.86,67Z"/><path class="cls-5" d="M86.8,47.69l-.08,0a33.56,33.56,0,0,0-9.12,3.5,43.56,43.56,0,0,0-7.8,5.63,34.32,34.32,0,0,0-3.13,3.25l-.55.63a15.8,15.8,0,0,0-1.51-1.79c-1.49-1.52-2.59-1.12-4.39-.53l-.54.18c0-.94,0-1.86,0-2.72a78.48,78.48,0,0,0-.22-8,32.9,32.9,0,0,0-1.69-8,21.09,21.09,0,0,0-1-2.58,20.85,20.85,0,0,0-2.4,3.19c.06.48.12,1,.19,1.41.37,2.56.76,5.1.92,7.68a57.76,57.76,0,0,1-.26,9.11c-.28,2.9-1.08,5.89-.89,8.81a1.14,1.14,0,0,0,2.16.32A14.17,14.17,0,0,0,57,66.36a1.26,1.26,0,0,0,1.4-.62,12.88,12.88,0,0,0,1.16-4.57c.84-.25,1.7-.45,2.56-.67a10.94,10.94,0,0,1,2.34,3.39c.67,1.38.68,3.19,1.67,4.38a1,1,0,0,0,1.61,0c1.43-1.4.77-3.69-.38-5.73l.24-.24c1.06-1.06,2.16-2.08,3.28-3.08a50.17,50.17,0,0,1,7.25-5.4,31.3,31.3,0,0,1,7.82-3.3C86.22,49.62,86.52,48.67,86.8,47.69Z"/><path class="cls-24" d="M103.3,46.33a1.39,1.39,0,0,0-1.73-.73,43.44,43.44,0,0,1-5.25,1,50.07,50.07,0,0,0-6,1.53,62.22,62.22,0,0,0-12.64,5.64,47.35,47.35,0,0,0-10.78,8.37c-2.25,2.39-4.66,5.49-5.47,8.81a.68.68,0,0,0-.43.72c.64,6.14,0,12.21-.78,18.3-.81,6.59-1,13.39-3.14,19.74a1.57,1.57,0,0,0,.79,2c6.84,2.39,13.18-2.58,19.29-4.86,3-1.1,6.06-1.92,9-3,2.62-1,5.66-2.18,7.4-4.48a1.53,1.53,0,0,0,.22-1.54c5.83-6.76,9.75-15.56,11.88-24.16C107.92,64.57,107.55,54.75,103.3,46.33Z"/><path class="cls-7" d="M105.35,57.05a20,20,0,0,0-2.93-8.4c-.13-.18-.39.11-.34.33.62,2.72-.53,8.27-2.27,11.61-2.77,5.32-5.45,8.28-9.68,12.55-2.1,2.12-6.6,5.77-14.4,9.66.19-1.58-2.16-15.39-8.82-20.72l0,0c-2.25,2.39-4.66,5.49-5.47,8.81a.68.68,0,0,0-.43.72c.64,6.14,0,12.21-.78,18.3-.77,6.26-1,12.7-2.83,18.76a9.38,9.38,0,0,0,4.53,3.64c5.32-.13,10.35-3.67,15.24-5.49C80,105.79,82.93,105,85.79,104c1.12-.79,2.24-1.59,3.38-2.36a43.15,43.15,0,0,0,8.09-7c2.69-3,2.67-7.83,3.79-11.5,1.68-5.53,3.68-10.45,4.22-16.32A54.3,54.3,0,0,0,105.35,57.05Z"/><path class="cls-5" d="M100.66,79.09c-1.66-1.56-2.06-1-4.75-.2a89.07,89.07,0,0,0-9.23,3.8,72.69,72.69,0,0,0-7.36,4,41.38,41.38,0,0,0-9,6.71,90.46,90.46,0,0,0,.73-11.14,40.85,40.85,0,0,0-1.51-12.45,22.08,22.08,0,0,0-2.42-5.3,17.76,17.76,0,0,0-1-1.55c-.55.62-1.1,1.27-1.62,2a9.18,9.18,0,0,1,.52.81,24.28,24.28,0,0,1,2.1,5.08,38.68,38.68,0,0,1,1.16,11.94A94.53,94.53,0,0,1,67.14,95c-.17,1.07-.39,2.14-.62,3.21a.84.84,0,0,0-.76.45c-1,2-2.58,3.76-3.39,5.91a1.15,1.15,0,0,0,1.94,1.18l.33-.36a19.41,19.41,0,0,0-1,5.07c0,.91,1.26,1.83,1.88.82a25.87,25.87,0,0,0,2.57-7.06c.3-1.11.58-2.22.85-3.34,2.31-4,6.36-6.45,10.43-8.86a106.17,106.17,0,0,1,9.73-5.27l.85-.37a1.58,1.58,0,0,0,3,.72,7.28,7.28,0,0,1,2.44-2.62,19.07,19.07,0,0,1-.86,1.86c-.84,1.84-1.46,3.76-2.38,5.58A30.62,30.62,0,0,1,88.83,97c-.81.91-1.61,1.81-2.39,2.73a21.58,21.58,0,0,0-2.15,2.7,1.72,1.72,0,0,0,.07,2l1.82-.64c.55-.2,1.12-.42,1.7-.65,1.48-1.86,3.1-3.6,4.67-5.38s3.1-4,4.62-6a18.22,18.22,0,0,0,3.22-5.74c0,.56.07,1.13.07,1.7.86-1.69,1.64-3.43,2.34-5.19A9.46,9.46,0,0,0,100.66,79.09Z"/><path class="cls-25" d="M57.33,51.92c-.2-11.18-3.27-16.08-4.24-17.9s-1.31-1.41-3.24-.88c-3.61,1-6.7,3.56-9.48,6a64.88,64.88,0,0,0-8.61,9.16,39.33,39.33,0,0,0-8.59,25,.5.5,0,0,0-.55.56,24.6,24.6,0,0,0,1.27,4.87A34.4,34.4,0,0,0,25.77,84c1.42,3,3.76,4.91,7.14,4.93s6.65-2.15,9.26-4a46,46,0,0,0,4.13-3.37l.24-.22a1.16,1.16,0,0,0,1.5-.2c3.35-3.48,5.27-8.73,6.74-13.24A51.6,51.6,0,0,0,57.33,51.92Z"/><path class="cls-26" d="M51.41,38c-.68,8-1.31,11.87-3.37,17-1.67,4.18-3.94,6.19-8.69,9.72-3.26,2.43-6,4.46-7,5.41-2.66-4.44-5-9.35-6.28-12a37.46,37.46,0,0,0-2.86,15.14.5.5,0,0,0-.55.56,24.6,24.6,0,0,0,1.27,4.87c.35,1.22.71,2.44,1.16,3.62a10.38,10.38,0,0,0,2,2.45c4.72,4.2,11-.5,14.5-3.91A50.57,50.57,0,0,0,51.77,66.76c4.4-9.19,4.4-19.71,1-29.25C52.34,36.18,51.53,36.53,51.41,38Z"/><path class="cls-5" d="M54.6,64.19c.44-.1.87-.2,1.31-.28.33-1.39.61-2.82.84-4.26a34.63,34.63,0,0,0-3.59.85,45.33,45.33,0,0,0-9.65,4.17,33.59,33.59,0,0,0-8.36,6.63A18,18,0,0,0,32,75.82c-.79-1.56-1.64-3.09-2.46-4.63-1.63-3.08-2.77-6.79-4.74-9.77a39.83,39.83,0,0,0-1,4.18,48.67,48.67,0,0,0,2.45,6.93c1,2.13,2,4.24,2.88,6.39.81,1.93,1.24,4.94,2.93,6.26a1.57,1.57,0,0,0,2.39-.59c.75-1.72-.11-3.75-.9-5.49a45,45,0,0,1,4.06-5.82,28.76,28.76,0,0,1,8.07-5.79A41,41,0,0,1,54.6,64.19Z"/><path class="cls-27" d="M103,95.05c.28-4.68-.19-9.06-2.16-12.57C98.91,87.26,97,94.52,89,100.05c-.42.29-1.17.4-1,.2A39.36,39.36,0,0,0,96.9,85.81q1-2.69,1.81-5.43a1.91,1.91,0,0,0-.85.05,61.6,61.6,0,0,0-20.16,10,51.31,51.31,0,0,0-8.34,7.86c-2.18,2.56-4.86,5.85-5.61,9.2a1.14,1.14,0,0,0-.08.46c.13,4.57.12,9.4,1,13.91.71,3.67,3.06,7.44,6.65,8.17-.08.92.48,1.84,1.64,1.58a48.45,48.45,0,0,0,15.85-6.7,28,28,0,0,0,6.41-5.74,28.75,28.75,0,0,0,4.26-8.41A56.32,56.32,0,0,0,103,95.05Z"/><path class="cls-28" d="M103,95.05c.28-4.68-.19-9.06-2.16-12.57C98.91,87.26,97,94.52,89,100.05c-.42.29-1.17.4-1,.2A39.36,39.36,0,0,0,96.9,85.81q1-2.69,1.81-5.43a1.91,1.91,0,0,0-.85.05,61.6,61.6,0,0,0-20.16,10,51.31,51.31,0,0,0-8.34,7.86c-2.18,2.56-4.86,5.85-5.61,9.2a1.14,1.14,0,0,0-.08.46c.13,4.57.12,9.4,1,13.91.71,3.67,3.06,7.44,6.65,8.17-.08.92.48,1.84,1.64,1.58a48.45,48.45,0,0,0,15.85-6.7,28,28,0,0,0,6.41-5.74,28.75,28.75,0,0,0,4.26-8.41A56.32,56.32,0,0,0,103,95.05Z"/><path class="cls-7" d="M101.55,88.05c-.08-.79-.59-.51-.87.29-2.35,6.71-5.39,14-11.53,18.14-4.08,2.76-10,2-13.75,5.21.23-5.21-1.44-10.84-5.38-14.2l-.66.76c-2.18,2.56-4.86,5.85-5.61,9.2a1.14,1.14,0,0,0-.08.46,114.76,114.76,0,0,0,.63,11.69c2.12,3.7,4.57,7.65,8.66,9,3.27,1.11,7,.44,10.55-.78a52.94,52.94,0,0,0,5.28-3c.63-.41,1.25-.85,1.85-1.31a1.15,1.15,0,0,0-1.66-.87c3.32-3.3,3.77-.64,5.62-4.66C100.18,105.86,102.44,96.26,101.55,88.05Z"/><path class="cls-5" d="M97.93,114.55a12.08,12.08,0,0,1-4.59,1c-3.22.12-6.44,0-9.66,0a44.19,44.19,0,0,0-8.25,1.08,13.6,13.6,0,0,0-2.72.84,1.09,1.09,0,0,0,0-.18,34.55,34.55,0,0,0-.55-8.12c-.55-2.83-2.48-7.53-5.47-7.67-.42.57-.82,1.17-1.19,1.77,3.16.87,3.69,5,4,8,.08.72.14,1.45.18,2.17a1.1,1.1,0,0,0-.83.66,15.77,15.77,0,0,0-1.63,7.35c0,.18,0,.35-.08.53a9.58,9.58,0,0,0-.29,3.72.72.72,0,0,0,1.36.2c.06-.11.11-.22.17-.34h0a7,7,0,0,0-.2,2.79,7,7,0,0,0,1.33.91l.07-.05c1.49-1.24,1.79-3.34,2.2-5.15.27-1.19.47-2.4.62-3.61a18.16,18.16,0,0,1,5.62-1.33,59.26,59.26,0,0,1,9.6-.53,55.28,55.28,0,0,0,7.8,0A21.54,21.54,0,0,0,97.93,114.55Z"/><path class="cls-29" d="M61.69,108c8.85-11.87,10.58-34.77,1.51-47-.45-.61-1.24-.45-2-.29-9.85,2-20.5,7.72-24.38,12.4-11.85,14.3-8.53,25.5.39,39.1,1.65,2.51,3.91,5.41,6.86,6.41C50.38,120.83,58.38,112.48,61.69,108Z"/><path class="cls-7" d="M44.17,118.56a8.81,8.81,0,0,0,1.25.43c4.66.52,9.94-3.78,13.54-7.67a64.92,64.92,0,0,0,6.92-18.14C68,84.22,68.25,71,63.12,63c-.31-.48-.9.37-.87,1,.29,6.41-1.24,13-2.32,17.12-2.19,8.26-4.4,12.44-11.23,19-1.18-6.56-4.53-11.29-8.89-16.2a52.17,52.17,0,0,0-6.2-6.33,33.06,33.06,0,0,0-2.09,3.74,60.88,60.88,0,0,1,2.78,9.39c.79,3.43,1.5,6.83,2,10.31C37.22,106.7,38,115.84,44.17,118.56Z"/><path class="cls-5" d="M44.8,107q-.3-2.08-.75-4.14a78.65,78.65,0,0,0-3.27-10.24,65.5,65.5,0,0,0-4.29-9.37,24.64,24.64,0,0,0-3.36-4.91c-.59,1-1.11,1.93-1.57,2.88.79,1.09,1.53,2.21,2.23,3.37A55.78,55.78,0,0,1,38,93.72,76.84,76.84,0,0,1,41,103.19a55.87,55.87,0,0,1,1,5.74,39,39,0,0,0,.8,6.12c.38,1.34,2.37.93,2.56-.3a17.92,17.92,0,0,0-.13-4.68c1.26-.75,2.42-1.68,3.67-2.44a29.92,29.92,0,0,1,6.8-2.93,21,21,0,0,1,6.46-.92,4.22,4.22,0,0,1,1.91.55c.51-1,1-2,1.43-3C56.69,100.72,45.78,106,44.8,107Z"/><path class="cls-30" d="M43.45,109A70.22,70.22,0,0,0,38.88,94.3c-2.5-5.77-5.64-11.22-8.4-16.86A170,170,0,0,1,23.15,59a1.06,1.06,0,0,0-1.62-.42,1.33,1.33,0,0,0-.38.31,54,54,0,0,0-12,39.27,39.08,39.08,0,0,0,7.42,19.53,30.23,30.23,0,0,0,9.05,7.87A38.39,38.39,0,0,0,30.91,128c1.88.74,4.17,1.74,6.21,1.31a1.59,1.59,0,0,0,1.29-1.41c1.64-.74,2.94-2.83,3.54-4.86a1.65,1.65,0,0,0,.75-.64C45.24,118.71,44.26,113.1,43.45,109Z"/><path class="cls-7" d="M42.47,120.4C43,105.33,34.79,92,28.55,78.91a65.89,65.89,0,0,1-5.33-15.47.61.61,0,0,0-1.21.15c.38,6,.93,12,1.51,18,.59,6.19,1.87,12.29,2.81,18.43.71,4.6,1.75,9.78.12,14.29-1.46,4-5.63,5.15-9.24,4.09a30.84,30.84,0,0,0,8.45,7.11A38.39,38.39,0,0,0,30.91,128c1.88.74,4.17,1.74,6.21,1.31a1.59,1.59,0,0,0,1.29-1.41c1.64-.74,2.94-2.83,3.54-4.86a2,2,0,0,0,.28-.16A23.36,23.36,0,0,0,42.47,120.4Z"/><path class="cls-31" d="M30.74,117.27a24.67,24.67,0,0,0-4.36,8.64A38.13,38.13,0,0,0,30.91,128l1.31.51a19.74,19.74,0,0,1,1-5.08,14.11,14.11,0,0,1,5.9-6.28,16.3,16.3,0,0,1,5.19-1.8,41.78,41.78,0,0,0-.87-6.43l-.18-.88A35.75,35.75,0,0,0,30.74,117.27Z"/><path class="cls-32" d="M110.66,116.46a1.5,1.5,0,0,0-2.35-1.41c-3.88,2.35-8.87,1.87-13.22,2a130.75,130.75,0,0,0-15.19,1,29.66,29.66,0,0,0-10.5,3.41A21.07,21.07,0,0,0,65,124.92a1.71,1.71,0,0,0-1.08.31,65.71,65.71,0,0,0-6.72,5.15c-2,1.79-4.31,4.26-4.09,7.14.27,3.61,4.08,5,7,5.93a38.76,38.76,0,0,0,13.77,1.36,53.39,53.39,0,0,0,25.43-8.57A24.41,24.41,0,0,0,110.66,116.46Z"/><path class="cls-7" d="M109.26,117.38C109,115.23,106,123.86,99,130.44a28.69,28.69,0,0,1-17,7.18c-6.29.32-7.7-3.69-7-8.91.42-3.08.13-6.1-1.74-8.49a1.24,1.24,0,0,0-.26-.43,23.34,23.34,0,0,0-3.62,1.69A21.07,21.07,0,0,0,65,124.92a1.71,1.71,0,0,0-1.08.31c-1.21.86-2.41,1.7-3.59,2.58-4.12,5.78-10.61,10.82-2.05,13.52,5.16,1.64,15.62,1.81,20.83.84,9.11-1.69,16.11-3.9,22.89-10.31C105.39,128.66,108.86,122.69,109.26,117.38Z"/><path class="cls-5" d="M68.11,122.3c-.08.35-.17.7-.26,1a49.24,49.24,0,0,1-4,10.42,32,32,0,0,1-2.25,3.7,2,2,0,0,0-3.33-.45c-.82.85-1.49,1.82-2.3,2.69-.37.41-.8.77-1.2,1.14a13.93,13.93,0,0,0,5.37,2.61,29.72,29.72,0,0,0,3.06.76,42,42,0,0,0,5.85-8.79,37.92,37.92,0,0,0,4.07-12.5,18.26,18.26,0,0,0,.12-3.22,23.67,23.67,0,0,0-3.86,1.78C69,121.74,68.52,122,68.11,122.3Z"/><path class="cls-33" d="M68.46,104.39c-4.19-3.86-13.87.34-18.19,2.19C44,109.27,37.7,113,33.1,118.08a12.94,12.94,0,0,0-3.46,6.75c-.46,3.52,1.39,6.6,3.82,9s6,4.14,9.26,5.55,6.74,2.76,10.49,2.72c6.48-.06,11.07-5.32,13.72-10.69s4.84-23.17,1.62-26.9Z"/><path class="cls-34" d="M98.9,49.22a44.89,44.89,0,0,0-10.57,2.9A78.32,78.32,0,0,0,78.6,57a42.4,42.4,0,0,0-7.16,5.33h0c2.62,1.73,6.58,9.86,7.64,15.8a45.74,45.74,0,0,0,10.29-8c6.71-7.07,9.77-11.56,10.39-20.07A.79.79,0,0,0,98.9,49.22Z"/><path class="cls-34" d="M95.15,83.1a64.62,64.62,0,0,0-11.77,5.43A28.33,28.33,0,0,0,74,96.77a.72.72,0,0,0,0,.88c2.08,2.43,3,5.68,3.67,8.74.19.83.66.52,1.33-.07,4.34-3.87,6.84-7.64,9.7-12,1.37-2.08,2.72-4.17,4.13-6.22.36-.51,3.28-4.81,3.44-5.35Z"/><path class="cls-34" d="M59.63,64.17C54.15,65.92,41,71.33,38.31,78a.73.73,0,0,0,.21.87c5.36,3.49,8.69,9.19,11.23,14.77.27.61.37,1.44.79.79A55,55,0,0,0,57,81.25C60.89,69.11,60,64.06,59.63,64.17Z"/><path class="cls-35" d="M59.56,62.39c1.32-.29,2.65-.57,4-.84-.11-.15-.21-.31-.33-.47-.45-.61-1.24-.45-2-.29-9.85,2-20.5,7.72-24.38,12.4-.72.86-1.38,1.72-2,2.56,2.3-1.7,4.26-3.76,6.51-5.54a36.5,36.5,0,0,1,9-5A59.1,59.1,0,0,1,59.56,62.39Z"/><path class="cls-35" d="M97.13,47.9c2.06-.49,4.24-.76,6.36-1.17l-.19-.4a1.39,1.39,0,0,0-1.73-.73,43.44,43.44,0,0,1-5.25,1,50.07,50.07,0,0,0-6,1.53,62.22,62.22,0,0,0-12.64,5.64,49.73,49.73,0,0,0-8.57,6.2.36.36,0,0,0,.21,0,85.06,85.06,0,0,1,8.14-4.79c2.94-1.41,5.9-2.77,8.93-4A79.24,79.24,0,0,1,97.13,47.9Z"/><path class="cls-36" d="M84.1,21.48c1.47-.46,3.11-.76,4.71-1.13-.07-.2-.14-.39-.21-.56a1.12,1.12,0,0,0-1.43-.61c-1.17.37-2.29.73-3.37,1.11-.13.47-.27.94-.41,1.41Z"/><path class="cls-36" d="M71.59,26.86c.1-.47.22-.95.34-1.45-1.93,1-3.07,1.73-5.16,3a52,52,0,0,0-7.66,6.36.27.27,0,0,0,.19,0C63.36,32.11,67.37,29.3,71.59,26.86Z"/><path class="cls-36" d="M75.13,24.94a49.71,49.71,0,0,1,5.44-2.29c.2-.62.35-1.09.41-1.33a49.5,49.5,0,0,0-6.77,3c-.11.46-.24.9-.38,1.34Z"/><path class="cls-34" d="M82.51,24.24c-2.06,5.37-5.13,10.54-7.34,15.5-.16.38-.49.36-.37,0,.94-2.9,3.4-10,4.93-14.53-2.45.95-5.19,2.22-6.92,3.11-.52,1.21-1.15,2.48-1.88,4-.15.3-.22.22-.2-.11.08-1,.21-1.92.37-2.9C65.58,32.62,60.26,36.6,62,43.85c.75,3.15,1.77,6.17,5.41,5.49s6.26-3.59,8.37-6.28a44.06,44.06,0,0,0,5.86-9.65c.2-.43.39-.87.58-1.32,1-2.47,2.34-4.94,2.84-7.61C85.16,23.75,84.1,23.79,82.51,24.24Z"/><path class="cls-34" d="M21.06,79.43c-.66-7.05-.71-14.47-1-13.75-3.36,3.38-6.71,13.64-7.86,21.13-1.09,7.15-.39,16.25,2,21.43,1.06,2.28,3,5.77,4.39,6.37a3.81,3.81,0,0,0,5.22-2.94C24.32,101.38,22,89.9,21.06,79.43Z"/><path class="cls-36" d="M13.29,74.2c2.41-5.7,6.05-10.41,9.91-15.1a.88.88,0,0,0-.05-.15,1.06,1.06,0,0,0-1.62-.42,1.33,1.33,0,0,0-.38.31A54,54,0,0,0,9,94.44c.86-3.08.88-5.71,1.43-9A54.11,54.11,0,0,1,13.29,74.2Z"/><path class="cls-34" d="M49.18,39.83c.11-2.44-.42-4.25-1.45-3.53-5,3.56-9,7.82-12.46,11.29a33.72,33.72,0,0,0-6,8.3c-.1.29,3.32,6.26,4.38,8.25,1.25,2.35,11.46-6.46,12.86-10.86C48.52,46.84,48.94,45,49.18,39.83Z"/><path class="cls-36" d="M49.85,33.14c-3.61,1-6.7,3.56-9.48,6a64.88,64.88,0,0,0-8.61,9.16,41.45,41.45,0,0,0-3.86,5.92A21.26,21.26,0,0,0,30.05,52q1.69-2.13,3.5-4.18a85.08,85.08,0,0,1,7.28-7.55,44,44,0,0,1,8.52-6.17c.87-.47,1.75-.9,2.65-1.32C51.52,32.61,50.93,32.84,49.85,33.14Z"/><path class="cls-34" d="M45.28,17.26c-5.5,4.26-11.09,11.1-14.27,15.8a82.7,82.7,0,0,0-6.64,11.62c2.21.06,4.41-1.59,6-3C33,39.27,35,36.25,37.51,33.83c4.29-4.07,9-7.6,13.34-11.66A71.87,71.87,0,0,0,62.41,7.63a2.18,2.18,0,0,0,.32-1.52A91.77,91.77,0,0,0,45.28,17.26Z"/><path class="cls-37" d="M14.88,47.37a77.83,77.83,0,0,1,8.51-16.59c3-4.23,6.2-8.6,8.55-12.06-.36.36-.69.72-1,1-1.6,1.49-3.14,3.06-4.66,4.62A57.81,57.81,0,0,0,18.1,34.86c-4.8,8-7.72,17.32-9.38,26.42a71.45,71.45,0,0,0-1,18.22c.31-1.79.33-3.65.55-5.45.4-3.1,1-6.18,1.54-9.25A98.68,98.68,0,0,1,14.88,47.37Z"/><path class="cls-37" d="M1.58,88.23a58.09,58.09,0,0,0,1.93,6.69A21,21,0,0,0,4,89.57c-.14-4-1.26-8.11-1.61-12.16a41.78,41.78,0,0,1,.85-11.75c.35-1.77.73-3.54.94-5.33a6.81,6.81,0,0,0-.3-3.09,1.2,1.2,0,0,0-.39.45C-1,66.88-.62,78.51,1.58,88.23Z"/><path class="cls-17" d="M33.46,133.79c2.57,2.49,6,4.14,9.26,5.55s6.74,2.76,10.49,2.72a11.91,11.91,0,0,0,5.43-1.38,58.16,58.16,0,0,0,3.65-5.38c4.36-7.15,6.41-17.44,5.58-29.33-2.09,1.51-3.36,7.71-4.51,10.32-1.58,3.55-3.68,7.47-6.45,10.25-1.73,1.74-3.52,3.42-5.33,5.08-3.28,2.39-7.2,3.88-11.23,2.6-4.73-1.5-8.13-5.9-10.57-10.18h0c0,.13-.06.25-.08.38s-.05.27-.06.41C29.18,128.35,31,131.43,33.46,133.79Z"/><path class="cls-34" d="M63.8,108c.31-.72.51-1.13.41-1.11a74.33,74.33,0,0,0-18.13,6.37c-5,2.4-9.88,6.18-9.69,12.23.09,3,2.25,5.05,5,5.82,3.08.86,6.41-.35,8.94-2.06,4-2.71,6.27-6.41,8.49-10.31S61.9,112.34,63.8,108Z"/><path class="cls-38" d="M63,104.68a34,34,0,0,1,5.8.13,2.3,2.3,0,0,0-.25-.34l-.09-.08c-4.19-3.86-13.87.34-18.19,2.19C44,109.27,37.7,113,33.1,118.08a16.77,16.77,0,0,0-2.34,3.31,6.16,6.16,0,0,0,3-1.82c1.47-1.35,2.91-2.67,4.44-3.94a59.73,59.73,0,0,1,12-7.51A34.91,34.91,0,0,1,63,104.68Z"/><path class="cls-34" d="M102.74,119.92c-2.77.39-5.94.38-10.95.55-3.13.11-6.29.32-9.39.72-2.16.28-3.86.14-3.24,2.68a24.29,24.29,0,0,1,.85,6c0,1.28-.57,3.85,1.18,4.25,4.09,1,8.77-1.39,12.22-3.35a28.11,28.11,0,0,0,10.26-10C104.44,119.49,105.07,119.59,102.74,119.92Z"/><path class="cls-34" d="M122.07,73.46c.15-.81-8.56,7.4-9.68,8.33-3.92,3.28-5.52,5.07-5.16,6.41a32.79,32.79,0,0,1,.41,16.23c4.84-3.71,8.18-9.18,10.35-14.78a51.31,51.31,0,0,0,2.2-7.18C120.72,80.18,121.64,75.76,122.07,73.46Z"/><path class="cls-34" d="M108.09,19.79a.63.63,0,0,0-1-.42c-2.64,1.52-4.56,2.74-6.61,4.16a64.56,64.56,0,0,0-6,4.67c-.43.24.86,3.58.18,12,4.65-2.9,7.3-5.53,9.45-9C106.13,28,108.34,23.71,108.09,19.79Z"/><path class="cls-35" d="M111.4,16.85l0,0c-2.8-2.95-14.1,5.45-18.06,8.38,1.6-.21,3.25-1.5,4.49-2.31A46.17,46.17,0,0,1,104.06,19a31.82,31.82,0,0,1,6.46-2Z"/><path class="cls-35" d="M105.77,1.32V1.21a1.22,1.22,0,0,0-1-1.07A51.52,51.52,0,0,0,82.25,3.6a55.05,55.05,0,0,0-8.8,4.31,6.43,6.43,0,0,0,1.43-.53,37.38,37.38,0,0,1,4.64-1.8A101.21,101.21,0,0,1,90.41,2.52a63.87,63.87,0,0,1,11.2-1.22C103,1.26,104.38,1.28,105.77,1.32Z"/><path class="cls-34" d="M100.08,3c-4.85-.2-18.56,3.31-22.5,5.13-5.81,2.67-4.61,4.33-4.16,9.62C84.1,11.3,92.3,7.19,100.3,4.84A1,1,0,0,0,100.08,3Z"/><path class="cls-36" d="M45.28,17.26c-5.5,4.26-11.09,11.1-14.27,15.8A84.47,84.47,0,0,0,24.69,44h0c1.94-.78,3.1-2.85,4.18-4.52,1.27-2,2.38-4,3.59-6a64.12,64.12,0,0,1,9-10.9,68.74,68.74,0,0,1,10.87-9.14c2-1.37,4.14-2.62,6.24-3.9a15.22,15.22,0,0,0,4.47-3.59A91.35,91.35,0,0,0,45.28,17.26Z"/><path class="cls-34" d="M119.85,38.43c-.21-.69-1.35-.86-1.64-.24a92.54,92.54,0,0,1-7.75,12.65c-.35.47,1.16,1,2.6,4.93,1,2.6,2.29,7,2.84,8.72.2.6,2.07-1.72,2.42-2.25C123.61,54.28,122.3,46.53,119.85,38.43Z"/><path class="cls-39" d="M83.61,64a4.7,4.7,0,0,0-2.12,1.29,2.78,2.78,0,0,0-.8,2.37,1.08,1.08,0,0,0,1.47.86c1.25-.54,1.89-1.91,2.59-3A1,1,0,0,0,83.61,64Z"/><path class="cls-39" d="M119.15,50.85a1.16,1.16,0,0,0-1.29-1,1.17,1.17,0,0,0-1,1.29c0,.9-.36,1.81,0,2.69a.86.86,0,0,0,1.29.36C119.25,53.53,119.23,52,119.15,50.85Z"/><path class="cls-39" d="M83.43,94.65a1.14,1.14,0,0,0-1.49.58s-.1.17-.14.23-.24.35-.34.53a3.86,3.86,0,0,0-.2.41,2,2,0,0,0-.08.73c0,.4.4.66.74.74,1.13.28,1.72-.89,2.09-1.73A1.13,1.13,0,0,0,83.43,94.65Z"/><path class="cls-39" d="M89.39,88.16a1.07,1.07,0,0,0-1.48.17,12.51,12.51,0,0,0-.74,1.15A2.53,2.53,0,0,0,86.91,91a.82.82,0,0,0,1.3.56,3.11,3.11,0,0,0,.82-1c.18-.31.33-.62.53-.92A1.09,1.09,0,0,0,89.39,88.16Z"/><path class="cls-39" d="M112.14,88.37a6.81,6.81,0,0,0-1.84,2.85.89.89,0,0,0,1.21,1c1.07-.45,1.64-1.57,2.33-2.45A1.09,1.09,0,0,0,112.14,88.37Z"/><path class="cls-39" d="M116.16,80.16c-.37.34-.73.68-1.07,1a2.85,2.85,0,0,0-.68,1.43.81.81,0,0,0,1.26.76,8.82,8.82,0,0,0,1.84-1.82C118.27,80.75,117,79.41,116.16,80.16Z"/><path class="cls-39" d="M52.07,84.16a1.17,1.17,0,0,0-1.52.59c-.5,1-1.3,2-1.1,3.19a1.05,1.05,0,0,0,1.66.7,5.91,5.91,0,0,0,1.64-3.26A1.14,1.14,0,0,0,52.07,84.16Z"/><path class="cls-39" d="M51.33,73.91a.91.91,0,0,0-1.26.14,4,4,0,0,0-.94,2,.9.9,0,0,0,.32.8.87.87,0,0,0,1.06,0A3.78,3.78,0,0,0,51.58,75,.91.91,0,0,0,51.33,73.91Z"/><path class="cls-39" d="M45.68,39a10.2,10.2,0,0,0-1.53,2.44c-.31.9.69,1.93,1.55,1.23a7,7,0,0,0,1.78-2.57C48,39,46.38,38,45.68,39Z"/><path class="cls-39" d="M99.34,28.3a12.07,12.07,0,0,0-1.39.82,3.76,3.76,0,0,0-1,1.27.93.93,0,0,0,.27,1.09.94.94,0,0,0,1.3-.14,10.05,10.05,0,0,0,.76-.85,7.85,7.85,0,0,1,.85-1.12A.67.67,0,0,0,99.34,28.3Z"/><path class="cls-39" d="M15.32,89.45a.75.75,0,0,0-1.42-.21A8.5,8.5,0,0,0,13.45,94c.2.88,1.65,1.06,1.71,0A39.12,39.12,0,0,0,15.32,89.45Z"/><path class="cls-39" d="M59.15,111.72a.91.91,0,0,0-1-.93,1.22,1.22,0,0,0-.77.44l-.09.09q-.19.18-.36.36l-.08.09c.11-.09,0,0-.17.17l-.15.15c-.2.2-.46.48-.58.57a1,1,0,0,0-.32,1.15,1,1,0,0,0,1,.6,3.31,3.31,0,0,0,2-1.35A2.2,2.2,0,0,0,59.15,111.72Z"/><path class="cls-39" d="M98.42,122.2a15.07,15.07,0,0,0-2.78.91c-.77.41-.57,1.7.41,1.56a16,16,0,0,0,3-.77C100.23,123.51,99.54,121.86,98.42,122.2Z"/><path class="cls-39" d="M42.06,121.55c-1.32,1-2.86,2.78-2.41,4.6a.85.85,0,0,0,1.34.57A5.68,5.68,0,0,0,42.33,125a10.79,10.79,0,0,1,1.28-1.79A1.13,1.13,0,0,0,42.06,121.55Z"/><path class="cls-39" d="M35.25,57.15a8.29,8.29,0,0,1-.31,1.08,1.88,1.88,0,0,0,.15,1.71.85.85,0,0,0,1.18.17,4.23,4.23,0,0,0,1.13-2.65A1.09,1.09,0,0,0,35.25,57.15Z"/><path class="cls-39" d="M68.32,41a1.1,1.1,0,0,0-1.66-.47,6.28,6.28,0,0,0-1.6,3.59,1.13,1.13,0,0,0,1.78,1.06A3.85,3.85,0,0,0,68.32,41Z"/><path class="cls-38" d="M27.44,143.3c-.83,3.88-2.08,5.78-4.27,9-1.38,2-2.33,3.51-3.16,4.7a16.79,16.79,0,0,0,4.25,3.42c.81-1.29,1.58-2.62,2.27-4,2-3.88,3-9.46,1.85-13.78C28.23,142.1,27.55,142.79,27.44,143.3Z"/></g></g></g></svg>