<svg xmlns="http://www.w3.org/2000/svg" xmlns:xlink="http://www.w3.org/1999/xlink" viewBox="0 0 149.46 233.61"><defs><style>.cls-1{isolation:isolate;}.cls-2{fill:url(#linear-gradient);}.cls-10,.cls-3{fill:#36543d;}.cls-4{fill:#8a9e3b;}.cls-5{fill:url(#linear-gradient-2);}.cls-6{fill:#486c33;opacity:0.2;}.cls-22,.cls-6{mix-blend-mode:multiply;}.cls-7{fill:url(#linear-gradient-3);}.cls-8{fill:#9da63f;}.cls-9{fill:#95a039;}.cls-10,.cls-15,.cls-22,.cls-24{opacity:0.5;}.cls-10,.cls-11{mix-blend-mode:darken;}.cls-11,.cls-26{opacity:0.7;}.cls-12{fill:url(#linear-gradient-4);}.cls-13{fill:url(#linear-gradient-5);}.cls-14{fill:url(#linear-gradient-6);}.cls-15{fill:#9dc14f;}.cls-16{fill:url(#linear-gradient-7);}.cls-17{fill:url(#linear-gradient-8);}.cls-18{fill:url(#linear-gradient-9);}.cls-19{fill:#c3ca62;}.cls-20{fill:#9ea742;}.cls-21{fill:url(#linear-gradient-10);}.cls-22{fill:#969e38;}.cls-23{fill:#dce280;}.cls-24{fill:#8a9f3b;}.cls-25,.cls-26{fill:#dce19b;mix-blend-mode:overlay;}</style><linearGradient id="linear-gradient" x1="0.09" y1="128.36" x2="20.99" y2="128.36" gradientUnits="userSpaceOnUse"><stop offset="0" stop-color="#6c933e"/><stop offset="1" stop-color="#80a947"/></linearGradient><linearGradient id="linear-gradient-2" x1="76.45" y1="184.71" x2="59.4" y2="130.71" gradientUnits="userSpaceOnUse"><stop offset="0" stop-color="#acb939"/><stop offset="1" stop-color="#dce19b"/></linearGradient><linearGradient id="linear-gradient-3" x1="82.15" y1="6.2" x2="125.87" y2="124.04" gradientUnits="userSpaceOnUse"><stop offset="0" stop-color="#6c8e3e"/><stop offset="1" stop-color="#506f34"/></linearGradient><linearGradient id="linear-gradient-4" x1="0" y1="58.46" x2="84.36" y2="58.46" xlink:href="#linear-gradient"/><linearGradient id="linear-gradient-5" x1="76.84" y1="52.23" x2="35.16" y2="63.35" xlink:href="#linear-gradient-2"/><linearGradient id="linear-gradient-6" x1="82.38" y1="73.02" x2="40.7" y2="84.13" xlink:href="#linear-gradient-2"/><linearGradient id="linear-gradient-7" x1="21.5" y1="58.82" x2="35.2" y2="58.82" xlink:href="#linear-gradient-2"/><linearGradient id="linear-gradient-8" x1="13.44" y1="81.13" x2="28.75" y2="81.13" xlink:href="#linear-gradient-2"/><linearGradient id="linear-gradient-9" x1="36.74" y1="38.13" x2="45.18" y2="38.13" xlink:href="#linear-gradient-2"/><linearGradient id="linear-gradient-10" x1="136.22" y1="170.7" x2="24.3" y2="113.24" xlink:href="#linear-gradient-2"/></defs><title>Asset 5</title><g class="cls-1"><g id="Layer_2" data-name="Layer 2"><g id="Layer_1-2" data-name="Layer 1"><path class="cls-2" d="M21,119.24S3.71,112.69.44,118.35,18.3,140.68,18.3,140.68Z"/><path class="cls-3" d="M100.14,109.78c-1.8.07-3.73.41-5.21.29,3.74-3.47,14.26-13.86,12.52-19.79-1.34-4.58-10.53-4.25-13-.51,5.23-8,12.66-16.14,13.27-26.16.59-9.59-9.59-3.18-13.71.87,3.11-8.26,8.3-17.18,7.8-26.29-.55-10.14-9-1.29-12.54,2.88,0-5.22-3-38.67-10.29-34.9-8.25,4.23-14.34,25-16.66,32.62-3.59-4.18-9.53-8.6-11.23-1.23-2.27,9.81,3.2,19.5,5,28.82-.56-2.89-9.77-6.29-12.22-5.62-4.41,1.21-4.54,5.69-3.75,9.41C41.93,78.57,47.22,86.6,51.37,94,47.12,91.47,37.6,87.63,37,95.41c-.66,8.27,8.45,11.62,12.88,17.28-3.87.68-12,.81-7.11,7.53,2.78,3.83,10.75,8.24,15.25,9.45,10.35,2.81,21.46,4,33.89-.71,4.29-1.61,20.94-14.59,11.48-18.77A7.56,7.56,0,0,0,100.14,109.78Z"/><path class="cls-4" d="M51.56,143.18S67.05,135.41,69.08,109c2.07-27,4.62-70.79,8.18-70.79s-2.08,45-.6,63.43S77.91,138.62,96,146.93,60.17,168.41,51.56,143.18Z"/><path class="cls-5" d="M21.81,162.29s9.44-23.36,47.2-24.85,55.16,20.38,56.65,38.27S7.89,221.92,21.81,162.29Z"/><path class="cls-6" d="M105.11,145.27c4.23,8.09,5,17.57-12,18.76-19.34,1.36-25,10.11-25,10.11-4.82-9.89-12.31-11.76-21.76-14.26-5.43-1.44-10.91-6.74-13.63-10.67-8.24,6.43-10.93,13.08-10.93,13.08-12.75,54.63,86.3,35.43,101.83,18.07.72-1.8,1.41-3.62,2-5.32C124.5,164.55,118,152.82,105.11,145.27Z"/><path class="cls-7" d="M124,128c-10.2,2.11-21.58-.33-29.92-4.4-20-9.76-4.73-17.47-4.73-17.47S73.79,99.66,74.39,93.38,90.16,93,90.16,93c-4.47-3.91-31.88-20.55-29.93-31,1.2-6.41,10.68-8.89,17.2-8-8.6-7.71-9.27-19-7.15-22.17s9.92-1.5,14.21.39c.25-6.5-5.11-31,2.15-31.5,6.47-.4,17.78,17,20.1,23,2.31-7.23,9.66-11.81,14.52-6.44,5.31,5.88,7.08,22.4,7.63,29.87,4.72-5.15,13.11-5.5,14,8.16.56,8.9-1.9,23.87-4.61,34,6.43-4.38,10.56-1.13,11.14,4.1C150.36,102.15,139.07,124.88,124,128Z"/><path class="cls-8" d="M116.22,43.12c1.27,10.06,1,20.38-5,28.94-.64.9.8,2,1.53,1.18,6.86-7.7,6-20.84,4.19-30.22-.08-.4-.77-.31-.72.1Z"/><path class="cls-9" d="M131.42,62.82c.09,13-.43,28.68-13,36-1.16.68-.37,2.75.93,2.22,13.84-5.57,14.69-25.77,13.23-38.24-.08-.74-1.19-.78-1.18,0Z"/><path class="cls-10" d="M81.24,38.48c3.8-3.91,4.32-6.51,3.21-8.23,0,.75.06,1.41,0,1.94-4.29-1.89-12-3.67-14.21-.39S68.83,46.26,77.43,54c-6.52-.89-16,1.59-17.2,8S69,77.23,77.9,84c6.57-4.27,11.49-9.25,11.49-12.49,0-5.18-8.9-7.41-8.9-7.41S93.09,50,91.61,44,81.24,38.48,81.24,38.48Z"/><g class="cls-11"><path class="cls-3" d="M112.94,77.65a41.12,41.12,0,0,0-1-4.33C111.41,71.32,111.87,73.34,112.94,77.65Z"/><path class="cls-10" d="M112.94,77.65c2,11.88,2.6,35.6-6.14,40.13-8.15,4.23-17,2.06-20,1.11a30.31,30.31,0,0,0,7.3,4.7c8.34,4.07,19.72,6.51,29.92,4.4.55-.11,1.09-.26,1.63-.42C122.28,114.61,115.65,88.65,112.94,77.65Z"/></g><path class="cls-10" d="M129.63,85.49c-7.92,2.63-23.15-31.94-23.15-31.94l18.66,74.15c14.5-4,25.2-25.77,24.26-34.26-.58-5.23-4.71-8.48-11.14-4.1,2.71-10.17,5.17-25.14,4.61-34-.87-13.66-9.26-13.31-14-8.16-.55-7.47-2.32-24-7.63-29.87-4.86-5.37-12.21-.79-14.52,6.44,19.32-16.36,18.2,33.65,18.2,33.65s4.1-8.21,10.25-6.74S137.54,82.85,129.63,85.49Z"/><path class="cls-12" d="M24.56,116.26c-6.95-1-21-9.58-24.12-21.43-1.79-6.85,6.25-6.26,12-4.77C7,81.48,1.38,73.55.14,63.07c-1.59-13.5,10.64-7.83,14.69-2.78C12.61,53.43,9.2,46.3,12,39.07c3.2-8.3,12.06-6.7,15.56.43-.8-6-1.88-13.55-.41-19.48C30.55,6.27,43.6,21.26,43,22.57,43.08,22.43,54.56-3.22,62.87.34s1.59,25.39,1.59,25.41c.5-1.62,11.28-.41,12.44.22,7.77,4.27-1.3,12.25-4.86,17.18,7.1-1.42,15.7.19,11,8.9-3.87,7.12-10,12.59-16,17,.78-.86,11-.89,11.86,3.56,2,9.9-20.16,20.46-30.83,24.61,0,0,13.2,3.13,13.6,9.87S41.75,118.72,24.56,116.26Z"/><path class="cls-13" d="M72.92,50.27a53.83,53.83,0,0,1-34,10c-.14.42-.29.85-.45,1.27s-.2.73-.32,1.08c12.63.83,26.38-2.84,35.35-11.59C74,50.68,73.4,49.92,72.92,50.27Z"/><path class="cls-14" d="M66.89,76.06C57,83.21,43.3,85.12,31.15,83.25c-.21.79-.45,1.58-.72,2.36a53,53,0,0,0,15.86-.1c7.56-1,15.61-3.26,21.68-8C68.77,76.84,67.71,75.47,66.89,76.06Z"/><path class="cls-15" d="M20.37,108.24S5.64,102.41,7.87,96.29s11.39-1.94,11.39-1.94S2.86,67.67,7,62.66s14.73,6.67,14.73,6.67-10.84-25.57-3.89-28.9,14.18,6.39,14.18,6.39-3.34-25.29,1.66-26.68,11.95,8.34,11.95,8.34S57.06,5.13,60.39,6.25s-8.62,27-8.62,27S22.32,95.18,20.37,108.24Z"/><path class="cls-16" d="M33.94,70.34A13.79,13.79,0,0,1,35.2,68a43,43,0,0,1-5.68-6.67,70.64,70.64,0,0,1-6.94-13.68.55.55,0,0,0-1.06.3C23.52,56,27.45,64.75,33.94,70.34Z"/><path class="cls-17" d="M28.75,89.33c-5.73-5.42-10-12.07-14.53-18.74a.42.42,0,0,0-.73.43,72.29,72.29,0,0,0,9.38,15.32,44.23,44.23,0,0,0,5,5.53A25.29,25.29,0,0,1,28.75,89.33Z"/><path class="cls-18" d="M45.18,43.51a57.14,57.14,0,0,1-7.74-13.08c-.17-.4-.8-.11-.69.3A41.14,41.14,0,0,0,44.11,46,14.8,14.8,0,0,1,45.18,43.51Z"/><path class="cls-19" d="M92.27,83.31a22.47,22.47,0,0,0,11.51,9.83c4.49,1.85,11,3.15,15.73,1.81a.8.8,0,0,0-.21-1.56c-4.75-.13-9,.11-13.65-1.36A21.89,21.89,0,0,1,93.32,82.7a.61.61,0,0,0-1,.61Z"/><path class="cls-20" d="M91.82,56.42c3.12,5.92,8.82,11.58,17.12,8.86.89-.29.13-2.24-.77-1.92-6.25,2.28-12.12-1.83-16.07-7.11a.16.16,0,0,0-.28.17Z"/><path class="cls-21" d="M66.23,186.78S62.71,171.51,49,168.67c-11.06-2.29-27.13-7.94-24.14-35.93C31.94,66.31,55.92,28,54.56,26.93,51.47,24.39,12.05,99,13.84,163.31S50.76,234.17,74,233.58s54.79-7.74,60.15-51.81-23-126.48-30.78-132.51c-5.74-4.44,10.75,27.46,14.92,70.34,3,31.1-2.64,50.71-16.52,52.32C85.61,173.8,76.05,171.88,66.23,186.78Z"/><path class="cls-22" d="M74,233.58c23.23-.6,54.79-7.74,60.15-51.81s-23-126.48-30.78-132.51c-4.09-3.16,3.1,12.12,9.08,36.66,1.21-13.2,10,21.62,12.81,38.85,10.18,63.15-9,99.64-50.67,101s-52.53-22-52.53-22c0,.16-.06.33-.09.49C34.06,230.68,57.15,234,74,233.58Z"/><path class="cls-6" d="M26.48,195s10.57,14.45,26.13,9.17C52.61,204.12,42.61,192.73,26.48,195Z"/><path class="cls-6" d="M92.35,201.9s14.18-10,22.24-10.56,15.56,0,14.17,1.94S104.86,205.51,92.35,201.9Z"/><path class="cls-23" d="M85.84,204.08c-2.74-3.12,20.22-16.5,27.68-17s17.74,1.14,17,4.84c-.55,2.72-10.73.84-19.27,3.34C100,198.54,88,206.51,85.84,204.08Z"/><path class="cls-23" d="M58.69,207.17c4.77-.92-16-15.44-20.18-16.23-4.7-.9-15.24.4-14.86,2.69.48,2.84,9.73,1.2,16.1,4.45C46.94,201.74,53.29,208.2,58.69,207.17Z"/><path class="cls-24" d="M66.23,186.78s5,27.7,18.71,29.57c7.09,1,7.39-.38.71-2.68-7.78-2.67-10-9-15.37-32.13A41.17,41.17,0,0,0,66.23,186.78Z"/><path class="cls-25" d="M24.11,180.39c-6-5-6.81-14.47-7.37-21.8-.35-4.62.77-19.4,3.15-24.68s1.21,8.12,3,18.9c1,6.11,4.95,12.22,10.48,14.85,11.75,5.56,21.26,5.82,18.34,15.43C49.45,190.43,29.46,184.85,24.11,180.39Z"/><path class="cls-26" d="M83.44,143.42c-6.67-4.22-21-3.42-29.14-.51C32.62,150.65,50,154.67,59,157.76c6.74,2.32,15.92,2.17,21.55-2C84.69,152.58,89.8,147.44,83.44,143.42Z"/></g></g></g></svg>