<svg xmlns="http://www.w3.org/2000/svg" xmlns:xlink="http://www.w3.org/1999/xlink" viewBox="0 0 182.02 173.07"><defs><style>.cls-1{isolation:isolate;}.cls-2{fill:url(#linear-gradient);}.cls-20,.cls-3{fill:#571827;}.cls-3{opacity:0.1;}.cls-10,.cls-12,.cls-14,.cls-20,.cls-3,.cls-5,.cls-6,.cls-8{mix-blend-mode:multiply;}.cls-4{fill:url(#linear-gradient-2);}.cls-5,.cls-6{fill:#e3ae3f;}.cls-5{opacity:0.4;}.cls-10,.cls-6,.cls-8{opacity:0.3;}.cls-7{fill:#9c7136;}.cls-13,.cls-14,.cls-8{fill:#613d16;}.cls-9{fill:#a0712f;}.cls-10{fill:#5e3f1b;}.cls-11{fill:#dda75f;}.cls-12,.cls-14{opacity:0.2;}.cls-15,.cls-16,.cls-17,.cls-18,.cls-19{fill:#fff1a5;}.cls-15{opacity:0.8;}.cls-16{opacity:0.7;}.cls-18{opacity:0.5;}.cls-19{opacity:0.6;}.cls-20{opacity:0.25;}</style><linearGradient id="linear-gradient" x1="-4.57" y1="96.46" x2="165.61" y2="132.58" gradientUnits="userSpaceOnUse"><stop offset="0.21" stop-color="#f9cc2f"/><stop offset="1" stop-color="#ebac31"/></linearGradient><linearGradient id="linear-gradient-2" x1="12.76" y1="90.27" x2="166.29" y2="90.27" gradientUnits="userSpaceOnUse"><stop offset="0.21" stop-color="#fddb22"/><stop offset="1" stop-color="#d78a28"/></linearGradient></defs><title>Asset 24</title><g class="cls-1"><g id="Layer_2" data-name="Layer 2"><g id="Layer_1-2" data-name="Layer 1"><path class="cls-2" d="M179.28,78.82c-4.23-6.79-11.95-10.25-19.5-11.88-3.73-.8-7.53-1.24-11.3-1.73-5-.66-10.44.32-14.12,4a10.89,10.89,0,0,0-2.08,2.91,28.43,28.43,0,0,0-10.9,7.44c-4.22,4.7-6.73,9.9-9.08,15.68a13.65,13.65,0,0,0-5-.88c-13.73.25-23.34,9.47-32.88,18.29a14.27,14.27,0,0,0-10.71-5.31A32.68,32.68,0,0,0,58.53,97c-2.76-4-5.69-7.75-8.64-11.57.75,1,1.5,2,2.26,2.92a40.3,40.3,0,0,1-3.35-4.89l-.18-.65A26.4,26.4,0,0,1,48.85,79c.61-4.78-3.13-10-7-12.24a13.94,13.94,0,0,0-6-1.88,6.19,6.19,0,0,0-1.3-2c-2.1-2.1-4.94-2.15-7.49-1l-1.43.67-.82.33a14.38,14.38,0,0,0-3.75,1.43q-3.66,2.53-7.1,5.35A40.19,40.19,0,0,0,4.21,81.85,38.45,38.45,0,0,0,0,98.58,23.42,23.42,0,0,0,3.52,112c4.29,6.52,10.81,9.47,17.92,11-9.52,14.09-2.17,44.81,21.77,48,13,1.71,28-3.2,38.46-10.7,9.45,13.64,31,15.91,46.07,9.21,12.6-5.61,17.87-15.27,17.87-27.24H147c10.66-.24,22.59-6.2,25-17.54A20.06,20.06,0,0,0,168.24,108a31.49,31.49,0,0,0,3.5-1.66C181.23,101.12,185.1,88.18,179.28,78.82Z"/><path class="cls-3" d="M179.28,78.82c-4.23-6.79-11.95-10.25-19.5-11.88-1.61-.34-3.23-.62-4.86-.87a30,30,0,0,0,1.68,7.46c.78,2.42,1.65,4.81,2.47,7.22-.15.89-.29,1.79-.4,2.71a53.62,53.62,0,0,0-.41,9.35c-3.17-1.18-6.85-.88-8.76,2.37-2.06,3.52,0,8.1,1.88,11.22.57.95,1.22,1.85,1.78,2.81.25.45.48.91.71,1.37a1.19,1.19,0,0,0,.08.22,18.64,18.64,0,0,1,.68,2.43c0,.28.14.86.15,1.09a13.82,13.82,0,0,1,0,1.82s0,0,0,0c-.05.25-.1.5-.17.75s-.2.77-.31,1.14a.94.94,0,0,0-.06.18,11.59,11.59,0,0,1-.75,1.28,12.46,12.46,0,0,1-.88.9l-.31.28-.11.08a17.73,17.73,0,0,1-2.24,1.28s0,0,0,0l-.62.22a23.81,23.81,0,0,1-2.63.73c-.77.18-1.55.33-2.33.47l-.14,0-1.1.13a38.48,38.48,0,0,1-5.26.06l-.78,0a6.36,6.36,0,0,0-1.25-1.77c-.53-.57-2.43-2.31-.78-.71a5.54,5.54,0,0,0-6.71-.87,11.5,11.5,0,0,0-4.59,5.14c-.93,2.08-1.52,4.22-2.34,6.33-.1.25-.19.5-.29.76l0,.07a22.25,22.25,0,0,1-1.2,2.2c-.17.29-.78,1.09-1,1.44s-.79.84-1.2,1.24c-.26.24-.52.48-.79.71l-.15.14c-.62.45-1.27.85-1.9,1.27a30.61,30.61,0,0,1-3.35,1.89c-.21.11-.66.3-1,.46l-1.12.4a38.77,38.77,0,0,1-4,1.15c-.67.16-1.36.29-2,.41l-.25,0h-.06a36,36,0,0,1-4.15.19c-.69,0-1.37-.06-2.06-.11l-.25,0a23.14,23.14,0,0,1-3.83-1l-.83-.28-1-.42a17.08,17.08,0,0,0,.83-2.72c1.06-4.65-1.57-8-6.54-8.58a12.49,12.49,0,0,0-4,.57,12.9,12.9,0,0,0-3.88,2.13c-1.81,1.18-3.54,2.45-5.4,3.55-.84.5-1.7,1-2.57,1.39l-.83.4c-.28.12-.74.33-.93.4a43.57,43.57,0,0,1-6.26,1.82c-.33.07-1.26.21-1.73.29-.64,0-1.28.07-1.92.08s-1.53,0-2.3-.09H55.3l-.76-.15c-.7-.13-1.39-.32-2.08-.52-.35-.1-1.2-.44-1.64-.61a22.33,22.33,0,0,1-2.81-1.7l-.45-.39c-.52-.45-1-.94-1.48-1.43s-.95-1-1.4-1.51c-.07-.07-.16-.18-.25-.29l-.28-.4a28.36,28.36,0,0,1-2.32-4c0-.09-.09-.18-.13-.27s-.09-.22-.12-.3c-.32-.82-.58-1.65-.83-2.49s-.38-1.42-.54-2.14c-.09-.37-.31-1.79-.37-2.05,0-.46-.08-.93-.11-1.4l-.15-1.08c0-.07,0-.17,0-.29-.06-.46-.1-.92-.14-1.38a80.63,80.63,0,0,1,.18-10.07,4.59,4.59,0,0,0-3.36-4.42c-2.17-.59-1.43,2.39-2.71,4-5.51,7.18-8.54,15-6.84,23.57a34,34,0,0,0,13.8,21.15c7.9,5.59,17.91,5.9,27,3.7a46.69,46.69,0,0,0,11.19-4.4,24.6,24.6,0,0,0,7,5c7.21,3.42,15.55,3.32,23.22,1.83a43.48,43.48,0,0,0,20.05-10c3.72-3.27,6.12-7.56,7.95-12.07a42.68,42.68,0,0,0,13,.21c7.57-1.09,15.37-5.62,18.59-12.8a24.63,24.63,0,0,0,2-13.29,22.83,22.83,0,0,0-2.16-3.56,31.49,31.49,0,0,0,3.5-1.66C181.23,101.12,185.1,88.18,179.28,78.82Z"/><path class="cls-4" d="M120.45,26.13c-5.47-.71-10.7,4.13-16.3,4.4-9.37.46-13.63-2.83-18.87-4.47-9.21-2.89-21.83-3.38-30.38,1.67-5.26,3.1-8.19,8.39-12.81,12.16-4.9,4-11.16,4.22-16.31,7.89s-9.34,10-9.76,16.27c-.3,4.45,2.1,9.71,5,13.41a18,18,0,0,0-5.81,5.34c-3.9,5.71-2.66,13.41-.08,19.35,2.46,5.66,7.66,12.15,14.05,13.76a10.88,10.88,0,0,0-.29,1.76c-1.46,21.91,15,37.68,28,37.21,11.64-.42,19.66-4.94,22.64-8.42,1.74,3,5.71,6.21,10.52,8.24,6.94,2.92,15.15,2.27,22-.1s13.56-6.57,17.5-12.74c2.31-3.62,3.12-6,3.21-8a21.78,21.78,0,0,0,8.21.11c5.6-1,10.32-4.62,13.66-9.11a24.88,24.88,0,0,0,4.47-19.21,26.11,26.11,0,0,0,2.5-2.09c5.93-5.67,5.79-14.62,1.59-21.27a22.58,22.58,0,0,0-2.1-2.81c.43-1.39.82-2.79,1.15-4.2a27.88,27.88,0,0,0,.45-12c-.87-4.23-3.2-10.19-6.24-13.08-5.34-5.07-9.43-8.19-19.11-7.94C135.29,33.34,130.22,27.4,120.45,26.13Z"/><path class="cls-5" d="M162.77,63.22A31.89,31.89,0,0,0,158,51.9c.55,2.91,1.21,5.72-1.11,8.15-3.13,3.29-9.93,3.66-14.18,3.75-17.37.37-32.92,8-27,6.29a60.26,60.26,0,0,1,20.94-1.76c6.05.6,13.22,1,24.5,11.11.43-1.39.82-2.79,1.15-4.2A27.88,27.88,0,0,0,162.77,63.22Z"/><path class="cls-6" d="M137.34,41.89c-1.79-7.16-5.55-12.38-12.23-14.68,6.24,9.32-9,10.77-21.07,23.45-4.8,5.07-12.13,8.63-18.91,4.47-4.54-2.79-6.92-7.71-10.72-11.27s-8.91-5.4-14-6.75a37.14,37.14,0,0,0-14.73-.7,32.91,32.91,0,0,1-3.6,3.48,21.77,21.77,0,0,1-5.93,3.28c10-1.76,17.74-1.71,27.15,3.62A23.22,23.22,0,0,1,74,59.2c3.4,9.51,11.73,27.51,23.79,15,4.15-4.3,5.56-10.47,9.45-15a54.26,54.26,0,0,1,15.91-12.87A41.31,41.31,0,0,1,137.34,41.89Z"/><path class="cls-7" d="M68.74,65.72c-4.19,3.91-6,3.7-5.8,4.53.22,1.06,6,2.73,11.42,6.83,2.42,1.81,7.2,7,9.81,9.06.92.75,5.58-2.73,9.73-4.88,4.71-2.44,8.29-4.2,14-7a1,1,0,0,0,.62-.82c-.29-4.74-1.93-7.83-2.11-12.58a.73.73,0,0,0-.87-.66C81.93,63.3,74.28,58.41,74,58.91A29.73,29.73,0,0,1,68.74,65.72Z"/><path class="cls-8" d="M106.39,60.82a.73.73,0,0,0-.87-.66,108.11,108.11,0,0,1-15.61,1.05c-.3.11-.6.21-.91.3s-.77.17-1,.23h-.77a8.8,8.8,0,0,0-2.34.26,6.36,6.36,0,0,0-1.35.28,4.18,4.18,0,0,0-2.85,5c.77,4.11,5.15,5.43,8.73,5.67a20,20,0,0,0,8.85-1.76,50.56,50.56,0,0,0,8.52-4.49l.46-.31A28.28,28.28,0,0,1,106.39,60.82Z"/><path class="cls-9" d="M94.26,43.31c-1.38-8.58-4.9-22.17-15-32.29C75.7,7.48,68.32,2.19,63.7.39,60.83-.72,58.29.6,56.55,3.56,55.73,5,54.68,9.15,56,11c1,.72,2.82.37,4.5.51,10.72.94,17,9.15,18.9,16.15C82.23,37.76,82,50,80,60.18c-.62,3.24-1.46,6.56-1.22,7.2,1.07,2.91,5.82,5.83,10.62,4.7,5-1.19,7.16-2.55,7-4.55C95.82,59.91,95.68,52.12,94.26,43.31Z"/><path class="cls-10" d="M96.23,65c-.06-.74-.1-1.47-.15-2.2v-.09a192.12,192.12,0,0,0-1.82-19.37c-1.38-8.58-4.9-22.17-15-32.29C75.82,7.6,68.83,2.55,64.19.59h0l-.4-.16h0l0,0L61.84,0h0c-2,0,.8-.18,12,8.81C90.65,22.25,92.38,43.91,93,71a12.34,12.34,0,0,0,1.57-.73l0,0a7.33,7.33,0,0,0,.77-.54l.1-.08.16-.16a1.14,1.14,0,0,1,.11-.11l.19-.23S96,69,96,69l.08-.12.09-.18.05-.11.09-.28a.29.29,0,0,1,0-.09l0-.24s0-.06,0-.09v-.33c-.06-.74-.11-1.48-.16-2.23C96.24,65.19,96.23,65.08,96.23,65Z"/><path class="cls-11" d="M78.35,21a17.72,17.72,0,0,0-6.18-4.69,23.2,23.2,0,0,1,7.27,11.35C82.23,37.76,82,50,80,60.18c-.62,3.24-1.46,6.56-1.22,7.2a8.26,8.26,0,0,0,5,4.33c.18-1,.32-2,.46-2.79a106.78,106.78,0,0,0,1.33-11.14,101.44,101.44,0,0,0-.49-21.05A29.49,29.49,0,0,0,78.35,21Z"/><g class="cls-12"><path class="cls-13" d="M93,71c-.55-23.88-2-43.54-13.77-57.06,4.12,6.31,6.48,11,8.13,17,1.9,6.85,8.29,32.25-2.69,35.47-.13.86-.27,1.7-.42,2.55s-.28,1.78-.46,2.79a9.91,9.91,0,0,0,5.61.37,24.47,24.47,0,0,0,4.44-1.43Z"/></g><path class="cls-14" d="M96,69l.08-.12.09-.18.05-.11.09-.28a.29.29,0,0,1,0-.09l0-.24s0-.06,0-.09v-.33c0-.27,0-.54-.06-.82-2.09.82-2-7.26-2.3-10.8-.31-4.18-3.17-28.24-10.79-36.5C91.39,32.55,92.52,50.17,93,71a12.34,12.34,0,0,0,1.57-.73l0,0a7.33,7.33,0,0,0,.77-.54l.1-.08.16-.16a1.14,1.14,0,0,1,.11-.11l.19-.23S96,69,96,69Z"/><path class="cls-5" d="M163.81,83.17c.12,2.14-.18,4.31-1.72,5.64-4.53,3.89-11.33-1.2-17.23-3.45-7.82-3-22.64-5-23.77-3.9-1.33,1.29,13.21,4,20.42,8.56,8.57,5.4,14.81,11.63,17.67,15.59a26.11,26.11,0,0,0,2.5-2.09C167.34,98.1,167.47,89.7,163.81,83.17Z"/><path class="cls-5" d="M133,133.85a21.72,21.72,0,0,0,8,.08c5.6-1,10.32-4.62,13.66-9.11a25.24,25.24,0,0,0,4.8-12.84c-.75.91-1.45,1.84-2.2,2.76-3.29,4-9.77,7.78-15,5.82-5.9-2.2-11.3-10.07-15.2-14.56-10.55-12.16-16.79-13.28-13.41-9.3a88.56,88.56,0,0,1,8.71,12.66,122.62,122.62,0,0,1,8.37,17.45A59.92,59.92,0,0,1,133,133.85Z"/><path class="cls-5" d="M84.27,93.48c-.6-2.87-3.84,8-4.57,10.38-1.36,4.47-2.62,9-3.53,13.56-1.23,6.24-2.45,12.7-3.18,19-.53,4.63-1.27,9-5.27,12.15-7.13,5.69-19.49,5.39-26.48-.1v0c4.89,4.25,10.55,6.59,15.69,6.4,11.64-.42,19.66-4.94,22.64-8.42A189.83,189.83,0,0,1,79.45,125C80,119,82.92,99.67,84.27,93.48Z"/><path class="cls-6" d="M59.33,92.24c1-.36.75-.84-.11-.92a25,25,0,0,0-9.44,1.09c-5.42,1.65-9.87,5.43-14.26,8.85-5.35,4.16-13.46,7.33-19,1.51a17,17,0,0,1-2.45-3.4,29.58,29.58,0,0,0,1.05,2.78c2.45,5.63,7.61,12.08,14,13.73C34.79,106.31,42.9,101,46.56,98.4,51,95.3,56.8,93.18,59.33,92.24Z"/><path class="cls-6" d="M54.23,69.86c.81.24-1.47-1.66-6.18-1.91a42.59,42.59,0,0,0-13.22,1.22c-4.75,1.24-7.63,2.4-12.61,1.7-3.61-.5-5.72-3.23-6.07-6.83,0-.3,0-.75,0-1.29-.06.43-.11.86-.14,1.3-.3,4.45,2.1,9.71,5,13.41-.28.16.06.19.46,0C33.34,70.28,46.91,69.43,54.23,69.86Z"/><path class="cls-6" d="M152.51,124.42a25.1,25.1,0,0,1-8.07,4.59,10,10,0,0,1-7.48-.36c-2.12-1.1-3.49-3.21-4.64-5.23-2.48-4.39-4.55-9-7-13.5A48.06,48.06,0,0,0,121,103c-1.24-1.6-3.18-3.87-5.41-3.95a97,97,0,0,1,6.83,10.32,122.62,122.62,0,0,1,8.37,17.45,59.92,59.92,0,0,1,2.23,7,21.72,21.72,0,0,0,8,.08c5.6-1,10.32-4.62,13.66-9.11a24.38,24.38,0,0,0,2.53-4.27C155.59,121.74,154.11,123.14,152.51,124.42Z"/><path class="cls-6" d="M161.78,97.25c-3.35,1-7.51-1.72-10.2-3.36-3.42-2.08-6.57-4.58-10.3-6.12a23.75,23.75,0,0,0-9.49-2A49.5,49.5,0,0,1,141.51,90c8.57,5.4,14.81,11.63,17.67,15.59a26.11,26.11,0,0,0,2.5-2.09,15.08,15.08,0,0,0,4.61-11.25C165.49,94.52,164.12,96.52,161.78,97.25Z"/><path class="cls-6" d="M163.11,65.42c-.33,2.46-1,5-3.4,6-2.76,1.08-6.23-.33-8.83-1.25a39.88,39.88,0,0,0-9.15-2.43,17,17,0,0,0-6.28.51l1.22.11c6.05.6,13.22,1,24.5,11.11.43-1.39.82-2.79,1.15-4.2A29.3,29.3,0,0,0,163.11,65.42Z"/><path class="cls-3" d="M161.17,79.44c.43-1.39.82-2.79,1.15-4.2a27.88,27.88,0,0,0,.45-12c-.87-4.23-3.2-10.19-6.24-13.08-5.34-5.07-9.43-8.19-19.11-7.94-2.13-8.86-7.2-14.8-17-16.07-3.72-.48-7.32,1.6-11,3.07,10.1,12.13,20.25,38.75,12.34,57.19-5.6,13-23.07,30.84-39.41,20.9-7.7,19.32-50.58,24.33-42.26-2.71a2.6,2.6,0,0,0-3.18-3.18c-6.26,2.06-12.3,1.16-17.13-3.48-3.21-3.09-5-6.85-6.5-10.79-1.28,4.91-.1,10.48,1.87,15,2.46,5.66,7.66,12.15,14.05,13.76a10.88,10.88,0,0,0-.29,1.76c-1.46,21.91,15,37.68,28,37.21,11.64-.42,19.66-4.94,22.64-8.42,1.74,3,5.71,6.21,10.52,8.24,6.94,2.92,15.15,2.27,22-.1s13.56-6.57,17.5-12.74c2.31-3.62,3.12-6,3.21-8a21.78,21.78,0,0,0,8.21.11c5.6-1,10.32-4.62,13.66-9.11a24.88,24.88,0,0,0,4.47-19.21,26.11,26.11,0,0,0,2.5-2.09c5.93-5.67,5.79-14.62,1.59-21.27A22.58,22.58,0,0,0,161.17,79.44Z"/><path class="cls-15" d="M57.11,76.83c-.34-1.65-3.55-2.69-11.25-2.38C39.7,74.69,25.19,77.89,24.49,86,23.6,96.37,58.33,82.7,57.11,76.83Z"/><path class="cls-16" d="M68.41,93.06c-.38,0-.79,0-1.23.07-6.32.7-14.34,5.09-17.75,10.56-3.12,5-1.93,11.88,4.94,11.66C63.91,115,80.87,92.89,68.41,93.06Z"/><path class="cls-16" d="M56.58,49.92C52.47,46.33,43.4,46.66,38,47.36c-7,.9-11.45,6.15-11,8.43.42,2,7.2,2.15,8.73,2.15,5.63,0,22.64,1.81,22.44-4.73A4.39,4.39,0,0,0,56.58,49.92Z"/><path class="cls-17" d="M58.12,59.86l-.43,0Z"/><path class="cls-18" d="M102.58,91c-.55-2-2.67-5-5.14-4-3.46,1.41-5.32,6.53-4.21,10,1.29,4,6.21,4.41,8.53,1.11C103.1,96.28,103.2,93.26,102.58,91Z"/><path class="cls-18" d="M74.68,29.48c-1.81-2.18-3.5-2-5-2.18-5.71-.49-10.24,2.64-5.85,6.44C69.29,38.51,77.79,33.25,74.68,29.48Z"/><path class="cls-19" d="M17.6,115.25c-1.88-2.48-4.19-4.58-6-7.12a21.57,21.57,0,0,1-3.3-7.07c-1.5-5.73.26-11.19.49-16.91A1,1,0,0,0,7,83.67C4.11,89,3.51,96.14,4.65,102.06s5.19,12.47,10.45,15.7C16.57,118.67,18.75,116.76,17.6,115.25Z"/><path class="cls-19" d="M56,162.78c-4.1-1.18-8.56-.81-12.76-1.69a24.47,24.47,0,0,1-10-4.52,26.37,26.37,0,0,1-6.9-8.58c-2.05-3.89-3-8.24-4.69-12.3a.83.83,0,0,0-1.63.22c-.39,8.52,4.11,17.83,10.52,23.35a32,32,0,0,0,10.68,5.86c4.49,1.55,10.14,2.75,14.76,1.28A1.89,1.89,0,0,0,56,162.78Z"/><path class="cls-3" d="M121.62,125.72c-.26,0-.52.11-.8.19-6.25,1.74-11.82,5.17-17.91,7.33C97.77,135.06,90,135,87.78,141.19c-1.85,5.11,5.13,9.83,9.62,10.48A30.33,30.33,0,0,0,113.82,149c6-2.77,12.32-8.26,13.67-15C128.51,129,126.81,124.72,121.62,125.72Z"/><path class="cls-20" d="M41.29,132.8l.18-.12C40.84,133,41,133,41.29,132.8Z"/><path class="cls-3" d="M63.66,136c-3.26-3.79-14.74-5.34-19.14-4-9.35,2.94-1.81,13.06,4.07,15.38C54.77,149.9,71,144.59,63.66,136Z"/><path class="cls-3" d="M153.62,103.47c-7.51-4.78-21.3,12.46-7.85,14.35,5,.7,12.91-3.61,11-9.59A8.21,8.21,0,0,0,153.62,103.47Z"/></g></g></g></svg>