<svg xmlns="http://www.w3.org/2000/svg" xmlns:xlink="http://www.w3.org/1999/xlink" viewBox="0 0 231.1 93.4"><defs><style>.cls-1{isolation:isolate;}.cls-2{fill:#b4bc6b;}.cls-3,.cls-7{fill:#5a6c42;}.cls-3{opacity:0.1;}.cls-12,.cls-15,.cls-19,.cls-3,.cls-6,.cls-7{mix-blend-mode:multiply;}.cls-4{fill:#73804d;}.cls-5{fill:url(#linear-gradient);}.cls-11,.cls-6{fill:#67863c;}.cls-6,.cls-7{opacity:0.4;}.cls-10,.cls-8{fill:#cfdb7d;}.cls-12,.cls-8,.cls-9{opacity:0.5;}.cls-17,.cls-9{fill:#fff1a5;}.cls-12{fill:#6c785b;}.cls-13{fill:#c7d372;}.cls-14{fill:#dee688;}.cls-15,.cls-19{fill:#39482b;}.cls-15,.cls-17{opacity:0.3;}.cls-16{fill:#bbca55;}.cls-18{fill:#b03052;}.cls-19{opacity:0.2;}.cls-20{fill:url(#linear-gradient-2);}.cls-21{fill:url(#linear-gradient-3);}.cls-22{fill:url(#linear-gradient-4);}.cls-23{fill:url(#linear-gradient-5);}.cls-24{fill:url(#linear-gradient-6);}.cls-25{fill:url(#linear-gradient-7);}.cls-26{fill:url(#linear-gradient-8);}.cls-27{fill:url(#linear-gradient-9);}.cls-28{fill:url(#linear-gradient-10);}.cls-29{fill:url(#linear-gradient-11);}.cls-30{fill:url(#linear-gradient-12);}.cls-31{fill:url(#linear-gradient-13);}.cls-32{fill:url(#linear-gradient-14);}.cls-33{fill:url(#linear-gradient-15);}.cls-34{fill:url(#linear-gradient-16);}.cls-35{fill:url(#linear-gradient-17);}.cls-36{fill:url(#linear-gradient-18);}.cls-37{fill:url(#linear-gradient-19);}.cls-38{fill:url(#linear-gradient-20);}.cls-39{fill:url(#linear-gradient-21);}.cls-40{fill:url(#linear-gradient-22);}.cls-41{fill:url(#linear-gradient-23);}.cls-42{fill:url(#linear-gradient-24);}.cls-43{fill:url(#linear-gradient-25);}.cls-44{fill:url(#linear-gradient-26);}.cls-45,.cls-46{fill:#f4debe;}.cls-46{opacity:0.7;}</style><linearGradient id="linear-gradient" x1="23.53" y1="34.64" x2="218.74" y2="34.64" gradientUnits="userSpaceOnUse"><stop offset="0.11" stop-color="#9eb851"/><stop offset="1" stop-color="#879d44"/></linearGradient><linearGradient id="linear-gradient-2" x1="63.51" y1="68.93" x2="63.89" y2="73.53" gradientUnits="userSpaceOnUse"><stop offset="0.15" stop-color="#e4cba6"/><stop offset="1" stop-color="#d6b17c"/></linearGradient><linearGradient id="linear-gradient-3" x1="71.8" y1="68.24" x2="72.19" y2="72.83" xlink:href="#linear-gradient-2"/><linearGradient id="linear-gradient-4" x1="79.33" y1="67.61" x2="79.72" y2="72.21" xlink:href="#linear-gradient-2"/><linearGradient id="linear-gradient-5" x1="86.66" y1="67" x2="87.04" y2="71.6" xlink:href="#linear-gradient-2"/><linearGradient id="linear-gradient-6" x1="97.68" y1="66.08" x2="98.06" y2="70.68" xlink:href="#linear-gradient-2"/><linearGradient id="linear-gradient-7" x1="108.46" y1="65.19" x2="108.84" y2="69.78" xlink:href="#linear-gradient-2"/><linearGradient id="linear-gradient-8" x1="118.26" y1="64.37" x2="118.65" y2="68.96" xlink:href="#linear-gradient-2"/><linearGradient id="linear-gradient-9" x1="129.18" y1="63.46" x2="129.56" y2="68.05" xlink:href="#linear-gradient-2"/><linearGradient id="linear-gradient-10" x1="137.47" y1="62.77" x2="137.86" y2="67.36" xlink:href="#linear-gradient-2"/><linearGradient id="linear-gradient-11" x1="147" y1="61.97" x2="147.38" y2="66.57" xlink:href="#linear-gradient-2"/><linearGradient id="linear-gradient-12" x1="161.25" y1="60.79" x2="161.63" y2="65.38" xlink:href="#linear-gradient-2"/><linearGradient id="linear-gradient-13" x1="171.19" y1="59.96" x2="171.58" y2="64.55" xlink:href="#linear-gradient-2"/><linearGradient id="linear-gradient-14" x1="178.35" y1="59.36" x2="178.73" y2="63.96" xlink:href="#linear-gradient-2"/><linearGradient id="linear-gradient-15" x1="63.64" y1="80.23" x2="65.56" y2="75.64" xlink:href="#linear-gradient-2"/><linearGradient id="linear-gradient-16" x1="75.39" y1="80.39" x2="77.05" y2="75.67" xlink:href="#linear-gradient-2"/><linearGradient id="linear-gradient-17" x1="88.54" y1="84.59" x2="88.16" y2="80.38" xlink:href="#linear-gradient-2"/><linearGradient id="linear-gradient-18" x1="107.29" y1="82.89" x2="106.91" y2="78.67" xlink:href="#linear-gradient-2"/><linearGradient id="linear-gradient-19" x1="116.88" y1="82.01" x2="116.49" y2="77.8" xlink:href="#linear-gradient-2"/><linearGradient id="linear-gradient-20" x1="97.89" y1="83.74" x2="97.51" y2="79.53" xlink:href="#linear-gradient-2"/><linearGradient id="linear-gradient-21" x1="126.22" y1="81.17" x2="125.83" y2="76.95" xlink:href="#linear-gradient-2"/><linearGradient id="linear-gradient-22" x1="137.13" y1="80.17" x2="136.74" y2="75.96" xlink:href="#linear-gradient-2"/><linearGradient id="linear-gradient-23" x1="147.26" y1="79.25" x2="146.88" y2="75.04" xlink:href="#linear-gradient-2"/><linearGradient id="linear-gradient-24" x1="157.28" y1="78.34" x2="156.89" y2="74.13" xlink:href="#linear-gradient-2"/><linearGradient id="linear-gradient-25" x1="166.97" y1="77.46" x2="166.58" y2="73.25" xlink:href="#linear-gradient-2"/><linearGradient id="linear-gradient-26" x1="175.81" y1="76.66" x2="175.43" y2="72.44" xlink:href="#linear-gradient-2"/></defs><title>Asset 14</title><g class="cls-1"><g id="Layer_2" data-name="Layer 2"><g id="Layer_1-2" data-name="Layer 1"><path class="cls-2" d="M37.41,20.34a18.5,18.5,0,0,0-9.31-.93c-3.22.45-6.37,1.27-9.65,1.11-6.41-.33-13-7.83-15.3-9.85C1.73,9.43-.92,13.26.33,14.2c.4.3,5.88,4.12,7.06,5.22l0,0,.11.09A36.59,36.59,0,0,1,14.23,27a31.32,31.32,0,0,1,4.13,9c1,3.38,1.31,9.26,3.53,11.48.6.6.9-.5,1.38-1.11a2.15,2.15,0,0,0,3.13-1.81,26.42,26.42,0,0,1,2.81-12,51.48,51.48,0,0,1,3.6-5.06c1-1.4,2-2.9,3.6-3.61C37.72,23.43,38.75,20.91,37.41,20.34Z"/><path class="cls-3" d="M22.83,44.4A33,33,0,0,1,27,28c2.14-3.75,5.25-6.07,8.78-8.21a19.64,19.64,0,0,0-7.43-.41A17.73,17.73,0,0,0,25,22.66a39.36,39.36,0,0,0-3.55,5.59c-.38.67-1.49,2.79-2.51,2.34a2.87,2.87,0,0,1-.62-.38,31.67,31.67,0,0,0-3.08-5.11,39,39,0,0,0-7.82-7.9C5.27,15.59,2.73,13.76,0,13.09A1.06,1.06,0,0,0,.33,14.2c.4.3,5.88,4.12,7.06,5.22l0,0,.11.09A36.59,36.59,0,0,1,14.23,27a31.32,31.32,0,0,1,4.13,9c.85,3,1.23,8,2.87,10.63,0-.34.06-.68.08-1A1.27,1.27,0,0,0,22.83,44.4Z"/><path class="cls-4" d="M40.73,21.25c-4.94-2.82-9.44-2.13-12.55.41-3.42,2.79-5.83,7.74-6.89,11.88-1.19,4.63-1.72,9.64.2,14.11.89,2.09,3.69,3.63,5.74,4.43,1.77.7,4,1.25,5.69.42,1.36-.65,1.1-2.61,0-3.33s-2.64-.57-4-.84c-1.77-.34-2.52-1.33-3.06-3-1.12-3.56-.58-7.59.28-11.14A20.72,20.72,0,0,1,30.6,25c1.14-1.23,2.85-2.44,4.59-2.12,1.31.25,2.8.74,3.77-.47C39.29,22,41.27,21.56,40.73,21.25Z"/><path class="cls-5" d="M215.43.65A56.77,56.77,0,0,1,204.37,11.1c-9.46,6.59-19.15,12.69-30.29,16.17-14.3,4.45-29.4,8.26-44.33,9.44C115.52,37.84,101,36,86.84,34.46c-10.31-1.13-28.28-5.55-38.75-10.12-3-1.3-9-5.4-12.09-4-5,2.23-9.67,9.51-11.14,14.5-1.05,3.58-2.54,14.27.39,16.67s18.32,7.61,26,9.51c11.89,2.93,23.57,5.94,35.79,7.26a167.4,167.4,0,0,0,36.22.1A112.19,112.19,0,0,0,140.83,65c2.45-.67,4.84-1.49,7.2-2.38a88,88,0,0,0,16.66-6c5.4-2.63,10.26-6.31,15-10A181.69,181.69,0,0,0,194.51,34c9.42-9,18-19.34,24-30.95C219.51,1.14,216.92-1.14,215.43.65Z"/><path class="cls-6" d="M165,56.51a11.88,11.88,0,0,0-2.67-3.84,7.72,7.72,0,0,0-1.34-1c-3.66-2.25-8.75-1.56-12.76-.61-5.64,1.34-11.42,2.22-17.15,3.09a192.83,192.83,0,0,1-37.41,2.21,119.76,119.76,0,0,1-18.51-2.1A136.82,136.82,0,0,1,58.11,49.4C53,47.65,47.36,46.36,42,48.08c-2.51.8-3.49,4.83-3.59,9,4.64,1.59,9.5,3.06,12.88,3.89,11.89,2.93,23.57,5.94,35.79,7.26a167.4,167.4,0,0,0,36.22.1A112.19,112.19,0,0,0,140.83,65c2.45-.67,4.84-1.49,7.2-2.38a88,88,0,0,0,16.66-6Z"/><path class="cls-7" d="M218.74,2.26c-4.52,4.8-8,10.62-12.19,15.58-5.87,6.87-17.9,14.73-27.1,19.58-10.34,5.44-22.59,8.67-34.09,10.49-5.78.91-11.55,1.68-17.35,2.4-16.65,2.06-33,2.7-49.67-.54-26.52-5.14-36-10.76-43.07-6.65a11.27,11.27,0,0,0-5.17,6.54,5.37,5.37,0,0,0,1.06,4.76A174.9,174.9,0,0,0,51.29,61c11.89,2.93,23.57,5.94,35.79,7.26a167.4,167.4,0,0,0,36.22.1A112.19,112.19,0,0,0,140.83,65c2.45-.67,4.84-1.49,7.2-2.38a88,88,0,0,0,16.66-6c5.4-2.63,10.26-6.31,15-10A181.69,181.69,0,0,0,194.51,34c9.42-9,18-19.34,24-30.95A1.83,1.83,0,0,0,218.74,2.26Z"/><path class="cls-8" d="M199.66,21.39c5-4,12.26-12.76,9.66-11.71s-4.63,3.37-6.84,5.09c-20.39,15.84-49,22.26-74.31,24-14.23,1-26.23.31-40.34-1-10-.94-20.79-4.5-30.48-7-3.64-.94-8.87-4.34-12.51-4.06s-6,3.06-3.22,6.67c1.88,2.44,8.79,4,11.73,5.12a163.54,163.54,0,0,0,24.9,6.84,190.86,190.86,0,0,0,20.87,2.54C127.05,50,156,44.37,183.32,32.12,187.06,30.44,193.49,26.4,199.66,21.39Z"/><path class="cls-9" d="M109.4,41.3A193,193,0,0,1,78.93,39a139.72,139.72,0,0,1-14.47-3.17A101.75,101.75,0,0,1,49.92,30.9c-.28-.13-.52.24-.25.39a75.29,75.29,0,0,0,13,6.14,104.31,104.31,0,0,0,14.93,3.79,185.81,185.81,0,0,0,31.16,2.71C119.11,44,119.29,41.35,109.4,41.3Z"/><path class="cls-10" d="M34.27,76.68c-1.64-5-5.49-8.18-10.23-10.21a31.25,31.25,0,0,0-7.34-2.09c-2.5-.4-5.91-.92-8.2.43a4.35,4.35,0,0,0-.58.13,1.53,1.53,0,0,0-1,1.85c1.42,5.4,10,3.44,14.32,4.94,3.86,1.33,6.75,4,9.32,7.14C32,80.62,35,78.75,34.27,76.68Z"/><path class="cls-11" d="M228.92,58.22c-12.34.66-24.51,9.72-36.39,13.09-25.79,7.31-52.9,9.25-79.61,10.46C94.09,82.62,75,84,56.16,83.6c-9.65-.2-18.64-1.24-26.74-6.73-1.68,3.42.95,7.71,3.75,9.81,3.14,2.34,8.45,3.82,12.27,4.23,6.25.68,12.63.62,18.91,1,6.54.43,13.08.88,19.62,1.18a323.92,323.92,0,0,0,39.16-.85c23.49-1.79,42.19-4,65.21-9.1,12.53-2.76,39.5-15,42.19-23.1C231.06,58.48,231,58.11,228.92,58.22Z"/><path class="cls-12" d="M228.92,58.22c-12.34.66-24.51,9.72-36.39,13.09-25.79,7.31-52.9,9.25-79.61,10.46C94.09,82.62,75,84,56.16,83.6c-9.65-.2-18.64-1.24-26.74-6.73-1.68,3.42.95,7.71,3.75,9.81,3.14,2.34,8.45,3.82,12.27,4.23,6.25.68,12.63.62,18.91,1,6.54.43,13.08.88,19.62,1.18a323.92,323.92,0,0,0,39.16-.85c23.49-1.79,42.19-4,65.21-9.1,12.53-2.76,39.5-15,42.19-23.1C231.06,58.48,231,58.11,228.92,58.22Z"/><path class="cls-13" d="M230.07,57.7c-7.6-5.51-17.59-6.12-26.65-6-10.83.11-21.77.73-32.54,1.74-12.78,1.19-25.48,3.07-38.18,4.85a342.36,342.36,0,0,1-39.2,2.89c-10.5.25-22-.31-32.25-2.68A123.18,123.18,0,0,1,44.9,53.76c-2.8-1-5.56-2.29-8.38-3.26-2.49-.86-3.47.24-4.78,2.5-1.86,3.19-4.58,6.81-8.34,7.85-7.25,2-13.8-3.12-14.81-.8C8.13,61.11,6.27,65.47,7,66.59c.94,1.52,4.82.47,6.34.51,3.29.1,6.65.53,9.49,2.31a11.35,11.35,0,0,1,4.81,6.25c.78,2.66.81,5.6,2.94,7.66,2.47,2.38,7.74,2.78,11,3.05,5.95.47,31.12.75,37.68.76,13.19,0,26.41.1,39.59-.22,19.59-.47,39.4-1.73,58.45-6.58,18.72-4.76,35.22-14.41,53.16-21.1C231.41,58.88,231.33,58.47,230.07,57.7Z"/><path class="cls-14" d="M230.07,57.7a27.05,27.05,0,0,0-4.1-2.42c-8.19-1-18.55.09-22.4,0-17.52-.48-35,1.89-52.26,4.45C123,63.92,95.41,66,67,63.12c-4.87-.49-14.7-2.41-19.51-3.43-6.42-1.36-11.52-3.24-15.7-4.22a1.74,1.74,0,0,1,0,.64c-1.06,5.7-3,11.21-4.17,16.89a1.83,1.83,0,0,1,.66,1.25,24.78,24.78,0,0,1,.18,2.85c7.09,3.44,28,5.09,38.46,5.55a570.72,570.72,0,0,0,77.21-2.26c12.74-1.22,23.19-3.52,35.65-6.53,14.06-3.39,29.74-9.76,44.05-12.13l.49-.07c2.05-.84,4.1-1.66,6.18-2.43C231.41,58.88,231.33,58.47,230.07,57.7Z"/><path class="cls-15" d="M183,61c6.07-.65,15.84-.5,19.23-5.75-17.13-.13-34.05,2-51,4.49C123,63.92,95.41,66,67,63.12c-4-.41-11.49-1.79-16.66-2.84a3.27,3.27,0,0,0,1.19,3.16c.4.31.72.7,1.09,1a9.69,9.69,0,0,0,4.19,2.29,80.93,80.93,0,0,0,15.66,2.8c5.44.41,11.89.9,17.32,1.34a187.85,187.85,0,0,0,43.16-1.51c16.38-2.43,32.47-5.86,48.88-8.26Z"/><path class="cls-15" d="M144.1,80.39c12.74-1.22,23.19-3.52,35.65-6.53,6.72-1.62,13.82-3.93,21-6.15a5.23,5.23,0,0,0-.57-.59,13.1,13.1,0,0,0-5.3-3,25.93,25.93,0,0,0-5.37-.63,46.47,46.47,0,0,0-9.05.43A155.35,155.35,0,0,0,162,67.78a330.33,330.33,0,0,1-35.08,7.15l-1.34.18-2.15.26c-1.43.16-2.86.31-4.3.45-3.12.3-6.25.51-9.38.66a144.46,144.46,0,0,1-17.9-.1C86,76,80.17,75.08,74.37,74.32S62.79,72.79,57,73.26a20.89,20.89,0,0,0-8,2.34,5.44,5.44,0,0,0-2.83,4.51c0-.21,0-.37,0-.5,0,.06,0,.12,0,.18a2.25,2.25,0,0,0,0,1.18c7.49.91,15.45,1.45,20.75,1.68A570.72,570.72,0,0,0,144.1,80.39Z"/><path class="cls-16" d="M13.31,67.1c3.29.1,6.65.53,9.49,2.31a11.35,11.35,0,0,1,4.81,6.25c.78,2.66.81,5.6,2.94,7.66a5.54,5.54,0,0,0,.7.56c-.14-.7-.26-1.41-.37-2.14a53.2,53.2,0,0,1-.25-12.61,44.67,44.67,0,0,1,5.8-18.66,2.88,2.88,0,0,0-3.55.84c-.47.79-.91,1.59-1.32,2.41a2.47,2.47,0,0,0,0-.39c-1.54,2.57-3.64,5.36-6.38,6.81-.05.15-.1.3-.16.45a1.73,1.73,0,0,0-.19-.28,9,9,0,0,1-1.42.54c-7.25,2-13.8-3.12-14.81-.8C8.13,61.11,6.27,65.47,7,66.59,7.91,68.11,11.79,67.06,13.31,67.1Z"/><path class="cls-17" d="M30.43,77a56.85,56.85,0,0,1,.2-7.83,46.55,46.55,0,0,1,2.76-12.27c-.89,1.68-3.73,6.28-8.25,6.28-8,0-11.76.68-4.85,2.81C28.51,68.48,30.12,74.57,30.43,77Z"/><path class="cls-18" d="M38.66,59.73h0C38.84,59.49,38.79,59.56,38.66,59.73Z"/><path class="cls-19" d="M174.52,61a172.42,172.42,0,0,0-18,1.63c-12,1.7-23.85,3.88-35.89,5.15-6.06.65-12.14,1.11-18.22,1.47a116.58,116.58,0,0,1-17.92-.68C78.64,68,72.81,67.38,67,66.44c-4.89-.79-9.85-2.51-14.85-2.39l.44.43a9.69,9.69,0,0,0,4.19,2.29,80.93,80.93,0,0,0,15.66,2.8c5.44.41,11.89.9,17.32,1.34a187.85,187.85,0,0,0,43.16-1.51c16.38-2.43,32.47-5.86,48.88-8.26L183,61h.13C180.29,60.82,177.4,60.85,174.52,61Z"/><path class="cls-19" d="M51.37,81.54c5.8.57,11.44.93,15.52,1.11a570.72,570.72,0,0,0,77.21-2.26c12.74-1.22,23.19-3.52,35.65-6.53,4.71-1.14,9.62-2.61,14.59-4.16-2.16-2.77-17.89-1-22,.16-10.43,2.89-20.39,5.09-31.11,7a166.38,166.38,0,0,1-18.18,2.58c-6.28.39-12.58.27-18.88.2s-12.51-.09-18.77-.51c-5.89-.39-11.78-1.13-17.69-1.29-4.93-.13-10.44.28-14.86,2.67A9.12,9.12,0,0,0,51.37,81.54Z"/><path class="cls-20" d="M62.72,63.55a1.93,1.93,0,0,0-.34,0c-1.44.24-1,2.83-.29,4.51.71.15,1.41.3,2.11.43C65.17,66.8,65.87,63.61,62.72,63.55Z"/><path class="cls-21" d="M72.05,64.45c-3.21-.68-2.27,3.29-1.44,5l1.41.13C73.28,68.32,74.52,65,72.05,64.45Z"/><path class="cls-22" d="M79.47,64.9c-2.26-.42-2.35,2.61-1.68,4.49A4.16,4.16,0,0,0,78,70l1.88.15a4.82,4.82,0,0,0,1.21-3.59A2.06,2.06,0,0,0,79.47,64.9Z"/><path class="cls-23" d="M86.22,66.07c-1.63.38-1.93,3.29-1.07,4.47l1.87.15a4.76,4.76,0,0,0,1.83-2.85C89,66.7,87.4,65.8,86.22,66.07Z"/><path class="cls-24" d="M97.31,66.33c-1.94.42-1.49,3.81-.42,5l1.53.06a4.74,4.74,0,0,0,1.37-3.21A2.06,2.06,0,0,0,97.31,66.33Z"/><path class="cls-25" d="M108,66.51c-1.83.82-1.22,3.8,0,5l1.39,0C110.82,70,111.53,65,108,66.51Z"/><path class="cls-26" d="M117.13,66.27c-.95.86-.68,2.87,0,4.08a2.14,2.14,0,0,0,.35.55l.16.17,1.88-.14a4.11,4.11,0,0,0,1.08-2.16,3.68,3.68,0,0,0-.37-2.5C119.58,65.48,117.83,65.62,117.13,66.27Z"/><path class="cls-27" d="M129.29,64.78c-2.59.37-1.69,3.82-.35,5.08l.09.07c.4-.05.8-.09,1.2-.15C131.48,68.53,132.06,64.39,129.29,64.78Z"/><path class="cls-28" d="M137.37,64c-1.91.54-1.56,2.65-.8,4a3.74,3.74,0,0,0,.53.74l1.76-.28C139.88,66.93,139.94,63.3,137.37,64Z"/><path class="cls-29" d="M147.12,62.24c-2.84-.46-1.59,3.61-.5,4.92h0L147.9,67C149,65.77,149.85,62.67,147.12,62.24Z"/><path class="cls-30" d="M160.53,60.52c-1.6.7-.43,2.94.45,4l.06.06,1-.18C163.14,63.13,163.72,59.13,160.53,60.52Z"/><path class="cls-31" d="M170.62,59c-1.2.48-1.16,2.93-.32,4l1.87-.32C173.14,61,173.29,57.93,170.62,59Z"/><path class="cls-32" d="M178.23,57.87A2,2,0,0,0,176.71,59a2.31,2.31,0,0,0,.33,1.9,7.08,7.08,0,0,0,.51.85l1.86-.29a3.48,3.48,0,0,0,.58-2.67A1.64,1.64,0,0,0,178.23,57.87Z"/><path class="cls-33" d="M66.33,74.46c-.85-1.39-5.83,3.87-2.4,5.09,2.17.77,3.06-1.9,2.88-3.42A4.28,4.28,0,0,0,66.33,74.46Z"/><path class="cls-34" d="M77,75.6c-1.74-2-4.92,6.27-.68,5C78.28,80.05,78.09,76.84,77,75.6Z"/><path class="cls-35" d="M89.46,77.68c0-.09-.39-.66-.45-.74-1-1.5-3.27,2.39-2.61,3.74C87.61,83.17,91.12,80.62,89.46,77.68Z"/><path class="cls-36" d="M108.55,78.94c-.38-.83-1.07-2.25-1.73-1.73-1.21,1-2.49,4.91-.17,4.87A2.18,2.18,0,0,0,108.55,78.94Z"/><path class="cls-37" d="M118.11,77.82c-.4-1.09-1.23-1.81-2.19-.95-1.13,1-1.69,3.87.26,4.36C118.37,81.77,118.7,79.4,118.11,77.82Z"/><path class="cls-38" d="M97.75,77.14c-.39.1-1,1.33-1.39,1.85-.75,1.17-.78,2.83,1,3a1.68,1.68,0,0,0,1.88-2C99.16,78.58,98.61,76.93,97.75,77.14Z"/><path class="cls-39" d="M128,78.72c-.18-.82-.47-2.45-1.22-3-1.52-1.13-2.4,2-2.64,3.06a1.7,1.7,0,0,0,2.35,2C127.57,80.38,128.27,80.12,128,78.72Z"/><path class="cls-40" d="M138,75.33A4.77,4.77,0,0,0,137,74.08c-2-1.55-3.26,6.78.84,4.59C139,78,138.67,76.48,138,75.33Z"/><path class="cls-41" d="M147.79,71.9c-.54-.27-1.23-.09-2,.91a3.8,3.8,0,0,0-1,2.6,2.34,2.34,0,0,0,2.53,1.45C149.49,76.23,149.15,72.59,147.79,71.9Z"/><path class="cls-42" d="M157,69.93c-.36-.14-.93-.22-1.15.25-.94,2-1.44,4.61,1,4.57C159.45,74.7,158.54,70.56,157,69.93Z"/><path class="cls-43" d="M165.81,67.77c-.57.17-1.11,1.48-1.19,2.61-.1,1.53.52,2.69,2.45,1.89a1.59,1.59,0,0,0,.88-2.21C167.42,68.8,166.64,67.52,165.81,67.77Z"/><path class="cls-44" d="M174.78,65.65c-1,.06-2,4-.59,4.34C178.41,71,176.3,65.56,174.78,65.65Z"/><path class="cls-45" d="M63.79,64.88a.84.84,0,0,0-1.65.22,3.86,3.86,0,0,0,0,.68,1,1,0,0,0,.94,1,1,1,0,0,0,.89-1A2.76,2.76,0,0,0,63.79,64.88Z"/><path class="cls-45" d="M65.21,76.75a.86.86,0,0,0-1-.13A1.87,1.87,0,0,0,63.41,78c0,.34.28.74.68.69a1.13,1.13,0,0,0,.32,0,1.51,1.51,0,0,0,.49-.33,1.35,1.35,0,0,0,.53-.77A.88.88,0,0,0,65.21,76.75Z"/><path class="cls-45" d="M72,66a1,1,0,0,0-.25-.48.68.68,0,0,0-.68-.22.9.9,0,0,0-.57.84v0c0,.09,0,.19,0,.29a1.43,1.43,0,0,0,0,.29.8.8,0,0,0,1.6,0A2.69,2.69,0,0,0,72,66Z"/><path class="cls-45" d="M76.52,78.15a.66.66,0,0,0-.62-.47,1,1,0,0,0-.91.84c0,.16,0,.32,0,.48a.72.72,0,0,0,.18.46.46.46,0,0,0,.52.21,1.42,1.42,0,0,0,.29-.1,1.32,1.32,0,0,0,.37-.44A1.12,1.12,0,0,0,76.52,78.15Z"/><path class="cls-45" d="M79.75,66.26a.67.67,0,0,0-.59-.34.71.71,0,0,0-.66.5s0,0,0,0l-.09.24a1.78,1.78,0,0,0,0,.46.76.76,0,0,0,.54.71.73.73,0,0,0,.82-.34A1.3,1.3,0,0,0,79.75,66.26Z"/><path class="cls-45" d="M86.81,66.58a.7.7,0,0,0-.79.32,4.71,4.71,0,0,0-.29.48.82.82,0,0,0,.43,1.2.85.85,0,0,0,1-.5,2.12,2.12,0,0,0,.18-.82A.69.69,0,0,0,86.81,66.58Z"/><path class="cls-45" d="M88,78.62a.5.5,0,0,0-.49,0,.89.89,0,0,0-.32.32l-.07.15c0-.06,0,0,0,0s-.09.2-.13.3a.8.8,0,0,0,.65,1.14C88.61,80.55,88.67,79.06,88,78.62Z"/><path class="cls-45" d="M97.73,79.73a.57.57,0,0,0-.88-.12,3.57,3.57,0,0,0-.3.38.87.87,0,0,0,0,.92.71.71,0,0,0,.78.32C98,81.08,98.05,80.22,97.73,79.73Z"/><path class="cls-45" d="M98.2,67.83a.73.73,0,0,0-1.44.19,2.9,2.9,0,0,0,0,.78.75.75,0,0,0,.53.53,1,1,0,0,0,.41,0,.76.76,0,0,0,.53-.53A1.78,1.78,0,0,0,98.2,67.83Z"/><path class="cls-45" d="M107.49,79.88a.82.82,0,0,0-1.1-.32,1,1,0,0,0-.46,1.18.83.83,0,0,0,.59.6.87.87,0,0,0,1-.4A1.06,1.06,0,0,0,107.49,79.88Z"/><path class="cls-45" d="M108.57,67.46a.57.57,0,0,0-.69.09,1,1,0,0,0-.12,1.12.65.65,0,0,0,1.11,0A.92.92,0,0,0,108.57,67.46Z"/><path class="cls-45" d="M118.76,67.27a.75.75,0,0,0-1.17-.15,1.22,1.22,0,0,0-.25,1.47.82.82,0,0,0,1.27.16A1.26,1.26,0,0,0,118.76,67.27Z"/><path class="cls-45" d="M116.77,79.08a.55.55,0,0,0-.74.2c0-.06,0-.07,0,0a.59.59,0,0,0-.13.18.85.85,0,0,0,0,.68.72.72,0,0,0,.69.53.73.73,0,0,0,.69-.53A.9.9,0,0,0,116.77,79.08Z"/><path class="cls-46" d="M126.34,78.52a.76.76,0,0,0-1-.43.73.73,0,0,0-.28.27s-.21.48-.09.21a.8.8,0,0,0-.09.31s0,0,0,.05a.43.43,0,0,0,0,.11,1.4,1.4,0,0,0,0,.5.83.83,0,0,0,1.52.2A1.45,1.45,0,0,0,126.34,78.52Z"/><path class="cls-46" d="M129.88,66.72a1.28,1.28,0,0,0-.53-.75.6.6,0,0,0-.73.09,1.5,1.5,0,0,0-.19,1.7.83.83,0,0,0,.7.4.79.79,0,0,0,.69-.4A1.34,1.34,0,0,0,129.88,66.72Z"/><path class="cls-46" d="M136.89,76.13a.6.6,0,0,0-.73.09A1.25,1.25,0,0,0,136,77.6a.79.79,0,0,0,.68.39.8.8,0,0,0,.75-.58A1.12,1.12,0,0,0,136.89,76.13Z"/><path class="cls-46" d="M138.2,65.2a.66.66,0,0,0-.55-.32.61.61,0,0,0-.55.32,1.1,1.1,0,0,0,0,1,.68.68,0,0,0,1.17,0A1.05,1.05,0,0,0,138.2,65.2Z"/><path class="cls-46" d="M147.43,74.88h0a.87.87,0,0,0-.18-.94.85.85,0,0,0-1.2,0,1.77,1.77,0,0,0-.43,1,.92.92,0,0,0,.44.78.89.89,0,0,0,1.09-.14,1,1,0,0,0,.27-.65S147.44,74.86,147.43,74.88Z"/><path class="cls-46" d="M147.05,63.16a.68.68,0,0,0-.85.65,1.28,1.28,0,0,0,.32,1,.77.77,0,0,0,.76.2.8.8,0,0,0,.56-.75A1,1,0,0,0,147.05,63.16Z"/><path class="cls-46" d="M157.08,72.68c-.09-.39-.55-.81-1-.54a.9.9,0,0,0-.28.27,1.82,1.82,0,0,0-.14.39,1,1,0,0,0,.18,1,.72.72,0,0,0,1,0A1.11,1.11,0,0,0,157.08,72.68Z"/><path class="cls-46" d="M161.92,61.83a1.11,1.11,0,0,0-.33-.61.66.66,0,0,0-.65-.18.68.68,0,0,0-.49.65,1.13,1.13,0,0,0,.12.65.74.74,0,0,0,.85.39A.76.76,0,0,0,161.92,61.83Z"/><path class="cls-46" d="M166.63,70.3a.8.8,0,0,0-1-.55.82.82,0,0,0-.56,1c0-.17,0,.11,0,.15a1.24,1.24,0,0,0,.19.58.73.73,0,0,0,1.24,0A1.48,1.48,0,0,0,166.63,70.3Z"/><path class="cls-46" d="M171.64,60.23a.69.69,0,0,0-1-.45.79.79,0,0,0-.38.51,1.25,1.25,0,0,1,0,.19c0-.13,0-.09,0,.13a1.08,1.08,0,0,0,0,.18.7.7,0,0,0,1.3.35A1.2,1.2,0,0,0,171.64,60.23Z"/><path class="cls-46" d="M178.17,58.61a.79.79,0,0,0-.8.79,1.73,1.73,0,0,0,.16.78.7.7,0,0,0,.93.24c.4-.21.46-.61.5-1A.8.8,0,0,0,178.17,58.61Z"/><path class="cls-46" d="M175.46,67.71a.77.77,0,0,0-1.1,0,1,1,0,0,0,0,1.4.85.85,0,0,0,1.15,0A1,1,0,0,0,175.46,67.71Z"/></g></g></g></svg>