<svg xmlns="http://www.w3.org/2000/svg" xmlns:xlink="http://www.w3.org/1999/xlink" viewBox="0 0 141.61 223.59"><defs><style>.cls-1{isolation:isolate;}.cls-2{fill:#9dc14f;}.cls-3,.cls-5{fill:#486c33;}.cls-10,.cls-3{opacity:0.4;}.cls-10,.cls-3,.cls-5,.cls-7{mix-blend-mode:multiply;}.cls-4,.cls-8{fill:#e7e5ba;}.cls-12,.cls-4{opacity:0.5;}.cls-11,.cls-12,.cls-4,.cls-8{mix-blend-mode:overlay;}.cls-5{opacity:0.2;}.cls-6{fill:url(#linear-gradient);}.cls-7{fill:#a02c76;}.cls-11,.cls-7{opacity:0.3;}.cls-8{opacity:0.7;}.cls-9{fill:#d8c8a8;}.cls-10{fill:#9e1c3e;}.cls-11,.cls-12{fill:#ffe5bb;}</style><linearGradient id="linear-gradient" x1="71.75" y1="72.6" x2="69.19" y2="187.17" gradientUnits="userSpaceOnUse"><stop offset="0" stop-color="#a02c76"/><stop offset="0.1" stop-color="#a6377c"/><stop offset="0.27" stop-color="#b4568a"/><stop offset="0.4" stop-color="#c27298"/><stop offset="1" stop-color="#e7e5ba"/></linearGradient></defs><title>Asset 8</title><g class="cls-1"><g id="Layer_2" data-name="Layer 2"><g id="Layer_1-2" data-name="Layer 1"><path class="cls-2" d="M63.79,66.13s-1.16-53.29-.16-63c.41-4,9.47-4.78,10.47,1.5,2.74,17.21,3,62.66,3,62.66Z"/><path class="cls-3" d="M71.76.93C72.87,15,73,39.1,69.23,39.79c-4.63.84-5.89-11-5.89-11l-.09.15c.11,17.58.54,37.15.54,37.15l13.3,1.14s-.25-45.45-3-62.66A5.18,5.18,0,0,0,71.76.93Z"/><path class="cls-3" d="M63.41,44.35c.16,12,.38,21.78.38,21.78l13.3,1.14S77,56.34,76.65,43.16c-1.45,4.58-3.91,11.22-6.38,12.36S65.07,49.58,63.41,44.35Z"/><path class="cls-4" d="M67.71,34.63c2.4,1.55,1.85-24.25,1.54-34.57a6.61,6.61,0,0,0-3.54.5C65.53,8.41,65.19,33,67.71,34.63Z"/><path class="cls-2" d="M52.58,68S42,17.57,41.53,12.53c-.36-3.76,8.89-7.11,10.32-3.12,3.37,9.36,7.93,26.17,16.09,56.43C82.69,120.49,52.58,68,52.58,68Z"/><path class="cls-4" d="M41.53,12.53c.21,2.25,2.43,13.52,4.83,25.32l.33.95s5.56,13.3,9.58,12.06c3.13-1-3.9-30.38-7.14-43.23C45.93,7.36,41.27,9.84,41.53,12.53Z"/><path class="cls-4" d="M42.76,9.93c1.51,8,6.8,33.05,9.8,32.8,1.66-.14-3.4-24.43-5.66-34.9A9.21,9.21,0,0,0,42.76,9.93Z"/><path class="cls-2" d="M72.61,65.71s13.68-49,16.7-56.36c1.75-4.24,10.77-3.45,10,2.49C97.79,23.07,87.82,68.2,87.82,68.2Z"/><path class="cls-5" d="M98.87,9.17C95,24.26,87.1,52.93,82.54,51.79,79.41,51,81,37.88,81,37l-.4.67c-4.09,14.14-8,28.09-8,28.09L87.82,68.2s10-45.13,11.47-56.36A4.34,4.34,0,0,0,98.87,9.17Z"/><path class="cls-6" d="M72.91,61.57c-22.8.32-45.6,1.9-62.33,22.05C-5.64,103.16-4,134.24,20.85,153.16c22.42,17.1,47.88,14,47.88,29.64,0,17.86-28.11,9.55-42.56,13.68-16,4.56-25.85,24.32-23.56,27,1.74,2,9.11-20.52,31.92-22s42.7,3.27,45.22-15.58c2.28-17.1,13.68-16,29.64-23.56,19.2-9.15,39.53-29.63,29.64-62.32S99.89,61.19,72.91,61.57Z"/><path class="cls-7" d="M115.69,77.91A4.53,4.53,0,0,0,108,81.12v0a4.64,4.64,0,0,0,1.32,3.17,4.47,4.47,0,0,0,3.17,1.32h0a4.53,4.53,0,0,0,3.2-7.74Z"/><path class="cls-7" d="M22.55,121.42a4.16,4.16,0,0,0-.92-1.54,2.8,2.8,0,0,0-4.14,3.75,4.61,4.61,0,0,0,.4.5,2.79,2.79,0,0,0,4.38-.56A2.67,2.67,0,0,0,22.55,121.42Z"/><path class="cls-7" d="M17.74,102a4.44,4.44,0,1,0,4.44,4.44A4.47,4.47,0,0,0,17.74,102Z"/><path class="cls-8" d="M104.93,128.06c-1.73.07-3.36.64-5.06.84a2.59,2.59,0,0,0,0,5.18,13.56,13.56,0,0,0,5.8-.56,2.85,2.85,0,0,0,2-2.68A2.81,2.81,0,0,0,104.93,128.06Z"/><path class="cls-8" d="M130.9,120.53a3.55,3.55,0,0,0-1.8.43c-.42.18-.89.45-1.19.57a1.66,1.66,0,0,0-1.13,2,1.64,1.64,0,0,0,2,1.13c.55-.16,1.1-.34,1.65-.55a3.22,3.22,0,0,0,1.73-1.37A1.49,1.49,0,0,0,130.9,120.53Z"/><path class="cls-8" d="M118,119.14a2.77,2.77,0,0,0-2.68-2,13.2,13.2,0,0,0-3.87.74,2.67,2.67,0,0,0,.71,5.24,13.45,13.45,0,0,0,4.57-.8A2.76,2.76,0,0,0,118,119.14Z"/><path class="cls-8" d="M59.12,131.26c-3.8.07-3.8,5.82,0,5.89,2.43,0,7.79,1.23,7.79-2.65S61.69,131.21,59.12,131.26Z"/><path class="cls-8" d="M140.94,124.43a116.83,116.83,0,0,1-19.4,9C90.39,144.58,34,147,1.65,125.43c2.76,10.19,9,20,19.2,27.73,13.47,10.27,28,13.26,37.52,17.4,6.3,2.74,10.36,6,10.36,12.24,0,17.86-28.11,9.55-42.56,13.68-16,4.56-25.85,24.32-23.56,27,1.74,2,9.11-20.52,31.92-22s42.7,3.27,45.22-15.58c1.3-9.75,5.56-13.57,11.94-16.46,4.82-2.18,10.84-3.83,17.7-7.1C123.25,155.68,137.69,143.17,140.94,124.43Z"/><path class="cls-9" d="M58.37,170.56c6.3,2.74,10.36,6,10.36,12.24,0,17.86-28.11,9.55-42.56,13.68-16,4.56-25.85,24.32-23.56,27,1.74,2,9.11-20.52,31.92-22s42.7,3.27,45.22-15.58c1.3-9.75,5.56-13.57,11.94-16.46C83.3,171.74,70.14,173.72,58.37,170.56Z"/><path class="cls-10" d="M139,100c-7.38-24.4-25.54-34-45.5-37.1,22.09,9.46,32.19,30.36,28.71,57.19-3,23.21-20.56,34.65-37.55,39.57A89.67,89.67,0,0,1,26.4,157c20.87,12.9,42.33,11.48,42.33,25.83,0,17.86-28.11,9.55-42.56,13.68-16,4.56-25.85,24.32-23.56,27,1.74,2,9.11-20.52,31.92-22s42.7,3.27,45.22-15.58c2.28-17.1,13.68-16,29.64-23.56C128.59,153.13,148.92,132.65,139,100Z"/><path class="cls-11" d="M77.41,78.57C51.53,55.75,3.66,78.29,8,113.64c2.57,21.16,12.85,31.59,34.91,33.55C76.88,150.21,105.3,103.18,77.41,78.57Z"/><path class="cls-12" d="M57.75,96.43A15,15,0,0,0,50.9,81C39.48,73.55,23.64,82.2,19.14,93.3c-2.83,7-1.46,17.11,5.13,21.29C39.12,124,55.77,110,57.75,96.43Z"/></g></g></g></svg>