<svg xmlns="http://www.w3.org/2000/svg" viewBox="0 0 120.25 134.49"><defs><style>.cls-1{isolation:isolate;}.cls-2{fill:#ee472d;}.cls-3,.cls-6{fill:#b72025;}.cls-3{opacity:0.7;}.cls-4{fill:#486c33;}.cls-5{fill:#ff7c5c;}.cls-6,.cls-7{opacity:0.5;}.cls-7{fill:#fff;mix-blend-mode:overlay;}</style></defs><title>Asset 21</title><g class="cls-1"><g id="Layer_2" data-name="Layer 2"><g id="Layer_1-2" data-name="Layer 1"><path class="cls-2" d="M77.49,29.52C72.33,7.38,51.82,6,34.87,6,13.16,6.06-3.77,25.56.73,47.13,2.38,55.07,7.31,61.6,13.57,66.56,40.36,87.79,87,70.53,77.49,29.52Z"/><path class="cls-3" d="M77.49,29.52c-4.12-17.66-18-22.13-32-23.2-1.24,5.69-.72,12.19,1.63,16.2,4.19,7.15,8.51,12.89,5.84,21.64A22.14,22.14,0,0,1,35.74,59.39C17.82,62.23.3,49.74,1,32.16a33.5,33.5,0,0,0-.25,15C2.38,55.07,7.31,61.6,13.57,66.56,40.36,87.79,87,70.53,77.49,29.52Z"/><path class="cls-4" d="M38.48,13.24S42.61.71,45.13,0s2.09,14.24,2.09,14.24S63.28,11.8,63.69,14s-13,7.82-13,7.82,11.38,15,8.44,16.83S42.76,27,42.76,27s-15.71,16.42-18,14.24C22,38.6,34,21.14,34,21.14S16.09,15.55,16.9,13.48,31.33,10.73,38.48,13.24Z"/><path class="cls-2" d="M87.74,67.06c-11.62-17.43-41-8.89-50.28,7.15A38.61,38.61,0,0,0,33,100.58c8.54,43.22,78,46.59,86.72,1.67,2.43-12.43-3.08-27.52-17.84-31.31-1.78-.46-12.53-1.16-12.84-1.76S88.19,67.73,87.74,67.06Z"/><path class="cls-5" d="M69.11,85.15a19.4,19.4,0,0,0,1.12-4.71c.86-9.27-5.16-16.17-15.07-14.24-15.22,3-23.89,28.6-7.52,34.56C56.8,104.1,66,94,69.11,85.15Z"/><path class="cls-6" d="M101.85,70.94c-1.78-.46-12.53-1.16-12.84-1.76s-.82-1.45-1.27-2.12a20.29,20.29,0,0,0-2.35-3h0a10.06,10.06,0,0,0-.1,5.06c1.24,5.16,2.85,10.24,4,15.41,9,39.94-45.2,47.23-55.71,14.67a42.64,42.64,0,0,1-1.27-4.11,37,37,0,0,0,.64,5.44c8.54,43.22,78,46.59,86.72,1.67C122.12,89.82,116.61,74.73,101.85,70.94Z"/><path class="cls-4" d="M89.76,64.1S73.86,50,70.78,52.21,82.22,69.86,82.22,69.86,59,76.87,60,79.19s25.48-2,25.48-2-1,18.58,3.21,18.33S92.44,75.6,92.44,75.6,111.16,83,113,80.32,96.25,69.86,96.25,69.86s8.2-10.37,6.49-12.44S89.76,64.1,89.76,64.1Z"/><path class="cls-7" d="M48.23,74.69C44,78.51,47.83,85.5,53,82.1,59.14,78.12,53.59,69.91,48.23,74.69Z"/><path class="cls-5" d="M22.53,21.43c-4-3.59-9.94-1.49-13.15,2.07A17.79,17.79,0,0,0,4.91,33.56c-.29,2.85.13,6,2.32,8.1,2.57,2.42,5.83,2.1,8.81.79,4.07-1.78,7.44-6.78,8.57-10.91C25.54,28.18,25.27,23.9,22.53,21.43Z"/><path class="cls-7" d="M11.34,25.15c-3,3.76,1.15,9,5,5.49C20.86,26.5,15.13,20.45,11.34,25.15Z"/></g></g></g></svg>