<svg xmlns="http://www.w3.org/2000/svg" xmlns:xlink="http://www.w3.org/1999/xlink" viewBox="0 0 261.01 175.51"><defs><style>.cls-1{isolation:isolate;}.cls-17,.cls-18,.cls-2{fill:#eac2db;}.cls-3,.cls-4{fill:#6a174c;}.cls-3,.cls-8{opacity:0.3;}.cls-3,.cls-5,.cls-8{mix-blend-mode:multiply;}.cls-5,.cls-8{fill:#556a3d;}.cls-5{opacity:0.2;}.cls-12,.cls-6{fill:#e6e4d2;}.cls-16,.cls-17,.cls-18,.cls-6{opacity:0.5;}.cls-12,.cls-18,.cls-6{mix-blend-mode:overlay;}.cls-7{fill:url(#linear-gradient);}.cls-9{fill:#e882b4;}.cls-10{fill:url(#linear-gradient-2);}.cls-11{fill:url(#linear-gradient-3);}.cls-13{fill:#a02c76;}.cls-14{fill:#4c112f;}.cls-15,.cls-20{fill:#701950;}.cls-15,.cls-19{opacity:0.7;}.cls-21{fill:#bd4f9c;}</style><linearGradient id="linear-gradient" x1="164.43" y1="-13.94" x2="205.75" y2="-132.81" gradientTransform="translate(-79.36 145.86) rotate(-13.36)" gradientUnits="userSpaceOnUse"><stop offset="0" stop-color="#a02c76"/><stop offset="1" stop-color="#701950"/></linearGradient><linearGradient id="linear-gradient-2" x1="17.74" y1="42.74" x2="57.19" y2="125.68" gradientTransform="matrix(1, 0, 0, 1, 0, 0)" xlink:href="#linear-gradient"/><linearGradient id="linear-gradient-3" x1="125.53" y1="-103.53" x2="222.16" y2="27.67" xlink:href="#linear-gradient"/></defs><title>Asset 3</title><g class="cls-1"><g id="Layer_2" data-name="Layer 2"><g id="Layer_1-2" data-name="Layer 1"><path class="cls-2" d="M76.23,133.42a1.18,1.18,0,0,0-1.33-.17,9.06,9.06,0,0,0-3.42-.18c-2.62.08-5.23.29-7.83.41-4.45.2-11.94,1-15.25-2.72a1.08,1.08,0,0,0-.86-.4c-.31-.42-1-.49-1.18.16a110.8,110.8,0,0,1-4.1,13.56c-.24.64.25,1.14.76,1.43,7.49,4.11,22.21,6.54,32.36,5.19a1.53,1.53,0,0,0,1.46-1.35c.28-3.1.53-6.19.58-9.3C77.45,138.18,77.82,134.77,76.23,133.42Z"/><path class="cls-3" d="M77.27,135.41c-2.26-2.86-6.27-1-7.22,1.88-.84-.38-1.7-.71-2.57-1a70.51,70.51,0,0,0-12.26-2.4c-1.87-.26-3.72-.71-5.56-1.13a31.79,31.79,0,0,1-3.57-1.19c-.6,2.5-1.29,5-2.07,7.4,4.63,2.8,10.93,3.68,15.78,4.59,2.9.54,6.43,1.13,8.72,3.14A8.9,8.9,0,0,1,71,151.05a43.08,43.08,0,0,0,4.41-.35,1.53,1.53,0,0,0,1.46-1.35c.28-3.1.53-6.19.58-9.3A21.17,21.17,0,0,0,77.27,135.41Z"/><path class="cls-4" d="M139.71,43.26C112.55-15.87,28.26-5.91,7.37,53.4c-5.66,16.08-4.19,36.19,4.41,51.06a64.6,64.6,0,0,0,26.37,25.26c20.3,10.16,44.69,12.65,66.37,5.22C147.75,120.13,157.41,81.81,139.71,43.26Z"/><path class="cls-5" d="M81.39,3.68a73.73,73.73,0,0,0-13.1.57C67,5.36,65.67,6.52,64.44,7.74A61.65,61.65,0,0,0,52.57,25c-1.49,3.11-2.76,6.32-4,9.54-.61,1.64-1,3.46-1.4,5.16s-.18,3.77-.65,5.54c-.4,1.47,1.78,2.6,2.5,1.13a30,30,0,0,1,2.56-3.51,33.85,33.85,0,0,0,2.31-4.77c1.37-2.85,2.41-5.85,3.74-8.72A58,58,0,0,1,69.13,12.65,53.76,53.76,0,0,1,81.39,3.68Z"/><path class="cls-6" d="M76.46,14.23c-2.11-2.8-6.39-3.58-9.65-4.05a28.94,28.94,0,0,0-11.48,1c-7.65,2-13.91,6.41-19.47,11.89-.28.27.07.8.41.56a62.8,62.8,0,0,1,19-9,31.08,31.08,0,0,1,10.6-1c3.47.27,6.35,2.17,9.69,2.7C76.73,16.49,77,15,76.46,14.23Z"/><path class="cls-7" d="M80.65,1.37C69.63,3.17,64,14.7,58.76,23.67c-5.69,9.67-14.45,26.05-13.68,36.58C45.72,69,53,76.16,59.86,83c4.16,4.17,10.86,3.4,16.07,2.27,12.56-2.74,25.24-8,33.6-18.17C118.06,56.79,121,37,118.46,24,115.89,10.59,95.76-1.09,80.65,1.37Z"/><path class="cls-8" d="M110.77,23.94a40.46,40.46,0,0,1-.45-12.81A37,37,0,0,0,106,7.82c-5.9,14.19,4.78,32.42-1.52,43.46-6.73,11.77-30.7,14.93-30.7,14.93-.21-16-14.51-25.66-16.82-28.18S69.13,12.65,69.13,12.65c-2.29.69-4.66,2.61-6.93,5.11-1.2,2-2.33,4-3.44,5.91a168.23,168.23,0,0,0-8.23,15.62c16,10.51,17.55,40.16,17.55,40.16L91.43,68.72C119.61,60.52,112.87,34.66,110.77,23.94Z"/><path class="cls-9" d="M77.75.05c-5.06,1.4-9,5.28-12.57,9A100.63,100.63,0,0,0,54.24,22.44a85.33,85.33,0,0,0-8.05,15.31C44,43,41.11,49.49,41.59,55.26a1.86,1.86,0,0,0,3.44.93c2.71-4.58,3.58-10.36,5.47-15.33a81.79,81.79,0,0,1,7.69-15c5.72-8.88,13.5-16.19,20.73-23.75A1.21,1.21,0,0,0,77.75.05Z"/><path class="cls-10" d="M66.66,67.36c-2.1-19.39-18.29-32-36.75-39.14-7.61-2.93-10.78,1-15.83,7.6C4.68,48-1.54,67.44.33,82.14,1.74,93.23,6.53,103.83,12.78,113c5.82,8.55,13.81,14.83,23.07,19.34a88.4,88.4,0,0,0,14.91,5.52,55.7,55.7,0,0,0,12.91,2.41,2.4,2.4,0,0,0,2.83.44c29.27-14.26,6-45.62,1.18-66.85A53,53,0,0,1,66.66,67.36Z"/><path class="cls-9" d="M66.45,57.22A46.75,46.75,0,0,0,55,40.57,55.38,55.38,0,0,0,38.11,30C32,27.5,25.27,25.63,18.67,26.63c-1.51.22-1.15,2.27,0,2.69,5.68,2.09,11.72,3,17.4,5.26A49.19,49.19,0,0,1,51.4,44.2,39.39,39.39,0,0,1,61.59,59.38c2.62,7,1.9,14.27,3.25,21.49.57,3.09,4.73,1.95,5-.68C70.75,72.78,69.19,64.11,66.45,57.22Z"/><path class="cls-6" d="M67.88,121.2c-6.64,1.68-13.17-4.71-17.54-8.88A97.15,97.15,0,0,1,35.8,95.49c-4.55-7-7-15-8.68-23.17-.85-4.25-1.89-8.7-1.57-13.06.68-9.37,8.06-1,11.7,3A44.2,44.2,0,0,1,47.58,83.77a.44.44,0,0,0,.87-.08c.18-8-3-15.69-7.74-22.09a47.94,47.94,0,0,0-8.94-9.28c-5.77-4.51-8.4-6-10.79-13.13a35,35,0,0,0-3.49-7.6h0c-1.08,1.21-2.19,2.64-3.4,4.21.1.17.21.32.31.49a34.82,34.82,0,0,1,3.28,9c2.71,10.94,1.45,16-5.55,24.17a51.49,51.49,0,0,0-8,12.64,50.19,50.19,0,0,0-2.5,7,61.74,61.74,0,0,0,2,6.33h0a53.69,53.69,0,0,1,4.19-11.7c1.85-3.72,5.88-11.49,10-12.86C24,68.87,27,88.59,29.38,93.08c-.21,2.22.17,4.44,0,6.67a29.54,29.54,0,0,1-1.7,7c-1.58,4.8-3.28,9.41-3.29,14.54a19.92,19.92,0,0,0,.49,4.38h0c.72.55,1.45,1.08,2.2,1.59l.07.05c.75.52,1.52,1,2.29,1.51a20.87,20.87,0,0,1-1.24-11.86c.65-3.42,2.12-12.81,6.3-13.49C39,102.7,48,114.87,51.61,117.6s12.54,9.21,16.58,4C68.34,121.42,68.1,121.14,67.88,121.2Z"/><path class="cls-11" d="M146.77,56.58c-4.23-14.41-11.61-28.35-23-38.32a50.21,50.21,0,0,0-12.89-8.08c-1.57-.7-2.6,1.31-2.06,2.54,8.69,19.74,8.84,52.39-17.35,56-12.21,1.69-21.71,3.72-28.28,15.06-10.45,18-9.5,37.83-.49,55.94.67,1.34,2.45,1.5,3.63,1.55a181.89,181.89,0,0,0,28.94-1.09,63.17,63.17,0,0,0,23-6.85c13.19-7,23.27-19.23,28.71-33C152.59,86,151,71,146.77,56.58Z"/><path class="cls-6" d="M139.8,53a82.15,82.15,0,0,0-6.53-16.86,6.37,6.37,0,0,0-1-1.94,63.62,63.62,0,0,0-14.84-18.42,37.71,37.71,0,0,0-8.24-5.21,2.2,2.2,0,0,0-.37,2.16,57.49,57.49,0,0,1,2.32,6.21,35.38,35.38,0,0,1,6.31,5.14C130.26,37.34,139.84,58.84,136,77.35c-2.12,10.3-9.87,11.73-19.22,12.68a.78.78,0,0,0-.24,1.51c4.83,1.68,10.18,1.2,15-.44.49-.17,1-.38,1.52-.61-5.67,16-23.92,32.44-41.5,26.26a28.12,28.12,0,0,1-14.14-10.49,16.6,16.6,0,0,1-2.66-7.47c-.3-3,.88-5.66,1-8.62a.61.61,0,0,0-1-.46c-4.41,4.14-3,12.32-.62,17.07,3.07,6.11,9,10.37,15.14,13.11a34.22,34.22,0,0,0,13.41,3q-2.2,1-4.45,1.76a66.3,66.3,0,0,1-9.89,2.59c-3.94.76-8.37,1.7-12.37,1.57a.65.65,0,0,0,0,1.29c3.72.12,7.25.76,11,.53A65.94,65.94,0,0,0,97.59,129a57,57,0,0,0,18.13-7.78C139.37,106,146.68,79.29,139.8,53Z"/><path class="cls-6" d="M97.24,16a18.58,18.58,0,0,0-3.51-4.76,17,17,0,0,0-1.67-9.36,33.81,33.81,0,0,0-6.69-.83c1.43,2.73,2.89,5,3.17,8.14a23.79,23.79,0,0,1-1.14,8.49c-1.47,5.18-4.14,9.84-6.46,14.67-2.66-.35-6,1.5-8.08,2.73-3,1.76-4.77,4.59-6.29,7.65-.3.62.59,1.2.93.57,1.67-3.13,4.78-5.15,8-6.37a30.32,30.32,0,0,1,3.76-.9A32.18,32.18,0,0,0,77,49.09c.19,5.57,2.34,10.15,4,15.31.27.8,1.53.53,1.33-.32a62.38,62.38,0,0,1-1.62-16.63c.31-6.32,3.44-11.7,6.41-17.15a60.11,60.11,0,0,0,5.93-14.71,16.46,16.46,0,0,1,1.58,1.84,29.94,29.94,0,0,1,3.83,8.32,41.34,41.34,0,0,1,1,18.73c-.13.74,1,1.11,1.14.35a43.24,43.24,0,0,0,.29-19.66A32.56,32.56,0,0,0,97.24,16Z"/><path class="cls-5" d="M123.73,18.26a50.21,50.21,0,0,0-12.89-8.08c-1.57-.7-2.6,1.31-2.06,2.54a59.54,59.54,0,0,1,2.2,5.82c6.14,8,11.24,16.79,13.75,26.36a63.27,63.27,0,0,1-3.9,41.61c-6.66,14.44-14.07,23.78-27.32,30.68-9.41,4.9-30.78,6.44-37.48,1.07a67.18,67.18,0,0,0,6.63,21.46c.67,1.34,2.45,1.5,3.63,1.55a181.89,181.89,0,0,0,28.94-1.09,63.17,63.17,0,0,0,23-6.85c13.19-7,23.27-19.23,28.71-33,5.63-14.28,4-29.32-.19-43.72S135.16,28.23,123.73,18.26Z"/><path class="cls-8" d="M88.14,77.05c20.25-5.57,35.44-19.5,31.39-39a134.59,134.59,0,0,1-2.79-24.84,56.53,56.53,0,0,0-5.9-3l-.13,0a59.09,59.09,0,0,0-.11,7.28A65,65,0,0,1,114,35.53c1.86,8.91.82,17.41-6.38,24.28a23.48,23.48,0,0,1-15.14,8.75c-16.79,6.49-32.07,7.68-33.69,32.54A96.89,96.89,0,0,0,64.43,141a8,8,0,0,0,1.86.25l3.95.12c-2.45-6.52-7.73-22.42-6.16-35C66.11,90.21,67.88,82.62,88.14,77.05Z"/><path class="cls-9" d="M112.78,9c.43-2.71-3.61-3.93-4.18-1.15C107,15.47,108.46,22.86,110,30.4c1.39,6.71,2.14,13.38-.34,19.92-4.86,12.82-19.94,15.4-31.28,19.3-6.34,2.19-12.23,5.65-16.42,11-3.89,5-5.87,11-6.8,17.11a72.21,72.21,0,0,0-.26,21.52c1.1,7.38,3.26,15.65,7.27,22l.57.79c1.54,2.15,5.34.93,4.48-1.89-1.1-3.63-2.86-7-4-10.67a62.34,62.34,0,0,1-2.5-11,68.38,68.38,0,0,1,.95-21.31c1.12-5.91,3.53-11.23,8-15.36C74.76,77,81.47,75.09,88,73c11.6-3.64,22.56-10,27-22C120.2,37,110.54,23.12,112.78,9Z"/><path class="cls-6" d="M51.61,68.21c-.38-8-3-15.72-8-20.93-6-6.19-15.09-9.22-23.17-5.6C1.83,50,3.83,85,15.48,97.15c4.47,4.64,11.56,6.83,16.61,5a18.83,18.83,0,0,0,9.16-4.84C48.49,90.71,52.13,79.16,51.61,68.21Z"/><path class="cls-12" d="M35.34,52.74A10.2,10.2,0,0,0,16.7,50.31C10.48,61,22.92,76.1,32.67,65.76a11.11,11.11,0,0,0,3.4-8A22.19,22.19,0,0,0,35.34,52.74Z"/><path class="cls-13" d="M261,108.42a60.67,60.67,0,1,1-60.66-60.66A60.66,60.66,0,0,1,261,108.42Z"/><path class="cls-4" d="M253.8,95.51c.94-10.14-.62-20.31-6-28.94-4.48-7.12-6.65-1.4-10.44-4.32C233.15,59,234.89,51.39,232.94,47c-3.13-7-10.88-11.93-18.26-13.12-7.14-1.14-12.68,3.54-19.37,3.16-8.52-.49-12.91-9.54-21.21-1.92-8.81,8.09-6.72,21.3-3.76,31.48,2.1,7.23,3.89,14.34,3.66,21.93-.43,14.27-3.54,28.27-4.17,42.52a66.13,66.13,0,0,0,2,20.74c1.33,4.73-15.65,8.45-11.25,10.83,26.84,14.49,57.44,5.36,75.16-8.6,10.64-8.38,24.39-36.58,8.78-29.08A78.46,78.46,0,0,0,253.8,95.51Z"/><path class="cls-14" d="M162.05,82.28c-.86-6.69-3.58-12.84-4.5-19.38-.53-3.84-1.92-8.59-5.26-10.34a1.18,1.18,0,0,0-.27-1.15c-5.62-6.3-19.5-9.06-23.78.19-2.61,5.64,1,17.35-3.57,21.65-1.65,1.56-4.75.21-6.73.2-13.54-.11-8.8,15.86-7.57,23.39s-.43,15.71.72,23.48a52.57,52.57,0,0,0,8.46,21.9c5.83,8.67,24.83,18.61,36.21,15.59,9.62-2.55,6.39-14.4,7.79-22.78,1.52-9.12,1-18.24-.12-27.37C162.35,99.18,163.15,90.84,162.05,82.28Z"/><path class="cls-13" d="M243.72,115.73c2.22-9.4,2.34-20.1-1.59-29.07-.56-1.28-2.24-1.12-3.13-.4l-.52.37A48.9,48.9,0,0,0,223.3,55.85c-6.59-6.39-12.41-11-21.47-13.2-22.24-5.31-59.65-1.6-69.64,23.18A23.72,23.72,0,0,0,131,77.46c-2.62.66-5.28,1.17-7.89,1.89-3.58,1,2.1,11.3,2.68,11.16a10,10,0,0,0-5.7,3.09c-4.67,5.43-4.09,20.31-2.85,26.77,6.59,34.47,47.1,48,78,42.75,13.06-2.2,38.63-9.6,41.51-25.47a1.93,1.93,0,0,0-1.83-2.41h-1.07C239,130.08,242.07,122.69,243.72,115.73Z"/><path class="cls-15" d="M181,96.05c-.78-1.73-2.42-3-3.51-4.52a18.86,18.86,0,0,1-2.63-5.92A31.35,31.35,0,0,1,174.56,72a.91.91,0,0,0-1.76-.49c-1.61,5.12-2.52,9.72-1.42,15.08.83,4.05,3.79,10.29,8,11.64C180.72,98.64,181.53,97.13,181,96.05Z"/><path class="cls-15" d="M168.76,109.59c-2.17-2.25-4.74-3.75-6.53-6.41a18.59,18.59,0,0,1-2.66-7.29,41,41,0,0,1-.42-8.22c.08-2.93-.17-5.86-.08-8.78,0-.86-1.4-1.08-1.53-.2-.45,3.26-1.35,6.38-1.63,9.69a38.74,38.74,0,0,0,.2,9.13c.92,5.92,5.24,12.71,11,14.82C168.78,112.92,169.84,110.7,168.76,109.59Z"/><path class="cls-15" d="M161.27,122.28c-5-1.42-9.5-2.64-13.12-6.58s-5.37-9.91-6-15.11c-1.19-10.45,2-20.81,5.78-30.43.33-.87-1-1.35-1.45-.61-5.9,9.66-9.48,21.8-7.84,33.15a31.08,31.08,0,0,0,6.76,15.72c3.65,4.34,9.86,6.75,15.37,7.35C162.84,126,163.13,122.81,161.27,122.28Z"/><path class="cls-15" d="M197.42,74.73a.87.87,0,0,0-1.7.23,23.41,23.41,0,0,1-5.67,16.44,33.53,33.53,0,0,1-6.36,5.89c-2.31,1.69-5.54,2.79-7.43,4.94-1,1.14-.45,3.45,1.36,3.28,3.09-.29,5.89-2.61,8.28-4.43a37.09,37.09,0,0,0,7.3-7.24A22.77,22.77,0,0,0,197.42,74.73Z"/><path class="cls-15" d="M213.87,76.16c-.3-.84-1.79-.78-1.67.23C213,82.84,208,88.1,205,93.21c-.86,1.45,1,2.74,2.24,1.72a25.22,25.22,0,0,0,6.27-8.59A12.32,12.32,0,0,0,213.87,76.16Z"/><path class="cls-15" d="M204.19,131.93c-4.78.7-9.4,1.84-14.09,3-2.27.55-4.53,1.15-6.8,1.79s-3.88,1-5.11,3.13c1.08,1.53-.74,2.64,1.22,2.77,6.05.4,19.33-3.93,25.58-8.76A1.05,1.05,0,0,0,204.19,131.93Z"/><path class="cls-2" d="M228.68,130.27c-10.87,13.88-23.72,22-44.88,22.53.31-3,.59-10.57.81-13.88,19-1,39-15.41,39.85-35.62,0-1.25-1-1.15-1.36,0a42.47,42.47,0,0,1-17.42,23.38c-6.53,4.22-13.63,6.11-21.05,7,.12-3.28.2-6.58.22-9.82,10.94-2,21.41-10.51,24.22-21,.54-2-1-2-1.92-.16-5,10.06-12.48,13.88-22.14,15.29-.1-4-.27-16.73-.59-20.13,10.56-2.68,13.2-18.6,12-25.77-.25-1.47-1.12-1.57-1.32,0-1,7.21-3.3,14.86-9.57,19.3-5,3.57-10.67,2.45-12.73-3.86-2.17-6.62-1.26-11.81.53-17.71-.46-.35-.47-.59-.88,0-5.14,7.48-7,18-1.11,25.66a114.49,114.49,0,0,0-8,13.64l-.45-.37A18.86,18.86,0,0,1,157,99.65c-1.14-3.61-2.17-7-1.76-10.74a49.59,49.59,0,0,1,3-12c.42-1.08,0-1.63-.71-.72A28,28,0,0,0,152,89.09a30,30,0,0,0,.53,13.07,27.83,27.83,0,0,0,6.27,10.91,19.24,19.24,0,0,0,1.7,1.66c-1.55,3.22-3.08,6.58-4.56,10a27,27,0,0,1-9.07-7.27c-4.24-5.24-6.78-13.29-7.22-19.93-.42-6.4-.54-17.26,11.81-34.71.8-1.13.4-2.22-.54-1.25-6.62,6.79-16.1,17.08-15.22,38.55.49,12,7.2,24.44,17.88,30.16-1.63,3.93-3.15,7.82-4.52,11.5-12.57-6.36-18.89-12.57-23.91-31-.31-1.15-.6-1.06-.6,0-.06,14.2,8.92,31.06,23.12,37.36-2.23,6.89-5.32,15.12-4.8,16.68,2.51,7.52,29,14,35.43,9,1.46-1.13,3.52-9.61,4.6-16.35,1.11,0,2.22,0,3.34-.07,7.6-.27,15.62-2.49,22.69-5.32,11.58-4.64,18.11-11.87,22.34-22.74C232.13,127.12,230.53,127.4,228.68,130.27Z"/><path class="cls-2" d="M210,72.17a4.32,4.32,0,0,0-4.11-.09c-.62-4.06-2.08-8.18-5.11-10.83a.67.67,0,0,0-1.06.81,32.75,32.75,0,0,1,3.17,13.74c0,1.74,1,1.73,2.07.5,2.86-3.31,5.18-.22,4.56,3-.44,2.33-2.28,5.56-3.49,7.52-2.86,4.65-5.46,7.6-6.44,10.56-.37,1.09.37,1.71,1.42,1,2.81-2,4.95-5.07,7-7.8,2.22-3,4.2-6.29,4.82-10C213.31,77.88,212.84,73.59,210,72.17Z"/><g class="cls-16"><path class="cls-2" d="M214.84,94.39c1.36,3.93.43,7.13-.79,10.88-.63,1.93,1.24,3.09,2.31,1.63,2.51-3.4,2.75-9.49-.27-13.24a.73.73,0,0,0-1.25.73Z"/></g><path class="cls-17" d="M230.6,114.72c-.22-.71-.9-.5-1.35.14-1.88,2.69-4.33,10.23-5.31,11.36-1.21,1.41-2.34.48-3.39-.65a1.42,1.42,0,0,0-2.34.62c-2.06,5.49-4.43,10.61-11,11-4.71.28-8.23,1.79-8.94,6.86a.41.41,0,0,0,.78.22c2.35-6.49,9-3.58,14-6,3.6-1.75,5.54-5.71,7-9.36,2.57,1.7,5.29.76,7.19-2.3C228.45,124.76,231.15,116.5,230.6,114.72Z"/><path class="cls-2" d="M230.94,76.94c-.81-2.62-2.16-5.57-4.75-6.84-2.33-1.15-4.74-.25-6.77,1.06C218,68,217.85,64.32,216.65,61a.75.75,0,0,0-1.44.4c.56,4.15.62,8.48,2.64,12.26a1.27,1.27,0,0,0,1.74.45c1.83-1.39,4.28-2.93,6.33-1.09s3,5.46,3.51,7.91a90.42,90.42,0,0,1,1.87,15.57c.06,1,1.24,1.1,1.41.16C233.85,90.44,232.8,83,230.94,76.94Z"/><g class="cls-16"><path class="cls-2" d="M230.58,103.65c1.28,3.41,6.08,7.71,8.7,3.06,1.84-3.25,1.12-9.45.17-13-.25-.94-.85-.8-1.09.14-.63,2.46,1.29,11.72-2.82,12.12-1.63.15-3-1.64-3.66-2.91C231.52,102.39,230.29,102.89,230.58,103.65Z"/></g><path class="cls-2" d="M179.47,53.74c-3.16.3-6.47,2-9.24,3.54a17.36,17.36,0,0,0-6.61,6c-7-5.8-15.24,12.46-16,17.46a.46.46,0,0,0,.88.24,51,51,0,0,1,5.41-10.19c1.81-2.69,5.73-8.27,7.42-2.68.95,3.16,3.16-1,3.76-2.23a15.1,15.1,0,0,1,6.43-6.4c2.68-1.55,5.92-2.21,8.45-4C180.64,55,180.49,53.64,179.47,53.74Z"/><path class="cls-2" d="M164,52a54.3,54.3,0,0,1,23.38-3.75,47.81,47.81,0,0,1,12.29,2.16c3.59,1.16,6.4,3.29,9.6,5.14a1,1,0,0,0,1.32-1.32c-1.93-3.11-5.62-4.76-8.91-6a41.58,41.58,0,0,0-12.82-2.51c-8.63-.41-17.71,1.1-25.14,5.64-.35.21-.12.83.28.67Z"/><path class="cls-17" d="M185,60.31c-3.9,2.23-6.62,6.14-8.68,10a1.36,1.36,0,0,0,.8,2c1.59.31,4.14.27,4.2,2.44.06,2-2.52,4.68-3.37,6.47-.56,1.16.93,2.55,1.89,1.46,1.92-2.16,3.78-5.3,4.06-8.23.31-3.23-1.95-3.94-4.38-4.41,1.68-3,3.67-5.29,6.35-8.69C186.66,60.33,186.19,59.63,185,60.31Z"/><path class="cls-2" d="M129.13,93.5c-1.32,6-2.15,11.74.78,18.21.41.91,2,.31,1.65-.69a29.91,29.91,0,0,1-1.68-8.47c-.07-3,.29-5.94.38-8.9a.58.58,0,0,0-1.13-.15Z"/><g class="cls-16"><path class="cls-2" d="M149.45,98.2c-.08-.27-.18-.54-.28-.8-.27-.75-.63-1.84-1.54-1.92s-1.67,1.65-2.64.85c-1.4-1.14,0-6.36.24-8,.15-1.25-.8-1.23-1.15,0-.88,3.06-2.2,7.22-1.23,10.39.86,2.82,2.49.17,4.06-.08a11.41,11.41,0,0,1,1.64,5.13c.12.8.25,4.68,1.64,4C150.78,107.53,149.93,99.72,149.45,98.2Z"/><path class="cls-2" d="M137.84,124.31a39.57,39.57,0,0,1-2.56-6.21c-.23-.64-1.3-.58-1.24.16a19.67,19.67,0,0,0,2.46,8.48,1.2,1.2,0,0,0,2.06,0c1.08-1.74,7.35,6.15,8.73,6.77a.88.88,0,0,0,1.19-1.19C147.22,129.85,141.37,122.71,137.84,124.31Z"/></g><path class="cls-17" d="M190.71,109.93c.65-.42,1.29-.83,1.92-1.27a3.45,3.45,0,0,0,1.63-1.78.93.93,0,0,0-.89-1.17,3.44,3.44,0,0,0-1.92,1c-.61.46-1.24.89-1.87,1.33-1.17.81-.1,2.73,1.13,1.94Z"/><g class="cls-16"><path class="cls-2" d="M160,88.41a7.09,7.09,0,0,0,1,5.34,1.08,1.08,0,0,0,2-.54c.19-1.51-.56-3-.57-4.47,0-1.34-2.15-1.71-2.39-.33Z"/></g><path class="cls-2" d="M194.26,127.67a12.53,12.53,0,0,0,5.2-1.31c1.3-.59,4-1.94,3.93-3.62a.92.92,0,0,0-.9-.89c-1.35-.14-2.66,1.55-3.75,2.24a21.3,21.3,0,0,1-4.65,2.33.64.64,0,0,0,.17,1.25Z"/><g class="cls-16"><path class="cls-2" d="M190.25,68.81c1.05-1.65,2.51-3.6,2.81-5.58a1,1,0,0,0-1.64-1c-1.47,1.5-2.17,3.89-2.9,5.81-.39,1,1.18,1.6,1.73.73Z"/></g><path class="cls-18" d="M173.23,104.13c-7,.22-22,47.4-27.19,64.35,5.92,4.33,18.45,7.53,26.45,7C177.59,149.09,181.24,103.88,173.23,104.13Z"/><g class="cls-19"><path class="cls-20" d="M153.75,50.44C147.63,53.08,142,57,138.19,62.56c-4,6-5,12.77-6,19.69a48.22,48.22,0,0,0-5.36-.57,1.79,1.79,0,0,0-1.71,2.25c.63,2.18,2.18,3.69,3.72,5.29,1,1.07,2.95-.35,2.08-1.6a25.49,25.49,0,0,1-1.46-2.21,39.69,39.69,0,0,0,4.07.17A1.6,1.6,0,0,0,135.1,84a40.16,40.16,0,0,1,5.56-20,25.25,25.25,0,0,1,7.09-7.47c2.43-1.78,4.67-3.24,6.42-5.67C154.38,50.58,154,50.34,153.75,50.44Z"/><path class="cls-20" d="M125.06,129.25a38.93,38.93,0,0,1-3-9.92c-1.24-7.07-.15-14.46,2-21.25.16-.53-.67-.89-.92-.38a37,37,0,0,0-3.1,21.35A39.8,39.8,0,0,0,123,129.54c1.4,3.18,3.23,7.29,6.12,9.39.74.54,1.42-.46,1.12-1.13C128.85,134.83,126.49,132.26,125.06,129.25Z"/></g><path class="cls-15" d="M227.19,87.5a40.09,40.09,0,0,0-2.85-10c-.49-1.14-2.21-.31-1.93.81a64.37,64.37,0,0,1,1.78,9.62c.27,2.79-.23,5.77.42,8.49a1.19,1.19,0,0,0,2.17.28C228.11,93.91,227.65,90.43,227.19,87.5Z"/><path class="cls-15" d="M221.58,58.73a26.85,26.85,0,0,0-6.29-5.54c-.52-.36-1.06.42-.65.86a45.43,45.43,0,0,1,4.69,6c1.2,1.82,1.85,4.43,3.6,5.75a1,1,0,0,0,1.46-.6C224.88,62.84,222.93,60.51,221.58,58.73Z"/><path class="cls-15" d="M204.83,57.69a19.07,19.07,0,0,0-13.07-3.53c-.6.05-.84,1-.16,1.13a30.56,30.56,0,0,1,10.85,3.61,15.51,15.51,0,0,1,4.34,3.93c1.25,1.63,1.72,3.55,2.68,5.32a1,1,0,0,0,1.94-.53C211.21,63.6,207.88,60,204.83,57.69Z"/><path class="cls-21" d="M200.86,37.57c7.92-1.13,17-2.7,24.27,1.54,4.4,2.56,5.68,7.14,6.31,11.88.52,3.89.86,8.76,4.19,11.4,1.41,1.11,3.14,1.19,4.85,1.32,2.9.23,4.89,2.65,6.37,4.88a30.91,30.91,0,0,1,4.7,12.13c1.78,10.18-1,19.8-2.84,29.7a1.2,1.2,0,0,0,2.18.92c5.16-8.81,5.73-21,4.34-30.84a31.09,31.09,0,0,0-4.79-13.07c-2.94-4.34-5.82-7.05-11.22-7.44-4.54-.34-4.29-10.85-5-14.05a16,16,0,0,0-7.83-10.23c-7.56-4.38-18.7-3.79-26,.79a.59.59,0,0,0,.45,1.07Z"/><path class="cls-6" d="M204.63,77.71c-2-13.42-9.85-25.27-24.29-28.38C150.6,42.94,126.55,79.07,136.55,105c9.6,24.89,42.16,29.05,59,8.59C203.27,104.14,206.51,90.24,204.63,77.71Z"/><path class="cls-6" d="M171.9,58.8C152.15,53.37,144.17,85,149.62,98.36c5.27,13,19.72,12.12,27.47,1.93C184.69,90.3,187.3,63,171.9,58.8Z"/></g></g></g></svg>