<svg xmlns="http://www.w3.org/2000/svg" xmlns:xlink="http://www.w3.org/1999/xlink" viewBox="0 0 268.08 156.96"><defs><style>.cls-1{isolation:isolate;}.cls-2{fill:#5c8d3f;}.cls-3{fill:#345729;}.cls-4{fill:#5c813a;}.cls-5{fill:#9fc261;}.cls-13,.cls-6{fill:#bec7a2;}.cls-7{fill:url(#linear-gradient);}.cls-8,.cls-9{fill:#806943;}.cls-8{opacity:0.1;}.cls-13,.cls-8,.cls-9{mix-blend-mode:multiply;}.cls-9{opacity:0.2;}.cls-10,.cls-17{fill:#d0e4a8;}.cls-10,.cls-12{opacity:0.5;}.cls-10,.cls-17,.cls-18{mix-blend-mode:overlay;}.cls-11,.cls-12{fill:#3c5d2c;}.cls-13{opacity:0.7;}.cls-14{fill:#55813b;}.cls-15{fill:#d6e3ba;}.cls-16{fill:url(#linear-gradient-2);}.cls-17{opacity:0.3;}.cls-18{fill:#dce19b;}</style><linearGradient id="linear-gradient" y1="45.07" x2="119.74" y2="45.07" gradientUnits="userSpaceOnUse"><stop offset="0" stop-color="#9dc14f"/><stop offset="0.26" stop-color="#9abe4e"/><stop offset="0.46" stop-color="#90b64c"/><stop offset="0.64" stop-color="#80a948"/><stop offset="0.81" stop-color="#699643"/><stop offset="0.94" stop-color="#51823d"/></linearGradient><linearGradient id="linear-gradient-2" x1="135" y1="99.51" x2="268.08" y2="99.51" xlink:href="#linear-gradient"/></defs><title>Asset 12</title><g class="cls-1"><g id="Layer_2" data-name="Layer 2"><g id="Layer_1-2" data-name="Layer 1"><path class="cls-2" d="M124,31.29a10.24,10.24,0,1,0,3,7.24A10.29,10.29,0,0,0,124,31.29Z"/><path class="cls-2" d="M37.43,84.08c-2.7-9.48-18-9.11-22.93-1.86-3.48,5.13-2,11.19,1.72,15.62,2,2.33,5.46,3.22,8.34,3.35a12.83,12.83,0,0,0,9.81-4.41c1.43-1.81,2.7-3.45,3.17-5.8A14,14,0,0,0,37.43,84.08Z"/><path class="cls-3" d="M118.21,44.2c-4.47-5.22-11.38-7.2-17.94-7.86-4.36-.43-9.79,1.12-12.84,4.4a16,16,0,0,0-2,2.59,5.64,5.64,0,0,0-3,1.83A18.28,18.28,0,0,0,77.65,55.4a17.24,17.24,0,0,0-4.6-3.86,9.72,9.72,0,0,0-9.82.19c-3.91,2.53-4.57,6.16-4,10.41a6.19,6.19,0,0,0,1.18,2.76A8.16,8.16,0,0,0,57.15,70a18,18,0,0,0-7.76-5.59c-7.62-2.78-14.74,2.37-17,9.43a26,26,0,0,0-1.13,6.91,20.73,20.73,0,0,0-3.4,8.16c-1,5.68-.74,12,2.76,16.81a16.5,16.5,0,0,0,18.55,6.49c7.52-2.33,12.76-9.94,14.84-17.25a17.45,17.45,0,0,0,.53-6.11,20.3,20.3,0,0,0,4.15,2c4.76,1.63,9.6-.08,13.32-3.07.43-.34,1.85-2,2.4-2.64a15.58,15.58,0,0,0,2.38-4.44,12.44,12.44,0,0,0,.58-4.2c0-.18,0-.38,0-.58A28.85,28.85,0,0,0,100.75,81a20.85,20.85,0,0,0,23.5-20.74A24.16,24.16,0,0,0,118.21,44.2Z"/><path class="cls-4" d="M64.89,75.23S79.12,91.81,82,87.74,69.27,57.11,69.27,57.11L83,51.17S94,86.8,98,85.86,92.7,44,92.7,44l8.13-1.57s-.32,33.44,5.31,52.19L86.77,110.55,55.83,81.49Z"/><path class="cls-5" d="M48.27,88.41c1.06,0,32.71,16.34,45.16,43l25-15.62S96.69,87.35,95.63,47.05l-7.77,5s5.65,23.68,1.41,24.74S76.9,57,76.9,57l-12-.36.71,8.84S91,98.66,87.5,101.84s-28.28-23-28.28-23Z"/><path class="cls-6" d="M118.44,115.78c1.53,2.45-2.82,7.94-9.73,12.25S95,133.85,93.43,131.4s2.82-7.94,9.73-12.26S116.91,113.33,118.44,115.78Z"/><path class="cls-7" d="M119.05,23.34C116.24,12.49,105,8.25,94.85,9.65a19.7,19.7,0,0,0-7.66,2.76,23.22,23.22,0,0,0-3.82-5.86C79.87,2.65,74.84.78,69.82.1c-5.4-.72-11,2.47-14.66,6.09a18.73,18.73,0,0,0-5.43,13.48,19.23,19.23,0,0,0-18.95,1.26c-8.27,5.51-11.24,16.94-8.71,26.55a23.19,23.19,0,0,0-10.53,2.66C.91,55.75-2.68,68.69,2,79.27c4.89,11,18.36,13.31,28.37,8.52a18,18,0,0,0,4.92-3.47,20.39,20.39,0,0,0,6.44,3.75c7.47,2.81,16.08-.53,21.55-5.76C69,76.91,70.55,69.6,69,62.53a24.82,24.82,0,0,0,14.42,1.21c7.06-1.43,11.38-7.3,13.12-13.79a18.22,18.22,0,0,0,8-.8C115.39,45.56,122,34.57,119.05,23.34Z"/><path class="cls-8" d="M119.05,23.34C116.24,12.49,105,8.25,94.85,9.65a19.7,19.7,0,0,0-7.66,2.76,23.22,23.22,0,0,0-3.82-5.86C79.87,2.65,74.84.78,69.82.1c-5.4-.72-11,2.47-14.66,6.09a18.73,18.73,0,0,0-5.43,13.48,19.23,19.23,0,0,0-18.95,1.26c-8.27,5.51-11.24,16.94-8.71,26.55C27,21.19,52.29,24.64,57.58,37.65S48.43,54,48.43,54s15.9,15.41,9.15,25.53-22.25,4.77-22.25,4.77a20.39,20.39,0,0,0,6.44,3.75c7.47,2.81,16.08-.53,21.55-5.76C69,76.91,70.55,69.6,69,62.53a24.82,24.82,0,0,0,14.42,1.21c7.06-1.43,11.38-7.3,13.12-13.79a18.22,18.22,0,0,0,8-.8C115.39,45.56,122,34.57,119.05,23.34Z"/><path class="cls-8" d="M22.07,47.48q-1,0-2,.12A15.38,15.38,0,0,0,22.07,47.48Z"/><path class="cls-9" d="M104.48,49.15c10.91-3.59,17.48-14.58,14.57-25.81C116.24,12.49,105,8.25,94.85,9.65a19.7,19.7,0,0,0-7.66,2.76,23.22,23.22,0,0,0-3.82-5.86C79.87,2.65,74.84.78,69.82.1c-5.4-.72-11,2.47-14.66,6.09a18.73,18.73,0,0,0-5.43,13.48S52.51,7.11,62.41,7.11c14.53,0,15.9,14.14,15.9,14.14,18.38-9.9,29.69,5.3,23,12s-15.56,3.88-15.56,3.88,3.54,13.43-8.08,18.25-19.49-4.11-19.49-4.11,5.31,18-4.94,23.33S32.71,67.9,32.71,67.9,31,81.69,17.51,83.81C6.72,85.52,1.87,77.18.37,73.84A23.65,23.65,0,0,0,2,79.27c4.89,11,18.36,13.31,28.37,8.52a18,18,0,0,0,4.92-3.47,20.39,20.39,0,0,0,6.44,3.75c7.47,2.81,16.08-.53,21.55-5.76C69,76.91,70.55,69.6,69,62.53a24.82,24.82,0,0,0,14.42,1.21c7.06-1.43,11.38-7.3,13.12-13.79A18.22,18.22,0,0,0,104.48,49.15Z"/><path class="cls-10" d="M27.49,62.43a12.43,12.43,0,0,0-4.94-6.63A11,11,0,0,0,17,54.32C10,54.33,5.67,59.35,5.67,66a11,11,0,0,0,3.22,7.77C16.75,81.67,30.65,73.15,27.49,62.43Z"/><path class="cls-10" d="M67.76,15.33a5,5,0,0,0-3-2.34A5.08,5.08,0,0,0,60,21.67a4.85,4.85,0,0,0,7.27.46l.75-1a4.9,4.9,0,0,0,.67-2.45A6.54,6.54,0,0,0,67.76,15.33Z"/><path class="cls-11" d="M101.54,40.08a2.62,2.62,0,0,0-1.85-.76,2.7,2.7,0,0,0-1.84.76l-.19.17A2.62,2.62,0,1,0,101.37,44l.17-.19a2.71,2.71,0,0,0,.77-1.84A2.63,2.63,0,0,0,101.54,40.08Z"/><path class="cls-11" d="M110.3,36.9a1.84,1.84,0,0,0,0,3.68A1.84,1.84,0,0,0,110.3,36.9Z"/><path class="cls-11" d="M115.83,27a2.43,2.43,0,0,0-.75-1.86l0-.05-.12-.1-.13-.11a2.45,2.45,0,0,0-.38-.24l0,0-.37-.16-.24-.07-.17,0a2.38,2.38,0,0,0-.46,0,2.49,2.49,0,0,0-.47,0l-.17,0-.23.07-.38.16,0,0a2.92,2.92,0,0,0-.37.24.69.69,0,0,0-.13.11l-.12.1a.1.1,0,0,0,0,.05,2.39,2.39,0,0,0-.75,1.86,2.71,2.71,0,1,0,5.4,0Z"/><path class="cls-12" d="M74.5,47.59l0,0a2.12,2.12,0,0,0-2-.53A2,2,0,0,0,73,51a2.13,2.13,0,0,0,1.44-.6l0,0A2,2,0,0,0,74.5,47.59Z"/><path class="cls-12" d="M78.49,38.67a1.84,1.84,0,0,0,0,3.68A1.84,1.84,0,0,0,78.49,38.67Z"/><path class="cls-12" d="M72.3,39.27a3,3,0,0,0-.41-1.51,3.1,3.1,0,0,0-1.08-1.08,3,3,0,0,0-3.63,4.72,3.16,3.16,0,0,0,2.12.87A2.92,2.92,0,0,0,72.3,39.27Z"/><path class="cls-12" d="M33.42,24.07a1.6,1.6,0,1,0,1.6,1.6A1.61,1.61,0,0,0,33.42,24.07Z"/><path class="cls-12" d="M45.82,22.15a2.56,2.56,0,0,0-.92-.93,2.51,2.51,0,0,0-2-.26c-.26.1-.51.2-.75.32A2.55,2.55,0,0,0,41,22.85a2.67,2.67,0,0,0,.68,2.55,2.64,2.64,0,0,0,4.12-.53l.06-.13A2.63,2.63,0,0,0,45.82,22.15Z"/><path class="cls-12" d="M39.43,28.24a1.85,1.85,0,0,0,0,3.69A1.85,1.85,0,0,0,39.43,28.24Z"/><path class="cls-12" d="M49.5,79.63a1,1,0,0,0,0,2A1,1,0,0,0,49.5,79.63Z"/><path class="cls-12" d="M43.21,78.05a2.56,2.56,0,0,0-2.48,4.28,2.68,2.68,0,0,0,1,.6,2.24,2.24,0,0,0,1.76.24,2.31,2.31,0,0,0,1-.59l.36-.47A2.32,2.32,0,0,0,45.14,81,2.68,2.68,0,0,0,43.21,78.05Z"/><path class="cls-12" d="M81.31,10.48a1.86,1.86,0,0,0-.71-.71,1.89,1.89,0,0,0-1.52-.2L79,9.6a2.21,2.21,0,0,0-1.2.92,2,2,0,1,0,3.45,2,.16.16,0,0,0,0-.07A2,2,0,0,0,81.31,10.48Z"/><path class="cls-13" d="M118.44,115.78c-1.53-2.45-8.37-1-15.28,3.36s-11.26,9.8-9.73,12.26l.13.18c1.31-3.18,4.36-7.38,10.06-10.87,7.39-4.53,13.95-3.92,12.94.72C118.45,119.12,119.23,117.05,118.44,115.78Z"/><path class="cls-10" d="M54,99.94a4.38,4.38,0,0,0-1-2.36C50,93.93,40.59,94,36.76,96.22c-6.65,3.77.47,10.39,4.89,11.63,2.81.78,6.8,1,9.15-1.08C52.61,105.2,54.21,102.41,54,99.94Z"/><path class="cls-3" d="M216.76,99.94c-3.65-17.11-19.7-34.82-34.17-27.3-9.81,5.09-10.54,17.44-9,27.21,1.5,9.34,4.66,18.58,13.43,23.23,7.78,4.13,18.14,4.46,24.92-1.85C217.41,116.15,218.5,108.11,216.76,99.94Z"/><path class="cls-14" d="M175.85,97.25a20.76,20.76,0,0,0-.54-10.31c-2.39-6.77-8.7-11.26-15.42-13.25-8.82-2.62-19.69,2.72-22.13,9.78-3.21,5.5-2,12.76.91,18.9,3,6.49,9.8,8.92,16.34,9.75,5.69.72,11.64-2.16,16-5.57C173.55,104.49,175.17,101,175.85,97.25Z"/><path class="cls-14" d="M229.32,47.55a16.34,16.34,0,0,0-3-.3c-8.58-.07-18,5.54-18.87,14.82-.79,8.6,5.95,16.76,13.61,19.59,8.67,3.22,18.08-3.35,20.63-11.49C244.89,60,239.05,49.44,229.32,47.55Z"/><path class="cls-2" d="M172.13,105.15s-.65-19.42-5.4-31.3,8-10.35,8-10.35l21.15-6,32.38,26.33s-4.53,23.32-12.31,23.75c0,0-17.91-33.67-22.88-29.14s7.78,31.51,7.78,32.16-13,3.89-13,3.89-5.82-27.42-9.71-27,1.3,20.94,1.3,20.94Z"/><path class="cls-5" d="M152.78,43.8s16.45,28.38,1.17,56.26l10.41,7.68s-.25-2,2.15-11.65c2.81-11.23,3.87-30.41,10.74-21.24a129.27,129.27,0,0,1,18,35.52l9.93-5s-17.95-33.62-14.52-37.82,30.95,19.1,30.95,19.1L232.64,68s-34.53-8.31-47.06-37.77Z"/><path class="cls-3" d="M192.63,123.55c-7.47-7.74-23.11-10.7-31-2a16.71,16.71,0,0,0-1.36,1.71,6.13,6.13,0,0,0-2,2.16c-15.93,28.58,32.25,46.14,39.49,15.28A18.49,18.49,0,0,0,192.63,123.55Z"/><path class="cls-3" d="M245.81,104.19c-6.4-5.11-14-7.27-21.7-3.63-7.17,3.37-10.12,13.26-10.76,20.51-1.23,14,15.7,23.14,27.83,18.2A19.85,19.85,0,0,0,254.05,121C254.29,114.82,250.6,108,245.81,104.19Z"/><path class="cls-15" d="M185.58,30.2c1.3,3.13-5,8.7-14.05,12.46s-17.46,4.27-18.75,1.14,5-8.7,14.06-12.45S184.29,27.08,185.58,30.2Z"/><path class="cls-16" d="M268,79.44c-.52-7.3-2.92-14.26-7.25-19.12-5.17-5.81-11.66-8-19.44-4.86-5.8,2.32-14.34,10.81-12.91,17.82-12.39-7.14-24.46,9-22.07,20.15-7.78-8.43-26.92-5.32-26,8.41C166.05,88,134.66,98,135,119.4c.24,14.7,15.48,25.92,27.19,13.16,6.2,15.17,28.56,17.89,33.5,0,1.68,6.58,13,13.86,27.61,7.32,9.71-4.36,12.13-15.84,8.6-27.22.11,3.59,16.88,4,26.26-4.44C265.42,101.68,268.75,90.2,268,79.44Z"/><path class="cls-9" d="M260.72,60.32c-5.17-5.81-11.66-8-19.44-4.86-5.8,2.32-14.34,10.81-12.91,17.82,4.12-11.12,20.32-17.15,23.76-12.56s-5,14.51-5,14.51,16,10.31,3.06,24.07-29-1.53-29-1.53,10.72,14.87-5,25.21-24.45-8.79-24.45-8.79-2.29,19.87-13,21.78-17.17-14.42-17.17-14.42c-12.72,15.69-22,8.87-24.78,6.17,4.43,9.94,16,15,25.36,4.84,6.2,15.17,28.56,17.89,33.5,0,1.68,6.58,13,13.86,27.61,7.32,9.57-4.3,12-15.5,8.75-26.71,1.64,3.09,17.2,3.06,26.11-5,7.26-6.52,10.59-18,9.81-28.76C267.45,72.14,265.05,65.18,260.72,60.32Z"/><path class="cls-8" d="M195.69,132.54c1.68,6.58,13,13.86,27.61,7.32,9.57-4.3,12-15.5,8.75-26.71,1.64,3.09,17.2,3.06,26.11-5,7.26-6.52,10.59-18,9.81-28.76-.52-7.3-2.92-14.26-7.25-19.12-5.17-5.81-11.66-8-19.44-4.86-5.8,2.32-14.34,10.81-12.91,17.82-12.39-7.14-24.46,9-22.07,20.15-7.78-8.43-26.92-5.32-26,8.41,0,0,6.64-9.53,17.54-7.89,7.64,1.14,13,12.22,3.44,19.86,0,0,23.69-8.78,25.21,11.08S198.46,137.53,195.69,132.54Z"/><path class="cls-10" d="M159.62,103.06c-8.19-5.27-21.89,5.76-19.76,14.67C143.42,132.64,176.09,113.66,159.62,103.06Z"/><path class="cls-10" d="M223.54,77.16c-1.68-1-3.8-1.5-7,.28-4.82,2.7-6.6,10.93-1.28,14C224.87,97.09,230.35,81.34,223.54,77.16Z"/><path class="cls-11" d="M260.36,72.35c-.13-.13-.27-.25-.39-.38a3.53,3.53,0,0,0-5,5l.37.39a3.54,3.54,0,1,0,5-5Z"/><path class="cls-11" d="M247.68,81.68l-.1-.23a2.27,2.27,0,0,0-3.89,0l-.1.23C241.61,86.14,249.65,86.14,247.68,81.68Z"/><path class="cls-11" d="M260.53,84.7c-2.57,0-2.57,4,0,4S263.1,84.7,260.53,84.7Z"/><path class="cls-12" d="M220.84,127.53a3.3,3.3,0,0,0-5.17.67,2,2,0,0,0-.14.25l-.33.77a3.34,3.34,0,0,0,0,1.72,2.14,2.14,0,0,0,.43.94v0h0a1,1,0,0,0,.13.17l0,0a2.76,2.76,0,0,0,.81.75,3,3,0,0,0,.74.32,3.35,3.35,0,0,0,1.75,0,3.72,3.72,0,0,0,1.54-.89l.19-.15a3.3,3.3,0,0,0,0-4.65Z"/><path class="cls-12" d="M206.67,129.78c-2.57,0-2.57,4,0,4S209.23,129.78,206.67,129.78Z"/><path class="cls-12" d="M175,122.89a4.87,4.87,0,0,0-2.81,1.1,3.49,3.49,0,0,0-1,2.43,3.52,3.52,0,0,0,1,2.43,3.31,3.31,0,0,0,1.62.87,3.44,3.44,0,0,0,1.19.22,3.53,3.53,0,1,0,0-7Z"/><path class="cls-12" d="M170.25,117.9c0-.11-.05-.23-.07-.34a1.77,1.77,0,0,0-3.42,0c0,.11,0,.23-.07.34a1.92,1.92,0,0,0,.18,1.43,1.88,1.88,0,0,0,1.6.92,1.82,1.82,0,0,0,1.3-.55A1.86,1.86,0,0,0,170.25,117.9Z"/><path class="cls-12" d="M197.08,98.56a3.21,3.21,0,0,0-4.66-1.89,3.37,3.37,0,0,0-1.19,1.21,2.83,2.83,0,0,0-.39,2.1,4.06,4.06,0,0,0,.14.76,3,3,0,0,0,2.73,2.34,3.65,3.65,0,0,0,2.36-1.12,2.28,2.28,0,0,0,.65-.86A3.38,3.38,0,0,0,197.08,98.56Z"/><path class="cls-17" d="M156,84.56a6.31,6.31,0,0,0-2-4,5.78,5.78,0,0,0-2.52-1.46c-4.59-1.27-7.88,1.87-10.06,5.47a6.57,6.57,0,0,0,7.42,9.64C152.52,92.64,156.28,88.56,156,84.56Z"/><path class="cls-18" d="M167.18,34c-3.39-.11-7,2.1-9.4,4.38-1.85,1.78-3.7,4.63.1,5.24s14.08-1.13,13-6.77C170.64,35.27,168.73,34.05,167.18,34Z"/></g></g></g></svg>