<svg xmlns="http://www.w3.org/2000/svg" xmlns:xlink="http://www.w3.org/1999/xlink" viewBox="0 0 260.65 162.9"><defs><style>.cls-1{isolation:isolate;}.cls-2{fill:#a49978;}.cls-3{fill:#3d4928;}.cls-11,.cls-3,.cls-8{opacity:0.3;}.cls-14,.cls-3,.cls-8{mix-blend-mode:multiply;}.cls-4{fill:#fccd39;}.cls-5,.cls-7{opacity:0.7;}.cls-16,.cls-6,.cls-7{fill:#e1a027;}.cls-8{fill:#97a479;}.cls-11,.cls-9{fill:#fff;}.cls-14,.cls-17,.cls-9{opacity:0.4;}.cls-11,.cls-17,.cls-9{mix-blend-mode:overlay;}.cls-10{fill:url(#linear-gradient);}.cls-12{fill:#a8ba38;}.cls-13{fill:#f1f0a2;}.cls-14{fill:#dce19b;}.cls-15{fill:#3c5d2c;}.cls-16{opacity:0.8;}.cls-17{fill:#e7e5ba;}</style><linearGradient id="linear-gradient" x1="146.88" y1="27.66" x2="160.17" y2="118.44" gradientUnits="userSpaceOnUse"><stop offset="0" stop-color="#61833a"/><stop offset="1" stop-color="#3c5d2c"/></linearGradient></defs><title>Asset 19</title><g class="cls-1"><g id="Layer_2" data-name="Layer 2"><g id="Layer_1-2" data-name="Layer 1"><path class="cls-2" d="M236,28.91s15.64-4.72,18.59-3.24,7.08,11.36,5.9,13.57c-2.65,5-18,10.33-18,10.33S234.77,31.86,236,28.91Z"/><path class="cls-3" d="M260.44,39.24a5.13,5.13,0,0,0-.07-3.09c-9,8.35-13.34-3.75-14.88-9.72-4.77,1-9.54,2.48-9.54,2.48-1.18,2.95,6.49,20.66,6.49,20.66S257.79,44.26,260.44,39.24Z"/><path class="cls-4" d="M229.46,21.83c-7.42-.58-17.55,2.16-23.61,2.36a359.36,359.36,0,0,1-49.33-1.37C116.88,19,87-4.33,42.22.71,27,2.43,10.9,7.62,3.86,22.43a40.79,40.79,0,0,0,7.77,45.76c21.17,22,64,22.74,92.33,22.17,30.8-.63,69-3.73,98.64-11.87,16.29-4.46,56.66-15.93,43.18-45.06A19.51,19.51,0,0,0,229.46,21.83Z"/><g class="cls-5"><path class="cls-6" d="M66.12,79c5,.58,10.15.6,15.22.89s10.61,1.19,15.49,0a1,1,0,0,0,0-2c-4.91-1.25-10.45-.82-15.49-1S71,76.41,65.9,77.32c-1,.19-.65,1.57.22,1.67Z"/></g><g class="cls-5"><path class="cls-6" d="M46.66,58.56c4,1.59,9,3.45,13.35,2.55,1.12-.24.84-1.65,0-2a34.82,34.82,0,0,0-6.4-1.5c-2.12-.44-4.21-.88-6.35-1.22a1.13,1.13,0,0,0-.6,2.17Z"/></g><g class="cls-5"><path class="cls-6" d="M72.63,62.08c2.16.18,4.33,1.66,6.53.85a1,1,0,0,0,0-1.89c-2.08-.85-4.37-.34-6.53-.23a.64.64,0,0,0,0,1.27Z"/></g><g class="cls-5"><path class="cls-6" d="M205,35.87a42.62,42.62,0,0,0,11.25,1.34c3.94-.05,8.39-.21,12.15-1.5a1.2,1.2,0,0,0-.32-2.35c-3.55-.42-7.28.34-10.81.67a111.45,111.45,0,0,1-12.11.7.58.58,0,0,0-.16,1.14Z"/></g><path class="cls-6" d="M202.69,64.49c3.22-.49,6.49-.64,9.72-1.12,2.64-.39,5.69-.72,7.77-2.51a1.07,1.07,0,0,0-.75-1.82c-2.59.14-5.16,1.29-7.71,1.8a66.16,66.16,0,0,0-9.38,2.4.65.65,0,0,0,.35,1.25Z"/><g class="cls-5"><path class="cls-6" d="M76,35.64c2.11.8,4.71,1.74,7,1.06a1.07,1.07,0,0,0,0-2,18.48,18.48,0,0,0-3.14-.49,27.32,27.32,0,0,1-3.23-.7,1.13,1.13,0,0,0-.6,2.17Z"/></g><path class="cls-7" d="M93.18,38.1a21.93,21.93,0,0,0,4.13.14,1.06,1.06,0,0,0,0-2.11,21.93,21.93,0,0,0-4.13.14.92.92,0,0,0,0,1.83Z"/><path class="cls-7" d="M21.16,29.46A59.1,59.1,0,0,0,31,30.94c3.44.26,6.89.81,10.34.86.94,0,1.45-1.45.51-1.87C35.67,27.2,28,28,21.41,27.6a1,1,0,0,0-.25,1.86Z"/><path class="cls-7" d="M178.47,33.53c2,.06,4,.15,6,.09a1.32,1.32,0,0,0,0-2.64c-2-.06-4,0-6,.1a1.23,1.23,0,0,0,0,2.45Z"/><path class="cls-7" d="M33.55,72a13.09,13.09,0,0,0,3.88,2.25c1.54.58,3.35,1.34,5,1.19a1.09,1.09,0,0,0,.55-2A12,12,0,0,0,39.2,72c-1.59-.47-3.19-1-4.78-1.52-.83-.27-1.58.93-.87,1.51Z"/><g class="cls-5"><path class="cls-6" d="M233.63,43.56c1.46-.32,3.41-.3,4.21-1.8a.88.88,0,0,0-.76-1.31,8.07,8.07,0,0,0-1.94.4c-.7.19-1.42.3-2.12.48a1.16,1.16,0,0,0,.61,2.23Z"/></g><path class="cls-8" d="M180.21,47.35C103.09,55.2,71.32,39.14,32.4,38.42,10.71,38,8.05,53,10,66.41c.52.61,1.05,1.2,1.6,1.78,21.17,22,64,22.74,92.33,22.17,30.8-.63,69-3.73,98.64-11.87,9.81-2.69,28.35-7.92,38.6-18C243.83,46.68,232.31,42,180.21,47.35Z"/><path class="cls-9" d="M140.8,24.31C116.16,20.38,93.49,11,84.65,9.07,76.09,7.2,65.81,4.15,57,3.92,44,3.58,28.83,5.69,18.29,14c-6.57,5.18-2.79,7.11,13.3,8.84,12.12,1.29,64.06,6.32,107.72,8.61C145.29,31.77,145.76,25.1,140.8,24.31Z"/><path class="cls-3" d="M109.27,47.09C84.63,56.4,82.57,79.79,83,90.32c7.45.23,14.59.17,21,0,30.8-.63,69-3.73,98.64-11.87,7.12-1.95,18.85-5.24,28.66-10.76a27.37,27.37,0,0,0-4.91-17.05C209.62,26.31,141.52,34.91,109.27,47.09Z"/><path class="cls-10" d="M109,53S135.74,39.53,172.26,39s43.42,26.75,29.91,45.73-46.88,39.68-81.1,44.28S109,53,109,53Z"/><path class="cls-7" d="M152.66,68.31a25.86,25.86,0,0,0-4.41,1.27,1.68,1.68,0,0,0,.44,3.29,20.59,20.59,0,0,0,4.28-.44c1.24-.22,2.78-.87,2.78-2.37S153.87,68.12,152.66,68.31Z"/><path class="cls-7" d="M172.42,53.91c-1.8-.57-3.61.17-5.35.67-2.06.58-4.56.75-6.34,2-.69.49-.94,1.76,0,2.19,2.14,1,4.42.36,6.63-.11s4.49-1.07,5.81-2.88A1.27,1.27,0,0,0,172.42,53.91Z"/><path class="cls-7" d="M187.43,81c-4,1.83-7.67,4.31-11.55,6.35a92.39,92.39,0,0,1-12.72,5.18.71.71,0,0,0,.18,1.39c4.68.18,9.09-1.49,13.31-3.32a50.52,50.52,0,0,0,12.49-7.38C190.45,82.07,188.78,80.35,187.43,81Z"/><path class="cls-7" d="M198.58,64.78a3.17,3.17,0,0,0-2.35.6,12.56,12.56,0,0,1-2.2,1c-1.18.4-1.06,2.46.31,2.29a9.36,9.36,0,0,0,2.75-.75c.82-.36,1.75-.68,2.14-1.55A1.12,1.12,0,0,0,198.58,64.78Z"/><path class="cls-8" d="M177.05,39c6.09,5.8,12,14,11.13,22.94-1.66,17.16-52.58,26.57-52.58,26.57-14.78,12.66-24.22,23.81-29.44,33.43,2.94,5.1,7.65,8,14.91,7,34.22-4.6,67.58-25.3,81.1-44.28C215.07,66.56,209.37,40.84,177.05,39Z"/><path class="cls-11" d="M117.22,53.72s-29.31,36.82,4.89,30.81,61.62-26.3,51.1-36.45S117.22,53.72,117.22,53.72Z"/><path class="cls-12" d="M145.41,88.75c1.63,21.22-10.13,39.43-26.28,40.67s-30.56-14.94-32.2-36.16,10.13-39.44,26.28-40.68S143.77,67.53,145.41,88.75Z"/><path class="cls-13" d="M141.85,89c1.44,18.64-8.9,34.64-23.08,35.73S91.93,111.62,90.49,93s8.9-34.63,23.08-35.72S140.41,70.38,141.85,89Z"/><path class="cls-3" d="M133,123.44c-6.4-13-35.15-15.8-42.28-14.59,5.61,13,16.53,21.49,28.39,20.57A24,24,0,0,0,133,123.44Z"/><path class="cls-14" d="M125.57,86.29c-1.4,1.24.07,3.62,1.8,3.1.87-.27,1.38-.64,1.68.34a2.17,2.17,0,0,1-1.22,2.53c-1.79,1-4.36,0-6.1-.6-5.85-1.88-6.18-3.6-5.26-9.22A27.11,27.11,0,0,1,119.36,73c.66-1.13,2.5-3.38,3.7-1.64,1,1.44,0,1-.89,1.72a1.53,1.53,0,0,0-.31,2.36c2,2.27,5.17-.18,5.21-2.67s-1.7-5.24-4.33-5.59c-3.82-.51-6.5,3.59-7.63,6.68l0,0a8.65,8.65,0,0,0-3.2-3.51c-2.28-1.4-6.74-.91-8,1.81s.78,5.62,3.94,4.78a1.54,1.54,0,0,0,.91-2.25c-.17-.25-.28-.43-.35-.56a2.5,2.5,0,0,1,1.15,0c1.51.31,2,2.16,2.4,3.41,1.94,6.54,1.51,13.36-4.77,16.94-3.16,1.81-7.34,2.23-8.33-1.89a3.22,3.22,0,0,1,.73-2.67,6.24,6.24,0,0,0,.4.67c.55.78,2,1.1,2.49,0,1.43-3.34-1.66-6.66-4.92-4.36-2.9,2-3.37,6.53-2.09,9.72,1.66,4.11,5.45,3.72,9,3.27-1.28.16-1.19,4.44-1.2,5.23a5,5,0,0,0,4.92,5.24c3.14,0,4.44-3,3-5.5-1.16-2-3.95-.25-3.06,1.79l-.64-.22a1.46,1.46,0,0,1-.53-1.31,7.5,7.5,0,0,1,.27-2A9.82,9.82,0,0,1,109.56,98c1.82-2,3.4-5,6.44-4.4,2.61.55,5.59,3.88,7.08,5.92a18.86,18.86,0,0,1,2.59,4.69c.22.65.56,1.75-.54,1.57s-.39-.89-.21-1.69-.42-2-1.43-1.88c-3.93.47-3.59,4.95-.81,6.75a4.5,4.5,0,0,0,7-3.53c.15-3.24-2.57-6.81-4.71-9.17,2.78.39,5.38-.26,7.16-3C134.92,89,130.06,82.31,125.57,86.29Z"/><path class="cls-15" d="M121.64,144.35c-2.16,10-17.12,18.55-38.25,18.55S47.45,156.14,46,144.78c-.46-3.63-2.62-15.24,1.15-18.12,6.79-5.17,22.66-.86,36.23-.86,9.26,0,27.61-7.83,34.23-5.18C126.1,124,122.79,139,121.64,144.35Z"/><path class="cls-16" d="M89.66,144.92c-.12-2.21-.27-4.43-.4-6.64a1.27,1.27,0,0,0-2.53,0c-.11,2.22-.08,4.42,0,6.64.05,1.93-.11,3.78.68,5.57a1.07,1.07,0,0,0,1.84,0C90,148.67,89.77,146.87,89.66,144.92Z"/><path class="cls-12" d="M122.79,127.38c0,9.14-17.12,16.54-38.24,16.54s-38.25-7.4-38.25-16.54,17.12-16.53,38.25-16.53S122.79,118.25,122.79,127.38Z"/><path class="cls-13" d="M119.32,127.66c0,7.64-15.57,13.83-34.77,13.83s-34.78-6.19-34.78-13.83,15.57-13.82,34.78-13.82S119.32,120,119.32,127.66Z"/><path class="cls-14" d="M99.55,122.92a1.2,1.2,0,0,0,1.45,1.45l.64-.11c.84-.57,1.2-.12,1.07,1.35a11,11,0,0,1-3.73.94c-4.35.25-12.81.42-13.57-1.52-.65-1.65,2.18-3.28,2.41-4.73a1.48,1.48,0,0,0,.58,1.4,2.68,2.68,0,0,0,4.17-1.4A2.85,2.85,0,0,0,90.38,117c-2.09-.58-4.33,1.07-5.5,2.62a10.36,10.36,0,0,0-1.38,2.48,14.47,14.47,0,0,0-8.23-4.87c-2.33-.41-5.16.67-5.36,3.3s3.6,3.2,5.32,2.94c1-.15,1-1.5.25-1.93-.48-.3-1-.58-1.48-.84-1-.47-.18-.16.27-.18a8.51,8.51,0,0,1,3.46.84c2.14.93,5.84,3.48,3.75,5.88-1.26,1.44-3.62,2-5.36,2.66a29.76,29.76,0,0,1-3.5,1c-1.65.34-2.63-.15-3-1.46l.11.08c.87,1,2.23-.1,2-1.18-.29-1.68-1.94-3-3.61-2-1.94,1.13-1.84,3.64-.85,5.34,2,3.4,6.62,2.61,10.64.68a1.34,1.34,0,0,1-.06.12c-.79,1.89-1.25,4.35.31,6,2.53,2.63,7.6-1.4,4.66-3.84A1.43,1.43,0,0,0,80.54,136c0,.06,0,.31.08.46h0c-.52.18-.64-.26-.67-.77-.13-2.4,2-6.13,4.32-6.94,1.6-.56,9.71.61,11.78,1,1.19.21,3.39.74,3.58,2.24.15,1.27-2.95,1.78-3.69,2-2.19.59-1.22,3.63.91,3.31,4-.6,7.36-4.5,4.2-8.07a3.41,3.41,0,0,0-.38-.38,5.68,5.68,0,0,0,4.22-1.39C109.25,122.67,101.11,117.93,99.55,122.92Z"/><path class="cls-3" d="M46.3,127.38c0,.08,0,.15,0,.22-2.56,3.9-.72,13.87-.3,17.18,1.26,9.94,12.77,16.36,29.79,17.81L75,143.78c14.93-10.16,12.25-25.42,9.71-32.93h-.2C63.42,110.85,46.3,118.25,46.3,127.38Z"/><path class="cls-16" d="M106.77,149.52a1.08,1.08,0,0,0-2.16,0,18.82,18.82,0,0,0,0,3.44,1.09,1.09,0,0,0,2.1,0A18,18,0,0,0,106.77,149.52Z"/><path class="cls-15" d="M76.69,100.25c3.32,10.16-5.46,24.14-21.55,35.31-15.3,10.62-32.6,12.78-39.81,6.2C10.74,137.57,2.65,128.38,6.55,122s20.67-9.5,29.28-15.27c8.35-5.58,18.57-20,25.81-21.26C69.37,84.09,75.16,95.56,76.69,100.25Z"/><path class="cls-16" d="M42.22,122.28c-1.09-2.1-4.18-.25-3.16,1.85s1.78,4.64,3.69,6a1.45,1.45,0,0,0,2.17-1.24C45,126.6,43.23,124.26,42.22,122.28Z"/><path class="cls-3" d="M63.85,85.41c-2.1,4.69-4.18,11.43-6.17,20.75,0,0,7.37,8.43,11.72,16.61,6.56-7.91,9.42-16,7.29-22.52C75.31,96,70.46,86.28,63.85,85.41Z"/><path class="cls-12" d="M68.32,87.28c4.66,7-5.53,22-22.76,33.51S10.57,136,5.9,129.06s5.53-22,22.76-33.51S63.65,80.31,68.32,87.28Z"/><path class="cls-13" d="M64.67,89.72c3.92,5.85-5.25,18.85-20.47,29s-30.74,13.71-34.65,7.86,5.25-18.85,20.47-29S60.75,83.87,64.67,89.72Z"/><path class="cls-17" d="M30.58,99.07c-10,2.24-22.31,13.89-22.9,22.52-.57,8.35,7.4,6.92,14.11,3.66,8.07-3.93,20.15-13.55,18.57-21.85C39.49,98.83,35.11,98.07,30.58,99.07Z"/><path class="cls-16" d="M30.24,136.4a3,3,0,0,0-1.71-1.32,1.24,1.24,0,0,0-1.5,1.5,5.59,5.59,0,0,0,.76,1.55c.16.27.3.54.47.8a2.31,2.31,0,0,0,.67.72c.09.07.4.3,0,0a1.44,1.44,0,0,0,1.34.36,1.37,1.37,0,0,0,1-1.33A3.58,3.58,0,0,0,30.24,136.4Z"/><path class="cls-16" d="M57.35,126.19l-.19-.22a2.26,2.26,0,0,1-.15-.18,2.83,2.83,0,0,1-.29-.47,1.44,1.44,0,1,0-2.49,1.46,6.72,6.72,0,0,0,1,1.34,2.47,2.47,0,0,0,1.83.93,1.11,1.11,0,0,0,1.11-1.11A2.61,2.61,0,0,0,57.35,126.19Z"/></g></g></g></svg>